G04 Layer_Color=8388736*
%FSLAX44Y44*%
%MOMM*%
G71*
G01*
G75*
%ADD21R,1.0000X1.0000*%
%ADD53R,0.7600X1.8600*%
%ADD54R,1.1600X2.9600*%
%ADD55R,1.8600X0.7600*%
%ADD56R,2.9600X1.1600*%
%ADD57R,3.6144X1.8110*%
%ADD58R,1.4300X2.7000*%
%ADD59R,1.2100X1.2600*%
%ADD60R,1.2600X1.2100*%
%ADD61O,0.3500X1.6500*%
%ADD62O,1.6500X0.3500*%
%ADD63R,1.2100X1.0600*%
%ADD64R,1.0600X1.2100*%
%ADD65R,1.5600X1.9600*%
%ADD66O,0.5500X1.6500*%
%ADD67O,1.8100X0.8100*%
G04:AMPARAMS|DCode=68|XSize=3.66mm|YSize=2.21mm|CornerRadius=0.5925mm|HoleSize=0mm|Usage=FLASHONLY|Rotation=90.000|XOffset=0mm|YOffset=0mm|HoleType=Round|Shape=RoundedRectangle|*
%AMROUNDEDRECTD68*
21,1,3.6600,1.0250,0,0,90.0*
21,1,2.4750,2.2100,0,0,90.0*
1,1,1.1850,0.5125,1.2375*
1,1,1.1850,0.5125,-1.2375*
1,1,1.1850,-0.5125,-1.2375*
1,1,1.1850,-0.5125,1.2375*
%
%ADD68ROUNDEDRECTD68*%
G04:AMPARAMS|DCode=69|XSize=4.16mm|YSize=2.21mm|CornerRadius=0.5925mm|HoleSize=0mm|Usage=FLASHONLY|Rotation=90.000|XOffset=0mm|YOffset=0mm|HoleType=Round|Shape=RoundedRectangle|*
%AMROUNDEDRECTD69*
21,1,4.1600,1.0250,0,0,90.0*
21,1,2.9750,2.2100,0,0,90.0*
1,1,1.1850,0.5125,1.4875*
1,1,1.1850,0.5125,-1.4875*
1,1,1.1850,-0.5125,-1.4875*
1,1,1.1850,-0.5125,1.4875*
%
%ADD69ROUNDEDRECTD69*%
G04:AMPARAMS|DCode=70|XSize=3.66mm|YSize=2.21mm|CornerRadius=0.5925mm|HoleSize=0mm|Usage=FLASHONLY|Rotation=90.000|XOffset=0mm|YOffset=0mm|HoleType=Round|Shape=RoundedRectangle|*
%AMROUNDEDRECTD70*
21,1,3.6600,1.0250,0,0,90.0*
21,1,2.4750,2.2100,0,0,90.0*
1,1,1.1850,0.5125,1.2375*
1,1,1.1850,0.5125,-1.2375*
1,1,1.1850,-0.5125,-1.2375*
1,1,1.1850,-0.5125,1.2375*
%
%ADD70ROUNDEDRECTD70*%
G04:AMPARAMS|DCode=71|XSize=2.96mm|YSize=0.66mm|CornerRadius=0.205mm|HoleSize=0mm|Usage=FLASHONLY|Rotation=90.000|XOffset=0mm|YOffset=0mm|HoleType=Round|Shape=RoundedRectangle|*
%AMROUNDEDRECTD71*
21,1,2.9600,0.2500,0,0,90.0*
21,1,2.5500,0.6600,0,0,90.0*
1,1,0.4100,0.1250,1.2750*
1,1,0.4100,0.1250,-1.2750*
1,1,0.4100,-0.1250,-1.2750*
1,1,0.4100,-0.1250,1.2750*
%
%ADD71ROUNDEDRECTD71*%
%ADD72C,1.5100*%
%ADD73R,1.5100X1.5100*%
%ADD74C,2.1600*%
%ADD75C,5.1600*%
%ADD76R,1.6600X1.6600*%
%ADD77C,1.6000*%
%ADD78C,1.6600*%
%ADD79C,1.0600*%
D21*
X429000Y31950D02*
D03*
Y14950D02*
D03*
D53*
X196525Y54500D02*
D03*
X184025D02*
D03*
X171525D02*
D03*
X159025D02*
D03*
X100500D02*
D03*
X88000D02*
D03*
X75500D02*
D03*
X63000D02*
D03*
D54*
X140525Y21000D02*
D03*
X215025D02*
D03*
X44500D02*
D03*
X119000D02*
D03*
D55*
X447000Y335500D02*
D03*
Y323000D02*
D03*
Y273000D02*
D03*
Y285500D02*
D03*
Y298000D02*
D03*
Y310500D02*
D03*
D56*
X480500Y354000D02*
D03*
Y254500D02*
D03*
D57*
X357102Y31650D02*
D03*
X249100D02*
D03*
D58*
X288000Y66194D02*
D03*
X318240D02*
D03*
D59*
X256250Y241000D02*
D03*
X269750D02*
D03*
X382750Y208000D02*
D03*
X369250D02*
D03*
X324750Y105000D02*
D03*
X311250D02*
D03*
D60*
X228000Y145250D02*
D03*
Y158750D02*
D03*
X191000Y103250D02*
D03*
Y116750D02*
D03*
X96000Y213750D02*
D03*
Y200250D02*
D03*
X116000D02*
D03*
Y213750D02*
D03*
X82000Y158250D02*
D03*
Y171750D02*
D03*
X100000D02*
D03*
Y158250D02*
D03*
X118000D02*
D03*
Y171750D02*
D03*
X411000Y184000D02*
D03*
Y197500D02*
D03*
Y166750D02*
D03*
Y153250D02*
D03*
D61*
X318500Y135750D02*
D03*
X313500D02*
D03*
X308500D02*
D03*
X303500D02*
D03*
X298500D02*
D03*
X293500D02*
D03*
X288500D02*
D03*
X283500D02*
D03*
X278500D02*
D03*
X273500D02*
D03*
X268500D02*
D03*
X263500D02*
D03*
Y216250D02*
D03*
X268500D02*
D03*
X273500D02*
D03*
X278500D02*
D03*
X283500D02*
D03*
X288500D02*
D03*
X293500D02*
D03*
X298500D02*
D03*
X303500D02*
D03*
X308500D02*
D03*
X313500D02*
D03*
X318500D02*
D03*
D62*
X250750Y148500D02*
D03*
Y153500D02*
D03*
Y158500D02*
D03*
Y173500D02*
D03*
Y178500D02*
D03*
Y183500D02*
D03*
Y188500D02*
D03*
Y193500D02*
D03*
Y198500D02*
D03*
Y203500D02*
D03*
X331250D02*
D03*
Y198500D02*
D03*
Y193500D02*
D03*
Y188500D02*
D03*
Y183500D02*
D03*
Y178500D02*
D03*
Y173500D02*
D03*
Y168500D02*
D03*
Y163500D02*
D03*
Y158500D02*
D03*
Y153500D02*
D03*
Y148500D02*
D03*
X250750Y168500D02*
D03*
Y163500D02*
D03*
D63*
X392000Y29950D02*
D03*
Y15950D02*
D03*
X410000Y29950D02*
D03*
Y15950D02*
D03*
X388000Y277000D02*
D03*
Y263000D02*
D03*
X374000Y277000D02*
D03*
Y263000D02*
D03*
X360000Y277000D02*
D03*
Y263000D02*
D03*
X144000Y63000D02*
D03*
Y77000D02*
D03*
X345000Y263000D02*
D03*
Y277000D02*
D03*
D64*
X408000Y269000D02*
D03*
X422000D02*
D03*
X408000Y255000D02*
D03*
X422000D02*
D03*
X352000Y91000D02*
D03*
X338000D02*
D03*
X285000Y109000D02*
D03*
X271000D02*
D03*
D65*
X368000Y190799D02*
D03*
Y164799D02*
D03*
X388000D02*
D03*
Y190799D02*
D03*
D66*
X184000Y212250D02*
D03*
X177500D02*
D03*
X138500Y151750D02*
D03*
X145000D02*
D03*
X151500D02*
D03*
X158000D02*
D03*
X164500D02*
D03*
X171000D02*
D03*
X177500D02*
D03*
X184000D02*
D03*
X138500Y212250D02*
D03*
X145000D02*
D03*
X151500D02*
D03*
X158000D02*
D03*
X164500D02*
D03*
X171000D02*
D03*
D67*
X111750Y129050D02*
D03*
Y116350D02*
D03*
Y103650D02*
D03*
Y90950D02*
D03*
X168250Y129050D02*
D03*
Y116350D02*
D03*
Y103650D02*
D03*
Y90950D02*
D03*
D68*
X423500Y307000D02*
D03*
D69*
Y349500D02*
D03*
X325000D02*
D03*
D70*
Y307000D02*
D03*
D71*
X382250Y307250D02*
D03*
X390250D02*
D03*
X366250D02*
D03*
X358250D02*
D03*
X374250D02*
D03*
D72*
X149000Y268000D02*
D03*
X129000D02*
D03*
X109000D02*
D03*
X89000D02*
D03*
X69000D02*
D03*
X149000Y248000D02*
D03*
X129000D02*
D03*
X109000D02*
D03*
X89000D02*
D03*
D73*
X69000D02*
D03*
D74*
X99450Y341200D02*
D03*
X127150D02*
D03*
X154850D02*
D03*
X182550D02*
D03*
X210250D02*
D03*
X113300Y312800D02*
D03*
X141000D02*
D03*
X168700D02*
D03*
X196400D02*
D03*
D75*
X29900Y327000D02*
D03*
X279800D02*
D03*
D76*
X481000Y25600D02*
D03*
D77*
X455600D02*
D03*
Y51000D02*
D03*
Y76400D02*
D03*
Y101800D02*
D03*
D78*
X481000Y51000D02*
D03*
Y76400D02*
D03*
Y101800D02*
D03*
Y127200D02*
D03*
X455600D02*
D03*
X481000Y152600D02*
D03*
X455600D02*
D03*
X481000Y178000D02*
D03*
X455600D02*
D03*
X481000Y203400D02*
D03*
X455600D02*
D03*
D79*
X396250Y330500D02*
D03*
X352250D02*
D03*
M02*
