M48
;Layer_Color=9474304
;FILE_FORMAT=4:4
METRIC,LZ
;TYPE=PLATED
T1F00S00C0.3000
T2F00S00C0.6000
T3F00S00C0.8100
T4F00S00C0.9000
T5F00S00C1.1000
;TYPE=NON_PLATED
T6F00S00C0.9000
T7F00S00C3.1000
%
T01
X001Y00067
Y00072
X00187Y00078
X00191763Y00073238
X00204Y00099
Y00111
X00224Y00117
X00233Y00129
X0024Y0014
X00263Y00112
X00247Y00094
X00325Y00087
X00341159Y0007286
X00348269
Y0006575
Y0005864
Y0005153
X00341159
Y0005864
Y0006575
X0034Y00103
X00351Y00124
X00365Y00122
X00394Y00137
X00411Y00142
X00329Y00135
X00308Y00046
X00273Y00028
Y0002
Y00013
X00282
X0016Y00021
X0016Y00027
X0046295Y0001495
X004015Y001975
X00356Y00197
X0034525Y0019375
X00352999Y00185
X00329Y00217
Y00256
X00359Y00254
X00378Y00254
X00388Y00255
X00398Y00268
X004Y00285
X00403Y00302
X0035125Y0030225
X0034425
X00325Y00375
X004235Y003735
X004655Y003355
X00428Y00244
X0027075Y00255
X0025725Y0025475
X00247524Y00214524
X002185Y002035
X00228Y0018
X00234Y00173
X00204Y00169
X0021125Y0015875
X0021225Y0014525
X00203Y00144
X00191Y00179
X00183Y00184
X00175Y00234
X00145Y00232
X00138Y00197
X0013Y00164
X00268Y00161
X00271Y0017
X00275999Y00177
X00279Y00189
X0029625Y0016575
X0031825Y0015475
X00117Y0019
X00112Y0023
X00082Y00233
T02
X00081Y00016
X0009625Y00017
X00221Y00067
X00215Y0008
X00245194Y00066194
X00257
X00269Y00066
X00266Y00084
X00255Y00084
T03
X00129Y00248
X00149
Y00268
X00129
X00109
X00089
X00069
Y00248
X00089
X00109
T04
X004556Y000256
X00481
Y00051
X004556
Y000764
X00481
Y001018
X004556
Y001272
X00481
Y001526
X004556
Y00178
X00481
Y002034
X004556
T05
X00141Y003128
X001687
X001964
X0021025Y003412
X0018255
X0015485
X0012715
X0009945
X001133Y003128
T06
X0035225Y003305
X0039625
T07
X002798Y00327
X000299
M30
