G04 Layer_Color=65535*
%FSLAX43Y43*%
%MOMM*%
G71*
G01*
G75*
%ADD40C,0.200*%
%ADD43C,0.600*%
%ADD61C,0.500*%
%ADD63C,0.250*%
%ADD64C,0.254*%
%ADD65C,0.150*%
%ADD66C,0.180*%
D40*
X55050Y29550D02*
Y34650D01*
X51350Y29550D02*
Y34650D01*
Y29550D02*
X55050D01*
X51350Y34650D02*
X55050D01*
X40700Y22700D02*
Y23500D01*
X43700Y22700D02*
Y23500D01*
X40700Y22700D02*
X43700D01*
X40700Y23500D02*
X43700D01*
X36200Y20000D02*
Y20800D01*
Y18500D02*
Y19300D01*
Y17000D02*
Y17800D01*
X2900Y17600D02*
Y18400D01*
Y19400D02*
Y20200D01*
X28300Y31800D02*
Y32600D01*
X12800Y2400D02*
X13600D01*
X32000Y31800D02*
Y32600D01*
X24600Y35500D02*
Y36300D01*
Y34100D02*
Y34900D01*
X11400Y35700D02*
Y36500D01*
X13900Y33300D02*
Y34100D01*
Y31500D02*
Y32300D01*
X57000Y9800D02*
X57800D01*
X47600Y10100D02*
X48400D01*
X46100D02*
X46900D01*
X44600D02*
X45400D01*
X57000Y6200D02*
X57800D01*
X43100Y10100D02*
X43900D01*
X41600D02*
X42400D01*
X40100D02*
X40900D01*
X46300Y27200D02*
Y28000D01*
Y28800D02*
Y29600D01*
X52000Y35900D02*
Y36700D01*
Y39000D02*
Y39800D01*
X59900Y19800D02*
Y20600D01*
Y21500D02*
Y22300D01*
X55200Y37500D02*
Y38300D01*
Y35900D02*
Y36700D01*
X46300Y32000D02*
Y32800D01*
Y24000D02*
Y24800D01*
Y30400D02*
Y31200D01*
X52000Y37500D02*
Y38300D01*
X46300Y25700D02*
Y26500D01*
X57200Y26100D02*
X58000D01*
X46300Y22400D02*
Y23200D01*
X55600Y26200D02*
X56400D01*
X51200Y26200D02*
X52000D01*
X52700D02*
X53500D01*
X6000Y18300D02*
X6800D01*
X7600Y18300D02*
X8400D01*
X36400Y11400D02*
X37200D01*
X23000Y19600D02*
X23800D01*
X16800D02*
X17600D01*
X39100Y30500D02*
X39900D01*
X42200Y26300D02*
Y27100D01*
X57200Y37000D02*
X58000D01*
X59900Y23100D02*
Y23900D01*
X49700Y26100D02*
X50500D01*
X54300Y26200D02*
X55100D01*
X14800Y500D02*
Y11600D01*
Y500D02*
X15900D01*
X28600Y500D02*
Y11600D01*
X26500Y500D02*
X28600D01*
X8950Y18400D02*
Y18870D01*
Y17930D02*
Y18400D01*
X11450Y17920D02*
Y18880D01*
X24445Y37350D02*
Y38450D01*
X22895Y37350D02*
X24445D01*
X13695D02*
X15245D01*
X13695D02*
Y38450D01*
X14995Y41550D02*
X23145D01*
X29850Y4050D02*
Y5150D01*
X31400D01*
X36550D02*
X38100D01*
Y4050D02*
Y5150D01*
X31150Y950D02*
X36800D01*
X39100Y4050D02*
Y5150D01*
X40650D01*
X45800D02*
X47350D01*
Y4050D02*
Y5150D01*
X40400Y950D02*
X46050D01*
X10500Y37350D02*
Y38450D01*
X8950Y37350D02*
X10500D01*
X2250D02*
X3800D01*
X2250D02*
Y38450D01*
X3550Y41550D02*
X9200D01*
X30800Y10900D02*
Y12500D01*
X35800Y10900D02*
Y12500D01*
X30800Y10900D02*
X35800D01*
X30800Y12500D02*
X35800D01*
X17850Y24050D02*
X23550D01*
X17850Y29750D02*
X23550D01*
X17850Y24050D02*
Y29750D01*
X23550Y24050D02*
Y29750D01*
X43000Y31200D02*
X43800D01*
Y30800D02*
Y31200D01*
X40800D02*
X41600D01*
X40800Y30800D02*
Y31200D01*
X50000Y13295D02*
Y14695D01*
Y18895D02*
Y20295D01*
X50500D01*
X54500D02*
X55000D01*
Y13295D02*
Y14695D01*
Y18795D02*
Y20295D01*
X54500Y13295D02*
X55000D01*
X50000D02*
X50500D01*
X1575Y13991D02*
X8115D01*
Y1609D02*
Y13991D01*
X1575Y1609D02*
Y13991D01*
Y1609D02*
X8115D01*
X55000Y8200D02*
Y9600D01*
Y2600D02*
Y4000D01*
X54500Y2600D02*
X55000D01*
X50000D02*
X50500D01*
X50000Y8200D02*
Y9600D01*
Y2600D02*
Y4100D01*
Y9600D02*
X50500D01*
X54500D02*
X55000D01*
X41249Y19250D02*
X44551D01*
X41249Y14150D02*
X44551D01*
X41249D02*
Y19250D01*
X44551Y14150D02*
Y19250D01*
X4366Y40500D02*
X4033D01*
X4200D01*
Y39667D01*
X4033Y39500D01*
X3867D01*
X3700Y39667D01*
X4700Y40333D02*
X4866Y40500D01*
X5200D01*
X5366Y40333D01*
Y40166D01*
X5200Y40000D01*
X5366Y39833D01*
Y39667D01*
X5200Y39500D01*
X4866D01*
X4700Y39667D01*
Y39833D01*
X4866Y40000D01*
X4700Y40166D01*
Y40333D01*
X4866Y40000D02*
X5200D01*
X67300Y31900D02*
Y32566D01*
X67633Y32900D01*
X67966Y32566D01*
Y31900D01*
Y32400D01*
X67300D01*
X68300Y31900D02*
X68633D01*
X68466D01*
Y32900D01*
X68300Y32733D01*
X67400Y10600D02*
Y11266D01*
X67733Y11600D01*
X68066Y11266D01*
Y10600D01*
Y11100D01*
X67400D01*
X69066Y10600D02*
X68400D01*
X69066Y11266D01*
Y11433D01*
X68900Y11600D01*
X68566D01*
X68400Y11433D01*
X54267Y23666D02*
X54100Y23500D01*
Y23167D01*
X54267Y23000D01*
X54933D01*
X55100Y23167D01*
Y23500D01*
X54933Y23666D01*
X55100Y24000D02*
Y24333D01*
Y24166D01*
X54100D01*
X54267Y24000D01*
X49667Y23166D02*
X49500Y23000D01*
Y22667D01*
X49667Y22500D01*
X50333D01*
X50500Y22667D01*
Y23000D01*
X50333Y23166D01*
X50500Y24166D02*
Y23500D01*
X49834Y24166D01*
X49667D01*
X49500Y24000D01*
Y23666D01*
X49667Y23500D01*
X62366Y23133D02*
X62200Y23300D01*
X61867D01*
X61700Y23133D01*
Y22467D01*
X61867Y22300D01*
X62200D01*
X62366Y22467D01*
X62700Y23133D02*
X62866Y23300D01*
X63200D01*
X63366Y23133D01*
Y22966D01*
X63200Y22800D01*
X63033D01*
X63200D01*
X63366Y22633D01*
Y22467D01*
X63200Y22300D01*
X62866D01*
X62700Y22467D01*
X57167Y39666D02*
X57000Y39500D01*
Y39167D01*
X57167Y39000D01*
X57833D01*
X58000Y39167D01*
Y39500D01*
X57833Y39666D01*
X58000Y40500D02*
X57000D01*
X57500Y40000D01*
Y40666D01*
X39266Y27033D02*
X39100Y27200D01*
X38767D01*
X38600Y27033D01*
Y26367D01*
X38767Y26200D01*
X39100D01*
X39266Y26367D01*
X40266Y27200D02*
X39933Y27033D01*
X39600Y26700D01*
Y26367D01*
X39766Y26200D01*
X40100D01*
X40266Y26367D01*
Y26533D01*
X40100Y26700D01*
X39600D01*
X37767Y29766D02*
X37600Y29600D01*
Y29267D01*
X37767Y29100D01*
X38433D01*
X38600Y29267D01*
Y29600D01*
X38433Y29766D01*
X38600Y30100D02*
Y30433D01*
Y30266D01*
X37600D01*
X37767Y30100D01*
Y30933D02*
X37600Y31099D01*
Y31433D01*
X37767Y31599D01*
X38433D01*
X38600Y31433D01*
Y31099D01*
X38433Y30933D01*
X37767D01*
X15367Y18966D02*
X15200Y18800D01*
Y18467D01*
X15367Y18300D01*
X16033D01*
X16200Y18467D01*
Y18800D01*
X16033Y18966D01*
X16200Y19300D02*
Y19633D01*
Y19466D01*
X15200D01*
X15367Y19300D01*
X16033Y20133D02*
X16200Y20299D01*
Y20633D01*
X16033Y20799D01*
X15367D01*
X15200Y20633D01*
Y20299D01*
X15367Y20133D01*
X15534D01*
X15700Y20299D01*
Y20799D01*
X24467Y19166D02*
X24300Y19000D01*
Y18667D01*
X24467Y18500D01*
X25133D01*
X25300Y18667D01*
Y19000D01*
X25133Y19166D01*
X25300Y20166D02*
Y19500D01*
X24634Y20166D01*
X24467D01*
X24300Y20000D01*
Y19666D01*
X24467Y19500D01*
X25300Y20499D02*
Y20833D01*
Y20666D01*
X24300D01*
X24467Y20499D01*
X36467Y13966D02*
X36300Y13800D01*
Y13467D01*
X36467Y13300D01*
X37133D01*
X37300Y13467D01*
Y13800D01*
X37133Y13966D01*
X37300Y14966D02*
Y14300D01*
X36634Y14966D01*
X36467D01*
X36300Y14800D01*
Y14466D01*
X36467Y14300D01*
X37300Y15966D02*
Y15299D01*
X36634Y15966D01*
X36467D01*
X36300Y15799D01*
Y15466D01*
X36467Y15299D01*
X7667Y14366D02*
X7500Y14200D01*
Y13867D01*
X7667Y13700D01*
X8333D01*
X8500Y13867D01*
Y14200D01*
X8333Y14366D01*
X8500Y15366D02*
Y14700D01*
X7834Y15366D01*
X7667D01*
X7500Y15200D01*
Y14866D01*
X7667Y14700D01*
Y15699D02*
X7500Y15866D01*
Y16199D01*
X7667Y16366D01*
X7834D01*
X8000Y16199D01*
Y16033D01*
Y16199D01*
X8167Y16366D01*
X8333D01*
X8500Y16199D01*
Y15866D01*
X8333Y15699D01*
X5967Y14466D02*
X5800Y14300D01*
Y13967D01*
X5967Y13800D01*
X6633D01*
X6800Y13967D01*
Y14300D01*
X6633Y14466D01*
X6800Y15466D02*
Y14800D01*
X6134Y15466D01*
X5967D01*
X5800Y15300D01*
Y14966D01*
X5967Y14800D01*
X6800Y16299D02*
X5800D01*
X6300Y15799D01*
Y16466D01*
X1100Y14900D02*
Y13900D01*
X1600D01*
X1766Y14067D01*
Y14733D01*
X1600Y14900D01*
X1100D01*
X2766Y14733D02*
X2600Y14900D01*
X2266D01*
X2100Y14733D01*
Y14566D01*
X2266Y14400D01*
X2600D01*
X2766Y14233D01*
Y14067D01*
X2600Y13900D01*
X2266D01*
X2100Y14067D01*
X3099Y13900D02*
X3433D01*
X3266D01*
Y14900D01*
X3099Y14733D01*
X49309Y12127D02*
X49642D01*
X49476D01*
Y11127D01*
X49309D01*
X49642D01*
X50809Y11960D02*
X50642Y12127D01*
X50309D01*
X50142Y11960D01*
Y11294D01*
X50309Y11127D01*
X50642D01*
X50809Y11294D01*
X51142Y11127D02*
X51475D01*
X51308D01*
Y12127D01*
X51142Y11960D01*
X52000Y15600D02*
Y15933D01*
Y15767D01*
X53000D01*
Y15600D01*
Y15933D01*
X52167Y17100D02*
X52000Y16933D01*
Y16600D01*
X52167Y16433D01*
X52833D01*
X53000Y16600D01*
Y16933D01*
X52833Y17100D01*
X53000Y18099D02*
Y17433D01*
X52334Y18099D01*
X52167D01*
X52000Y17933D01*
Y17599D01*
X52167Y17433D01*
X43966Y41000D02*
X43633D01*
X43800D01*
Y40167D01*
X43633Y40000D01*
X43467D01*
X43300Y40167D01*
X44966Y40000D02*
X44300D01*
X44966Y40666D01*
Y40833D01*
X44800Y41000D01*
X44466D01*
X44300Y40833D01*
X1266Y31100D02*
X933D01*
X1100D01*
Y30267D01*
X933Y30100D01*
X767D01*
X600Y30267D01*
X1600Y30933D02*
X1766Y31100D01*
X2100D01*
X2266Y30933D01*
Y30766D01*
X2100Y30600D01*
X1933D01*
X2100D01*
X2266Y30433D01*
Y30267D01*
X2100Y30100D01*
X1766D01*
X1600Y30267D01*
X15400Y9766D02*
Y9433D01*
Y9600D01*
X16233D01*
X16400Y9433D01*
Y9267D01*
X16233Y9100D01*
X16400Y10600D02*
X15400D01*
X15900Y10100D01*
Y10766D01*
X15866Y40900D02*
X15533D01*
X15700D01*
Y40067D01*
X15533Y39900D01*
X15367D01*
X15200Y40067D01*
X16866Y40900D02*
X16200D01*
Y40400D01*
X16533Y40566D01*
X16700D01*
X16866Y40400D01*
Y40067D01*
X16700Y39900D01*
X16366D01*
X16200Y40067D01*
X41366Y4200D02*
X41033D01*
X41200D01*
Y3367D01*
X41033Y3200D01*
X40867D01*
X40700Y3367D01*
X42366Y4200D02*
X42033Y4033D01*
X41700Y3700D01*
Y3367D01*
X41866Y3200D01*
X42200D01*
X42366Y3367D01*
Y3533D01*
X42200Y3700D01*
X41700D01*
X32266Y4200D02*
X31933D01*
X32100D01*
Y3367D01*
X31933Y3200D01*
X31767D01*
X31600Y3367D01*
X32600Y4200D02*
X33266D01*
Y4033D01*
X32600Y3367D01*
Y3200D01*
X3000Y2000D02*
X2000D01*
Y2500D01*
X2167Y2666D01*
X2500D01*
X2667Y2500D01*
Y2000D01*
X3000Y3000D02*
Y3333D01*
Y3166D01*
X2000D01*
X2167Y3000D01*
X53400Y23000D02*
X52400D01*
Y23500D01*
X52567Y23666D01*
X52900D01*
X53067Y23500D01*
Y23000D01*
Y23333D02*
X53400Y23666D01*
Y24000D02*
Y24333D01*
Y24166D01*
X52400D01*
X52567Y24000D01*
X52000Y22800D02*
X51000D01*
Y23300D01*
X51167Y23466D01*
X51500D01*
X51667Y23300D01*
Y22800D01*
Y23133D02*
X52000Y23466D01*
Y24466D02*
Y23800D01*
X51334Y24466D01*
X51167D01*
X51000Y24300D01*
Y23966D01*
X51167Y23800D01*
X56500Y22900D02*
X55500D01*
Y23400D01*
X55667Y23566D01*
X56000D01*
X56167Y23400D01*
Y22900D01*
Y23233D02*
X56500Y23566D01*
X55667Y23900D02*
X55500Y24066D01*
Y24400D01*
X55667Y24566D01*
X55834D01*
X56000Y24400D01*
Y24233D01*
Y24400D01*
X56167Y24566D01*
X56333D01*
X56500Y24400D01*
Y24066D01*
X56333Y23900D01*
X45500Y20900D02*
Y21900D01*
X46000D01*
X46166Y21733D01*
Y21400D01*
X46000Y21233D01*
X45500D01*
X45833D02*
X46166Y20900D01*
X47000D02*
Y21900D01*
X46500Y21400D01*
X47166D01*
X58000Y22800D02*
X57000D01*
Y23300D01*
X57167Y23466D01*
X57500D01*
X57667Y23300D01*
Y22800D01*
Y23133D02*
X58000Y23466D01*
X57000Y24466D02*
Y23800D01*
X57500D01*
X57334Y24133D01*
Y24300D01*
X57500Y24466D01*
X57833D01*
X58000Y24300D01*
Y23966D01*
X57833Y23800D01*
X48700Y37000D02*
Y38000D01*
X49200D01*
X49366Y37833D01*
Y37500D01*
X49200Y37333D01*
X48700D01*
X49033D02*
X49366Y37000D01*
X49700Y38000D02*
X50366D01*
Y37833D01*
X49700Y37167D01*
Y37000D01*
X48900Y23600D02*
X47900D01*
Y24100D01*
X48067Y24266D01*
X48400D01*
X48567Y24100D01*
Y23600D01*
Y23933D02*
X48900Y24266D01*
X48733Y24600D02*
X48900Y24766D01*
Y25100D01*
X48733Y25266D01*
X48067D01*
X47900Y25100D01*
Y24766D01*
X48067Y24600D01*
X48234D01*
X48400Y24766D01*
Y25266D01*
X45000Y33300D02*
Y34300D01*
X45500D01*
X45666Y34133D01*
Y33800D01*
X45500Y33633D01*
X45000D01*
X45333D02*
X45666Y33300D01*
X46000D02*
X46333D01*
X46166D01*
Y34300D01*
X46000Y34133D01*
X46833D02*
X46999Y34300D01*
X47333D01*
X47499Y34133D01*
Y33467D01*
X47333Y33300D01*
X46999D01*
X46833Y33467D01*
Y34133D01*
X54100Y34650D02*
Y35450D01*
X54500D01*
X54633Y35316D01*
Y35050D01*
X54500Y34917D01*
X54100D01*
X54367D02*
X54633Y34650D01*
X54900D02*
X55166D01*
X55033D01*
Y35450D01*
X54900Y35316D01*
X55566Y34650D02*
X55833D01*
X55699D01*
Y35450D01*
X55566Y35316D01*
X54100Y38800D02*
Y39800D01*
X54600D01*
X54766Y39633D01*
Y39300D01*
X54600Y39133D01*
X54100D01*
X54433D02*
X54766Y38800D01*
X55100D02*
X55433D01*
X55266D01*
Y39800D01*
X55100Y39633D01*
X56599Y38800D02*
X55933D01*
X56599Y39466D01*
Y39633D01*
X56433Y39800D01*
X56099D01*
X55933Y39633D01*
X55400Y21400D02*
Y22400D01*
X55900D01*
X56066Y22233D01*
Y21900D01*
X55900Y21733D01*
X55400D01*
X55733D02*
X56066Y21400D01*
X56400D02*
X56733D01*
X56566D01*
Y22400D01*
X56400Y22233D01*
X57233D02*
X57399Y22400D01*
X57733D01*
X57899Y22233D01*
Y22066D01*
X57733Y21900D01*
X57566D01*
X57733D01*
X57899Y21733D01*
Y21567D01*
X57733Y21400D01*
X57399D01*
X57233Y21567D01*
X55500Y19700D02*
Y20700D01*
X56000D01*
X56166Y20533D01*
Y20200D01*
X56000Y20033D01*
X55500D01*
X55833D02*
X56166Y19700D01*
X56500D02*
X56833D01*
X56666D01*
Y20700D01*
X56500Y20533D01*
X57833Y19700D02*
Y20700D01*
X57333Y20200D01*
X57999D01*
X51000Y40200D02*
Y41200D01*
X51500D01*
X51666Y41033D01*
Y40700D01*
X51500Y40533D01*
X51000D01*
X51333D02*
X51666Y40200D01*
X52000D02*
X52333D01*
X52166D01*
Y41200D01*
X52000Y41033D01*
X53499Y41200D02*
X52833D01*
Y40700D01*
X53166Y40866D01*
X53333D01*
X53499Y40700D01*
Y40367D01*
X53333Y40200D01*
X52999D01*
X52833Y40367D01*
X47800Y35700D02*
Y36700D01*
X48300D01*
X48466Y36533D01*
Y36200D01*
X48300Y36033D01*
X47800D01*
X48133D02*
X48466Y35700D01*
X48800D02*
X49133D01*
X48966D01*
Y36700D01*
X48800Y36533D01*
X50299Y36700D02*
X49966Y36533D01*
X49633Y36200D01*
Y35867D01*
X49799Y35700D01*
X50133D01*
X50299Y35867D01*
Y36033D01*
X50133Y36200D01*
X49633D01*
X38900Y7500D02*
Y8500D01*
X39400D01*
X39566Y8333D01*
Y8000D01*
X39400Y7833D01*
X38900D01*
X39233D02*
X39566Y7500D01*
X39900D02*
X40233D01*
X40066D01*
Y8500D01*
X39900Y8333D01*
X40733Y7667D02*
X40899Y7500D01*
X41233D01*
X41399Y7667D01*
Y8333D01*
X41233Y8500D01*
X40899D01*
X40733Y8333D01*
Y8166D01*
X40899Y8000D01*
X41399D01*
X40900Y12000D02*
Y13000D01*
X41400D01*
X41566Y12833D01*
Y12500D01*
X41400Y12333D01*
X40900D01*
X41233D02*
X41566Y12000D01*
X42566D02*
X41900D01*
X42566Y12666D01*
Y12833D01*
X42400Y13000D01*
X42066D01*
X41900Y12833D01*
X42899D02*
X43066Y13000D01*
X43399D01*
X43566Y12833D01*
Y12167D01*
X43399Y12000D01*
X43066D01*
X42899Y12167D01*
Y12833D01*
X42300Y7400D02*
Y8400D01*
X42800D01*
X42966Y8233D01*
Y7900D01*
X42800Y7733D01*
X42300D01*
X42633D02*
X42966Y7400D01*
X43966D02*
X43300D01*
X43966Y8066D01*
Y8233D01*
X43800Y8400D01*
X43466D01*
X43300Y8233D01*
X44299Y7400D02*
X44633D01*
X44466D01*
Y8400D01*
X44299Y8233D01*
X57900Y1900D02*
X56900D01*
Y2400D01*
X57067Y2566D01*
X57400D01*
X57567Y2400D01*
Y1900D01*
Y2233D02*
X57900Y2566D01*
Y3566D02*
Y2900D01*
X57234Y3566D01*
X57067D01*
X56900Y3400D01*
Y3066D01*
X57067Y2900D01*
X57900Y4566D02*
Y3899D01*
X57234Y4566D01*
X57067D01*
X56900Y4399D01*
Y4066D01*
X57067Y3899D01*
X44100Y12000D02*
Y13000D01*
X44600D01*
X44766Y12833D01*
Y12500D01*
X44600Y12333D01*
X44100D01*
X44433D02*
X44766Y12000D01*
X45766D02*
X45100D01*
X45766Y12666D01*
Y12833D01*
X45600Y13000D01*
X45266D01*
X45100Y12833D01*
X46099D02*
X46266Y13000D01*
X46599D01*
X46766Y12833D01*
Y12666D01*
X46599Y12500D01*
X46433D01*
X46599D01*
X46766Y12333D01*
Y12167D01*
X46599Y12000D01*
X46266D01*
X46099Y12167D01*
X46900Y5700D02*
X45900D01*
Y6200D01*
X46067Y6366D01*
X46400D01*
X46567Y6200D01*
Y5700D01*
Y6033D02*
X46900Y6366D01*
Y7366D02*
Y6700D01*
X46234Y7366D01*
X46067D01*
X45900Y7200D01*
Y6866D01*
X46067Y6700D01*
X46900Y8199D02*
X45900D01*
X46400Y7699D01*
Y8366D01*
X48400Y5700D02*
X47400D01*
Y6200D01*
X47567Y6366D01*
X47900D01*
X48067Y6200D01*
Y5700D01*
Y6033D02*
X48400Y6366D01*
Y7366D02*
Y6700D01*
X47734Y7366D01*
X47567D01*
X47400Y7200D01*
Y6866D01*
X47567Y6700D01*
X47400Y8366D02*
Y7699D01*
X47900D01*
X47734Y8033D01*
Y8199D01*
X47900Y8366D01*
X48233D01*
X48400Y8199D01*
Y7866D01*
X48233Y7699D01*
X57900Y11500D02*
X56900D01*
Y12000D01*
X57067Y12166D01*
X57400D01*
X57567Y12000D01*
Y11500D01*
Y11833D02*
X57900Y12166D01*
Y13166D02*
Y12500D01*
X57234Y13166D01*
X57067D01*
X56900Y13000D01*
Y12666D01*
X57067Y12500D01*
X56900Y14166D02*
X57067Y13833D01*
X57400Y13499D01*
X57733D01*
X57900Y13666D01*
Y13999D01*
X57733Y14166D01*
X57567D01*
X57400Y13999D01*
Y13499D01*
X15600Y32000D02*
Y33000D01*
X16100D01*
X16266Y32833D01*
Y32500D01*
X16100Y32333D01*
X15600D01*
X15933D02*
X16266Y32000D01*
X17266D02*
X16600D01*
X17266Y32666D01*
Y32833D01*
X17100Y33000D01*
X16766D01*
X16600Y32833D01*
X17599Y33000D02*
X18266D01*
Y32833D01*
X17599Y32167D01*
Y32000D01*
X15600Y33500D02*
Y34500D01*
X16100D01*
X16266Y34333D01*
Y34000D01*
X16100Y33833D01*
X15600D01*
X15933D02*
X16266Y33500D01*
X17266D02*
X16600D01*
X17266Y34166D01*
Y34333D01*
X17100Y34500D01*
X16766D01*
X16600Y34333D01*
X17599D02*
X17766Y34500D01*
X18099D01*
X18266Y34333D01*
Y34166D01*
X18099Y34000D01*
X18266Y33833D01*
Y33667D01*
X18099Y33500D01*
X17766D01*
X17599Y33667D01*
Y33833D01*
X17766Y34000D01*
X17599Y34166D01*
Y34333D01*
X17766Y34000D02*
X18099D01*
X10800Y37000D02*
Y38000D01*
X11300D01*
X11466Y37833D01*
Y37500D01*
X11300Y37333D01*
X10800D01*
X11133D02*
X11466Y37000D01*
X12466D02*
X11800D01*
X12466Y37666D01*
Y37833D01*
X12300Y38000D01*
X11966D01*
X11800Y37833D01*
X12799Y37167D02*
X12966Y37000D01*
X13299D01*
X13466Y37167D01*
Y37833D01*
X13299Y38000D01*
X12966D01*
X12799Y37833D01*
Y37666D01*
X12966Y37500D01*
X13466D01*
X20200Y33100D02*
Y34100D01*
X20700D01*
X20866Y33933D01*
Y33600D01*
X20700Y33433D01*
X20200D01*
X20533D02*
X20866Y33100D01*
X21200Y33933D02*
X21366Y34100D01*
X21700D01*
X21866Y33933D01*
Y33766D01*
X21700Y33600D01*
X21533D01*
X21700D01*
X21866Y33433D01*
Y33267D01*
X21700Y33100D01*
X21366D01*
X21200Y33267D01*
X22199Y33933D02*
X22366Y34100D01*
X22699D01*
X22866Y33933D01*
Y33766D01*
X22699Y33600D01*
X22533D01*
X22699D01*
X22866Y33433D01*
Y33267D01*
X22699Y33100D01*
X22366D01*
X22199Y33267D01*
X20200Y34700D02*
Y35700D01*
X20700D01*
X20866Y35533D01*
Y35200D01*
X20700Y35033D01*
X20200D01*
X20533D02*
X20866Y34700D01*
X21200Y35533D02*
X21366Y35700D01*
X21700D01*
X21866Y35533D01*
Y35366D01*
X21700Y35200D01*
X21533D01*
X21700D01*
X21866Y35033D01*
Y34867D01*
X21700Y34700D01*
X21366D01*
X21200Y34867D01*
X22699Y34700D02*
Y35700D01*
X22199Y35200D01*
X22866D01*
X30800Y30400D02*
Y31400D01*
X31300D01*
X31466Y31233D01*
Y30900D01*
X31300Y30733D01*
X30800D01*
X31133D02*
X31466Y30400D01*
X31800Y31233D02*
X31966Y31400D01*
X32300D01*
X32466Y31233D01*
Y31066D01*
X32300Y30900D01*
X32133D01*
X32300D01*
X32466Y30733D01*
Y30567D01*
X32300Y30400D01*
X31966D01*
X31800Y30567D01*
X33466Y31400D02*
X33133Y31233D01*
X32799Y30900D01*
Y30567D01*
X32966Y30400D01*
X33299D01*
X33466Y30567D01*
Y30733D01*
X33299Y30900D01*
X32799D01*
X13700Y4400D02*
X12700D01*
Y4900D01*
X12867Y5066D01*
X13200D01*
X13367Y4900D01*
Y4400D01*
Y4733D02*
X13700Y5066D01*
X12867Y5400D02*
X12700Y5566D01*
Y5900D01*
X12867Y6066D01*
X13034D01*
X13200Y5900D01*
Y5733D01*
Y5900D01*
X13367Y6066D01*
X13533D01*
X13700Y5900D01*
Y5566D01*
X13533Y5400D01*
X12700Y6399D02*
Y7066D01*
X12867D01*
X13533Y6399D01*
X13700D01*
X27100Y30400D02*
Y31400D01*
X27600D01*
X27766Y31233D01*
Y30900D01*
X27600Y30733D01*
X27100D01*
X27433D02*
X27766Y30400D01*
X28100Y31233D02*
X28266Y31400D01*
X28600D01*
X28766Y31233D01*
Y31066D01*
X28600Y30900D01*
X28433D01*
X28600D01*
X28766Y30733D01*
Y30567D01*
X28600Y30400D01*
X28266D01*
X28100Y30567D01*
X29099Y31233D02*
X29266Y31400D01*
X29599D01*
X29766Y31233D01*
Y31066D01*
X29599Y30900D01*
X29766Y30733D01*
Y30567D01*
X29599Y30400D01*
X29266D01*
X29099Y30567D01*
Y30733D01*
X29266Y30900D01*
X29099Y31066D01*
Y31233D01*
X29266Y30900D02*
X29599D01*
X1800Y20600D02*
Y21600D01*
X2300D01*
X2466Y21433D01*
Y21100D01*
X2300Y20933D01*
X1800D01*
X2133D02*
X2466Y20600D01*
X2800Y21433D02*
X2966Y21600D01*
X3300D01*
X3466Y21433D01*
Y21266D01*
X3300Y21100D01*
X3133D01*
X3300D01*
X3466Y20933D01*
Y20767D01*
X3300Y20600D01*
X2966D01*
X2800Y20767D01*
X3799D02*
X3966Y20600D01*
X4299D01*
X4466Y20767D01*
Y21433D01*
X4299Y21600D01*
X3966D01*
X3799Y21433D01*
Y21266D01*
X3966Y21100D01*
X4466D01*
X5600Y17200D02*
X4600D01*
Y17700D01*
X4767Y17866D01*
X5100D01*
X5267Y17700D01*
Y17200D01*
Y17533D02*
X5600Y17866D01*
Y18700D02*
X4600D01*
X5100Y18200D01*
Y18866D01*
X4767Y19199D02*
X4600Y19366D01*
Y19699D01*
X4767Y19866D01*
X5433D01*
X5600Y19699D01*
Y19366D01*
X5433Y19199D01*
X4767D01*
X31500Y17100D02*
Y18100D01*
X32000D01*
X32166Y17933D01*
Y17600D01*
X32000Y17433D01*
X31500D01*
X31833D02*
X32166Y17100D01*
X33166Y18100D02*
X32500D01*
Y17600D01*
X32833Y17766D01*
X33000D01*
X33166Y17600D01*
Y17267D01*
X33000Y17100D01*
X32666D01*
X32500Y17267D01*
X33499Y17933D02*
X33666Y18100D01*
X33999D01*
X34166Y17933D01*
Y17267D01*
X33999Y17100D01*
X33666D01*
X33499Y17267D01*
Y17933D01*
X31700Y18500D02*
Y19500D01*
X32200D01*
X32366Y19333D01*
Y19000D01*
X32200Y18833D01*
X31700D01*
X32033D02*
X32366Y18500D01*
X33366Y19500D02*
X32700D01*
Y19000D01*
X33033Y19166D01*
X33200D01*
X33366Y19000D01*
Y18667D01*
X33200Y18500D01*
X32866D01*
X32700Y18667D01*
X33699Y18500D02*
X34033D01*
X33866D01*
Y19500D01*
X33699Y19333D01*
X31600Y20000D02*
Y21000D01*
X32100D01*
X32266Y20833D01*
Y20500D01*
X32100Y20333D01*
X31600D01*
X31933D02*
X32266Y20000D01*
X33266Y21000D02*
X32600D01*
Y20500D01*
X32933Y20666D01*
X33100D01*
X33266Y20500D01*
Y20167D01*
X33100Y20000D01*
X32766D01*
X32600Y20167D01*
X34266Y20000D02*
X33599D01*
X34266Y20666D01*
Y20833D01*
X34099Y21000D01*
X33766D01*
X33599Y20833D01*
X51800Y34100D02*
Y33267D01*
X51967Y33100D01*
X52300D01*
X52466Y33267D01*
Y34100D01*
X52800Y33100D02*
X53133D01*
X52966D01*
Y34100D01*
X52800Y33933D01*
X38400Y23600D02*
Y22767D01*
X38567Y22600D01*
X38900D01*
X39066Y22767D01*
Y23600D01*
X40066Y22600D02*
X39400D01*
X40066Y23266D01*
Y23433D01*
X39900Y23600D01*
X39566D01*
X39400Y23433D01*
X41600Y18700D02*
Y17867D01*
X41767Y17700D01*
X42100D01*
X42266Y17867D01*
Y18700D01*
X42600Y18533D02*
X42766Y18700D01*
X43100D01*
X43266Y18533D01*
Y18366D01*
X43100Y18200D01*
X42933D01*
X43100D01*
X43266Y18033D01*
Y17867D01*
X43100Y17700D01*
X42766D01*
X42600Y17867D01*
X40700Y33700D02*
Y32867D01*
X40867Y32700D01*
X41200D01*
X41366Y32867D01*
Y33700D01*
X42366D02*
X41700D01*
Y33200D01*
X42033Y33366D01*
X42200D01*
X42366Y33200D01*
Y32867D01*
X42200Y32700D01*
X41866D01*
X41700Y32867D01*
X18400Y29200D02*
Y28367D01*
X18567Y28200D01*
X18900D01*
X19066Y28367D01*
Y29200D01*
X19400D02*
X20066D01*
Y29033D01*
X19400Y28367D01*
Y28200D01*
X33800Y12200D02*
Y11367D01*
X33967Y11200D01*
X34300D01*
X34466Y11367D01*
Y12200D01*
X34800Y12033D02*
X34966Y12200D01*
X35300D01*
X35466Y12033D01*
Y11866D01*
X35300Y11700D01*
X35466Y11533D01*
Y11367D01*
X35300Y11200D01*
X34966D01*
X34800Y11367D01*
Y11533D01*
X34966Y11700D01*
X34800Y11866D01*
Y12033D01*
X34966Y11700D02*
X35300D01*
X11800Y18900D02*
Y18067D01*
X11967Y17900D01*
X12300D01*
X12466Y18067D01*
Y18900D01*
X12800Y18067D02*
X12966Y17900D01*
X13300D01*
X13466Y18067D01*
Y18733D01*
X13300Y18900D01*
X12966D01*
X12800Y18733D01*
Y18566D01*
X12966Y18400D01*
X13466D01*
X20600Y17300D02*
Y17133D01*
X20933Y16800D01*
X21266Y17133D01*
Y17300D01*
X20933Y16800D02*
Y16300D01*
X21600D02*
X21933D01*
X21766D01*
Y17300D01*
X21600Y17133D01*
D43*
X54350Y30550D02*
G03*
X54350Y30550I-300J0D01*
G01*
X19150Y25050D02*
G03*
X19150Y25050I-300J0D01*
G01*
X43835Y15049D02*
G03*
X43835Y15049I-300J0D01*
G01*
D61*
X700Y31550D02*
X10250D01*
Y25050D02*
Y31550D01*
X700Y25050D02*
X10250D01*
D63*
X56375Y29375D02*
G03*
X56375Y29375I-125J0D01*
G01*
X40500Y21675D02*
G03*
X40500Y21675I-125J0D01*
G01*
X9300Y18730D02*
G03*
X9300Y18730I-10J0D01*
G01*
X36230Y14150D02*
G03*
X36230Y14150I-125J0D01*
G01*
X17400Y22875D02*
G03*
X17400Y22875I-125J0D01*
G01*
X40625Y29600D02*
G03*
X40625Y29600I-125J0D01*
G01*
X45825Y13700D02*
G03*
X45825Y13700I-125J0D01*
G01*
D64*
X67038Y17242D02*
G03*
X62183Y12459I1662J-6542D01*
G01*
X75230Y12408D02*
G03*
X70408Y17230I-6530J-1708D01*
G01*
X62163Y9016D02*
G03*
X75254Y9085I6537J1684D01*
G01*
X78700Y10700D02*
G03*
X78700Y10700I-10000J0D01*
G01*
Y32100D02*
G03*
X78700Y32100I-10000J0D01*
G01*
X62163Y30416D02*
G03*
X75254Y30485I6537J1684D01*
G01*
X75230Y33808D02*
G03*
X70408Y38630I-6530J-1708D01*
G01*
X67038Y38642D02*
G03*
X62183Y33859I1662J-6542D01*
G01*
D65*
X37120Y37219D02*
Y37854D01*
X47275Y37219D02*
Y37849D01*
Y40272D02*
Y41594D01*
X37120Y40267D02*
Y41594D01*
X47275D01*
X37120Y37219D02*
X47275D01*
X1100Y15600D02*
Y16600D01*
X1000Y15600D02*
Y16600D01*
D66*
X58300Y700D02*
Y1700D01*
X58800D01*
X58966Y1533D01*
Y1200D01*
X58800Y1033D01*
X58300D01*
X58633D02*
X58966Y700D01*
X59800D02*
X59466D01*
X59300Y867D01*
Y1200D01*
X59466Y1366D01*
X59800D01*
X59966Y1200D01*
Y1033D01*
X59300D01*
X60299Y1366D02*
X60633Y700D01*
X60966Y1366D01*
X61299Y700D02*
Y867D01*
X61466D01*
Y700D01*
X61299D01*
X63132D02*
Y1366D01*
X63465Y1700D01*
X63798Y1366D01*
Y700D01*
Y1200D01*
X63132D01*
M02*
