G04 Layer_Color=16711935*
%FSLAX43Y43*%
%MOMM*%
G71*
G01*
G75*
%ADD73R,1.160X1.160*%
%ADD74R,1.160X1.160*%
%ADD75R,1.160X1.310*%
%ADD76R,1.310X1.160*%
%ADD94C,2.660*%
%ADD95C,1.060*%
%ADD96R,1.510X1.510*%
%ADD97C,1.510*%
%ADD98R,2.110X1.660*%
%ADD99R,1.660X2.110*%
%ADD100R,1.510X1.360*%
%ADD101R,1.360X1.510*%
%ADD102R,3.460X2.860*%
%ADD103R,1.160X2.860*%
%ADD104R,10.560X9.460*%
%ADD105R,1.160X3.960*%
%ADD106R,1.260X2.060*%
%ADD107R,0.810X1.260*%
D73*
X42500Y8300D02*
D03*
X44100D02*
D03*
X39700Y5700D02*
D03*
X38100D02*
D03*
D74*
X12400Y18600D02*
D03*
Y20200D02*
D03*
X10900Y18600D02*
D03*
Y20200D02*
D03*
X11900Y10200D02*
D03*
Y11800D02*
D03*
Y6900D02*
D03*
Y8500D02*
D03*
Y3600D02*
D03*
Y5200D02*
D03*
X10300Y3600D02*
D03*
Y5200D02*
D03*
Y8500D02*
D03*
Y6900D02*
D03*
Y10200D02*
D03*
Y11800D02*
D03*
X21100Y7800D02*
D03*
Y9400D02*
D03*
X23500Y15300D02*
D03*
Y13700D02*
D03*
X21900Y15300D02*
D03*
Y13700D02*
D03*
X20300Y15300D02*
D03*
Y13700D02*
D03*
X11100Y28500D02*
D03*
Y30100D02*
D03*
X45100Y34800D02*
D03*
Y36400D02*
D03*
D75*
X23015Y21483D02*
D03*
Y19683D02*
D03*
X16700Y21500D02*
D03*
Y19700D02*
D03*
X16600Y25100D02*
D03*
Y23300D02*
D03*
X25700Y26800D02*
D03*
Y28600D02*
D03*
X25350Y38694D02*
D03*
Y40494D02*
D03*
D76*
X26600Y24600D02*
D03*
X24800D02*
D03*
X20000Y30800D02*
D03*
X18200D02*
D03*
X43900Y15100D02*
D03*
X42100D02*
D03*
X52200Y33000D02*
D03*
X54000D02*
D03*
D94*
X61950Y10700D02*
D03*
X68700Y17450D02*
D03*
X75450Y10700D02*
D03*
Y32100D02*
D03*
X68700Y38850D02*
D03*
X61950Y32100D02*
D03*
D95*
X5925Y26100D02*
D03*
Y30500D02*
D03*
D96*
X6100Y3800D02*
D03*
D97*
Y5800D02*
D03*
Y7800D02*
D03*
Y9800D02*
D03*
Y11800D02*
D03*
X4100Y3800D02*
D03*
Y5800D02*
D03*
Y7800D02*
D03*
Y9800D02*
D03*
Y11800D02*
D03*
D98*
X15500Y32175D02*
D03*
Y28625D02*
D03*
X14950Y34819D02*
D03*
Y38369D02*
D03*
X42250Y27770D02*
D03*
Y31320D02*
D03*
D99*
X42325Y38500D02*
D03*
X45875D02*
D03*
D100*
X37500Y7600D02*
D03*
X40300D02*
D03*
D101*
X8700Y30800D02*
D03*
Y28000D02*
D03*
X26700Y36400D02*
D03*
Y33600D02*
D03*
D102*
X21050Y33894D02*
D03*
D103*
X23350Y39794D02*
D03*
X21050D02*
D03*
X18750D02*
D03*
D104*
X34725Y29295D02*
D03*
D105*
X37265Y39145D02*
D03*
X32185D02*
D03*
D106*
X18250Y20600D02*
D03*
X20750D02*
D03*
D107*
X23450Y9700D02*
D03*
X25350D02*
D03*
X24400Y7700D02*
D03*
M02*
