G04 Layer_Color=8388736*
%FSLAX43Y43*%
%MOMM*%
G71*
G01*
G75*
%ADD38R,1.000X1.000*%
%ADD67O,1.700X0.550*%
%ADD68R,0.810X1.410*%
%ADD69R,3.614X1.811*%
%ADD70R,1.430X2.700*%
%ADD71R,1.960X1.560*%
%ADD72R,2.360X2.960*%
%ADD73R,1.160X1.160*%
%ADD74R,1.160X1.160*%
%ADD75R,1.160X1.310*%
%ADD76R,1.310X1.160*%
%ADD77R,1.160X2.760*%
%ADD78R,1.360X1.360*%
%ADD79R,2.860X1.560*%
%ADD80R,0.510X1.660*%
%ADD81R,0.760X1.860*%
%ADD82R,1.160X2.960*%
%ADD83O,0.860X2.660*%
%ADD84O,1.650X0.350*%
%ADD85O,0.350X1.650*%
%ADD86R,0.760X1.760*%
G04:AMPARAMS|DCode=87|XSize=2.16mm|YSize=0.96mm|CornerRadius=0.16mm|HoleSize=0mm|Usage=FLASHONLY|Rotation=180.000|XOffset=0mm|YOffset=0mm|HoleType=Round|Shape=RoundedRectangle|*
%AMROUNDEDRECTD87*
21,1,2.160,0.640,0,0,180.0*
21,1,1.840,0.960,0,0,180.0*
1,1,0.320,-0.920,0.320*
1,1,0.320,0.920,0.320*
1,1,0.320,0.920,-0.320*
1,1,0.320,-0.920,-0.320*
%
%ADD87ROUNDEDRECTD87*%
G04:AMPARAMS|DCode=88|XSize=2.16mm|YSize=0.96mm|CornerRadius=0.16mm|HoleSize=0mm|Usage=FLASHONLY|Rotation=90.000|XOffset=0mm|YOffset=0mm|HoleType=Round|Shape=RoundedRectangle|*
%AMROUNDEDRECTD88*
21,1,2.160,0.640,0,0,90.0*
21,1,1.840,0.960,0,0,90.0*
1,1,0.320,0.320,0.920*
1,1,0.320,0.320,-0.920*
1,1,0.320,-0.320,-0.920*
1,1,0.320,-0.320,0.920*
%
%ADD88ROUNDEDRECTD88*%
G04:AMPARAMS|DCode=89|XSize=2.96mm|YSize=0.66mm|CornerRadius=0.205mm|HoleSize=0mm|Usage=FLASHONLY|Rotation=180.000|XOffset=0mm|YOffset=0mm|HoleType=Round|Shape=RoundedRectangle|*
%AMROUNDEDRECTD89*
21,1,2.960,0.250,0,0,180.0*
21,1,2.550,0.660,0,0,180.0*
1,1,0.410,-1.275,0.125*
1,1,0.410,1.275,0.125*
1,1,0.410,1.275,-0.125*
1,1,0.410,-1.275,-0.125*
%
%ADD89ROUNDEDRECTD89*%
G04:AMPARAMS|DCode=90|XSize=3.66mm|YSize=2.21mm|CornerRadius=0.593mm|HoleSize=0mm|Usage=FLASHONLY|Rotation=180.000|XOffset=0mm|YOffset=0mm|HoleType=Round|Shape=RoundedRectangle|*
%AMROUNDEDRECTD90*
21,1,3.660,1.025,0,0,180.0*
21,1,2.475,2.210,0,0,180.0*
1,1,1.185,-1.238,0.512*
1,1,1.185,1.238,0.512*
1,1,1.185,1.238,-0.512*
1,1,1.185,-1.238,-0.512*
%
%ADD90ROUNDEDRECTD90*%
G04:AMPARAMS|DCode=91|XSize=4.16mm|YSize=2.21mm|CornerRadius=0.593mm|HoleSize=0mm|Usage=FLASHONLY|Rotation=180.000|XOffset=0mm|YOffset=0mm|HoleType=Round|Shape=RoundedRectangle|*
%AMROUNDEDRECTD91*
21,1,4.160,1.025,0,0,180.0*
21,1,2.975,2.210,0,0,180.0*
1,1,1.185,-1.488,0.512*
1,1,1.185,1.488,0.512*
1,1,1.185,1.488,-0.512*
1,1,1.185,-1.488,-0.512*
%
%ADD91ROUNDEDRECTD91*%
G04:AMPARAMS|DCode=92|XSize=3.66mm|YSize=2.21mm|CornerRadius=0.593mm|HoleSize=0mm|Usage=FLASHONLY|Rotation=180.000|XOffset=0mm|YOffset=0mm|HoleType=Round|Shape=RoundedRectangle|*
%AMROUNDEDRECTD92*
21,1,3.660,1.025,0,0,180.0*
21,1,2.475,2.210,0,0,180.0*
1,1,1.185,-1.238,0.512*
1,1,1.185,1.238,0.512*
1,1,1.185,1.238,-0.512*
1,1,1.185,-1.238,-0.512*
%
%ADD92ROUNDEDRECTD92*%
%ADD93O,1.760X0.510*%
%ADD94C,2.660*%
%ADD95C,1.060*%
%ADD96R,1.510X1.510*%
%ADD97C,1.510*%
G36*
X20050Y12800D02*
X19150D01*
Y15000D01*
X20050D01*
Y12800D01*
D02*
G37*
G36*
X21150D02*
X20250D01*
Y15000D01*
X21150D01*
Y12800D01*
D02*
G37*
G36*
X18950D02*
X18050D01*
Y15000D01*
X18950D01*
Y12800D01*
D02*
G37*
G36*
X15800Y12000D02*
X14100D01*
Y14800D01*
X15800D01*
Y12000D01*
D02*
G37*
G36*
X28900D02*
X27700D01*
Y14800D01*
X28900D01*
Y12000D01*
D02*
G37*
G36*
X25550Y12800D02*
X24650D01*
Y15000D01*
X25550D01*
Y12800D01*
D02*
G37*
G36*
X26650D02*
X25750D01*
Y15000D01*
X26650D01*
Y12800D01*
D02*
G37*
G36*
X24450D02*
X23550D01*
Y15000D01*
X24450D01*
Y12800D01*
D02*
G37*
G36*
X22250D02*
X21350D01*
Y15000D01*
X22250D01*
Y12800D01*
D02*
G37*
G36*
X23350D02*
X22450D01*
Y15000D01*
X23350D01*
Y12800D01*
D02*
G37*
D38*
X2100Y16100D02*
D03*
X3800D02*
D03*
D67*
X56250Y30150D02*
D03*
Y30800D02*
D03*
Y31450D02*
D03*
Y32100D02*
D03*
Y32750D02*
D03*
Y33400D02*
D03*
Y34050D02*
D03*
X50150Y30150D02*
D03*
Y30800D02*
D03*
Y31450D02*
D03*
Y32100D02*
D03*
Y32750D02*
D03*
Y33400D02*
D03*
Y34050D02*
D03*
D68*
X41250Y21675D02*
D03*
X42200D02*
D03*
X43150D02*
D03*
Y24525D02*
D03*
X41250D02*
D03*
D69*
X36790Y39124D02*
D03*
X47590D02*
D03*
D70*
X43700Y35670D02*
D03*
X40676D02*
D03*
D71*
X19000Y20400D02*
D03*
X21600D02*
D03*
Y18400D02*
D03*
X19000D02*
D03*
D72*
X28775Y35605D02*
D03*
Y40405D02*
D03*
X32850Y35605D02*
D03*
Y40405D02*
D03*
D73*
X37000Y20400D02*
D03*
X35400D02*
D03*
X35400Y18900D02*
D03*
X37000D02*
D03*
X35400Y17400D02*
D03*
X37000D02*
D03*
X3700Y18000D02*
D03*
X2100D02*
D03*
X3700Y19800D02*
D03*
X2100D02*
D03*
X27500Y32200D02*
D03*
X29100D02*
D03*
X31200D02*
D03*
X32800D02*
D03*
X25400Y35900D02*
D03*
X23800D02*
D03*
X25400Y34500D02*
D03*
X23800D02*
D03*
X10600Y36100D02*
D03*
X12200D02*
D03*
X13100Y33700D02*
D03*
X14700D02*
D03*
X13100Y31900D02*
D03*
X14700D02*
D03*
X47100Y27600D02*
D03*
X45500D02*
D03*
X45500Y29200D02*
D03*
X47100D02*
D03*
X52800Y36300D02*
D03*
X51200D02*
D03*
X52800Y39400D02*
D03*
X51200D02*
D03*
X59100Y20200D02*
D03*
X60700D02*
D03*
X60700Y21900D02*
D03*
X59100D02*
D03*
X56000Y37900D02*
D03*
X54400D02*
D03*
X54400Y36300D02*
D03*
X56000D02*
D03*
X45500Y32400D02*
D03*
X47100D02*
D03*
X47100Y24400D02*
D03*
X45500D02*
D03*
X47100Y30800D02*
D03*
X45500D02*
D03*
X52800Y37900D02*
D03*
X51200D02*
D03*
X45500Y26100D02*
D03*
X47100D02*
D03*
X45500Y22800D02*
D03*
X47100D02*
D03*
D74*
X13200Y3200D02*
D03*
Y1600D02*
D03*
X57400Y10600D02*
D03*
Y9000D02*
D03*
X48000Y9300D02*
D03*
Y10900D02*
D03*
X46500Y9300D02*
D03*
Y10900D02*
D03*
X45000Y9300D02*
D03*
Y10900D02*
D03*
X57400Y7000D02*
D03*
Y5400D02*
D03*
X43500Y9300D02*
D03*
Y10900D02*
D03*
X42000Y9300D02*
D03*
Y10900D02*
D03*
X40500Y9300D02*
D03*
Y10900D02*
D03*
X57600Y26900D02*
D03*
Y25300D02*
D03*
X56000Y27000D02*
D03*
Y25400D02*
D03*
X51600Y25400D02*
D03*
Y27000D02*
D03*
X53100Y27000D02*
D03*
Y25400D02*
D03*
D75*
X6400Y17400D02*
D03*
Y19200D02*
D03*
X8000Y17400D02*
D03*
Y19200D02*
D03*
X36800Y12300D02*
D03*
Y10500D02*
D03*
X23400Y18700D02*
D03*
Y20500D02*
D03*
X17200Y20500D02*
D03*
Y18700D02*
D03*
X39500Y31400D02*
D03*
Y29600D02*
D03*
X57600Y36100D02*
D03*
Y37900D02*
D03*
X50100Y27000D02*
D03*
Y25200D02*
D03*
X54700Y25300D02*
D03*
Y27100D02*
D03*
D76*
X43100Y26700D02*
D03*
X41300D02*
D03*
X59000Y23500D02*
D03*
X60800D02*
D03*
D77*
X28300Y13400D02*
D03*
D78*
X16850Y1100D02*
D03*
D79*
X24800Y1200D02*
D03*
X19900D02*
D03*
D80*
X9875Y19925D02*
D03*
X10525D02*
D03*
X9875Y16875D02*
D03*
X10525D02*
D03*
X9225Y19925D02*
D03*
X11175D02*
D03*
Y16875D02*
D03*
X9225D02*
D03*
D81*
X15945Y36900D02*
D03*
X17195D02*
D03*
X22195D02*
D03*
X20945D02*
D03*
X19695D02*
D03*
X18445D02*
D03*
X32100Y5600D02*
D03*
X33350D02*
D03*
X34600D02*
D03*
X35850D02*
D03*
X41350D02*
D03*
X42600D02*
D03*
X43850D02*
D03*
X45100D02*
D03*
X8250Y36900D02*
D03*
X7000D02*
D03*
X5750D02*
D03*
X4500D02*
D03*
D82*
X14095Y40250D02*
D03*
X24045D02*
D03*
X37700Y2250D02*
D03*
X30250D02*
D03*
X46950D02*
D03*
X39500D02*
D03*
X2650Y40250D02*
D03*
X10100D02*
D03*
D83*
X31395Y9250D02*
D03*
X32665D02*
D03*
X33935D02*
D03*
X35205D02*
D03*
X31395Y14150D02*
D03*
X32665D02*
D03*
X33935D02*
D03*
X35205D02*
D03*
D84*
X16675Y25150D02*
D03*
Y25650D02*
D03*
X24725Y24150D02*
D03*
Y24650D02*
D03*
Y25150D02*
D03*
Y25650D02*
D03*
Y26150D02*
D03*
Y26650D02*
D03*
Y27150D02*
D03*
Y27650D02*
D03*
Y28150D02*
D03*
Y28650D02*
D03*
Y29150D02*
D03*
Y29650D02*
D03*
X16675D02*
D03*
Y29150D02*
D03*
Y28650D02*
D03*
Y28150D02*
D03*
Y27650D02*
D03*
Y27150D02*
D03*
Y26650D02*
D03*
Y26150D02*
D03*
Y24650D02*
D03*
Y24150D02*
D03*
D85*
X17950Y22875D02*
D03*
X18450D02*
D03*
X18950D02*
D03*
X19450D02*
D03*
X19950D02*
D03*
X20450D02*
D03*
X20950D02*
D03*
X21450D02*
D03*
X21950D02*
D03*
X22450D02*
D03*
X22950D02*
D03*
X23450D02*
D03*
Y30925D02*
D03*
X22950D02*
D03*
X22450D02*
D03*
X21950D02*
D03*
X21450D02*
D03*
X20950D02*
D03*
X20450D02*
D03*
X19950D02*
D03*
X19450D02*
D03*
X18950D02*
D03*
X18450D02*
D03*
X17950D02*
D03*
D86*
X42300Y31400D02*
D03*
X43250Y29600D02*
D03*
X41350D02*
D03*
D87*
X54820Y18045D02*
D03*
Y16795D02*
D03*
Y15545D02*
D03*
X50180Y18045D02*
D03*
Y16795D02*
D03*
Y15545D02*
D03*
Y4850D02*
D03*
Y6100D02*
D03*
Y7350D02*
D03*
X54820Y4850D02*
D03*
Y6100D02*
D03*
Y7350D02*
D03*
D88*
X51230Y13545D02*
D03*
X53770D02*
D03*
X51230Y20045D02*
D03*
X53770D02*
D03*
Y9350D02*
D03*
X51230D02*
D03*
X53770Y2850D02*
D03*
X51230D02*
D03*
D89*
X8250Y28300D02*
D03*
Y26700D02*
D03*
Y27500D02*
D03*
Y29900D02*
D03*
Y29100D02*
D03*
D90*
X8275Y23375D02*
D03*
D91*
X4025D02*
D03*
Y33225D02*
D03*
D92*
X8275D02*
D03*
D93*
X40100Y18975D02*
D03*
Y18325D02*
D03*
Y17675D02*
D03*
Y17025D02*
D03*
Y16375D02*
D03*
Y15725D02*
D03*
Y15075D02*
D03*
Y14425D02*
D03*
X45700Y18975D02*
D03*
Y18325D02*
D03*
Y17675D02*
D03*
Y17025D02*
D03*
Y16375D02*
D03*
Y15725D02*
D03*
Y15075D02*
D03*
Y14425D02*
D03*
D94*
X61950Y10700D02*
D03*
X68700Y17450D02*
D03*
X75450Y10700D02*
D03*
Y32100D02*
D03*
X68700Y38850D02*
D03*
X61950Y32100D02*
D03*
D95*
X5925Y26100D02*
D03*
Y30500D02*
D03*
D96*
X6100Y3800D02*
D03*
D97*
Y5800D02*
D03*
Y7800D02*
D03*
Y9800D02*
D03*
Y11800D02*
D03*
X4100Y3800D02*
D03*
Y5800D02*
D03*
Y7800D02*
D03*
Y9800D02*
D03*
Y11800D02*
D03*
M02*
