G04 Layer_Physical_Order=2*
G04 Layer_Color=16711680*
%FSLAX43Y43*%
%MOMM*%
G71*
G01*
G75*
%ADD16R,1.000X1.000*%
%ADD17R,1.000X1.000*%
%ADD18R,1.000X1.150*%
%ADD19R,1.150X1.000*%
%ADD40C,0.200*%
%ADD41C,0.400*%
%ADD42C,0.300*%
%ADD43C,0.600*%
%ADD44C,0.800*%
%ADD45C,2.500*%
%ADD46C,0.900*%
%ADD47R,1.350X1.350*%
%ADD48C,1.350*%
%ADD49C,0.600*%
%ADD50C,1.200*%
%ADD51R,1.950X1.500*%
%ADD52R,1.500X1.950*%
%ADD53R,1.350X1.200*%
%ADD54R,1.200X1.350*%
%ADD55R,3.300X2.700*%
%ADD56R,1.000X2.700*%
%ADD57R,10.400X9.300*%
%ADD58R,1.000X3.800*%
%ADD59R,1.100X1.900*%
%ADD60R,0.650X1.100*%
%ADD61C,0.500*%
%ADD62C,1.000*%
G36*
X13493Y7021D02*
Y6779D01*
X12846Y6131D01*
X12768Y6015D01*
X12741Y5877D01*
Y5200D01*
X12768Y5062D01*
X12846Y4946D01*
X13092Y4700D01*
X12941Y4550D01*
X12823Y4526D01*
X12674Y4426D01*
X12623Y4350D01*
X12552Y4252D01*
X11248D01*
Y4010D01*
X10952D01*
Y4252D01*
X9648D01*
Y4210D01*
X6927D01*
Y4627D01*
X6782D01*
X6730Y4754D01*
X6918Y4943D01*
X9648D01*
Y4548D01*
X10952D01*
Y5462D01*
X11070Y5511D01*
X11248Y5333D01*
Y4548D01*
X12552D01*
Y5852D01*
X11456D01*
X11286Y6023D01*
X11338Y6150D01*
X11750D01*
Y6900D01*
X11900D01*
Y7050D01*
X12650D01*
Y7490D01*
X12948D01*
X13012Y7503D01*
X13493Y7021D01*
D02*
G37*
G36*
X79292Y408D02*
X408D01*
Y42392D01*
X3182D01*
X3235Y42265D01*
X1035Y40065D01*
X930Y39929D01*
X864Y39770D01*
X842Y39600D01*
Y32500D01*
Y2900D01*
X864Y2730D01*
X930Y2571D01*
X1035Y2435D01*
X2335Y1135D01*
X2471Y1030D01*
X2630Y964D01*
X2800Y942D01*
X47800D01*
X47970Y964D01*
X48129Y1030D01*
X48265Y1135D01*
X48422Y1292D01*
X57700D01*
X57700Y1292D01*
X57818Y1315D01*
X57918Y1382D01*
X58918Y2382D01*
X58918Y2382D01*
X58985Y2482D01*
X59008Y2600D01*
Y5562D01*
X59026Y5574D01*
X59126Y5723D01*
X59161Y5900D01*
X59126Y6077D01*
X59026Y6226D01*
X58877Y6326D01*
X58700Y6361D01*
X58523Y6326D01*
X58374Y6226D01*
X58274Y6077D01*
X58239Y5900D01*
X58274Y5723D01*
X58374Y5574D01*
X58392Y5562D01*
Y2728D01*
X57572Y1908D01*
X49059D01*
X48950Y2035D01*
X48958Y2100D01*
Y7400D01*
X48936Y7570D01*
X48927Y7591D01*
X49518Y8182D01*
X49518Y8182D01*
X49585Y8282D01*
X49608Y8400D01*
Y10062D01*
X49626Y10074D01*
X49726Y10223D01*
X49761Y10400D01*
X49726Y10577D01*
X49626Y10726D01*
X49477Y10826D01*
X49300Y10861D01*
X49123Y10826D01*
X48974Y10726D01*
X48874Y10577D01*
X48839Y10400D01*
X48874Y10223D01*
X48974Y10074D01*
X48992Y10062D01*
Y8528D01*
X48491Y8027D01*
X48470Y8036D01*
X48300Y8058D01*
X48130Y8036D01*
X47971Y7970D01*
X47835Y7865D01*
X47730Y7729D01*
X47664Y7570D01*
X47642Y7400D01*
Y2373D01*
X47527Y2258D01*
X32555D01*
X32506Y2375D01*
X36978Y6848D01*
X38327D01*
Y8193D01*
X39473D01*
Y6848D01*
X39629D01*
X39678Y6730D01*
X39374Y6426D01*
X39325Y6352D01*
X39048D01*
Y5048D01*
X40352D01*
Y6100D01*
X40626Y6374D01*
X40726Y6523D01*
X40761Y6700D01*
Y6848D01*
X41127D01*
Y7052D01*
X41254Y7120D01*
X41323Y7074D01*
X41500Y7039D01*
X41677Y7074D01*
X41826Y7174D01*
X41926Y7323D01*
X41936Y7372D01*
X42212Y7648D01*
X43152D01*
Y8952D01*
X41848D01*
Y8012D01*
X41728Y7892D01*
X41677Y7926D01*
X41500Y7961D01*
X41323Y7926D01*
X41254Y7880D01*
X41127Y7948D01*
Y8352D01*
X40926D01*
X40878Y8470D01*
X41754Y9346D01*
X41832Y9462D01*
X41859Y9600D01*
Y13723D01*
X41926Y13823D01*
X41961Y14000D01*
X41945Y14081D01*
X42282Y14418D01*
X42302Y14448D01*
X42827D01*
Y15752D01*
X41373D01*
Y14448D01*
X41340Y14429D01*
X41323Y14426D01*
X41174Y14326D01*
X41074Y14177D01*
X41039Y14000D01*
X41074Y13823D01*
X41141Y13723D01*
Y9749D01*
X40304Y8912D01*
X36052D01*
X35915Y8884D01*
X35798Y8806D01*
X33777Y6785D01*
X33659Y6833D01*
Y10823D01*
X33726Y10923D01*
X33761Y11100D01*
X33726Y11277D01*
X33659Y11377D01*
Y15600D01*
X33650Y15645D01*
X33661Y15700D01*
X33626Y15877D01*
X33526Y16026D01*
X33377Y16126D01*
X33200Y16161D01*
X33023Y16126D01*
X32874Y16026D01*
X32774Y15877D01*
X32739Y15700D01*
X32774Y15523D01*
X32874Y15374D01*
X32941Y15329D01*
Y11377D01*
X32874Y11277D01*
X32839Y11100D01*
X32874Y10923D01*
X32941Y10823D01*
Y5949D01*
X30151Y3159D01*
X15649D01*
X13954Y4854D01*
X13459Y5349D01*
Y5729D01*
X14106Y6376D01*
X14184Y6492D01*
X14212Y6630D01*
Y7170D01*
X14184Y7308D01*
X14106Y7424D01*
X13459Y8071D01*
Y11441D01*
X18851D01*
X19046Y11246D01*
X19163Y11168D01*
X19300Y11141D01*
X21700D01*
X21837Y11168D01*
X21954Y11246D01*
X22259Y11550D01*
X22377Y11574D01*
X22526Y11674D01*
X22626Y11823D01*
X22661Y12000D01*
X22626Y12177D01*
X22526Y12326D01*
X22377Y12426D01*
X22200Y12461D01*
X22023Y12426D01*
X21874Y12326D01*
X21774Y12177D01*
X21750Y12059D01*
X21551Y11859D01*
X21383D01*
X21349Y11928D01*
X21334Y11986D01*
X21426Y12123D01*
X21461Y12300D01*
X21445Y12381D01*
X22082Y13018D01*
X22102Y13048D01*
X22552D01*
Y14352D01*
X21248D01*
Y13048D01*
X21248D01*
X21287Y12951D01*
X21081Y12745D01*
X21000Y12761D01*
X20823Y12726D01*
X20674Y12626D01*
X20574Y12477D01*
X20539Y12300D01*
X20574Y12123D01*
X20666Y11986D01*
X20651Y11928D01*
X20617Y11859D01*
X20083D01*
X20049Y11928D01*
X20034Y11986D01*
X20126Y12123D01*
X20161Y12300D01*
X20145Y12381D01*
X20482Y12718D01*
X20538Y12802D01*
X20557Y12900D01*
Y13048D01*
X20952D01*
Y14352D01*
X19648D01*
Y13048D01*
X19904D01*
X19957Y12921D01*
X19781Y12745D01*
X19700Y12761D01*
X19523Y12726D01*
X19374Y12626D01*
X19274Y12477D01*
X19239Y12300D01*
X19258Y12204D01*
X19143Y12128D01*
X19138Y12132D01*
X19000Y12159D01*
X18007D01*
Y12943D01*
X19712Y14648D01*
X20952D01*
Y15043D01*
X21248D01*
Y14648D01*
X22552D01*
Y15043D01*
X22848D01*
Y14648D01*
X24152D01*
Y15952D01*
X22848D01*
Y15557D01*
X22552D01*
Y15952D01*
X21248D01*
Y15557D01*
X20952D01*
Y15952D01*
X19648D01*
Y15312D01*
X17568Y13232D01*
X17512Y13148D01*
X17493Y13050D01*
Y12159D01*
X12552D01*
Y12452D01*
X12259D01*
Y13000D01*
X12232Y13137D01*
X12154Y13254D01*
X11754Y13654D01*
X11637Y13732D01*
X11500Y13759D01*
X11482Y13756D01*
X11377Y13826D01*
X11200Y13861D01*
X11023Y13826D01*
X10874Y13726D01*
X10774Y13577D01*
X10739Y13400D01*
X10774Y13223D01*
X10874Y13074D01*
X11023Y12974D01*
X11200Y12939D01*
X11377Y12974D01*
X11401Y12990D01*
X11541Y12851D01*
Y12452D01*
X11248D01*
Y11392D01*
X11133Y11317D01*
X11050Y11359D01*
Y11650D01*
X10300D01*
X9550D01*
Y11257D01*
X7300D01*
X7202Y11238D01*
X7118Y11182D01*
X6476Y10540D01*
X6316Y10606D01*
X6100Y10635D01*
X5884Y10606D01*
X5683Y10523D01*
X5510Y10390D01*
X5377Y10217D01*
X5294Y10016D01*
X5265Y9800D01*
X5294Y9584D01*
X5377Y9383D01*
X5510Y9210D01*
X5543Y9184D01*
X5500Y9057D01*
X5100D01*
X5002Y9038D01*
X4918Y8982D01*
X4476Y8540D01*
X4316Y8606D01*
X4100Y8635D01*
X3884Y8606D01*
X3683Y8523D01*
X3510Y8390D01*
X3377Y8217D01*
X3294Y8016D01*
X3265Y7800D01*
X3294Y7584D01*
X3377Y7383D01*
X3510Y7210D01*
X3683Y7077D01*
X3884Y6994D01*
X4100Y6965D01*
X4316Y6994D01*
X4517Y7077D01*
X4690Y7210D01*
X4823Y7383D01*
X4906Y7584D01*
X4935Y7800D01*
X4906Y8016D01*
X4840Y8176D01*
X5207Y8543D01*
X5500D01*
X5543Y8416D01*
X5510Y8390D01*
X5377Y8217D01*
X5294Y8016D01*
X5265Y7800D01*
X5294Y7584D01*
X5377Y7383D01*
X5510Y7210D01*
X5543Y7184D01*
X5500Y7057D01*
X5100D01*
X5002Y7038D01*
X4918Y6982D01*
X4476Y6540D01*
X4316Y6606D01*
X4100Y6635D01*
X3884Y6606D01*
X3683Y6523D01*
X3510Y6390D01*
X3377Y6217D01*
X3294Y6016D01*
X3265Y5800D01*
X3294Y5584D01*
X3377Y5383D01*
X3510Y5210D01*
X3683Y5077D01*
X3884Y4994D01*
X4100Y4965D01*
X4316Y4994D01*
X4517Y5077D01*
X4690Y5210D01*
X4823Y5383D01*
X4906Y5584D01*
X4935Y5800D01*
X4906Y6016D01*
X4840Y6176D01*
X5207Y6543D01*
X5500D01*
X5543Y6416D01*
X5510Y6390D01*
X5377Y6217D01*
X5294Y6016D01*
X5265Y5800D01*
X5294Y5584D01*
X5377Y5383D01*
X5474Y5257D01*
X5414Y5130D01*
X5173D01*
X5074Y5110D01*
X4991Y5055D01*
X4476Y4540D01*
X4316Y4606D01*
X4100Y4635D01*
X3884Y4606D01*
X3683Y4523D01*
X3510Y4390D01*
X3377Y4217D01*
X3294Y4016D01*
X3265Y3800D01*
X3294Y3584D01*
X3377Y3383D01*
X3510Y3210D01*
X3683Y3077D01*
X3884Y2994D01*
X4100Y2965D01*
X4316Y2994D01*
X4517Y3077D01*
X4690Y3210D01*
X4823Y3383D01*
X4906Y3584D01*
X4935Y3800D01*
X4906Y4016D01*
X4840Y4176D01*
X5155Y4491D01*
X5273Y4443D01*
Y2973D01*
X6927D01*
Y3390D01*
X9648D01*
Y2948D01*
X10952D01*
Y3190D01*
X11248D01*
Y2948D01*
X12552D01*
Y3200D01*
X12657Y3221D01*
X12790Y3310D01*
X13149Y3668D01*
X13177Y3674D01*
X13326Y3774D01*
X13426Y3923D01*
X13450Y4041D01*
X13600Y4192D01*
X15246Y2546D01*
X15363Y2468D01*
X15500Y2441D01*
X30300D01*
X30438Y2468D01*
X30554Y2546D01*
X33554Y5546D01*
X36173Y8165D01*
X36245Y8155D01*
X36290Y8020D01*
X30527Y2258D01*
X3073D01*
X2158Y3173D01*
Y31842D01*
X6727D01*
X7948Y30622D01*
Y29973D01*
X9452D01*
Y31627D01*
X8803D01*
X7465Y32965D01*
X7329Y33070D01*
X7170Y33136D01*
X7000Y33158D01*
X2158D01*
Y39327D01*
X4073Y41242D01*
X18000D01*
Y39944D01*
X18750D01*
X19500D01*
Y41242D01*
X20398D01*
Y38292D01*
X20640D01*
Y37100D01*
Y35397D01*
X19248D01*
Y34305D01*
X16876D01*
X16077Y35103D01*
Y35722D01*
X14392D01*
X14368Y35738D01*
X14269Y35757D01*
X13772D01*
X13726Y35826D01*
X13577Y35926D01*
X13400Y35961D01*
X13223Y35926D01*
X13074Y35826D01*
X12974Y35677D01*
X12939Y35500D01*
X12974Y35323D01*
X13074Y35174D01*
X13223Y35074D01*
X13400Y35039D01*
X13577Y35074D01*
X13696Y35153D01*
X13800Y35115D01*
X13823Y35097D01*
Y33917D01*
X14540D01*
Y33077D01*
X14373D01*
Y32534D01*
X14275D01*
X14137Y32507D01*
X14021Y32429D01*
X13346Y31754D01*
X13268Y31638D01*
X13241Y31500D01*
Y29149D01*
X11951Y27859D01*
X11752D01*
Y29152D01*
X10448D01*
Y28961D01*
X10400D01*
X10223Y28926D01*
X10074Y28826D01*
X9709Y28461D01*
X9452D01*
Y28827D01*
X7948D01*
Y27173D01*
X9452D01*
Y27539D01*
X9900D01*
X9964Y27551D01*
X10026Y27434D01*
X8546Y25954D01*
X8468Y25837D01*
X8441Y25700D01*
Y19200D01*
X8468Y19062D01*
X8546Y18946D01*
X9041Y18451D01*
Y16249D01*
X8841Y16050D01*
X8723Y16026D01*
X8574Y15926D01*
X8474Y15777D01*
X8439Y15600D01*
X8474Y15423D01*
X8574Y15274D01*
X8723Y15174D01*
X8900Y15139D01*
X9077Y15174D01*
X9226Y15274D01*
X9326Y15423D01*
X9350Y15541D01*
X9654Y15846D01*
X9732Y15962D01*
X9759Y16100D01*
Y18241D01*
X10248D01*
Y17948D01*
X11552D01*
Y18241D01*
X11748D01*
Y17948D01*
X13052D01*
Y18544D01*
X14259Y19750D01*
X14377Y19774D01*
X14526Y19874D01*
X14626Y20023D01*
X14661Y20200D01*
X14626Y20377D01*
X14526Y20526D01*
X14377Y20626D01*
X14200Y20661D01*
X14023Y20626D01*
X13874Y20526D01*
X13774Y20377D01*
X13750Y20259D01*
X13170Y19678D01*
X13052Y19726D01*
Y20852D01*
X12757D01*
Y21093D01*
X13432Y21768D01*
X13530Y21703D01*
X13707Y21668D01*
X13883Y21703D01*
X14033Y21803D01*
X14133Y21953D01*
X14168Y22129D01*
X14150Y22219D01*
X14234Y22365D01*
X14277Y22374D01*
X14426Y22474D01*
X14526Y22623D01*
X14561Y22800D01*
X14526Y22977D01*
X14426Y23126D01*
X14277Y23226D01*
X14100Y23261D01*
X13923Y23226D01*
X13774Y23126D01*
X13728Y23057D01*
X12200D01*
X12102Y23038D01*
X12018Y22982D01*
X10996Y21960D01*
X10870Y21973D01*
X10851Y22001D01*
X10702Y22101D01*
X10525Y22136D01*
X10348Y22101D01*
X10199Y22001D01*
X10099Y21852D01*
X10064Y21675D01*
X10080Y21594D01*
X9818Y21332D01*
X9762Y21248D01*
X9743Y21150D01*
Y19743D01*
X9762Y19645D01*
X9818Y19561D01*
X10113Y19266D01*
X10197Y19210D01*
X10248Y19200D01*
Y18959D01*
X9549D01*
X9159Y19349D01*
Y25551D01*
X10749Y27141D01*
X10917D01*
X10951Y27072D01*
X10966Y27014D01*
X10874Y26877D01*
X10839Y26700D01*
X10874Y26523D01*
X10974Y26374D01*
X11123Y26274D01*
X11300Y26239D01*
X11477Y26274D01*
X11626Y26374D01*
X11672Y26443D01*
X14100D01*
X14198Y26462D01*
X14282Y26518D01*
X14469Y26705D01*
X14550Y26689D01*
X14727Y26724D01*
X14876Y26824D01*
X14976Y26973D01*
X15011Y27150D01*
X14976Y27327D01*
X14876Y27476D01*
X14843Y27498D01*
X14882Y27625D01*
X15350D01*
Y28475D01*
X14275D01*
Y27663D01*
X14275Y27625D01*
X14264Y27503D01*
X14224Y27476D01*
X14124Y27327D01*
X14089Y27150D01*
X14105Y27069D01*
X13993Y26957D01*
X11739D01*
X11694Y27014D01*
X11756Y27141D01*
X12100D01*
X12238Y27168D01*
X12354Y27246D01*
X13854Y28746D01*
X13932Y28862D01*
X13959Y29000D01*
Y31351D01*
X14255Y31647D01*
X14373Y31599D01*
Y31273D01*
X16627D01*
Y31471D01*
X16745Y31519D01*
X17473Y30791D01*
Y30148D01*
X18927D01*
Y31452D01*
X18457D01*
Y32000D01*
X18438Y32098D01*
X18394Y32164D01*
X18411Y32250D01*
X18376Y32427D01*
X18276Y32576D01*
X18127Y32676D01*
X17950Y32711D01*
X17773Y32676D01*
X17624Y32576D01*
X17524Y32427D01*
X17489Y32250D01*
X17524Y32073D01*
X17624Y31924D01*
X17773Y31824D01*
X17943Y31790D01*
Y31452D01*
X17684D01*
X16743Y32393D01*
X16643Y32460D01*
X16627Y32463D01*
Y33077D01*
X15360D01*
Y33917D01*
X16077D01*
X16077Y33917D01*
Y33917D01*
X16172Y33847D01*
X16415Y33604D01*
X16549Y33515D01*
X16706Y33484D01*
X19248D01*
Y32392D01*
X21972D01*
X22540Y31824D01*
Y31430D01*
X21807Y30698D01*
X21719Y30565D01*
X21687Y30408D01*
Y26205D01*
X21598Y26142D01*
X21560Y26129D01*
X21400Y26161D01*
X21223Y26126D01*
X21074Y26026D01*
X20974Y25877D01*
X20939Y25700D01*
X20974Y25523D01*
X21072Y25377D01*
X21089Y25345D01*
Y25255D01*
X21072Y25223D01*
X20974Y25077D01*
X20939Y24900D01*
X20974Y24723D01*
X21074Y24574D01*
X21223Y24474D01*
X21400Y24439D01*
X21481Y24455D01*
X22015Y23921D01*
Y22730D01*
X22035Y22631D01*
X22091Y22548D01*
X22219Y22419D01*
X22265Y22308D01*
X22265D01*
X22265Y22308D01*
Y21633D01*
X23015D01*
Y21483D01*
X23165D01*
Y20658D01*
X23765D01*
X23866Y20597D01*
Y19811D01*
X23886Y19712D01*
X23942Y19629D01*
X25105Y18466D01*
X25188Y18410D01*
X25287Y18390D01*
X25814D01*
X25867Y18291D01*
X25867Y18263D01*
X25834Y18095D01*
X25869Y17919D01*
X25969Y17769D01*
X26038Y17723D01*
Y17005D01*
X26057Y16906D01*
X26113Y16823D01*
X26455Y16481D01*
X26439Y16400D01*
X26474Y16223D01*
X26574Y16074D01*
X26723Y15974D01*
X26900Y15939D01*
X27077Y15974D01*
X27226Y16074D01*
X27326Y16223D01*
X27361Y16400D01*
X27326Y16577D01*
X27226Y16726D01*
X27077Y16826D01*
X26900Y16861D01*
X26819Y16845D01*
X26553Y17111D01*
Y17723D01*
X26621Y17769D01*
X26702Y17889D01*
X26843Y17928D01*
X29017Y15753D01*
X28950Y15652D01*
X28914Y15476D01*
X28950Y15299D01*
X29050Y15150D01*
X29199Y15050D01*
X29376Y15014D01*
X29552Y15050D01*
X29702Y15150D01*
X29802Y15299D01*
X29836Y15472D01*
X29846Y15507D01*
X29923Y15584D01*
X29941Y15580D01*
X30118Y15615D01*
X30268Y15715D01*
X30368Y15865D01*
X30403Y16041D01*
X30368Y16218D01*
X30268Y16368D01*
X30118Y16468D01*
X29941Y16503D01*
X29765Y16468D01*
X29664Y16400D01*
X27488Y18576D01*
X27485Y18588D01*
X27430Y18672D01*
X26872Y19230D01*
X26788Y19285D01*
X26776Y19288D01*
X26582Y19482D01*
X26498Y19538D01*
X26400Y19557D01*
X25307D01*
X24781Y20083D01*
Y20502D01*
X24908Y20551D01*
X25023Y20474D01*
X25200Y20439D01*
X25377Y20474D01*
X25526Y20574D01*
X25572Y20643D01*
X25600D01*
X25698Y20662D01*
X25782Y20718D01*
X26807Y21743D01*
X30700D01*
X30798Y21762D01*
X30882Y21818D01*
X31119Y22055D01*
X31200Y22039D01*
X31377Y22074D01*
X31526Y22174D01*
X31626Y22323D01*
X31661Y22500D01*
X31626Y22677D01*
X31526Y22826D01*
X31377Y22926D01*
X31262Y22949D01*
X31198Y23079D01*
X31198Y23081D01*
X31226Y23123D01*
X31261Y23300D01*
X31226Y23476D01*
X31198Y23519D01*
X31198Y23521D01*
X31262Y23651D01*
X31376Y23674D01*
X31526Y23774D01*
X31626Y23923D01*
X31661Y24100D01*
X31626Y24276D01*
X31567Y24366D01*
X31634Y24493D01*
X35194D01*
X35233Y24366D01*
X35174Y24326D01*
X35074Y24177D01*
X35039Y24000D01*
X35074Y23823D01*
X35174Y23674D01*
X35323Y23574D01*
X35500Y23539D01*
X35677Y23574D01*
X35826Y23674D01*
X35838Y23692D01*
X39962D01*
X39974Y23674D01*
X40123Y23574D01*
X40300Y23539D01*
X40477Y23574D01*
X40626Y23674D01*
X40726Y23823D01*
X40761Y24000D01*
X40726Y24177D01*
X40626Y24326D01*
X40477Y24426D01*
X40300Y24461D01*
X40182Y24438D01*
X40077Y24536D01*
X40077Y24537D01*
Y28460D01*
X40195Y28509D01*
X41123Y27581D01*
Y26868D01*
X43377D01*
Y28672D01*
X41624D01*
X40603Y29693D01*
X40421Y29815D01*
X40205Y29858D01*
X40205Y29858D01*
X40077D01*
Y34097D01*
X29373D01*
Y33363D01*
X27733D01*
X27452Y33644D01*
Y34427D01*
X25948D01*
Y32773D01*
X26731D01*
X27102Y32402D01*
X27102Y32402D01*
X27284Y32280D01*
X27500Y32237D01*
X27500Y32237D01*
X29373D01*
Y24493D01*
X30629D01*
X30705Y24366D01*
X30700Y24357D01*
X30601Y24338D01*
X30518Y24282D01*
X29493Y23257D01*
X26000D01*
X25902Y23238D01*
X25818Y23182D01*
X25493Y22857D01*
X25344Y22957D01*
X25167Y22992D01*
X24990Y22957D01*
X24841Y22857D01*
X24741Y22707D01*
X24707Y22537D01*
X24683Y22520D01*
X24587Y22477D01*
X24134Y22930D01*
X24051Y22985D01*
X23952Y23005D01*
X22930D01*
Y24384D01*
X22959Y24412D01*
X23057Y24467D01*
X23200Y24439D01*
X23377Y24474D01*
X23526Y24574D01*
X23572Y24643D01*
X24073D01*
Y23948D01*
X25527D01*
Y25252D01*
X24073D01*
Y25157D01*
X23580D01*
X23579Y25164D01*
X23490Y25297D01*
X22935Y25851D01*
X22967Y25954D01*
X22986Y25980D01*
X23126Y26074D01*
X23226Y26223D01*
X23261Y26400D01*
X23226Y26577D01*
X23126Y26726D01*
X22977Y26826D01*
X22905Y26840D01*
Y28818D01*
X23004Y28871D01*
X23032Y28872D01*
X23200Y28839D01*
X23376Y28874D01*
X23526Y28974D01*
X23572Y29043D01*
X24893D01*
X25048Y28888D01*
Y27873D01*
X26352D01*
Y29327D01*
X25337D01*
X25182Y29482D01*
X25099Y29538D01*
X25000Y29557D01*
X23572D01*
X23526Y29626D01*
X23376Y29726D01*
X23200Y29761D01*
X23032Y29728D01*
X23004Y29729D01*
X22905Y29782D01*
Y30141D01*
X23759Y30995D01*
X24218D01*
X24271Y30896D01*
X24272Y30868D01*
X24239Y30700D01*
X24274Y30523D01*
X24374Y30374D01*
X24523Y30274D01*
X24700Y30239D01*
X24781Y30255D01*
X25045Y29991D01*
X25129Y29935D01*
X25227Y29915D01*
X25716D01*
X25753Y29922D01*
X26152D01*
X26188Y29915D01*
X28162D01*
X28223Y29874D01*
X28400Y29839D01*
X28577Y29874D01*
X28726Y29974D01*
X28826Y30123D01*
X28861Y30300D01*
X28826Y30477D01*
X28726Y30626D01*
X28577Y30726D01*
X28400Y30761D01*
X28223Y30726D01*
X28074Y30626D01*
X27974Y30477D01*
X27965Y30430D01*
X26217D01*
X26181Y30437D01*
X25724D01*
X25687Y30430D01*
X25334D01*
X25145Y30619D01*
X25161Y30700D01*
X25128Y30868D01*
X25129Y30896D01*
X25182Y30995D01*
X27992D01*
X28023Y30974D01*
X28200Y30939D01*
X28376Y30974D01*
X28526Y31074D01*
X28626Y31223D01*
X28661Y31400D01*
X28626Y31576D01*
X28526Y31726D01*
X28376Y31826D01*
X28200Y31861D01*
X28023Y31826D01*
X27874Y31726D01*
X27774Y31576D01*
X27761Y31510D01*
X23652D01*
X23554Y31490D01*
X23487Y31446D01*
X23360Y31481D01*
Y31994D01*
X23329Y32151D01*
X23240Y32285D01*
X22852Y32672D01*
Y35397D01*
X21460D01*
Y36690D01*
X23600D01*
X23757Y36721D01*
X23890Y36810D01*
X24348Y37268D01*
X24377Y37274D01*
X24526Y37374D01*
X24626Y37523D01*
X24661Y37700D01*
X24647Y37771D01*
X24728Y37869D01*
X25200D01*
Y38544D01*
X24600D01*
Y38127D01*
X24473Y38062D01*
X24377Y38126D01*
X24200Y38161D01*
X24023Y38126D01*
X23874Y38026D01*
X23774Y37877D01*
X23768Y37848D01*
X23430Y37510D01*
X21460D01*
Y38292D01*
X21702D01*
Y41242D01*
X22692D01*
Y39794D01*
X22698Y39752D01*
Y38292D01*
X24002D01*
Y39752D01*
X24008Y39794D01*
Y41242D01*
X24579D01*
X24698Y41222D01*
Y39767D01*
X26002D01*
Y41197D01*
X26122Y41240D01*
X26239Y41230D01*
Y37227D01*
X25948D01*
Y35573D01*
X27452D01*
Y37227D01*
X27161D01*
Y41242D01*
X31435D01*
Y39295D01*
X32185D01*
X32935D01*
Y41242D01*
X36504D01*
X36613Y41197D01*
X36613Y41115D01*
Y37093D01*
X37917D01*
Y38582D01*
X41222D01*
X41423Y38381D01*
Y37373D01*
X42656D01*
X44027Y36002D01*
X44027Y36002D01*
X44209Y35880D01*
X44425Y35837D01*
X44448D01*
Y35748D01*
X45752D01*
Y37052D01*
X44569D01*
X43227Y38394D01*
Y39627D01*
X41727D01*
X41671Y39665D01*
X41455Y39708D01*
X41455Y39708D01*
X37917D01*
Y41115D01*
X37917Y41197D01*
X38026Y41242D01*
X40343D01*
Y40900D01*
X40361Y40810D01*
X40339Y40700D01*
X40374Y40523D01*
X40474Y40374D01*
X40623Y40274D01*
X40800Y40239D01*
X40977Y40274D01*
X41126Y40374D01*
X41226Y40523D01*
X41261Y40700D01*
X41226Y40877D01*
X41126Y41026D01*
X40993Y41115D01*
X40994Y41181D01*
X41014Y41242D01*
X52027D01*
X53342Y39927D01*
Y33652D01*
X53273D01*
Y32348D01*
X53957D01*
X54000Y32342D01*
X54043Y32348D01*
X54216D01*
X54460Y32104D01*
X54439Y32000D01*
X54474Y31823D01*
X54574Y31674D01*
X54723Y31574D01*
X54900Y31539D01*
X55077Y31574D01*
X55226Y31674D01*
X55326Y31823D01*
X55361Y32000D01*
X55326Y32177D01*
X55226Y32326D01*
X55077Y32426D01*
X54993Y32443D01*
X54727Y32709D01*
Y33652D01*
X54658D01*
Y40200D01*
X54636Y40370D01*
X54570Y40529D01*
X54465Y40665D01*
X52865Y42265D01*
X52918Y42392D01*
X79292D01*
Y408D01*
D02*
G37*
%LPC*%
G36*
X12650Y6750D02*
X12050D01*
Y6150D01*
X12650D01*
Y6750D01*
D02*
G37*
G36*
X43750Y15850D02*
X43075D01*
Y15250D01*
X43750D01*
Y15850D01*
D02*
G37*
G36*
X44725Y14950D02*
X44050D01*
Y14350D01*
X44725D01*
Y14950D01*
D02*
G37*
G36*
X64300Y19961D02*
X64123Y19926D01*
X63974Y19826D01*
X63874Y19677D01*
X63839Y19500D01*
X63874Y19323D01*
X63974Y19174D01*
X64123Y19074D01*
X64300Y19039D01*
X64477Y19074D01*
X64626Y19174D01*
X64672Y19243D01*
X66543D01*
X67542Y18244D01*
X67475Y18157D01*
X67334Y17816D01*
X67285Y17450D01*
X67334Y17084D01*
X67475Y16743D01*
X67700Y16450D01*
X67993Y16225D01*
X68334Y16084D01*
X68700Y16035D01*
X69066Y16084D01*
X69407Y16225D01*
X69700Y16450D01*
X69925Y16743D01*
X70066Y17084D01*
X70115Y17450D01*
X70066Y17816D01*
X69925Y18157D01*
X69700Y18450D01*
X69407Y18675D01*
X69066Y18816D01*
X68700Y18865D01*
X68334Y18816D01*
X67993Y18675D01*
X67906Y18608D01*
X66832Y19682D01*
X66748Y19738D01*
X66650Y19757D01*
X64672D01*
X64626Y19826D01*
X64477Y19926D01*
X64300Y19961D01*
D02*
G37*
G36*
X44725Y15850D02*
X44050D01*
Y15250D01*
X44725D01*
Y15850D01*
D02*
G37*
G36*
X43750Y14950D02*
X43075D01*
Y14350D01*
X43750D01*
Y14950D01*
D02*
G37*
G36*
X10150Y12550D02*
X9550D01*
Y11950D01*
X10150D01*
Y12550D01*
D02*
G37*
G36*
X6250Y12713D02*
Y11950D01*
X7013D01*
X7001Y12041D01*
X6908Y12266D01*
X6760Y12460D01*
X6566Y12608D01*
X6341Y12701D01*
X6250Y12713D01*
D02*
G37*
G36*
X24152Y14352D02*
X22848D01*
Y13048D01*
X23788D01*
X24248Y12588D01*
X24164Y12492D01*
X24079Y12557D01*
X23896Y12633D01*
X23700Y12659D01*
X23504Y12633D01*
X23321Y12557D01*
X23163Y12437D01*
X23043Y12279D01*
X22967Y12096D01*
X22941Y11900D01*
X22967Y11704D01*
X23043Y11521D01*
X23091Y11458D01*
Y10402D01*
X22973D01*
Y9357D01*
X22855Y9309D01*
X22582Y9582D01*
X22498Y9638D01*
X22400Y9657D01*
X21752D01*
Y10052D01*
X20448D01*
Y8748D01*
X21752D01*
Y9143D01*
X22293D01*
X22818Y8618D01*
X22902Y8562D01*
X23000Y8543D01*
X23716D01*
X23825Y8500D01*
X23825Y8416D01*
Y7850D01*
X24400D01*
X24975D01*
Y8500D01*
X24684D01*
X24645Y8589D01*
X24641Y8627D01*
X25012Y8998D01*
X25827D01*
Y10402D01*
X25827D01*
X25787Y10529D01*
X25811Y10650D01*
X25776Y10827D01*
X25676Y10976D01*
X25527Y11076D01*
X25350Y11111D01*
X25173Y11076D01*
X25024Y10976D01*
X24924Y10827D01*
X24889Y10650D01*
X24913Y10529D01*
X24873Y10402D01*
X24873D01*
Y9587D01*
X24343Y9057D01*
X23927D01*
Y10402D01*
X23809D01*
Y11156D01*
X23896Y11167D01*
X24079Y11243D01*
X24237Y11363D01*
X24357Y11521D01*
X24433Y11704D01*
X24459Y11900D01*
X24440Y12044D01*
X24555Y12119D01*
X24623Y12074D01*
X24800Y12039D01*
X24977Y12074D01*
X25126Y12174D01*
X25226Y12323D01*
X25261Y12500D01*
X25226Y12677D01*
X25126Y12826D01*
X24977Y12926D01*
X24800Y12961D01*
X24635Y12929D01*
X24152Y13412D01*
Y14352D01*
D02*
G37*
G36*
X11050Y12550D02*
X10450D01*
Y11950D01*
X11050D01*
Y12550D01*
D02*
G37*
G36*
X22865Y21333D02*
X22265D01*
Y20658D01*
X22865D01*
Y21333D01*
D02*
G37*
G36*
X17350Y24950D02*
X16750D01*
Y24275D01*
X17350D01*
Y24950D01*
D02*
G37*
G36*
X16450D02*
X15850D01*
Y24275D01*
X16450D01*
Y24950D01*
D02*
G37*
G36*
X26450Y25350D02*
X25775D01*
Y24750D01*
X26450D01*
Y25350D01*
D02*
G37*
G36*
X16450Y25925D02*
X15850D01*
Y25250D01*
X16450D01*
Y25925D01*
D02*
G37*
G36*
X27425Y25350D02*
X26750D01*
Y24750D01*
X27425D01*
Y25350D01*
D02*
G37*
G36*
X16550Y22325D02*
X15950D01*
Y21650D01*
X16550D01*
Y22325D01*
D02*
G37*
G36*
Y21350D02*
X15950D01*
Y20675D01*
X16550D01*
Y21350D01*
D02*
G37*
G36*
X18900Y24561D02*
X18723Y24526D01*
X18574Y24426D01*
X18474Y24277D01*
X18439Y24100D01*
X18474Y23923D01*
X18574Y23774D01*
X18643Y23728D01*
Y21807D01*
X18538Y21702D01*
X17577D01*
X17548Y21702D01*
X17450Y21773D01*
Y21998D01*
X17500Y22039D01*
X17676Y22074D01*
X17826Y22174D01*
X17926Y22323D01*
X17961Y22500D01*
X17926Y22676D01*
X17826Y22826D01*
X17676Y22926D01*
X17500Y22961D01*
X17419Y22945D01*
X17252Y23111D01*
Y24027D01*
X15948D01*
Y23880D01*
X15925Y23861D01*
X15748Y23826D01*
X15599Y23726D01*
X15499Y23577D01*
X15473Y23444D01*
X15468Y23438D01*
X15441Y23300D01*
X15468Y23163D01*
X15546Y23046D01*
X15663Y22968D01*
X15800Y22941D01*
X15915D01*
X15925Y22939D01*
X15948Y22815D01*
Y22573D01*
X16979D01*
X17039Y22500D01*
X17054Y22423D01*
X16973Y22325D01*
X16850D01*
Y21500D01*
Y20675D01*
X17421D01*
X17450Y20675D01*
X17548Y20604D01*
Y20272D01*
X17470Y20208D01*
X17352Y20259D01*
Y20427D01*
X16048D01*
Y18973D01*
X17352D01*
Y19443D01*
X17448Y19462D01*
X17548Y19498D01*
X17548Y19498D01*
Y19498D01*
X17548Y19498D01*
X18952D01*
Y21388D01*
X19082Y21518D01*
X19138Y21602D01*
X19157Y21700D01*
Y23612D01*
X19284Y23728D01*
X19328Y23724D01*
X19342Y23718D01*
X19401Y23678D01*
Y21691D01*
X19421Y21593D01*
X19477Y21509D01*
X20048Y20938D01*
Y19498D01*
X21452D01*
Y19498D01*
X21552Y19462D01*
X21650Y19443D01*
X22362D01*
Y18956D01*
X23667D01*
Y20411D01*
X22362D01*
Y19957D01*
X21757D01*
X21452Y20262D01*
Y21702D01*
X20048D01*
X20048Y21702D01*
Y21702D01*
X19949Y21765D01*
X19916Y21798D01*
Y23678D01*
X19985Y23724D01*
X20085Y23874D01*
X20120Y24050D01*
X20085Y24227D01*
X19985Y24376D01*
X19835Y24476D01*
X19659Y24511D01*
X19482Y24476D01*
X19332Y24376D01*
X19217Y24432D01*
X19077Y24526D01*
X18900Y24561D01*
D02*
G37*
G36*
X27425Y24450D02*
X26750D01*
Y23850D01*
X27425D01*
Y24450D01*
D02*
G37*
G36*
X26450D02*
X25775D01*
Y23850D01*
X26450D01*
Y24450D01*
D02*
G37*
G36*
X21850Y7650D02*
X21250D01*
Y7050D01*
X21850D01*
Y7650D01*
D02*
G37*
G36*
X20950D02*
X20350D01*
Y7050D01*
X20950D01*
Y7650D01*
D02*
G37*
G36*
Y8550D02*
X20350D01*
Y7950D01*
X20950D01*
Y8550D01*
D02*
G37*
G36*
X4100Y10635D02*
X3884Y10606D01*
X3683Y10523D01*
X3510Y10390D01*
X3377Y10217D01*
X3294Y10016D01*
X3265Y9800D01*
X3294Y9584D01*
X3377Y9383D01*
X3510Y9210D01*
X3683Y9077D01*
X3884Y8994D01*
X4100Y8965D01*
X4316Y8994D01*
X4517Y9077D01*
X4690Y9210D01*
X4823Y9383D01*
X4906Y9584D01*
X4935Y9800D01*
X4906Y10016D01*
X4823Y10217D01*
X4690Y10390D01*
X4517Y10523D01*
X4316Y10606D01*
X4100Y10635D01*
D02*
G37*
G36*
X21850Y8550D02*
X21250D01*
Y7950D01*
X21850D01*
Y8550D01*
D02*
G37*
G36*
X38752Y6352D02*
X37448D01*
Y5100D01*
X36727Y4379D01*
X36596Y4433D01*
X36400Y4459D01*
X36204Y4433D01*
X36020Y4357D01*
X35863Y4237D01*
X35743Y4079D01*
X35667Y3896D01*
X35641Y3700D01*
X35667Y3504D01*
X35743Y3321D01*
X35863Y3163D01*
X36020Y3043D01*
X36204Y2967D01*
X36400Y2941D01*
X36596Y2967D01*
X36779Y3043D01*
X36937Y3163D01*
X37057Y3321D01*
X37117Y3464D01*
X38426Y4774D01*
X38526Y4923D01*
X38551Y5048D01*
X38752D01*
Y6352D01*
D02*
G37*
G36*
X44752Y8952D02*
X43448D01*
Y7925D01*
X43443Y7900D01*
X43448Y7875D01*
Y7648D01*
X43588D01*
X43643Y7593D01*
Y7172D01*
X43574Y7126D01*
X43474Y6977D01*
X43439Y6800D01*
X43474Y6623D01*
X43574Y6474D01*
X43723Y6374D01*
X43900Y6339D01*
X44077Y6374D01*
X44226Y6474D01*
X44326Y6623D01*
X44361Y6800D01*
X44326Y6977D01*
X44226Y7126D01*
X44157Y7172D01*
Y7648D01*
X44752D01*
Y8952D01*
D02*
G37*
G36*
X24975Y7550D02*
X24550D01*
Y6900D01*
X24975D01*
Y7550D01*
D02*
G37*
G36*
X24250D02*
X23825D01*
Y6900D01*
X24250D01*
Y7550D01*
D02*
G37*
G36*
X47400Y14761D02*
X47223Y14726D01*
X47074Y14626D01*
X46974Y14477D01*
X46939Y14300D01*
X46971Y14135D01*
X45097Y12261D01*
X44923Y12226D01*
X44774Y12126D01*
X44674Y11977D01*
X44639Y11800D01*
X44674Y11623D01*
X44774Y11474D01*
X44923Y11374D01*
X45100Y11339D01*
X45277Y11374D01*
X45426Y11474D01*
X45526Y11623D01*
X45561Y11800D01*
X45529Y11965D01*
X47403Y13839D01*
X47577Y13874D01*
X47726Y13974D01*
X47826Y14123D01*
X47861Y14300D01*
X47826Y14477D01*
X47726Y14626D01*
X47577Y14726D01*
X47400Y14761D01*
D02*
G37*
G36*
X7013Y11650D02*
X6250D01*
Y10887D01*
X6341Y10899D01*
X6566Y10992D01*
X6760Y11140D01*
X6908Y11334D01*
X7001Y11559D01*
X7013Y11650D01*
D02*
G37*
G36*
X3950Y12713D02*
X3859Y12701D01*
X3634Y12608D01*
X3440Y12460D01*
X3292Y12266D01*
X3199Y12041D01*
X3187Y11950D01*
X3950D01*
Y12713D01*
D02*
G37*
G36*
X4250D02*
Y11950D01*
X5013D01*
X5001Y12041D01*
X4908Y12266D01*
X4760Y12460D01*
X4566Y12608D01*
X4341Y12701D01*
X4250Y12713D01*
D02*
G37*
G36*
X5950D02*
X5859Y12701D01*
X5634Y12608D01*
X5440Y12460D01*
X5292Y12266D01*
X5199Y12041D01*
X5187Y11950D01*
X5950D01*
Y12713D01*
D02*
G37*
G36*
X75450Y12115D02*
X75084Y12066D01*
X74743Y11925D01*
X74450Y11700D01*
X74225Y11407D01*
X74084Y11066D01*
X74035Y10700D01*
X74084Y10334D01*
X74225Y9993D01*
X74450Y9700D01*
X74743Y9475D01*
X75084Y9334D01*
X75450Y9285D01*
X75816Y9334D01*
X76157Y9475D01*
X76450Y9700D01*
X76675Y9993D01*
X76816Y10334D01*
X76865Y10700D01*
X76816Y11066D01*
X76675Y11407D01*
X76450Y11700D01*
X76157Y11925D01*
X75816Y12066D01*
X75450Y12115D01*
D02*
G37*
G36*
X61950D02*
X61584Y12066D01*
X61243Y11925D01*
X60950Y11700D01*
X60725Y11407D01*
X60584Y11066D01*
X60535Y10700D01*
X60584Y10334D01*
X60725Y9993D01*
X60950Y9700D01*
X61243Y9475D01*
X61584Y9334D01*
X61950Y9285D01*
X62316Y9334D01*
X62657Y9475D01*
X62950Y9700D01*
X63175Y9993D01*
X63316Y10334D01*
X63364Y10700D01*
X63316Y11066D01*
X63175Y11407D01*
X62950Y11700D01*
X62657Y11925D01*
X62316Y12066D01*
X61950Y12115D01*
D02*
G37*
G36*
X3950Y11650D02*
X3187D01*
X3199Y11559D01*
X3292Y11334D01*
X3440Y11140D01*
X3634Y10992D01*
X3859Y10899D01*
X3950Y10887D01*
Y11650D01*
D02*
G37*
G36*
X5013D02*
X4250D01*
Y10887D01*
X4341Y10899D01*
X4566Y10992D01*
X4760Y11140D01*
X4908Y11334D01*
X5001Y11559D01*
X5013Y11650D01*
D02*
G37*
G36*
X5950D02*
X5187D01*
X5199Y11559D01*
X5292Y11334D01*
X5440Y11140D01*
X5634Y10992D01*
X5859Y10899D01*
X5950Y10887D01*
Y11650D01*
D02*
G37*
G36*
X32935Y38995D02*
X32335D01*
Y36995D01*
X32935D01*
Y38995D01*
D02*
G37*
G36*
X32035D02*
X31435D01*
Y36995D01*
X32035D01*
Y38995D01*
D02*
G37*
G36*
X45725Y38350D02*
X44875D01*
Y37275D01*
X45725D01*
Y38350D01*
D02*
G37*
G36*
X14800Y38219D02*
X13725D01*
Y37369D01*
X14800D01*
Y38219D01*
D02*
G37*
G36*
X46875Y38350D02*
X46025D01*
Y37275D01*
X46875D01*
Y38350D01*
D02*
G37*
G36*
X52050Y33750D02*
X51375D01*
Y33150D01*
X52050D01*
Y33750D01*
D02*
G37*
G36*
X53025Y32850D02*
X52350D01*
Y32250D01*
X53025D01*
Y32850D01*
D02*
G37*
G36*
Y33750D02*
X52350D01*
Y33150D01*
X53025D01*
Y33750D01*
D02*
G37*
G36*
X59400Y37561D02*
X59223Y37526D01*
X59074Y37426D01*
X58974Y37277D01*
X58939Y37100D01*
X58974Y36923D01*
X59074Y36774D01*
X59143Y36728D01*
Y36407D01*
X58781Y36045D01*
X58700Y36061D01*
X58523Y36026D01*
X58374Y35926D01*
X58274Y35777D01*
X58239Y35600D01*
X58274Y35423D01*
X58374Y35274D01*
X58523Y35174D01*
X58700Y35139D01*
X58877Y35174D01*
X59026Y35274D01*
X59126Y35423D01*
X59161Y35600D01*
X59145Y35681D01*
X59582Y36118D01*
X59638Y36202D01*
X59657Y36300D01*
Y36728D01*
X59726Y36774D01*
X59826Y36923D01*
X59861Y37100D01*
X59826Y37277D01*
X59726Y37426D01*
X59577Y37526D01*
X59400Y37561D01*
D02*
G37*
G36*
X45752Y35452D02*
X44448D01*
Y35363D01*
X43900D01*
X43900Y35363D01*
X43684Y35320D01*
X43502Y35198D01*
X43502Y35198D01*
X42257Y33953D01*
X42104Y33933D01*
X41921Y33857D01*
X41763Y33737D01*
X41643Y33579D01*
X41567Y33396D01*
X41541Y33200D01*
X41567Y33004D01*
X41643Y32821D01*
X41763Y32663D01*
X41921Y32543D01*
X42104Y32467D01*
X42222Y32451D01*
X42255Y32447D01*
X42247Y32320D01*
X41025D01*
Y31470D01*
X42250D01*
X43475D01*
Y32320D01*
X42353D01*
X42345Y32447D01*
X42378Y32451D01*
X42496Y32467D01*
X42679Y32543D01*
X42837Y32663D01*
X42957Y32821D01*
X43033Y33004D01*
X43053Y33157D01*
X44133Y34237D01*
X44448D01*
Y34148D01*
X45752D01*
Y35452D01*
D02*
G37*
G36*
X45725Y39725D02*
X44875D01*
Y38650D01*
X45725D01*
Y39725D01*
D02*
G37*
G36*
X16175Y39369D02*
X15100D01*
Y38519D01*
X16175D01*
Y39369D01*
D02*
G37*
G36*
X46875Y39725D02*
X46025D01*
Y38650D01*
X46875D01*
Y39725D01*
D02*
G37*
G36*
X26100Y39519D02*
X25500D01*
Y38844D01*
X26100D01*
Y39519D01*
D02*
G37*
G36*
X25200D02*
X24600D01*
Y38844D01*
X25200D01*
Y39519D01*
D02*
G37*
G36*
X26100Y38544D02*
X25500D01*
Y37869D01*
X26100D01*
Y38544D01*
D02*
G37*
G36*
X16175Y38219D02*
X15100D01*
Y37369D01*
X16175D01*
Y38219D01*
D02*
G37*
G36*
X18600Y39644D02*
X18000D01*
Y38194D01*
X18600D01*
Y39644D01*
D02*
G37*
G36*
X14800Y39369D02*
X13725D01*
Y38519D01*
X14800D01*
Y39369D01*
D02*
G37*
G36*
X19500Y39644D02*
X18900D01*
Y38194D01*
X19500D01*
Y39644D01*
D02*
G37*
G36*
X52050Y32850D02*
X51375D01*
Y32250D01*
X52050D01*
Y32850D01*
D02*
G37*
G36*
X26450Y27625D02*
X25850D01*
Y26950D01*
X26450D01*
Y27625D01*
D02*
G37*
G36*
X25550D02*
X24950D01*
Y26950D01*
X25550D01*
Y27625D01*
D02*
G37*
G36*
X16725Y28475D02*
X15650D01*
Y27625D01*
X16725D01*
Y28475D01*
D02*
G37*
G36*
Y29625D02*
X15650D01*
Y28775D01*
X16725D01*
Y29625D01*
D02*
G37*
G36*
X15350D02*
X14275D01*
Y28775D01*
X15350D01*
Y29625D01*
D02*
G37*
G36*
X5925Y26714D02*
X5690Y26667D01*
X5491Y26534D01*
X5358Y26335D01*
X5311Y26100D01*
X5358Y25865D01*
X5491Y25666D01*
X5690Y25533D01*
X5925Y25486D01*
X6160Y25533D01*
X6359Y25666D01*
X6492Y25865D01*
X6539Y26100D01*
X6492Y26335D01*
X6359Y26534D01*
X6160Y26667D01*
X5925Y26714D01*
D02*
G37*
G36*
X17350Y25925D02*
X16750D01*
Y25250D01*
X17350D01*
Y25925D01*
D02*
G37*
G36*
X25550Y26650D02*
X24950D01*
Y25975D01*
X25550D01*
Y26650D01*
D02*
G37*
G36*
X51500Y31861D02*
X51323Y31826D01*
X51174Y31726D01*
X51074Y31577D01*
X51039Y31400D01*
X51074Y31223D01*
X51174Y31074D01*
X51243Y31028D01*
Y30607D01*
X47393Y26757D01*
X45000D01*
X44902Y26738D01*
X44818Y26682D01*
X44781Y26645D01*
X44700Y26661D01*
X44661Y26653D01*
X44643Y26664D01*
X44563Y26764D01*
X44589Y26891D01*
X44554Y27068D01*
X44454Y27218D01*
X44366Y27276D01*
Y28933D01*
X44426Y29023D01*
X44461Y29200D01*
X44426Y29377D01*
X44326Y29526D01*
X44177Y29626D01*
X44000Y29661D01*
X43823Y29626D01*
X43674Y29526D01*
X43574Y29377D01*
X43539Y29200D01*
X43574Y29023D01*
X43674Y28874D01*
X43823Y28774D01*
X43851Y28768D01*
Y27251D01*
X43801Y27218D01*
X43701Y27068D01*
X43666Y26891D01*
X43701Y26715D01*
X43801Y26565D01*
X43951Y26465D01*
X44127Y26430D01*
X44166Y26438D01*
X44185Y26428D01*
X44264Y26328D01*
X44239Y26200D01*
X44274Y26023D01*
X44374Y25874D01*
X44523Y25774D01*
X44700Y25739D01*
X44876Y25774D01*
X45026Y25874D01*
X45126Y26023D01*
X45161Y26200D01*
X45196Y26243D01*
X47500D01*
X47598Y26262D01*
X47682Y26318D01*
X51682Y30318D01*
X51738Y30402D01*
X51757Y30500D01*
Y31028D01*
X51826Y31074D01*
X51926Y31223D01*
X51961Y31400D01*
X51926Y31577D01*
X51826Y31726D01*
X51677Y31826D01*
X51500Y31861D01*
D02*
G37*
G36*
X26450Y26650D02*
X25850D01*
Y25975D01*
X26450D01*
Y26650D01*
D02*
G37*
G36*
X61950Y33514D02*
X61584Y33466D01*
X61243Y33325D01*
X60950Y33100D01*
X60725Y32807D01*
X60584Y32466D01*
X60535Y32100D01*
X60584Y31734D01*
X60725Y31393D01*
X60950Y31100D01*
X61243Y30875D01*
X61584Y30734D01*
X61950Y30685D01*
X62316Y30734D01*
X62657Y30875D01*
X62950Y31100D01*
X63175Y31393D01*
X63316Y31734D01*
X63364Y32100D01*
X63316Y32466D01*
X63175Y32807D01*
X62950Y33100D01*
X62657Y33325D01*
X62316Y33466D01*
X61950Y33514D01*
D02*
G37*
G36*
X43475Y31170D02*
X42400D01*
Y30320D01*
X43475D01*
Y31170D01*
D02*
G37*
G36*
X68700Y40264D02*
X68334Y40216D01*
X67993Y40075D01*
X67700Y39850D01*
X67475Y39557D01*
X67334Y39216D01*
X67285Y38850D01*
X67334Y38484D01*
X67475Y38143D01*
X67700Y37850D01*
X67993Y37625D01*
X68334Y37484D01*
X68443Y37469D01*
Y31707D01*
X65846Y29110D01*
X59971D01*
X59873Y29090D01*
X59789Y29034D01*
X58881Y28126D01*
X58800Y28142D01*
X58623Y28107D01*
X58474Y28007D01*
X58374Y27858D01*
X58343Y27701D01*
X58280Y27665D01*
X58216Y27648D01*
X55336Y30528D01*
X55326Y30577D01*
X55226Y30726D01*
X55077Y30826D01*
X54900Y30861D01*
X54723Y30826D01*
X54574Y30726D01*
X54474Y30577D01*
X54439Y30400D01*
X54474Y30223D01*
X54574Y30074D01*
X54723Y29974D01*
X54900Y29939D01*
X55077Y29974D01*
X55128Y30008D01*
X58518Y26618D01*
X58602Y26562D01*
X58700Y26543D01*
X60800D01*
X60898Y26562D01*
X60982Y26618D01*
X61219Y26855D01*
X61300Y26839D01*
X61477Y26874D01*
X61626Y26974D01*
X61726Y27123D01*
X61761Y27300D01*
X61726Y27477D01*
X61626Y27626D01*
X61477Y27726D01*
X61300Y27761D01*
X61123Y27726D01*
X60974Y27626D01*
X60874Y27477D01*
X60839Y27300D01*
X60855Y27219D01*
X60693Y27057D01*
X58884D01*
X58844Y27099D01*
X58864Y27196D01*
X58899Y27240D01*
X58977Y27255D01*
X59126Y27355D01*
X59226Y27505D01*
X59261Y27681D01*
X59245Y27762D01*
X59651Y28168D01*
X59758Y28135D01*
X59779Y28116D01*
X59874Y27974D01*
X60023Y27874D01*
X60200Y27839D01*
X60377Y27874D01*
X60526Y27974D01*
X60572Y28043D01*
X71650D01*
X71748Y28062D01*
X71832Y28118D01*
X74656Y30942D01*
X74743Y30875D01*
X75084Y30734D01*
X75450Y30685D01*
X75816Y30734D01*
X76157Y30875D01*
X76450Y31100D01*
X76675Y31393D01*
X76816Y31734D01*
X76865Y32100D01*
X76816Y32466D01*
X76675Y32807D01*
X76450Y33100D01*
X76157Y33325D01*
X75816Y33466D01*
X75450Y33514D01*
X75084Y33466D01*
X74743Y33325D01*
X74450Y33100D01*
X74225Y32807D01*
X74084Y32466D01*
X74035Y32100D01*
X74084Y31734D01*
X74225Y31393D01*
X74292Y31306D01*
X71543Y28557D01*
X66194D01*
X66157Y28627D01*
X66148Y28684D01*
X68882Y31418D01*
X68938Y31502D01*
X68957Y31600D01*
Y37469D01*
X69066Y37484D01*
X69407Y37625D01*
X69700Y37850D01*
X69925Y38143D01*
X70066Y38484D01*
X70115Y38850D01*
X70066Y39216D01*
X69925Y39557D01*
X69700Y39850D01*
X69407Y40075D01*
X69066Y40216D01*
X68700Y40264D01*
D02*
G37*
G36*
X20825Y31550D02*
X20150D01*
Y30950D01*
X20825D01*
Y31550D01*
D02*
G37*
G36*
X19850D02*
X19175D01*
Y30950D01*
X19850D01*
Y31550D01*
D02*
G37*
G36*
X5925Y31114D02*
X5690Y31067D01*
X5491Y30934D01*
X5358Y30735D01*
X5311Y30500D01*
X5358Y30265D01*
X5491Y30066D01*
X5690Y29933D01*
X5925Y29886D01*
X6160Y29933D01*
X6359Y30066D01*
X6492Y30265D01*
X6539Y30500D01*
X6492Y30735D01*
X6359Y30934D01*
X6160Y31067D01*
X5925Y31114D01*
D02*
G37*
G36*
X9300Y36159D02*
X9104Y36133D01*
X8921Y36057D01*
X8763Y35937D01*
X8643Y35779D01*
X8567Y35596D01*
X8541Y35400D01*
X8567Y35204D01*
X8643Y35020D01*
X8763Y34863D01*
X8921Y34743D01*
X9104Y34667D01*
X9300Y34641D01*
X9496Y34667D01*
X9517Y34675D01*
X10741Y33451D01*
Y32466D01*
X10721Y32457D01*
X10563Y32337D01*
X10443Y32179D01*
X10367Y31996D01*
X10341Y31800D01*
X10367Y31604D01*
X10443Y31421D01*
X10563Y31263D01*
X10639Y31206D01*
Y30752D01*
X10448D01*
Y29448D01*
X11752D01*
Y30752D01*
X11561D01*
Y31206D01*
X11637Y31263D01*
X11757Y31421D01*
X11833Y31604D01*
X11859Y31800D01*
X11833Y31996D01*
X11757Y32179D01*
X11637Y32337D01*
X11479Y32457D01*
X11459Y32466D01*
Y33600D01*
X11432Y33737D01*
X11354Y33854D01*
X10025Y35183D01*
X10033Y35204D01*
X10059Y35400D01*
X10033Y35596D01*
X9957Y35779D01*
X9837Y35937D01*
X9679Y36057D01*
X9496Y36133D01*
X9300Y36159D01*
D02*
G37*
G36*
X19850Y30650D02*
X19175D01*
Y30050D01*
X19850D01*
Y30650D01*
D02*
G37*
G36*
X42100Y31170D02*
X41025D01*
Y30320D01*
X42100D01*
Y31170D01*
D02*
G37*
G36*
X20825Y30650D02*
X20150D01*
Y30050D01*
X20825D01*
Y30650D01*
D02*
G37*
%LPD*%
D16*
X42500Y8300D02*
D03*
X44100D02*
D03*
X39700Y5700D02*
D03*
X38100D02*
D03*
D17*
X12400Y18600D02*
D03*
Y20200D02*
D03*
X10900Y18600D02*
D03*
Y20200D02*
D03*
X11900Y10200D02*
D03*
Y11800D02*
D03*
Y6900D02*
D03*
Y8500D02*
D03*
Y3600D02*
D03*
Y5200D02*
D03*
X10300Y3600D02*
D03*
Y5200D02*
D03*
Y8500D02*
D03*
Y6900D02*
D03*
Y10200D02*
D03*
Y11800D02*
D03*
X21100Y7800D02*
D03*
Y9400D02*
D03*
X23500Y15300D02*
D03*
Y13700D02*
D03*
X21900Y15300D02*
D03*
Y13700D02*
D03*
X20300Y15300D02*
D03*
Y13700D02*
D03*
X11100Y28500D02*
D03*
Y30100D02*
D03*
X45100Y34800D02*
D03*
Y36400D02*
D03*
D18*
X23015Y21483D02*
D03*
Y19683D02*
D03*
X16700Y21500D02*
D03*
Y19700D02*
D03*
X16600Y25100D02*
D03*
Y23300D02*
D03*
X25700Y26800D02*
D03*
Y28600D02*
D03*
X25350Y38694D02*
D03*
Y40494D02*
D03*
D19*
X26600Y24600D02*
D03*
X24800D02*
D03*
X20000Y30800D02*
D03*
X18200D02*
D03*
X43900Y15100D02*
D03*
X42100D02*
D03*
X52200Y33000D02*
D03*
X54000D02*
D03*
D40*
X11077Y20377D02*
Y21677D01*
X44109Y26891D02*
Y29091D01*
X8700Y6800D02*
X10400Y8500D01*
X12500Y20100D02*
Y21200D01*
X11848Y19448D02*
X12500Y20100D01*
X16600Y19800D02*
X16700D01*
X43700Y7900D02*
X43900Y7700D01*
X25952Y29627D02*
X26000Y29580D01*
X26188Y30173D02*
X28273D01*
X26181Y30180D02*
X26188Y30173D01*
X25724Y30180D02*
X26181D01*
X25716Y30173D02*
X25724Y30180D01*
X25227Y30173D02*
X25716D01*
X43900Y6800D02*
Y7700D01*
X11148Y7748D02*
X12948D01*
X13100Y7900D01*
X16700Y23300D02*
X17500Y22500D01*
X16600Y23300D02*
X16700D01*
X44109Y26891D02*
X44127D01*
X44700Y26200D02*
X44700D01*
X40600Y40900D02*
Y41900D01*
Y40900D02*
X40800Y40700D01*
X17950Y32250D02*
X18200Y32000D01*
X14269Y35500D02*
X14950Y34819D01*
X13400Y35500D02*
X14269D01*
X10300Y6900D02*
X11148Y7748D01*
X17700Y11800D02*
X17750Y11850D01*
Y13050D01*
X20000Y15300D01*
X23500Y13700D02*
X24700Y12500D01*
X20000Y15300D02*
X20300D01*
X21900D02*
X23500D01*
X20300D02*
X21900D01*
X41500Y14000D02*
X42100Y14600D01*
Y15100D01*
X10992Y5952D02*
X11745Y5200D01*
X11900D01*
X6252Y5952D02*
X10992D01*
X24500Y24900D02*
X24800Y24600D01*
X23200Y24900D02*
X24500D01*
X22273Y22730D02*
Y24027D01*
X21400Y24900D02*
X22273Y24027D01*
X22673Y22895D02*
Y24476D01*
X21449Y25700D02*
X22673Y24476D01*
X23200Y29300D02*
X25000D01*
X22648Y30248D02*
X23652Y31252D01*
X22648Y26552D02*
Y30248D01*
Y26552D02*
X22800Y26400D01*
X25000Y29300D02*
X25700Y28600D01*
X18200Y30800D02*
Y32000D01*
X44000Y29200D02*
X44109Y29091D01*
X44700Y26200D02*
X45000Y26500D01*
X43700Y7900D02*
X44100Y8300D01*
X41700Y7500D02*
X42500Y8300D01*
X41500Y7500D02*
X41700D01*
X54900Y30400D02*
X55100D01*
X58700Y26800D01*
X60800D01*
X61300Y27300D01*
X60200Y28300D02*
X71650D01*
X59971Y28852D02*
X65952D01*
X58800Y27681D02*
X59971Y28852D01*
X51500Y30500D02*
Y31400D01*
X47500Y26500D02*
X51500Y30500D01*
X45000Y26500D02*
X47500D01*
X58700Y35600D02*
X59400Y36300D01*
Y37100D01*
X66650Y19500D02*
X68700Y17450D01*
X64300Y19500D02*
X66650D01*
X65952Y28852D02*
X68700Y31600D01*
Y38850D01*
X71650Y28300D02*
X75450Y32100D01*
X47400Y14200D02*
Y14300D01*
X45100Y11900D02*
X47400Y14200D01*
X45100Y11800D02*
Y11900D01*
X23652Y31252D02*
X28052D01*
X28200Y31400D01*
X18250Y21050D02*
X18900Y21700D01*
X18250Y20600D02*
Y21050D01*
X17350Y19700D02*
X18250Y20600D01*
X16700Y19700D02*
X17350D01*
X19659Y21691D02*
X20750Y20600D01*
X19659Y21691D02*
Y24050D01*
X30700Y24100D02*
X31200D01*
X29600Y23000D02*
X30700Y24100D01*
X30800Y23100D02*
Y23300D01*
X30200Y22500D02*
X30800Y23100D01*
X26400Y22500D02*
X30200D01*
X30700Y22000D02*
X31200Y22500D01*
X26700Y22000D02*
X30700D01*
X26000Y23000D02*
X29600D01*
X25600Y21700D02*
X26400Y22500D01*
X11300Y26700D02*
X14100D01*
X14550Y27150D01*
X24700Y30700D02*
X25227Y30173D01*
X28273D02*
X28400Y30300D01*
X18900Y21700D02*
Y24100D01*
X22655Y22348D02*
X23787D01*
X22673Y22895D02*
X22820Y22748D01*
X22273Y22730D02*
X22655Y22348D01*
X29659Y16041D02*
X29941D01*
X29376Y15476D02*
Y15759D01*
X25287Y18648D02*
X26524D01*
X27248Y18452D02*
X29659Y16041D01*
X27248Y18452D02*
Y18490D01*
X26690Y19048D02*
X27248Y18490D01*
X26652Y19048D02*
X26690D01*
X26400Y19300D02*
X26652Y19048D01*
X26848Y18287D02*
X29376Y15759D01*
X26848Y18287D02*
Y18324D01*
X26524Y18648D02*
X26848Y18324D01*
X25200Y19300D02*
X26400D01*
X21400Y25700D02*
X21449D01*
X6812Y5200D02*
X10300D01*
X6484Y4873D02*
X6812Y5200D01*
X5173Y4873D02*
X6484D01*
X4100Y3800D02*
X5173Y4873D01*
X6100Y5800D02*
X6252Y5952D01*
X5100Y6800D02*
X8700D01*
X4100Y5800D02*
X5100Y6800D01*
X11148Y9252D02*
X11900Y8500D01*
X8652Y9252D02*
X11148D01*
X7200Y7800D02*
X8652Y9252D01*
X6100Y7800D02*
X7200D01*
X8600Y10200D02*
X10300D01*
X7200Y8800D02*
X8600Y10200D01*
X5100Y8800D02*
X7200D01*
X4100Y7800D02*
X5100Y8800D01*
X11100Y11000D02*
X11900Y10200D01*
X7300Y11000D02*
X11100D01*
X6100Y9800D02*
X7300Y11000D01*
X20300Y12900D02*
Y13700D01*
X19700Y12300D02*
X20300Y12900D01*
X21900Y13200D02*
Y13700D01*
X21000Y12300D02*
X21900Y13200D01*
X24700Y12500D02*
X24800D01*
X21100Y9400D02*
X22400D01*
X23000Y8800D01*
X24450D01*
X25350Y9700D01*
Y10650D01*
X26295Y17005D02*
Y18095D01*
Y17005D02*
X26900Y16400D01*
X20750Y20600D02*
X21650Y19700D01*
X22500D01*
X12200Y22800D02*
X14100D01*
X10900Y20200D02*
X11077Y20377D01*
X10000Y21150D02*
X10525Y21675D01*
X10000Y19743D02*
Y21150D01*
Y19743D02*
X10295Y19448D01*
X11848D01*
X11077Y21677D02*
X12200Y22800D01*
X18600Y32300D02*
X18800D01*
X13429Y22129D02*
X13707D01*
X11278Y21278D02*
X11500Y21500D01*
X11192Y21278D02*
X11278D01*
X12500Y21200D02*
X13429Y22129D01*
X17600Y34800D02*
Y34900D01*
X25600Y20900D02*
X26700Y22000D01*
X25200Y20900D02*
X25600D01*
X25350Y21700D02*
X25600D01*
X25531Y22531D02*
X26000Y23000D01*
X25167Y22531D02*
X25531D01*
X24523Y19977D02*
X25200Y19300D01*
X22820Y22748D02*
X23952D01*
X24523Y22177D01*
Y19977D02*
Y22177D01*
X24123Y19811D02*
Y22011D01*
X23787Y22348D02*
X24123Y22011D01*
Y19811D02*
X25287Y18648D01*
D41*
X15800Y23300D02*
X16600D01*
X33300Y5800D02*
Y11100D01*
Y15600D01*
X33200Y15700D02*
X33300Y15600D01*
X11900Y6900D02*
X13200D01*
X13123Y7900D02*
X13852Y7170D01*
X13100Y7900D02*
X13123D01*
X13100Y5877D02*
X13852Y6630D01*
X13100Y5200D02*
Y5877D01*
X13852Y6630D02*
Y7170D01*
X33300Y5800D02*
X36052Y8552D01*
X41500Y9600D02*
Y14000D01*
X40452Y8552D02*
X41500Y9600D01*
X36052Y8552D02*
X40452D01*
X13700Y4600D02*
X15500Y2800D01*
X13100Y5200D02*
X13700Y4600D01*
X13000Y4100D02*
X13500Y4600D01*
X13700D01*
X13200Y11800D02*
X17700D01*
X13100Y11700D02*
X13200Y11800D01*
X13100Y7900D02*
Y11700D01*
X30300Y2800D02*
X33300Y5800D01*
X15500Y2800D02*
X30300D01*
X14275Y32175D02*
X15500D01*
X13600Y31500D02*
X14275Y32175D01*
X13600Y29000D02*
Y31500D01*
X12100Y27500D02*
X13600Y29000D01*
X10600Y27500D02*
X12100D01*
X8800Y25700D02*
X10600Y27500D01*
X8800Y19200D02*
Y25700D01*
Y19200D02*
X9400Y18600D01*
X10900D01*
X11100Y31800D02*
Y33600D01*
X9300Y35400D02*
X11100Y33600D01*
X11900Y11800D02*
X13200D01*
X17700D02*
X19000D01*
X19300Y11500D01*
X11900Y11800D02*
Y13000D01*
X19300Y11500D02*
X21700D01*
X22200Y12000D01*
X23450Y9700D02*
Y11650D01*
X23700Y11900D01*
X11500Y13400D02*
X11900Y13000D01*
X9400Y16100D02*
Y18600D01*
X8900Y15600D02*
X9400Y16100D01*
X10900Y18600D02*
X12400D01*
X12600D01*
X14200Y20200D01*
D42*
X40400Y31900D02*
X40400Y31900D01*
X35500Y24000D02*
X40300D01*
X15500Y32175D02*
X16525D01*
X17900Y30800D01*
X18200D01*
X47800Y1600D02*
X57700D01*
X58700Y2600D01*
Y5900D01*
X48300Y7400D02*
X49300Y8400D01*
Y10400D01*
X54900Y32000D02*
Y32100D01*
X54000Y33000D02*
X54900Y32100D01*
X11200Y13400D02*
X11500D01*
D43*
X26500Y41900D02*
X26700Y41700D01*
Y36400D02*
Y41700D01*
X25300Y41900D02*
X25350Y41850D01*
Y40494D02*
Y41850D01*
X11100Y30100D02*
Y31800D01*
X8700Y28000D02*
X9900D01*
X10400Y28500D01*
X11100D01*
X36400Y3700D02*
X36700D01*
X38100Y5100D01*
Y5700D01*
X40300Y6700D02*
Y7600D01*
X39700Y6100D02*
X40300Y6700D01*
X39700Y5700D02*
Y6100D01*
D44*
X41455Y39145D02*
X42213Y38388D01*
X42300Y33200D02*
X43900Y34800D01*
X45100D01*
X27500Y32800D02*
X31220D01*
X34725Y29295D01*
X37265Y39145D02*
X41455D01*
X44425Y36400D02*
X45100D01*
X42325Y38500D02*
X44425Y36400D01*
X34725Y29295D02*
X40205D01*
X41730Y27770D01*
X42250D01*
X26700Y33600D02*
X27500Y32800D01*
D45*
X61950Y10700D02*
D03*
X68700Y17450D02*
D03*
X75450Y10700D02*
D03*
Y32100D02*
D03*
X68700Y38850D02*
D03*
X61950Y32100D02*
D03*
D46*
X5925Y26100D02*
D03*
Y30500D02*
D03*
D47*
X6100Y3800D02*
D03*
D48*
Y5800D02*
D03*
Y7800D02*
D03*
Y9800D02*
D03*
Y11800D02*
D03*
X4100Y3800D02*
D03*
Y5800D02*
D03*
Y7800D02*
D03*
Y9800D02*
D03*
Y11800D02*
D03*
D49*
X25952Y29627D02*
D03*
X35100Y35800D02*
D03*
X7500Y20400D02*
D03*
X3000Y15200D02*
D03*
X8000Y16500D02*
D03*
X19100Y17000D02*
D03*
X15550Y24650D02*
D03*
X55000Y19400D02*
D03*
X47200Y33400D02*
D03*
X43400Y32800D02*
D03*
X40400Y31900D02*
D03*
X43200Y25700D02*
D03*
X44700Y27800D02*
D03*
X44600Y24400D02*
D03*
X45700Y19600D02*
D03*
X42200Y20600D02*
D03*
X27300Y10300D02*
D03*
X32100Y12400D02*
D03*
X33300Y11100D02*
D03*
X34100Y20400D02*
D03*
X43900Y6800D02*
D03*
X55400Y9350D02*
D03*
X55200Y3900D02*
D03*
X51600Y6100D02*
D03*
X36600Y5500D02*
D03*
X13200Y6900D02*
D03*
X35500Y24000D02*
D03*
X36500Y9500D02*
D03*
X17500Y22500D02*
D03*
X40300Y24000D02*
D03*
X44127Y26891D02*
D03*
X44700Y26200D02*
D03*
X40800Y40700D02*
D03*
X30411Y40289D02*
D03*
X24200Y37700D02*
D03*
X17950Y32250D02*
D03*
X13400Y35500D02*
D03*
X22200Y12000D02*
D03*
X33200Y15700D02*
D03*
X41500Y14000D02*
D03*
X58700Y5900D02*
D03*
X49300Y10400D02*
D03*
X13000Y4100D02*
D03*
X21800Y21600D02*
D03*
X21400Y24900D02*
D03*
X23200D02*
D03*
X23200Y29300D02*
D03*
X52100Y32100D02*
D03*
X54900Y32000D02*
D03*
X44000Y29200D02*
D03*
X41500Y7500D02*
D03*
X54900Y30400D02*
D03*
X61300Y27300D02*
D03*
X51500Y31400D02*
D03*
X58700Y35600D02*
D03*
X59400Y37100D02*
D03*
X64300Y19500D02*
D03*
X58800Y27681D02*
D03*
X60200Y28300D02*
D03*
X47400Y14300D02*
D03*
X45100Y11800D02*
D03*
X19659Y24050D02*
D03*
X31200Y24100D02*
D03*
X30800Y23300D02*
D03*
X31200Y22500D02*
D03*
X11300Y26700D02*
D03*
X14550Y27150D02*
D03*
X24700Y30700D02*
D03*
X18900Y24100D02*
D03*
X29941Y16041D02*
D03*
X29376Y15476D02*
D03*
X21400Y25700D02*
D03*
X19700Y12300D02*
D03*
X21000D02*
D03*
X24800Y12500D02*
D03*
X25350Y10650D02*
D03*
X26295Y18095D02*
D03*
X26900Y16400D02*
D03*
X22800Y26400D02*
D03*
X28400Y30300D02*
D03*
X28200Y31400D02*
D03*
X14100Y22800D02*
D03*
X10525Y21675D02*
D03*
X11200Y13400D02*
D03*
X8900Y15600D02*
D03*
X14200Y20200D02*
D03*
X13707Y22129D02*
D03*
X11192Y21278D02*
D03*
X15925Y23400D02*
D03*
X17600Y34800D02*
D03*
X25200Y20900D02*
D03*
X25350Y21700D02*
D03*
X25167Y22531D02*
D03*
D50*
X14500Y36600D02*
D03*
X4500Y35200D02*
D03*
X45100Y4100D02*
D03*
X28500Y4000D02*
D03*
X14950Y15150D02*
D03*
X4700Y27600D02*
D03*
X9300Y35400D02*
D03*
X11100Y31800D02*
D03*
X47400Y36300D02*
D03*
X42300Y33200D02*
D03*
X36400Y3700D02*
D03*
X23700Y11900D02*
D03*
D51*
X15500Y32175D02*
D03*
Y28625D02*
D03*
X14950Y34819D02*
D03*
Y38369D02*
D03*
X42250Y27770D02*
D03*
Y31320D02*
D03*
D52*
X42325Y38500D02*
D03*
X45875D02*
D03*
D53*
X37500Y7600D02*
D03*
X40300D02*
D03*
D54*
X8700Y30800D02*
D03*
Y28000D02*
D03*
X26700Y36400D02*
D03*
Y33600D02*
D03*
D55*
X21050Y33894D02*
D03*
D56*
X23350Y39794D02*
D03*
X21050D02*
D03*
X18750D02*
D03*
D57*
X34725Y29295D02*
D03*
D58*
X37265Y39145D02*
D03*
X32185D02*
D03*
D59*
X18250Y20600D02*
D03*
X20750D02*
D03*
D60*
X23450Y9700D02*
D03*
X25350D02*
D03*
X24400Y7700D02*
D03*
D61*
X23200Y24900D02*
Y25007D01*
X22098Y26109D02*
X23200Y25007D01*
X22098Y26109D02*
Y30408D01*
X22950Y31260D01*
Y31994D01*
X21050Y33894D02*
X22950Y31994D01*
X23600Y37100D02*
X24200Y37700D01*
X21050Y37100D02*
X23600D01*
X12500Y3600D02*
X13000Y4100D01*
X11900Y3600D02*
X12500D01*
X21050Y37100D02*
Y39794D01*
Y33894D02*
Y37100D01*
X10300Y3600D02*
X11900D01*
X10100Y3800D02*
X10300Y3600D01*
X6100Y3800D02*
X10100D01*
X14950Y32725D02*
X15500Y32175D01*
X14950Y32725D02*
Y34819D01*
X15781D01*
X16706Y33894D01*
X21050D01*
D62*
X30800Y1600D02*
X36800Y7600D01*
X37500D01*
X40600Y41900D02*
X52300D01*
X26500D02*
X40600D01*
X48300Y2100D02*
Y7400D01*
X47800Y1600D02*
X48300Y2100D01*
X30800Y1600D02*
X47800D01*
X1500Y39600D02*
X3800Y41900D01*
X1500Y32500D02*
Y39600D01*
Y2900D02*
Y32500D01*
X7000D01*
X8700Y30800D01*
X25300Y41900D02*
X26500D01*
X23100D02*
X25300D01*
X3800D02*
X23100D01*
X23350Y41650D01*
Y39794D02*
Y41650D01*
X54000Y33000D02*
Y40200D01*
X52300Y41900D02*
X54000Y40200D01*
X1500Y2900D02*
X2800Y1600D01*
X30800D01*
M02*
