G04 Layer_Color=32896*
%FSLAX43Y43*%
%MOMM*%
G71*
G01*
G75*
%ADD40C,0.200*%
%ADD63C,0.250*%
%ADD65C,0.150*%
%ADD108C,0.100*%
D40*
X12000Y19400D02*
X12800D01*
X10500D02*
X11300D01*
X43300Y7900D02*
Y8700D01*
X11500Y11000D02*
X12300D01*
X11500Y7700D02*
X12300D01*
X11500Y4400D02*
X12300D01*
X9900D02*
X10700D01*
X9900Y7700D02*
X10700D01*
X9900Y11000D02*
X10700D01*
X20700Y8600D02*
X21500D01*
X23100Y14500D02*
X23900D01*
X21500D02*
X22300D01*
X19900D02*
X20700D01*
X10700Y29300D02*
X11500D01*
X38900Y5300D02*
Y6100D01*
X44700Y35600D02*
X45500D01*
X22615Y20583D02*
X23415D01*
X16300Y20600D02*
X17100D01*
X16200Y24200D02*
X17000D01*
X25700D02*
Y25000D01*
X25300Y27700D02*
X26100D01*
X19100Y30400D02*
Y31200D01*
X24950Y39594D02*
X25750D01*
X43000Y14700D02*
Y15500D01*
X53100Y32600D02*
Y33400D01*
X37500Y6650D02*
X40300D01*
X37500Y8550D02*
X40300D01*
X7750Y28000D02*
Y30800D01*
X9650Y28000D02*
Y30800D01*
X25750Y33600D02*
Y36400D01*
X27650Y33600D02*
Y36400D01*
X24400Y35544D02*
Y38144D01*
X17700Y35544D02*
Y38144D01*
Y35544D02*
X24400D01*
X17700Y38144D02*
X24400D01*
X29525Y35795D02*
X39925D01*
Y34345D02*
Y35795D01*
X29525Y34345D02*
Y35795D01*
X22900Y8000D02*
Y8827D01*
Y8000D02*
X23675D01*
X25900D02*
Y8827D01*
X25125Y8000D02*
X25900D01*
X53134Y34933D02*
X53300Y35100D01*
X53633D01*
X53800Y34933D01*
Y34267D01*
X53633Y34100D01*
X53300D01*
X53134Y34267D01*
X52134Y35100D02*
X52800D01*
Y34600D01*
X52467Y34766D01*
X52300D01*
X52134Y34600D01*
Y34267D01*
X52300Y34100D01*
X52634D01*
X52800Y34267D01*
X43034Y17133D02*
X43200Y17300D01*
X43533D01*
X43700Y17133D01*
Y16467D01*
X43533Y16300D01*
X43200D01*
X43034Y16467D01*
X42700Y17300D02*
X42034D01*
Y17133D01*
X42700Y16467D01*
Y16300D01*
X44234Y40633D02*
X44400Y40800D01*
X44733D01*
X44900Y40633D01*
Y39967D01*
X44733Y39800D01*
X44400D01*
X44234Y39967D01*
X43900Y40633D02*
X43734Y40800D01*
X43400D01*
X43234Y40633D01*
Y40466D01*
X43400Y40300D01*
X43234Y40133D01*
Y39967D01*
X43400Y39800D01*
X43734D01*
X43900Y39967D01*
Y40133D01*
X43734Y40300D01*
X43900Y40466D01*
Y40633D01*
X43734Y40300D02*
X43400D01*
X44633Y29466D02*
X44800Y29300D01*
Y28967D01*
X44633Y28800D01*
X43967D01*
X43800Y28967D01*
Y29300D01*
X43967Y29466D01*
Y29800D02*
X43800Y29966D01*
Y30300D01*
X43967Y30466D01*
X44633D01*
X44800Y30300D01*
Y29966D01*
X44633Y29800D01*
X44466D01*
X44300Y29966D01*
Y30466D01*
X27333Y39466D02*
X27500Y39300D01*
Y38967D01*
X27333Y38800D01*
X26667D01*
X26500Y38967D01*
Y39300D01*
X26667Y39466D01*
X26500Y39800D02*
Y40133D01*
Y39966D01*
X27500D01*
X27333Y39800D01*
X26500Y40633D02*
Y40966D01*
Y40799D01*
X27500D01*
X27333Y40633D01*
X17133Y36466D02*
X17300Y36300D01*
Y35967D01*
X17133Y35800D01*
X16467D01*
X16300Y35967D01*
Y36300D01*
X16467Y36466D01*
X16300Y36800D02*
Y37133D01*
Y36966D01*
X17300D01*
X17133Y36800D01*
X16300Y38299D02*
Y37633D01*
X16966Y38299D01*
X17133D01*
X17300Y38133D01*
Y37799D01*
X17133Y37633D01*
X19234Y29533D02*
X19400Y29700D01*
X19733D01*
X19900Y29533D01*
Y28867D01*
X19733Y28700D01*
X19400D01*
X19234Y28867D01*
X18900Y28700D02*
X18567D01*
X18734D01*
Y29700D01*
X18900Y29533D01*
X18067D02*
X17901Y29700D01*
X17567D01*
X17401Y29533D01*
Y29366D01*
X17567Y29200D01*
X17734D01*
X17567D01*
X17401Y29033D01*
Y28867D01*
X17567Y28700D01*
X17901D01*
X18067Y28867D01*
X25847Y31264D02*
X26014Y31430D01*
X26347D01*
X26513Y31264D01*
Y30597D01*
X26347Y30431D01*
X26014D01*
X25847Y30597D01*
X25514Y30431D02*
X25181D01*
X25347D01*
Y31430D01*
X25514Y31264D01*
X24181Y30431D02*
Y31430D01*
X24681Y30931D01*
X24014D01*
X26334Y23433D02*
X26500Y23600D01*
X26833D01*
X27000Y23433D01*
Y22767D01*
X26833Y22600D01*
X26500D01*
X26334Y22767D01*
X26000Y22600D02*
X25667D01*
X25834D01*
Y23600D01*
X26000Y23433D01*
X24501Y23600D02*
X25167D01*
Y23100D01*
X24834Y23266D01*
X24667D01*
X24501Y23100D01*
Y22767D01*
X24667Y22600D01*
X25001D01*
X25167Y22767D01*
X18533Y23666D02*
X18700Y23500D01*
Y23167D01*
X18533Y23000D01*
X17867D01*
X17700Y23167D01*
Y23500D01*
X17867Y23666D01*
X17700Y24000D02*
Y24333D01*
Y24166D01*
X18700D01*
X18533Y24000D01*
X18700Y25499D02*
X18533Y25166D01*
X18200Y24833D01*
X17867D01*
X17700Y24999D01*
Y25333D01*
X17867Y25499D01*
X18033D01*
X18200Y25333D01*
Y24833D01*
X13933Y29966D02*
X14100Y29800D01*
Y29467D01*
X13933Y29300D01*
X13267D01*
X13100Y29467D01*
Y29800D01*
X13267Y29966D01*
X13100Y30300D02*
Y30633D01*
Y30466D01*
X14100D01*
X13933Y30300D01*
X14100Y31133D02*
Y31799D01*
X13933D01*
X13267Y31133D01*
X13100D01*
X15533Y19966D02*
X15700Y19800D01*
Y19467D01*
X15533Y19300D01*
X14867D01*
X14700Y19467D01*
Y19800D01*
X14867Y19966D01*
X14700Y20300D02*
Y20633D01*
Y20466D01*
X15700D01*
X15533Y20300D01*
Y21133D02*
X15700Y21299D01*
Y21633D01*
X15533Y21799D01*
X15366D01*
X15200Y21633D01*
X15033Y21799D01*
X14867D01*
X14700Y21633D01*
Y21299D01*
X14867Y21133D01*
X15033D01*
X15200Y21299D01*
X15366Y21133D01*
X15533D01*
X15200Y21299D02*
Y21633D01*
X24833Y19866D02*
X25000Y19700D01*
Y19367D01*
X24833Y19200D01*
X24167D01*
X24000Y19367D01*
Y19700D01*
X24167Y19866D01*
X24000Y20866D02*
Y20200D01*
X24666Y20866D01*
X24833D01*
X25000Y20700D01*
Y20366D01*
X24833Y20200D01*
Y21199D02*
X25000Y21366D01*
Y21699D01*
X24833Y21866D01*
X24167D01*
X24000Y21699D01*
Y21366D01*
X24167Y21199D01*
X24833D01*
X29000Y34600D02*
X28000D01*
Y35100D01*
X28167Y35266D01*
X28833D01*
X29000Y35100D01*
Y34600D01*
X28000Y35600D02*
Y35933D01*
Y35766D01*
X29000D01*
X28833Y35600D01*
X9987Y33845D02*
Y32845D01*
X9488D01*
X9321Y33012D01*
Y33678D01*
X9488Y33845D01*
X9987D01*
X8321Y32845D02*
X8988D01*
X8321Y33511D01*
Y33678D01*
X8488Y33845D01*
X8821D01*
X8988Y33678D01*
X39800Y10100D02*
Y9100D01*
X39300D01*
X39134Y9267D01*
Y9933D01*
X39300Y10100D01*
X39800D01*
X38800Y9933D02*
X38634Y10100D01*
X38300D01*
X38134Y9933D01*
Y9766D01*
X38300Y9600D01*
X38467D01*
X38300D01*
X38134Y9433D01*
Y9267D01*
X38300Y9100D01*
X38634D01*
X38800Y9267D01*
X44300Y35566D02*
Y34900D01*
X43800D01*
Y35233D01*
Y34900D01*
X43300D01*
Y35900D02*
Y36233D01*
Y36066D01*
X44300D01*
X44133Y35900D01*
X39034Y4800D02*
X39700D01*
Y4300D01*
X39367D01*
X39700D01*
Y3800D01*
X38034D02*
X38700D01*
X38034Y4466D01*
Y4633D01*
X38200Y4800D01*
X38534D01*
X38700Y4633D01*
X11002Y32575D02*
X11668D01*
Y32075D01*
X11335D01*
X11668D01*
Y31575D01*
X10669Y32408D02*
X10502Y32575D01*
X10169D01*
X10002Y32408D01*
Y32241D01*
X10169Y32075D01*
X10335D01*
X10169D01*
X10002Y31908D01*
Y31742D01*
X10169Y31575D01*
X10502D01*
X10669Y31742D01*
X26934Y8067D02*
Y8733D01*
X27100Y8900D01*
X27433D01*
X27600Y8733D01*
Y8067D01*
X27433Y7900D01*
X27100D01*
X27267Y8233D02*
X26934Y7900D01*
X27100D02*
X26934Y8067D01*
X26600Y7900D02*
X26267D01*
X26434D01*
Y8900D01*
X26600Y8733D01*
X19900Y16500D02*
X20900D01*
Y17000D01*
X20733Y17166D01*
X20400D01*
X20233Y17000D01*
Y16500D01*
Y16833D02*
X19900Y17166D01*
X20733Y17500D02*
X20900Y17666D01*
Y18000D01*
X20733Y18166D01*
X20566D01*
X20400Y18000D01*
Y17833D01*
Y18000D01*
X20233Y18166D01*
X20067D01*
X19900Y18000D01*
Y17666D01*
X20067Y17500D01*
X20733Y18499D02*
X20900Y18666D01*
Y18999D01*
X20733Y19166D01*
X20067D01*
X19900Y18999D01*
Y18666D01*
X20067Y18499D01*
X20733D01*
X21400Y16400D02*
X22400D01*
Y16900D01*
X22233Y17066D01*
X21900D01*
X21733Y16900D01*
Y16400D01*
Y16733D02*
X21400Y17066D01*
X22233Y17400D02*
X22400Y17566D01*
Y17900D01*
X22233Y18066D01*
X22066D01*
X21900Y17900D01*
Y17733D01*
Y17900D01*
X21733Y18066D01*
X21567D01*
X21400Y17900D01*
Y17566D01*
X21567Y17400D01*
X21400Y18399D02*
Y18733D01*
Y18566D01*
X22400D01*
X22233Y18399D01*
X24500Y13300D02*
X25500D01*
Y13800D01*
X25333Y13966D01*
X25000D01*
X24833Y13800D01*
Y13300D01*
Y13633D02*
X24500Y13966D01*
X25333Y14300D02*
X25500Y14466D01*
Y14800D01*
X25333Y14966D01*
X25166D01*
X25000Y14800D01*
Y14633D01*
Y14800D01*
X24833Y14966D01*
X24667D01*
X24500Y14800D01*
Y14466D01*
X24667Y14300D01*
X24500Y15966D02*
Y15299D01*
X25166Y15966D01*
X25333D01*
X25500Y15799D01*
Y15466D01*
X25333Y15299D01*
X19100Y7200D02*
X20100D01*
Y7700D01*
X19933Y7866D01*
X19600D01*
X19433Y7700D01*
Y7200D01*
Y7533D02*
X19100Y7866D01*
X19933Y8200D02*
X20100Y8366D01*
Y8700D01*
X19933Y8866D01*
X19766D01*
X19600Y8700D01*
Y8533D01*
Y8700D01*
X19433Y8866D01*
X19267D01*
X19100Y8700D01*
Y8366D01*
X19267Y8200D01*
X20100Y9866D02*
Y9199D01*
X19600D01*
X19766Y9533D01*
Y9699D01*
X19600Y9866D01*
X19267D01*
X19100Y9699D01*
Y9366D01*
X19267Y9199D01*
X8500Y10000D02*
X9500D01*
Y10500D01*
X9333Y10666D01*
X9000D01*
X8833Y10500D01*
Y10000D01*
Y10333D02*
X8500Y10666D01*
Y11500D02*
X9500D01*
X9000Y11000D01*
Y11666D01*
X8500Y11999D02*
Y12333D01*
Y12166D01*
X9500D01*
X9333Y11999D01*
X8300Y6300D02*
X9300D01*
Y6800D01*
X9133Y6966D01*
X8800D01*
X8633Y6800D01*
Y6300D01*
Y6633D02*
X8300Y6966D01*
Y7800D02*
X9300D01*
X8800Y7300D01*
Y7966D01*
X8300Y8966D02*
Y8299D01*
X8966Y8966D01*
X9133D01*
X9300Y8799D01*
Y8466D01*
X9133Y8299D01*
X8300Y3000D02*
X9300D01*
Y3500D01*
X9133Y3666D01*
X8800D01*
X8633Y3500D01*
Y3000D01*
Y3333D02*
X8300Y3666D01*
Y4500D02*
X9300D01*
X8800Y4000D01*
Y4666D01*
X9133Y4999D02*
X9300Y5166D01*
Y5499D01*
X9133Y5666D01*
X8966D01*
X8800Y5499D01*
Y5333D01*
Y5499D01*
X8633Y5666D01*
X8467D01*
X8300Y5499D01*
Y5166D01*
X8467Y4999D01*
X12800Y3100D02*
X13800D01*
Y3600D01*
X13633Y3766D01*
X13300D01*
X13133Y3600D01*
Y3100D01*
Y3433D02*
X12800Y3766D01*
Y4600D02*
X13800D01*
X13300Y4100D01*
Y4766D01*
X12800Y5599D02*
X13800D01*
X13300Y5099D01*
Y5766D01*
X12800Y6300D02*
X13800D01*
Y6800D01*
X13633Y6966D01*
X13300D01*
X13133Y6800D01*
Y6300D01*
Y6633D02*
X12800Y6966D01*
Y7800D02*
X13800D01*
X13300Y7300D01*
Y7966D01*
X13800Y8966D02*
Y8299D01*
X13300D01*
X13466Y8633D01*
Y8799D01*
X13300Y8966D01*
X12967D01*
X12800Y8799D01*
Y8466D01*
X12967Y8299D01*
X12800Y9800D02*
X13800D01*
Y10300D01*
X13633Y10466D01*
X13300D01*
X13133Y10300D01*
Y9800D01*
Y10133D02*
X12800Y10466D01*
Y11300D02*
X13800D01*
X13300Y10800D01*
Y11466D01*
X13800Y12466D02*
X13633Y12133D01*
X13300Y11799D01*
X12967D01*
X12800Y11966D01*
Y12299D01*
X12967Y12466D01*
X13133D01*
X13300Y12299D01*
Y11799D01*
X44500Y9200D02*
Y10200D01*
X44000D01*
X43834Y10033D01*
Y9700D01*
X44000Y9533D01*
X44500D01*
X44167D02*
X43834Y9200D01*
X43000D02*
Y10200D01*
X43500Y9700D01*
X42834D01*
X42501Y10200D02*
X41834D01*
Y10033D01*
X42501Y9367D01*
Y9200D01*
X10500Y21200D02*
X11500D01*
Y21700D01*
X11333Y21866D01*
X11000D01*
X10833Y21700D01*
Y21200D01*
Y21533D02*
X10500Y21866D01*
Y22700D02*
X11500D01*
X11000Y22200D01*
Y22866D01*
X11333Y23199D02*
X11500Y23366D01*
Y23699D01*
X11333Y23866D01*
X11166D01*
X11000Y23699D01*
X10833Y23866D01*
X10667D01*
X10500Y23699D01*
Y23366D01*
X10667Y23199D01*
X10833D01*
X11000Y23366D01*
X11166Y23199D01*
X11333D01*
X11000Y23366D02*
Y23699D01*
X12000Y21200D02*
X13000D01*
Y21700D01*
X12833Y21866D01*
X12500D01*
X12333Y21700D01*
Y21200D01*
Y21533D02*
X12000Y21866D01*
Y22700D02*
X13000D01*
X12500Y22200D01*
Y22866D01*
X12167Y23199D02*
X12000Y23366D01*
Y23699D01*
X12167Y23866D01*
X12833D01*
X13000Y23699D01*
Y23366D01*
X12833Y23199D01*
X12666D01*
X12500Y23366D01*
Y23866D01*
X39400Y35400D02*
Y34567D01*
X39233Y34400D01*
X38900D01*
X38734Y34567D01*
Y35400D01*
X37900Y34400D02*
Y35400D01*
X38400Y34900D01*
X37734D01*
X20200Y37300D02*
Y36467D01*
X20033Y36300D01*
X19700D01*
X19534Y36467D01*
Y37300D01*
X18534D02*
X18867Y37133D01*
X19200Y36800D01*
Y36467D01*
X19034Y36300D01*
X18700D01*
X18534Y36467D01*
Y36633D01*
X18700Y36800D01*
X19200D01*
X20600Y23400D02*
X19934Y22400D01*
Y23400D02*
X20600Y22400D01*
X19600D02*
X19267D01*
X19434D01*
Y23400D01*
X19600Y23233D01*
D63*
X17825Y39794D02*
G03*
X17825Y39794I-125J0D01*
G01*
X31260Y39145D02*
G03*
X31260Y39145I-125J0D01*
G01*
X21975Y20600D02*
G03*
X21975Y20600I-125J0D01*
G01*
X22700Y9700D02*
G03*
X22700Y9700I-125J0D01*
G01*
D65*
X14650Y29650D02*
Y31150D01*
X16400Y29650D02*
Y31150D01*
X15800Y35844D02*
Y37344D01*
X14050Y35844D02*
Y37344D01*
X43100Y28795D02*
Y30295D01*
X41350Y28795D02*
Y30295D01*
X43350Y37650D02*
X44850D01*
X43350Y39400D02*
X44850D01*
D108*
X36975Y6650D02*
G03*
X36975Y6650I-50J0D01*
G01*
X7800Y31375D02*
G03*
X7800Y31375I-50J0D01*
G01*
X25800Y36975D02*
G03*
X25800Y36975I-50J0D01*
G01*
M02*
