G04 Layer_Physical_Order=1*
G04 Layer_Color=255*
%FSLAX44Y44*%
%MOMM*%
G71*
G01*
G75*
%ADD10R,1.7000X0.6000*%
%ADD11R,2.8000X1.0000*%
%ADD12R,1.9000X1.6000*%
%ADD13R,2.2000X2.5000*%
%ADD14R,1.1000X1.0500*%
%ADD15R,1.6000X1.9000*%
%ADD16R,1.2000X0.6500*%
%ADD17R,1.0000X0.5500*%
%ADD18R,0.7000X0.8500*%
%ADD19R,0.3000X1.0000*%
%ADD20R,2.0000X1.3000*%
%ADD21C,0.8000*%
%ADD22C,0.2000*%
%ADD23C,0.7000*%
%ADD24C,0.6000*%
%ADD25C,0.4000*%
%ADD26C,0.5000*%
%ADD27C,1.0000*%
%ADD28C,0.3000*%
%ADD29R,3.4000X3.2000*%
%ADD30R,2.0000X3.2000*%
%ADD31R,2.0000X3.0000*%
%ADD32C,3.5000*%
%ADD33C,0.6000*%
G36*
X685750Y737000D02*
X680250D01*
Y731750D01*
Y726500D01*
X685750D01*
Y718750D01*
X660000D01*
Y719250D01*
X651500D01*
Y721250D01*
X649500D01*
Y727000D01*
X645750D01*
Y733750D01*
X636750D01*
Y751750D01*
X629750D01*
Y756500D01*
X613750D01*
Y751750D01*
X610750D01*
Y768750D01*
X634750D01*
Y776750D01*
X685750D01*
Y737000D01*
D02*
G37*
G36*
X385750D02*
X380250D01*
Y731750D01*
Y726500D01*
X385750D01*
Y718750D01*
X360000D01*
Y719250D01*
X351500D01*
Y721250D01*
X349500D01*
Y727000D01*
X345750D01*
Y733750D01*
X336750D01*
Y751750D01*
X329750D01*
Y756500D01*
X313750D01*
Y751750D01*
X310750D01*
Y768750D01*
X334750D01*
Y776750D01*
X385750D01*
Y737000D01*
D02*
G37*
G36*
X85750D02*
X80250D01*
Y731750D01*
Y726500D01*
X85750D01*
Y718750D01*
X60000D01*
Y719250D01*
X51500D01*
Y721250D01*
X49500D01*
Y727000D01*
X45750D01*
Y733750D01*
X36750D01*
Y751750D01*
X29750D01*
Y756500D01*
X13750D01*
Y751750D01*
X10750D01*
Y768750D01*
X34750D01*
Y776750D01*
X85750D01*
Y737000D01*
D02*
G37*
G36*
X685750Y437000D02*
X680250D01*
Y431750D01*
Y426500D01*
X685750D01*
Y418750D01*
X660000D01*
Y419250D01*
X651500D01*
Y421250D01*
X649500D01*
Y427000D01*
X645750D01*
Y433750D01*
X636750D01*
Y451750D01*
X629750D01*
Y456500D01*
X613750D01*
Y451750D01*
X610750D01*
Y468750D01*
X634750D01*
Y476750D01*
X685750D01*
Y437000D01*
D02*
G37*
G36*
X385750D02*
X380250D01*
Y431750D01*
Y426500D01*
X385750D01*
Y418750D01*
X360000D01*
Y419250D01*
X351500D01*
Y421250D01*
X349500D01*
Y427000D01*
X345750D01*
Y433750D01*
X336750D01*
Y451750D01*
X329750D01*
Y456500D01*
X313750D01*
Y451750D01*
X310750D01*
Y468750D01*
X334750D01*
Y476750D01*
X385750D01*
Y437000D01*
D02*
G37*
G36*
X85750D02*
X80250D01*
Y431750D01*
Y426500D01*
X85750D01*
Y418750D01*
X60000D01*
Y419250D01*
X51500D01*
Y421250D01*
X49500D01*
Y427000D01*
X45750D01*
Y433750D01*
X36750D01*
Y451750D01*
X29750D01*
Y456500D01*
X13750D01*
Y451750D01*
X10750D01*
Y468750D01*
X34750D01*
Y476750D01*
X85750D01*
Y437000D01*
D02*
G37*
G36*
X685750Y137000D02*
X680250D01*
Y131750D01*
Y126500D01*
X685750D01*
Y118750D01*
X660000D01*
Y119250D01*
X651500D01*
Y121250D01*
X649500D01*
Y127000D01*
X645750D01*
Y133750D01*
X636750D01*
Y151750D01*
X629750D01*
Y156500D01*
X613750D01*
Y151750D01*
X610750D01*
Y168750D01*
X634750D01*
Y176750D01*
X685750D01*
Y137000D01*
D02*
G37*
G36*
X385750D02*
X380250D01*
Y131750D01*
Y126500D01*
X385750D01*
Y118750D01*
X360000D01*
Y119250D01*
X351500D01*
Y121250D01*
X349500D01*
Y127000D01*
X345750D01*
Y133750D01*
X336750D01*
Y151750D01*
X329750D01*
Y156500D01*
X313750D01*
Y151750D01*
X310750D01*
Y168750D01*
X334750D01*
Y176750D01*
X385750D01*
Y137000D01*
D02*
G37*
G36*
X85750D02*
X80250D01*
Y131750D01*
Y126500D01*
X85750D01*
Y118750D01*
X60000D01*
Y119250D01*
X51500D01*
Y121250D01*
X49500D01*
Y127000D01*
X45750D01*
Y133750D01*
X36750D01*
Y151750D01*
X29750D01*
Y156500D01*
X13750D01*
Y151750D01*
X10750D01*
Y168750D01*
X34750D01*
Y176750D01*
X85750D01*
Y137000D01*
D02*
G37*
%LPC*%
G36*
X629750Y766250D02*
X623750D01*
Y760500D01*
X629750D01*
Y766250D01*
D02*
G37*
G36*
X619750D02*
X613750D01*
Y760500D01*
X619750D01*
Y766250D01*
D02*
G37*
G36*
X669250Y770750D02*
X657750D01*
Y757750D01*
X669250D01*
Y770750D01*
D02*
G37*
G36*
X653750D02*
X642250D01*
Y757750D01*
X653750D01*
Y770750D01*
D02*
G37*
G36*
X669250Y753750D02*
X657750D01*
Y740750D01*
X669250D01*
Y753750D01*
D02*
G37*
G36*
X653750D02*
X642250D01*
Y740750D01*
X653750D01*
Y753750D01*
D02*
G37*
G36*
X676250Y737000D02*
X670750D01*
Y733750D01*
X676250D01*
Y737000D01*
D02*
G37*
G36*
Y729750D02*
X670750D01*
Y726500D01*
X676250D01*
Y729750D01*
D02*
G37*
G36*
X660000Y727000D02*
X653500D01*
Y723250D01*
X660000D01*
Y727000D01*
D02*
G37*
G36*
X329750Y766250D02*
X323750D01*
Y760500D01*
X329750D01*
Y766250D01*
D02*
G37*
G36*
X319750D02*
X313750D01*
Y760500D01*
X319750D01*
Y766250D01*
D02*
G37*
G36*
X369250Y770750D02*
X357750D01*
Y757750D01*
X369250D01*
Y770750D01*
D02*
G37*
G36*
X353750D02*
X342250D01*
Y757750D01*
X353750D01*
Y770750D01*
D02*
G37*
G36*
X369250Y753750D02*
X357750D01*
Y740750D01*
X369250D01*
Y753750D01*
D02*
G37*
G36*
X353750D02*
X342250D01*
Y740750D01*
X353750D01*
Y753750D01*
D02*
G37*
G36*
X376250Y737000D02*
X370750D01*
Y733750D01*
X376250D01*
Y737000D01*
D02*
G37*
G36*
Y729750D02*
X370750D01*
Y726500D01*
X376250D01*
Y729750D01*
D02*
G37*
G36*
X360000Y727000D02*
X353500D01*
Y723250D01*
X360000D01*
Y727000D01*
D02*
G37*
G36*
X29750Y766250D02*
X23750D01*
Y760500D01*
X29750D01*
Y766250D01*
D02*
G37*
G36*
X19750D02*
X13750D01*
Y760500D01*
X19750D01*
Y766250D01*
D02*
G37*
G36*
X69250Y770750D02*
X57750D01*
Y757750D01*
X69250D01*
Y770750D01*
D02*
G37*
G36*
X53750D02*
X42250D01*
Y757750D01*
X53750D01*
Y770750D01*
D02*
G37*
G36*
X69250Y753750D02*
X57750D01*
Y740750D01*
X69250D01*
Y753750D01*
D02*
G37*
G36*
X53750D02*
X42250D01*
Y740750D01*
X53750D01*
Y753750D01*
D02*
G37*
G36*
X76250Y737000D02*
X70750D01*
Y733750D01*
X76250D01*
Y737000D01*
D02*
G37*
G36*
Y729750D02*
X70750D01*
Y726500D01*
X76250D01*
Y729750D01*
D02*
G37*
G36*
X60000Y727000D02*
X53500D01*
Y723250D01*
X60000D01*
Y727000D01*
D02*
G37*
G36*
X629750Y466250D02*
X623750D01*
Y460500D01*
X629750D01*
Y466250D01*
D02*
G37*
G36*
X619750D02*
X613750D01*
Y460500D01*
X619750D01*
Y466250D01*
D02*
G37*
G36*
X669250Y470750D02*
X657750D01*
Y457750D01*
X669250D01*
Y470750D01*
D02*
G37*
G36*
X653750D02*
X642250D01*
Y457750D01*
X653750D01*
Y470750D01*
D02*
G37*
G36*
X669250Y453750D02*
X657750D01*
Y440750D01*
X669250D01*
Y453750D01*
D02*
G37*
G36*
X653750D02*
X642250D01*
Y440750D01*
X653750D01*
Y453750D01*
D02*
G37*
G36*
X676250Y437000D02*
X670750D01*
Y433750D01*
X676250D01*
Y437000D01*
D02*
G37*
G36*
Y429750D02*
X670750D01*
Y426500D01*
X676250D01*
Y429750D01*
D02*
G37*
G36*
X660000Y427000D02*
X653500D01*
Y423250D01*
X660000D01*
Y427000D01*
D02*
G37*
G36*
X329750Y466250D02*
X323750D01*
Y460500D01*
X329750D01*
Y466250D01*
D02*
G37*
G36*
X319750D02*
X313750D01*
Y460500D01*
X319750D01*
Y466250D01*
D02*
G37*
G36*
X369250Y470750D02*
X357750D01*
Y457750D01*
X369250D01*
Y470750D01*
D02*
G37*
G36*
X353750D02*
X342250D01*
Y457750D01*
X353750D01*
Y470750D01*
D02*
G37*
G36*
X369250Y453750D02*
X357750D01*
Y440750D01*
X369250D01*
Y453750D01*
D02*
G37*
G36*
X353750D02*
X342250D01*
Y440750D01*
X353750D01*
Y453750D01*
D02*
G37*
G36*
X376250Y437000D02*
X370750D01*
Y433750D01*
X376250D01*
Y437000D01*
D02*
G37*
G36*
Y429750D02*
X370750D01*
Y426500D01*
X376250D01*
Y429750D01*
D02*
G37*
G36*
X360000Y427000D02*
X353500D01*
Y423250D01*
X360000D01*
Y427000D01*
D02*
G37*
G36*
X29750Y466250D02*
X23750D01*
Y460500D01*
X29750D01*
Y466250D01*
D02*
G37*
G36*
X19750D02*
X13750D01*
Y460500D01*
X19750D01*
Y466250D01*
D02*
G37*
G36*
X69250Y470750D02*
X57750D01*
Y457750D01*
X69250D01*
Y470750D01*
D02*
G37*
G36*
X53750D02*
X42250D01*
Y457750D01*
X53750D01*
Y470750D01*
D02*
G37*
G36*
X69250Y453750D02*
X57750D01*
Y440750D01*
X69250D01*
Y453750D01*
D02*
G37*
G36*
X53750D02*
X42250D01*
Y440750D01*
X53750D01*
Y453750D01*
D02*
G37*
G36*
X76250Y437000D02*
X70750D01*
Y433750D01*
X76250D01*
Y437000D01*
D02*
G37*
G36*
Y429750D02*
X70750D01*
Y426500D01*
X76250D01*
Y429750D01*
D02*
G37*
G36*
X60000Y427000D02*
X53500D01*
Y423250D01*
X60000D01*
Y427000D01*
D02*
G37*
G36*
X629750Y166250D02*
X623750D01*
Y160500D01*
X629750D01*
Y166250D01*
D02*
G37*
G36*
X619750D02*
X613750D01*
Y160500D01*
X619750D01*
Y166250D01*
D02*
G37*
G36*
X669250Y170750D02*
X657750D01*
Y157750D01*
X669250D01*
Y170750D01*
D02*
G37*
G36*
X653750D02*
X642250D01*
Y157750D01*
X653750D01*
Y170750D01*
D02*
G37*
G36*
X669250Y153750D02*
X657750D01*
Y140750D01*
X669250D01*
Y153750D01*
D02*
G37*
G36*
X653750D02*
X642250D01*
Y140750D01*
X653750D01*
Y153750D01*
D02*
G37*
G36*
X676250Y137000D02*
X670750D01*
Y133750D01*
X676250D01*
Y137000D01*
D02*
G37*
G36*
Y129750D02*
X670750D01*
Y126500D01*
X676250D01*
Y129750D01*
D02*
G37*
G36*
X660000Y127000D02*
X653500D01*
Y123250D01*
X660000D01*
Y127000D01*
D02*
G37*
G36*
X329750Y166250D02*
X323750D01*
Y160500D01*
X329750D01*
Y166250D01*
D02*
G37*
G36*
X319750D02*
X313750D01*
Y160500D01*
X319750D01*
Y166250D01*
D02*
G37*
G36*
X369250Y170750D02*
X357750D01*
Y157750D01*
X369250D01*
Y170750D01*
D02*
G37*
G36*
X353750D02*
X342250D01*
Y157750D01*
X353750D01*
Y170750D01*
D02*
G37*
G36*
X369250Y153750D02*
X357750D01*
Y140750D01*
X369250D01*
Y153750D01*
D02*
G37*
G36*
X353750D02*
X342250D01*
Y140750D01*
X353750D01*
Y153750D01*
D02*
G37*
G36*
X376250Y137000D02*
X370750D01*
Y133750D01*
X376250D01*
Y137000D01*
D02*
G37*
G36*
Y129750D02*
X370750D01*
Y126500D01*
X376250D01*
Y129750D01*
D02*
G37*
G36*
X360000Y127000D02*
X353500D01*
Y123250D01*
X360000D01*
Y127000D01*
D02*
G37*
G36*
X29750Y166250D02*
X23750D01*
Y160500D01*
X29750D01*
Y166250D01*
D02*
G37*
G36*
X19750D02*
X13750D01*
Y160500D01*
X19750D01*
Y166250D01*
D02*
G37*
G36*
X69250Y170750D02*
X57750D01*
Y157750D01*
X69250D01*
Y170750D01*
D02*
G37*
G36*
X53750D02*
X42250D01*
Y157750D01*
X53750D01*
Y170750D01*
D02*
G37*
G36*
X69250Y153750D02*
X57750D01*
Y140750D01*
X69250D01*
Y153750D01*
D02*
G37*
G36*
X53750D02*
X42250D01*
Y140750D01*
X53750D01*
Y153750D01*
D02*
G37*
G36*
X76250Y137000D02*
X70750D01*
Y133750D01*
X76250D01*
Y137000D01*
D02*
G37*
G36*
Y129750D02*
X70750D01*
Y126500D01*
X76250D01*
Y129750D01*
D02*
G37*
G36*
X60000Y127000D02*
X53500D01*
Y123250D01*
X60000D01*
Y127000D01*
D02*
G37*
%LPD*%
D10*
X246250Y127000D02*
D03*
Y114500D02*
D03*
Y64500D02*
D03*
Y77000D02*
D03*
Y89500D02*
D03*
Y102000D02*
D03*
X546250Y127000D02*
D03*
Y114500D02*
D03*
Y64500D02*
D03*
Y77000D02*
D03*
Y89500D02*
D03*
Y102000D02*
D03*
X846250Y127000D02*
D03*
Y114500D02*
D03*
Y64500D02*
D03*
Y77000D02*
D03*
Y89500D02*
D03*
Y102000D02*
D03*
X246250Y427000D02*
D03*
Y414500D02*
D03*
Y364500D02*
D03*
Y377000D02*
D03*
Y389500D02*
D03*
Y402000D02*
D03*
X546250Y427000D02*
D03*
Y414500D02*
D03*
Y364500D02*
D03*
Y377000D02*
D03*
Y389500D02*
D03*
Y402000D02*
D03*
X846250Y427000D02*
D03*
Y414500D02*
D03*
Y364500D02*
D03*
Y377000D02*
D03*
Y389500D02*
D03*
Y402000D02*
D03*
X246250Y727000D02*
D03*
Y714500D02*
D03*
Y664500D02*
D03*
Y677000D02*
D03*
Y689500D02*
D03*
Y702000D02*
D03*
X546250Y727000D02*
D03*
Y714500D02*
D03*
Y664500D02*
D03*
Y677000D02*
D03*
Y689500D02*
D03*
Y702000D02*
D03*
X846250Y727000D02*
D03*
Y714500D02*
D03*
Y664500D02*
D03*
Y677000D02*
D03*
Y689500D02*
D03*
Y702000D02*
D03*
D11*
X279750Y145500D02*
D03*
Y46000D02*
D03*
X579750Y145500D02*
D03*
Y46000D02*
D03*
X879750Y145500D02*
D03*
Y46000D02*
D03*
X279750Y445500D02*
D03*
Y346000D02*
D03*
X579750Y445500D02*
D03*
Y346000D02*
D03*
X879750Y445500D02*
D03*
Y346000D02*
D03*
X279750Y745500D02*
D03*
Y646000D02*
D03*
X579750Y745500D02*
D03*
Y646000D02*
D03*
X879750Y745500D02*
D03*
Y646000D02*
D03*
D12*
X98750Y187500D02*
D03*
Y158000D02*
D03*
X398750Y187500D02*
D03*
Y158000D02*
D03*
X698750Y187500D02*
D03*
Y158000D02*
D03*
X98750Y487500D02*
D03*
Y458000D02*
D03*
X398750Y487500D02*
D03*
Y458000D02*
D03*
X698750Y487500D02*
D03*
Y458000D02*
D03*
X98750Y787500D02*
D03*
Y758000D02*
D03*
X398750Y787500D02*
D03*
Y758000D02*
D03*
X698750Y787500D02*
D03*
Y758000D02*
D03*
D13*
X55750Y195750D02*
D03*
Y155750D02*
D03*
X355750Y195750D02*
D03*
Y155750D02*
D03*
X655750Y195750D02*
D03*
Y155750D02*
D03*
X55750Y495750D02*
D03*
Y455750D02*
D03*
X355750Y495750D02*
D03*
Y455750D02*
D03*
X655750Y495750D02*
D03*
Y455750D02*
D03*
X55750Y795750D02*
D03*
Y755750D02*
D03*
X355750Y795750D02*
D03*
Y755750D02*
D03*
X655750Y795750D02*
D03*
Y755750D02*
D03*
D14*
X21750Y145000D02*
D03*
Y158500D02*
D03*
X321750Y145000D02*
D03*
Y158500D02*
D03*
X621750Y145000D02*
D03*
Y158500D02*
D03*
X21750Y445000D02*
D03*
Y458500D02*
D03*
X321750Y445000D02*
D03*
Y458500D02*
D03*
X621750Y445000D02*
D03*
Y458500D02*
D03*
X21750Y745000D02*
D03*
Y758500D02*
D03*
X321750Y745000D02*
D03*
Y758500D02*
D03*
X621750Y745000D02*
D03*
Y758500D02*
D03*
D15*
X76000Y105750D02*
D03*
X105500D02*
D03*
X376000D02*
D03*
X405500D02*
D03*
X676000D02*
D03*
X705500D02*
D03*
X76000Y405750D02*
D03*
X105500D02*
D03*
X376000D02*
D03*
X405500D02*
D03*
X676000D02*
D03*
X705500D02*
D03*
X76000Y705750D02*
D03*
X105500D02*
D03*
X376000D02*
D03*
X405500D02*
D03*
X676000D02*
D03*
X705500D02*
D03*
D16*
X22000Y121250D02*
D03*
Y111750D02*
D03*
Y102250D02*
D03*
X51500D02*
D03*
Y111750D02*
D03*
Y121250D02*
D03*
X322000D02*
D03*
Y111750D02*
D03*
Y102250D02*
D03*
X351500D02*
D03*
Y111750D02*
D03*
Y121250D02*
D03*
X622000D02*
D03*
Y111750D02*
D03*
Y102250D02*
D03*
X651500D02*
D03*
Y111750D02*
D03*
Y121250D02*
D03*
X22000Y421250D02*
D03*
Y411750D02*
D03*
Y402250D02*
D03*
X51500D02*
D03*
Y411750D02*
D03*
Y421250D02*
D03*
X322000D02*
D03*
Y411750D02*
D03*
Y402250D02*
D03*
X351500D02*
D03*
Y411750D02*
D03*
Y421250D02*
D03*
X622000D02*
D03*
Y411750D02*
D03*
Y402250D02*
D03*
X651500D02*
D03*
Y411750D02*
D03*
Y421250D02*
D03*
X22000Y721250D02*
D03*
Y711750D02*
D03*
Y702250D02*
D03*
X51500D02*
D03*
Y711750D02*
D03*
Y721250D02*
D03*
X322000D02*
D03*
Y711750D02*
D03*
Y702250D02*
D03*
X351500D02*
D03*
Y711750D02*
D03*
Y721250D02*
D03*
X622000D02*
D03*
Y711750D02*
D03*
Y702250D02*
D03*
X651500D02*
D03*
Y711750D02*
D03*
Y721250D02*
D03*
D17*
X78250Y131750D02*
D03*
X101250D02*
D03*
X378250D02*
D03*
X401250D02*
D03*
X678250D02*
D03*
X701250D02*
D03*
X78250Y431750D02*
D03*
X101250D02*
D03*
X378250D02*
D03*
X401250D02*
D03*
X678250D02*
D03*
X701250D02*
D03*
X78250Y731750D02*
D03*
X101250D02*
D03*
X378250D02*
D03*
X401250D02*
D03*
X678250D02*
D03*
X701250D02*
D03*
D18*
X234750Y207000D02*
D03*
X222750D02*
D03*
X534750D02*
D03*
X522750D02*
D03*
X834750D02*
D03*
X822750D02*
D03*
X234750Y507000D02*
D03*
X222750D02*
D03*
X534750D02*
D03*
X522750D02*
D03*
X834750D02*
D03*
X822750D02*
D03*
X234750Y807000D02*
D03*
X222750D02*
D03*
X534750D02*
D03*
X522750D02*
D03*
X834750D02*
D03*
X822750D02*
D03*
D19*
X95250Y70500D02*
D03*
X100250D02*
D03*
X105250D02*
D03*
X110250D02*
D03*
X115250D02*
D03*
X120250D02*
D03*
X125250D02*
D03*
X130250D02*
D03*
X135250D02*
D03*
X140250D02*
D03*
X145250D02*
D03*
X150250D02*
D03*
X155250D02*
D03*
X160250D02*
D03*
X165250D02*
D03*
X170250D02*
D03*
X175250D02*
D03*
X180250D02*
D03*
X185250D02*
D03*
X190250D02*
D03*
X195250D02*
D03*
X200250D02*
D03*
X205250D02*
D03*
X210250D02*
D03*
X395250D02*
D03*
X400250D02*
D03*
X405250D02*
D03*
X410250D02*
D03*
X415250D02*
D03*
X420250D02*
D03*
X425250D02*
D03*
X430250D02*
D03*
X435250D02*
D03*
X440250D02*
D03*
X445250D02*
D03*
X450250D02*
D03*
X455250D02*
D03*
X460250D02*
D03*
X465250D02*
D03*
X470250D02*
D03*
X475250D02*
D03*
X480250D02*
D03*
X485250D02*
D03*
X490250D02*
D03*
X495250D02*
D03*
X500250D02*
D03*
X505250D02*
D03*
X510250D02*
D03*
X695250D02*
D03*
X700250D02*
D03*
X705250D02*
D03*
X710250D02*
D03*
X715250D02*
D03*
X720250D02*
D03*
X725250D02*
D03*
X730250D02*
D03*
X735250D02*
D03*
X740250D02*
D03*
X745250D02*
D03*
X750250D02*
D03*
X755250D02*
D03*
X760250D02*
D03*
X765250D02*
D03*
X770250D02*
D03*
X775250D02*
D03*
X780250D02*
D03*
X785250D02*
D03*
X790250D02*
D03*
X795250D02*
D03*
X800250D02*
D03*
X805250D02*
D03*
X810250D02*
D03*
X95250Y370500D02*
D03*
X100250D02*
D03*
X105250D02*
D03*
X110250D02*
D03*
X115250D02*
D03*
X120250D02*
D03*
X125250D02*
D03*
X130250D02*
D03*
X135250D02*
D03*
X140250D02*
D03*
X145250D02*
D03*
X150250D02*
D03*
X155250D02*
D03*
X160250D02*
D03*
X165250D02*
D03*
X170250D02*
D03*
X175250D02*
D03*
X180250D02*
D03*
X185250D02*
D03*
X190250D02*
D03*
X195250D02*
D03*
X200250D02*
D03*
X205250D02*
D03*
X210250D02*
D03*
X395250D02*
D03*
X400250D02*
D03*
X405250D02*
D03*
X410250D02*
D03*
X415250D02*
D03*
X420250D02*
D03*
X425250D02*
D03*
X430250D02*
D03*
X435250D02*
D03*
X440250D02*
D03*
X445250D02*
D03*
X450250D02*
D03*
X455250D02*
D03*
X460250D02*
D03*
X465250D02*
D03*
X470250D02*
D03*
X475250D02*
D03*
X480250D02*
D03*
X485250D02*
D03*
X490250D02*
D03*
X495250D02*
D03*
X500250D02*
D03*
X505250D02*
D03*
X510250D02*
D03*
X695250D02*
D03*
X700250D02*
D03*
X705250D02*
D03*
X710250D02*
D03*
X715250D02*
D03*
X720250D02*
D03*
X725250D02*
D03*
X730250D02*
D03*
X735250D02*
D03*
X740250D02*
D03*
X745250D02*
D03*
X750250D02*
D03*
X755250D02*
D03*
X760250D02*
D03*
X765250D02*
D03*
X770250D02*
D03*
X775250D02*
D03*
X780250D02*
D03*
X785250D02*
D03*
X790250D02*
D03*
X795250D02*
D03*
X800250D02*
D03*
X805250D02*
D03*
X810250D02*
D03*
X95250Y670500D02*
D03*
X100250D02*
D03*
X105250D02*
D03*
X110250D02*
D03*
X115250D02*
D03*
X120250D02*
D03*
X125250D02*
D03*
X130250D02*
D03*
X135250D02*
D03*
X140250D02*
D03*
X145250D02*
D03*
X150250D02*
D03*
X155250D02*
D03*
X160250D02*
D03*
X165250D02*
D03*
X170250D02*
D03*
X175250D02*
D03*
X180250D02*
D03*
X185250D02*
D03*
X190250D02*
D03*
X195250D02*
D03*
X200250D02*
D03*
X205250D02*
D03*
X210250D02*
D03*
X395250D02*
D03*
X400250D02*
D03*
X405250D02*
D03*
X410250D02*
D03*
X415250D02*
D03*
X420250D02*
D03*
X425250D02*
D03*
X430250D02*
D03*
X435250D02*
D03*
X440250D02*
D03*
X445250D02*
D03*
X450250D02*
D03*
X455250D02*
D03*
X460250D02*
D03*
X465250D02*
D03*
X470250D02*
D03*
X475250D02*
D03*
X480250D02*
D03*
X485250D02*
D03*
X490250D02*
D03*
X495250D02*
D03*
X500250D02*
D03*
X505250D02*
D03*
X510250D02*
D03*
X695250D02*
D03*
X700250D02*
D03*
X705250D02*
D03*
X710250D02*
D03*
X715250D02*
D03*
X720250D02*
D03*
X725250D02*
D03*
X730250D02*
D03*
X735250D02*
D03*
X740250D02*
D03*
X745250D02*
D03*
X750250D02*
D03*
X755250D02*
D03*
X760250D02*
D03*
X765250D02*
D03*
X770250D02*
D03*
X775250D02*
D03*
X780250D02*
D03*
X785250D02*
D03*
X790250D02*
D03*
X795250D02*
D03*
X800250D02*
D03*
X805250D02*
D03*
X810250D02*
D03*
D20*
X73250Y43500D02*
D03*
X232250D02*
D03*
X373250D02*
D03*
X532250D02*
D03*
X673250D02*
D03*
X832250D02*
D03*
X73250Y343500D02*
D03*
X232250D02*
D03*
X373250D02*
D03*
X532250D02*
D03*
X673250D02*
D03*
X832250D02*
D03*
X73250Y643500D02*
D03*
X232250D02*
D03*
X373250D02*
D03*
X532250D02*
D03*
X673250D02*
D03*
X832250D02*
D03*
D21*
X206774Y215000D02*
Y222976D01*
X214750Y215000D01*
X72250Y218000D02*
Y278000D01*
Y218000D02*
X98750Y191500D01*
Y187500D02*
Y191500D01*
X82750Y288500D02*
X196750D01*
X206774Y222976D02*
Y278476D01*
X196750Y288500D02*
X206774Y278476D01*
X72250Y278000D02*
X82750Y288500D01*
X55750Y195750D02*
X75750D01*
X84000Y187500D01*
X98750D01*
X506774Y215000D02*
Y222976D01*
X514750Y215000D01*
X372250Y218000D02*
Y278000D01*
Y218000D02*
X398750Y191500D01*
Y187500D02*
Y191500D01*
X382750Y288500D02*
X496750D01*
X506774Y222976D02*
Y278476D01*
X496750Y288500D02*
X506774Y278476D01*
X372250Y278000D02*
X382750Y288500D01*
X355750Y195750D02*
X375750D01*
X384000Y187500D01*
X398750D01*
X806774Y215000D02*
Y222976D01*
X814750Y215000D01*
X672250Y218000D02*
Y278000D01*
Y218000D02*
X698750Y191500D01*
Y187500D02*
Y191500D01*
X682750Y288500D02*
X796750D01*
X806774Y222976D02*
Y278476D01*
X796750Y288500D02*
X806774Y278476D01*
X672250Y278000D02*
X682750Y288500D01*
X655750Y195750D02*
X675750D01*
X684000Y187500D01*
X698750D01*
X206774Y515000D02*
Y522976D01*
X214750Y515000D01*
X72250Y518000D02*
Y578000D01*
Y518000D02*
X98750Y491500D01*
Y487500D02*
Y491500D01*
X82750Y588500D02*
X196750D01*
X206774Y522976D02*
Y578476D01*
X196750Y588500D02*
X206774Y578476D01*
X72250Y578000D02*
X82750Y588500D01*
X55750Y495750D02*
X75750D01*
X84000Y487500D01*
X98750D01*
X506774Y515000D02*
Y522976D01*
X514750Y515000D01*
X372250Y518000D02*
Y578000D01*
Y518000D02*
X398750Y491500D01*
Y487500D02*
Y491500D01*
X382750Y588500D02*
X496750D01*
X506774Y522976D02*
Y578476D01*
X496750Y588500D02*
X506774Y578476D01*
X372250Y578000D02*
X382750Y588500D01*
X355750Y495750D02*
X375750D01*
X384000Y487500D01*
X398750D01*
X806774Y515000D02*
Y522976D01*
X814750Y515000D01*
X672250Y518000D02*
Y578000D01*
Y518000D02*
X698750Y491500D01*
Y487500D02*
Y491500D01*
X682750Y588500D02*
X796750D01*
X806774Y522976D02*
Y578476D01*
X796750Y588500D02*
X806774Y578476D01*
X672250Y578000D02*
X682750Y588500D01*
X655750Y495750D02*
X675750D01*
X684000Y487500D01*
X698750D01*
X206774Y815000D02*
Y822976D01*
X214750Y815000D01*
X72250Y818000D02*
Y878000D01*
Y818000D02*
X98750Y791500D01*
Y787500D02*
Y791500D01*
X82750Y888500D02*
X196750D01*
X206774Y822976D02*
Y878476D01*
X196750Y888500D02*
X206774Y878476D01*
X72250Y878000D02*
X82750Y888500D01*
X55750Y795750D02*
X75750D01*
X84000Y787500D01*
X98750D01*
X506774Y815000D02*
Y822976D01*
X514750Y815000D01*
X372250Y818000D02*
Y878000D01*
Y818000D02*
X398750Y791500D01*
Y787500D02*
Y791500D01*
X382750Y888500D02*
X496750D01*
X506774Y822976D02*
Y878476D01*
X496750Y888500D02*
X506774Y878476D01*
X372250Y878000D02*
X382750Y888500D01*
X355750Y795750D02*
X375750D01*
X384000Y787500D01*
X398750D01*
X806774Y815000D02*
Y822976D01*
X814750Y815000D01*
X672250Y818000D02*
Y878000D01*
Y818000D02*
X698750Y791500D01*
Y787500D02*
Y791500D01*
X682750Y888500D02*
X796750D01*
X806774Y822976D02*
Y878476D01*
X796750Y888500D02*
X806774Y878476D01*
X672250Y878000D02*
X682750Y888500D01*
X655750Y795750D02*
X675750D01*
X684000Y787500D01*
X698750D01*
D22*
X115250Y70500D02*
Y81351D01*
X105250Y83568D02*
X148318Y126636D01*
X117500Y85850D02*
X155366Y123716D01*
X117500Y81351D02*
Y85850D01*
X123024Y79063D02*
Y86390D01*
X158890Y122257D01*
X126548Y84931D02*
X162414Y120797D01*
X126548Y77603D02*
Y84931D01*
X125250Y76305D02*
X126548Y77603D01*
X125250Y70500D02*
Y76305D01*
X120250Y76289D02*
X123024Y79063D01*
X120250Y70500D02*
Y76289D01*
X110250Y83584D02*
X151842Y125176D01*
X130250Y82902D02*
X165938Y118590D01*
X130250Y70500D02*
Y82902D01*
X105250Y70500D02*
Y83568D01*
X135250Y82919D02*
X169462Y117130D01*
X135250Y70500D02*
Y82919D01*
X140250Y82935D02*
X172986Y115671D01*
X140250Y70500D02*
Y82935D01*
X145250Y82951D02*
X176510Y114211D01*
X145250Y70500D02*
Y82951D01*
X150250Y82968D02*
X180034Y112751D01*
X150250Y70500D02*
Y82968D01*
X110250Y70500D02*
Y83584D01*
X107500Y47500D02*
X113024Y41976D01*
X206976D01*
X175250Y78435D02*
X194130Y97315D01*
X175250Y70500D02*
Y78435D01*
X185250Y78468D02*
X201178Y94395D01*
X185250Y70500D02*
Y78468D01*
X117500Y47500D02*
X118976Y46024D01*
X206976Y41976D02*
X242000Y77000D01*
X118976Y46024D02*
X206040D01*
X221250Y61234D01*
X242000Y77000D02*
X246250D01*
X221250Y61234D02*
Y78750D01*
X232000Y89500D01*
X246250D01*
X225750Y191250D02*
Y202000D01*
X232000Y185000D02*
X252500D01*
X225750Y191250D02*
X232000Y185000D01*
X229274Y196976D02*
Y201000D01*
X233750Y192500D02*
X250000D01*
X229274Y196976D02*
X233750Y192500D01*
X7750Y187750D02*
X15750Y195750D01*
X7750Y104000D02*
Y187750D01*
Y104000D02*
X9500Y102250D01*
X148318Y126636D02*
Y169210D01*
X121082Y196446D02*
X148318Y169210D01*
X121082Y196446D02*
Y201684D01*
X114266Y208500D02*
X121082Y201684D01*
X96249Y208500D02*
X114266D01*
X89750Y215000D02*
X96249Y208500D01*
X97750Y215000D02*
X112750D01*
X124606Y203144D01*
Y197905D02*
Y203144D01*
Y197905D02*
X151842Y170669D01*
Y125176D02*
Y170669D01*
X92226Y248712D02*
Y278476D01*
X155366Y123716D02*
Y172129D01*
X128130Y199365D02*
X155366Y172129D01*
X128130Y199365D02*
Y213172D01*
X95827Y245476D02*
X128130Y213172D01*
X95462Y245476D02*
X95827D01*
X92226Y248712D02*
X95462Y245476D01*
X97750Y248536D02*
Y251000D01*
Y248536D02*
X131654Y214632D01*
Y200825D02*
Y214632D01*
Y200825D02*
X158890Y173589D01*
Y122257D02*
Y173589D01*
X187082Y109832D02*
Y185266D01*
X159726Y82476D02*
X187082Y109832D01*
X183558Y111292D02*
Y183806D01*
X155250Y82984D02*
X183558Y111292D01*
X180034Y112751D02*
Y182347D01*
X176510Y114211D02*
Y180887D01*
X172986Y115671D02*
Y179427D01*
X169462Y117130D02*
Y177968D01*
X155250Y70500D02*
Y82984D01*
X160250Y70500D02*
Y76687D01*
X159726Y77212D02*
X160250Y76687D01*
X159726Y77212D02*
Y82476D01*
X170774Y79524D02*
X190606Y99356D01*
X170774Y71023D02*
Y79524D01*
X170250Y70500D02*
X170774Y71023D01*
X180250Y70500D02*
Y78451D01*
X190250Y70500D02*
Y78484D01*
X165250Y70501D02*
Y78500D01*
Y70501D02*
X165250Y70500D01*
X162414Y120797D02*
Y175048D01*
X165938Y118590D02*
Y176508D01*
X124750Y261000D02*
X124835Y228499D01*
X135178Y218156D01*
Y202284D02*
Y218156D01*
Y202284D02*
X162414Y175048D01*
X152606Y189841D02*
X165938Y176508D01*
X156130Y191300D02*
X169462Y177968D01*
X159654Y192760D02*
X172986Y179427D01*
X163178Y194219D02*
X176510Y180887D01*
X166702Y195679D02*
X180034Y182347D01*
X170226Y197139D02*
X183558Y183806D01*
X170226Y197139D02*
Y206679D01*
X173750Y198598D02*
X187082Y185266D01*
X173750Y198598D02*
Y210171D01*
X177274Y200058D02*
Y219460D01*
Y200058D02*
X190606Y186726D01*
X180798Y201518D02*
X194130Y188185D01*
X180798Y201518D02*
Y227785D01*
X184322Y202977D02*
X197654Y189645D01*
X184322Y202977D02*
Y241427D01*
X187846Y204437D02*
X201178Y191105D01*
X187846Y204437D02*
Y238283D01*
X191370Y205897D02*
X204702Y192564D01*
X191370Y205897D02*
Y236824D01*
X195250Y207000D02*
X208226Y194024D01*
X195250Y207000D02*
Y235721D01*
X200250Y207000D02*
X211750Y195500D01*
X200250Y207000D02*
Y254500D01*
X190606Y99356D02*
Y186726D01*
X194130Y97315D02*
Y188185D01*
X197654Y95855D02*
Y189645D01*
X201178Y94395D02*
Y191105D01*
X204702Y92936D02*
Y192564D01*
X208226Y91476D02*
Y194024D01*
X211750Y90000D02*
Y195500D01*
X124750Y261000D02*
X142750Y279000D01*
X159750Y212172D02*
X166702Y205220D01*
X167750Y228984D02*
Y243000D01*
X175750Y232833D02*
Y246999D01*
X151156Y210594D02*
X163178Y198573D01*
Y194219D02*
Y198573D01*
X166702Y195679D02*
Y205220D01*
X179561Y254000D02*
X189274Y244287D01*
X172750Y265795D02*
X192798Y245747D01*
X180750Y266967D02*
X196322Y251395D01*
X189750Y265000D02*
X200250Y254500D01*
X189750Y265000D02*
Y279000D01*
X175750Y232833D02*
X180798Y227785D01*
X183750Y241999D02*
X184322Y241427D01*
X196322Y236792D02*
Y251395D01*
X195250Y235721D02*
X196322Y236792D01*
X216750Y253000D02*
X221226Y248524D01*
X216750Y245000D02*
X225750Y236000D01*
X224210Y248524D02*
X229274Y243460D01*
X221226Y248524D02*
X224210D01*
X191370Y236824D02*
X192798Y238252D01*
Y245747D01*
X229274Y212476D02*
Y243460D01*
X189274Y239711D02*
Y244287D01*
X187846Y238283D02*
X189274Y239711D01*
X171750Y212171D02*
Y215000D01*
X167750Y228984D02*
X177274Y219460D01*
X162226Y249476D02*
X162750Y250000D01*
X159750Y212172D02*
Y214000D01*
X147632Y214882D02*
X147750Y215000D01*
X138702Y211252D02*
Y218748D01*
Y211252D02*
X140584Y209370D01*
Y206215D02*
Y209370D01*
Y206215D02*
X152606Y194194D01*
X142226Y212712D02*
Y217288D01*
Y212712D02*
X144108Y210830D01*
Y207675D02*
Y210830D01*
Y207675D02*
X156130Y195654D01*
X147632Y209135D02*
Y214882D01*
Y209135D02*
X159654Y197113D01*
X152606Y189841D02*
Y194194D01*
X147750Y222812D02*
X153274Y217288D01*
Y212712D02*
Y217288D01*
X151156Y210594D02*
X153274Y212712D01*
X151156Y210594D02*
Y210594D01*
X165750Y211155D02*
Y226000D01*
Y211155D02*
X170226Y206679D01*
X142226Y217288D02*
X145258Y220320D01*
X150750Y264000D02*
Y278999D01*
Y264000D02*
X153274Y261476D01*
Y241728D02*
Y261476D01*
X147750Y236204D02*
X153274Y241728D01*
X147750Y222812D02*
Y236204D01*
X144226Y221352D02*
X145258Y220320D01*
X145258D01*
X140702Y220748D02*
Y239124D01*
X138702Y218748D02*
X140702Y220748D01*
X142750Y241172D02*
Y244000D01*
X147750Y246812D02*
Y251000D01*
Y246812D02*
X148274Y246288D01*
Y241712D02*
Y246288D01*
X144226Y237664D02*
X148274Y241712D01*
X140702Y239124D02*
X142750Y241172D01*
X144226Y221352D02*
Y237664D01*
X156130Y191300D02*
Y195654D01*
X159654Y192760D02*
Y197113D01*
X162226Y229524D02*
X165750Y226000D01*
X171750Y212171D02*
X173750Y210171D01*
X180250Y78451D02*
X197654Y95855D01*
X190250Y78484D02*
X204702Y92936D01*
X195250Y70500D02*
Y78500D01*
X208226Y91476D01*
X200250Y78500D02*
X211750Y90000D01*
X200250Y70500D02*
Y78500D01*
X9500Y102250D02*
X22000D01*
X167750Y265811D02*
X179561Y254000D01*
X164750Y268811D02*
X167750Y265811D01*
X164750Y268811D02*
Y278999D01*
X172750Y265795D02*
Y279000D01*
X205250Y62500D02*
X207750Y60000D01*
X205250Y62500D02*
Y70500D01*
X207750Y60000D02*
X210250Y62500D01*
Y70500D01*
X15750Y195750D02*
X55750D01*
X100250Y70500D02*
Y77500D01*
X95250Y70500D02*
Y77500D01*
X229274Y201000D02*
X234750Y206476D01*
Y207000D01*
X229274Y212476D02*
X234750Y207000D01*
X222750Y205000D02*
X225750Y202000D01*
X222750Y205000D02*
Y207000D01*
X225750Y213000D02*
Y236000D01*
X222750Y207000D02*
Y210000D01*
X225750Y213000D01*
X180750Y266967D02*
Y278999D01*
X162226Y229524D02*
Y249476D01*
X92226Y278476D02*
X92750Y279000D01*
X415250Y70500D02*
Y81351D01*
X405250Y83568D02*
X448318Y126636D01*
X417500Y85850D02*
X455366Y123716D01*
X417500Y81351D02*
Y85850D01*
X423024Y79063D02*
Y86390D01*
X458890Y122257D01*
X426548Y84931D02*
X462414Y120797D01*
X426548Y77603D02*
Y84931D01*
X425250Y76305D02*
X426548Y77603D01*
X425250Y70500D02*
Y76305D01*
X420250Y76289D02*
X423024Y79063D01*
X420250Y70500D02*
Y76289D01*
X410250Y83584D02*
X451842Y125176D01*
X430250Y82902D02*
X465938Y118590D01*
X430250Y70500D02*
Y82902D01*
X405250Y70500D02*
Y83568D01*
X435250Y82919D02*
X469462Y117130D01*
X435250Y70500D02*
Y82919D01*
X440250Y82935D02*
X472986Y115671D01*
X440250Y70500D02*
Y82935D01*
X445250Y82951D02*
X476510Y114211D01*
X445250Y70500D02*
Y82951D01*
X450250Y82968D02*
X480034Y112751D01*
X450250Y70500D02*
Y82968D01*
X410250Y70500D02*
Y83584D01*
X407500Y47500D02*
X413024Y41976D01*
X506976D01*
X475250Y78435D02*
X494130Y97315D01*
X475250Y70500D02*
Y78435D01*
X485250Y78468D02*
X501178Y94395D01*
X485250Y70500D02*
Y78468D01*
X417500Y47500D02*
X418976Y46024D01*
X506976Y41976D02*
X542000Y77000D01*
X418976Y46024D02*
X506040D01*
X521250Y61234D01*
X542000Y77000D02*
X546250D01*
X521250Y61234D02*
Y78750D01*
X532000Y89500D01*
X546250D01*
X525750Y191250D02*
Y202000D01*
X532000Y185000D02*
X552500D01*
X525750Y191250D02*
X532000Y185000D01*
X529274Y196976D02*
Y201000D01*
X533750Y192500D02*
X550000D01*
X529274Y196976D02*
X533750Y192500D01*
X307750Y187750D02*
X315750Y195750D01*
X307750Y104000D02*
Y187750D01*
Y104000D02*
X309500Y102250D01*
X448318Y126636D02*
Y169210D01*
X421082Y196446D02*
X448318Y169210D01*
X421082Y196446D02*
Y201684D01*
X414266Y208500D02*
X421082Y201684D01*
X396249Y208500D02*
X414266D01*
X389750Y215000D02*
X396249Y208500D01*
X397750Y215000D02*
X412750D01*
X424606Y203144D01*
Y197905D02*
Y203144D01*
Y197905D02*
X451842Y170669D01*
Y125176D02*
Y170669D01*
X392226Y248712D02*
Y278476D01*
X455366Y123716D02*
Y172129D01*
X428130Y199365D02*
X455366Y172129D01*
X428130Y199365D02*
Y213172D01*
X395826Y245476D02*
X428130Y213172D01*
X395462Y245476D02*
X395826D01*
X392226Y248712D02*
X395462Y245476D01*
X397750Y248536D02*
Y251000D01*
Y248536D02*
X431654Y214632D01*
Y200825D02*
Y214632D01*
Y200825D02*
X458890Y173589D01*
Y122257D02*
Y173589D01*
X487082Y109832D02*
Y185266D01*
X459726Y82476D02*
X487082Y109832D01*
X483558Y111292D02*
Y183806D01*
X455250Y82984D02*
X483558Y111292D01*
X480034Y112751D02*
Y182347D01*
X476510Y114211D02*
Y180887D01*
X472986Y115671D02*
Y179427D01*
X469462Y117130D02*
Y177968D01*
X455250Y70500D02*
Y82984D01*
X460250Y70500D02*
Y76687D01*
X459726Y77212D02*
X460250Y76687D01*
X459726Y77212D02*
Y82476D01*
X470774Y79524D02*
X490606Y99356D01*
X470774Y71023D02*
Y79524D01*
X470250Y70500D02*
X470774Y71023D01*
X480250Y70500D02*
Y78451D01*
X490250Y70500D02*
Y78484D01*
X465250Y70501D02*
Y78500D01*
Y70501D02*
X465250Y70500D01*
X462414Y120797D02*
Y175048D01*
X465938Y118590D02*
Y176508D01*
X424750Y261000D02*
X424835Y228499D01*
X435178Y218156D01*
Y202284D02*
Y218156D01*
Y202284D02*
X462414Y175048D01*
X452606Y189841D02*
X465938Y176508D01*
X456130Y191300D02*
X469462Y177968D01*
X459654Y192760D02*
X472986Y179427D01*
X463178Y194219D02*
X476510Y180887D01*
X466702Y195679D02*
X480034Y182347D01*
X470226Y197139D02*
X483558Y183806D01*
X470226Y197139D02*
Y206679D01*
X473750Y198598D02*
X487082Y185266D01*
X473750Y198598D02*
Y210171D01*
X477274Y200058D02*
Y219460D01*
Y200058D02*
X490606Y186726D01*
X480798Y201518D02*
X494130Y188185D01*
X480798Y201518D02*
Y227785D01*
X484322Y202977D02*
X497654Y189645D01*
X484322Y202977D02*
Y241427D01*
X487846Y204437D02*
X501178Y191105D01*
X487846Y204437D02*
Y238283D01*
X491370Y205897D02*
X504702Y192564D01*
X491370Y205897D02*
Y236824D01*
X495250Y207000D02*
X508226Y194024D01*
X495250Y207000D02*
Y235721D01*
X500250Y207000D02*
X511750Y195500D01*
X500250Y207000D02*
Y254500D01*
X490606Y99356D02*
Y186726D01*
X494130Y97315D02*
Y188185D01*
X497654Y95855D02*
Y189645D01*
X501178Y94395D02*
Y191105D01*
X504702Y92936D02*
Y192564D01*
X508226Y91476D02*
Y194024D01*
X511750Y90000D02*
Y195500D01*
X424750Y261000D02*
X442750Y279000D01*
X459750Y212172D02*
X466702Y205220D01*
X467750Y228984D02*
Y243000D01*
X475750Y232833D02*
Y246999D01*
X451156Y210594D02*
X463178Y198573D01*
Y194219D02*
Y198573D01*
X466702Y195679D02*
Y205220D01*
X479561Y254000D02*
X489274Y244287D01*
X472750Y265795D02*
X492798Y245747D01*
X480750Y266967D02*
X496322Y251395D01*
X489750Y265000D02*
X500250Y254500D01*
X489750Y265000D02*
Y279000D01*
X475750Y232833D02*
X480798Y227785D01*
X483750Y241999D02*
X484322Y241427D01*
X496322Y236792D02*
Y251395D01*
X495250Y235721D02*
X496322Y236792D01*
X516750Y253000D02*
X521226Y248524D01*
X516750Y245000D02*
X525750Y236000D01*
X524210Y248524D02*
X529274Y243460D01*
X521226Y248524D02*
X524210D01*
X491370Y236824D02*
X492798Y238252D01*
Y245747D01*
X529274Y212476D02*
Y243460D01*
X489274Y239711D02*
Y244287D01*
X487846Y238283D02*
X489274Y239711D01*
X471750Y212171D02*
Y215000D01*
X467750Y228984D02*
X477274Y219460D01*
X462226Y249476D02*
X462750Y250000D01*
X459750Y212172D02*
Y214000D01*
X447632Y214882D02*
X447750Y215000D01*
X438702Y211252D02*
Y218748D01*
Y211252D02*
X440584Y209370D01*
Y206215D02*
Y209370D01*
Y206215D02*
X452606Y194194D01*
X442226Y212712D02*
Y217288D01*
Y212712D02*
X444108Y210830D01*
Y207675D02*
Y210830D01*
Y207675D02*
X456130Y195654D01*
X447632Y209135D02*
Y214882D01*
Y209135D02*
X459654Y197113D01*
X452606Y189841D02*
Y194194D01*
X447750Y222812D02*
X453274Y217288D01*
Y212712D02*
Y217288D01*
X451156Y210594D02*
X453274Y212712D01*
X451156Y210594D02*
Y210594D01*
X465750Y211155D02*
Y226000D01*
Y211155D02*
X470226Y206679D01*
X442226Y217288D02*
X445258Y220320D01*
X450750Y264000D02*
Y278999D01*
Y264000D02*
X453274Y261476D01*
Y241728D02*
Y261476D01*
X447750Y236204D02*
X453274Y241728D01*
X447750Y222812D02*
Y236204D01*
X444226Y221352D02*
X445258Y220320D01*
X445258D01*
X440702Y220748D02*
Y239124D01*
X438702Y218748D02*
X440702Y220748D01*
X442750Y241172D02*
Y244000D01*
X447750Y246812D02*
Y251000D01*
Y246812D02*
X448274Y246288D01*
Y241712D02*
Y246288D01*
X444226Y237664D02*
X448274Y241712D01*
X440702Y239124D02*
X442750Y241172D01*
X444226Y221352D02*
Y237664D01*
X456130Y191300D02*
Y195654D01*
X459654Y192760D02*
Y197113D01*
X462226Y229524D02*
X465750Y226000D01*
X471750Y212171D02*
X473750Y210171D01*
X480250Y78451D02*
X497654Y95855D01*
X490250Y78484D02*
X504702Y92936D01*
X495250Y70500D02*
Y78500D01*
X508226Y91476D01*
X500250Y78500D02*
X511750Y90000D01*
X500250Y70500D02*
Y78500D01*
X309500Y102250D02*
X322000D01*
X467750Y265811D02*
X479561Y254000D01*
X464750Y268811D02*
X467750Y265811D01*
X464750Y268811D02*
Y278999D01*
X472750Y265795D02*
Y279000D01*
X505250Y62500D02*
X507750Y60000D01*
X505250Y62500D02*
Y70500D01*
X507750Y60000D02*
X510250Y62500D01*
Y70500D01*
X315750Y195750D02*
X355750D01*
X400250Y70500D02*
Y77500D01*
X395250Y70500D02*
Y77500D01*
X529274Y201000D02*
X534750Y206476D01*
Y207000D01*
X529274Y212476D02*
X534750Y207000D01*
X522750Y205000D02*
X525750Y202000D01*
X522750Y205000D02*
Y207000D01*
X525750Y213000D02*
Y236000D01*
X522750Y207000D02*
Y210000D01*
X525750Y213000D01*
X480750Y266967D02*
Y278999D01*
X462226Y229524D02*
Y249476D01*
X392226Y278476D02*
X392750Y279000D01*
X715250Y70500D02*
Y81351D01*
X705250Y83568D02*
X748318Y126636D01*
X717500Y85850D02*
X755366Y123716D01*
X717500Y81351D02*
Y85850D01*
X723024Y79063D02*
Y86390D01*
X758890Y122257D01*
X726548Y84931D02*
X762414Y120797D01*
X726548Y77603D02*
Y84931D01*
X725250Y76305D02*
X726548Y77603D01*
X725250Y70500D02*
Y76305D01*
X720250Y76289D02*
X723024Y79063D01*
X720250Y70500D02*
Y76289D01*
X710250Y83584D02*
X751842Y125176D01*
X730250Y82902D02*
X765938Y118590D01*
X730250Y70500D02*
Y82902D01*
X705250Y70500D02*
Y83568D01*
X735250Y82919D02*
X769462Y117130D01*
X735250Y70500D02*
Y82919D01*
X740250Y82935D02*
X772986Y115671D01*
X740250Y70500D02*
Y82935D01*
X745250Y82951D02*
X776510Y114211D01*
X745250Y70500D02*
Y82951D01*
X750250Y82968D02*
X780034Y112751D01*
X750250Y70500D02*
Y82968D01*
X710250Y70500D02*
Y83584D01*
X707500Y47500D02*
X713024Y41976D01*
X806976D01*
X775250Y78435D02*
X794130Y97315D01*
X775250Y70500D02*
Y78435D01*
X785250Y78468D02*
X801178Y94395D01*
X785250Y70500D02*
Y78468D01*
X717500Y47500D02*
X718976Y46024D01*
X806976Y41976D02*
X842000Y77000D01*
X718976Y46024D02*
X806040D01*
X821250Y61234D01*
X842000Y77000D02*
X846250D01*
X821250Y61234D02*
Y78750D01*
X832000Y89500D01*
X846250D01*
X825750Y191250D02*
Y202000D01*
X832000Y185000D02*
X852500D01*
X825750Y191250D02*
X832000Y185000D01*
X829274Y196976D02*
Y201000D01*
X833750Y192500D02*
X850000D01*
X829274Y196976D02*
X833750Y192500D01*
X607750Y187750D02*
X615750Y195750D01*
X607750Y104000D02*
Y187750D01*
Y104000D02*
X609500Y102250D01*
X748318Y126636D02*
Y169210D01*
X721082Y196446D02*
X748318Y169210D01*
X721082Y196446D02*
Y201684D01*
X714266Y208500D02*
X721082Y201684D01*
X696249Y208500D02*
X714266D01*
X689750Y215000D02*
X696249Y208500D01*
X697750Y215000D02*
X712750D01*
X724606Y203144D01*
Y197905D02*
Y203144D01*
Y197905D02*
X751842Y170669D01*
Y125176D02*
Y170669D01*
X692226Y248712D02*
Y278476D01*
X755366Y123716D02*
Y172129D01*
X728130Y199365D02*
X755366Y172129D01*
X728130Y199365D02*
Y213172D01*
X695826Y245476D02*
X728130Y213172D01*
X695462Y245476D02*
X695826D01*
X692226Y248712D02*
X695462Y245476D01*
X697750Y248536D02*
Y251000D01*
Y248536D02*
X731654Y214632D01*
Y200825D02*
Y214632D01*
Y200825D02*
X758890Y173589D01*
Y122257D02*
Y173589D01*
X787082Y109832D02*
Y185266D01*
X759726Y82476D02*
X787082Y109832D01*
X783558Y111292D02*
Y183806D01*
X755250Y82984D02*
X783558Y111292D01*
X780034Y112751D02*
Y182347D01*
X776510Y114211D02*
Y180887D01*
X772986Y115671D02*
Y179427D01*
X769462Y117130D02*
Y177968D01*
X755250Y70500D02*
Y82984D01*
X760250Y70500D02*
Y76687D01*
X759726Y77212D02*
X760250Y76687D01*
X759726Y77212D02*
Y82476D01*
X770774Y79524D02*
X790606Y99356D01*
X770774Y71023D02*
Y79524D01*
X770250Y70500D02*
X770774Y71023D01*
X780250Y70500D02*
Y78451D01*
X790250Y70500D02*
Y78484D01*
X765250Y70501D02*
Y78500D01*
Y70501D02*
X765250Y70500D01*
X762414Y120797D02*
Y175048D01*
X765938Y118590D02*
Y176508D01*
X724750Y261000D02*
X724835Y228499D01*
X735178Y218156D01*
Y202284D02*
Y218156D01*
Y202284D02*
X762414Y175048D01*
X752606Y189841D02*
X765938Y176508D01*
X756130Y191300D02*
X769462Y177968D01*
X759654Y192760D02*
X772986Y179427D01*
X763178Y194219D02*
X776510Y180887D01*
X766702Y195679D02*
X780034Y182347D01*
X770226Y197139D02*
X783558Y183806D01*
X770226Y197139D02*
Y206679D01*
X773750Y198598D02*
X787082Y185266D01*
X773750Y198598D02*
Y210171D01*
X777274Y200058D02*
Y219460D01*
Y200058D02*
X790606Y186726D01*
X780798Y201518D02*
X794130Y188185D01*
X780798Y201518D02*
Y227785D01*
X784322Y202977D02*
X797654Y189645D01*
X784322Y202977D02*
Y241427D01*
X787846Y204437D02*
X801178Y191105D01*
X787846Y204437D02*
Y238283D01*
X791370Y205897D02*
X804702Y192564D01*
X791370Y205897D02*
Y236824D01*
X795250Y207000D02*
X808226Y194024D01*
X795250Y207000D02*
Y235721D01*
X800250Y207000D02*
X811750Y195500D01*
X800250Y207000D02*
Y254500D01*
X790606Y99356D02*
Y186726D01*
X794130Y97315D02*
Y188185D01*
X797654Y95855D02*
Y189645D01*
X801178Y94395D02*
Y191105D01*
X804702Y92936D02*
Y192564D01*
X808226Y91476D02*
Y194024D01*
X811750Y90000D02*
Y195500D01*
X724750Y261000D02*
X742750Y279000D01*
X759750Y212172D02*
X766702Y205220D01*
X767750Y228984D02*
Y243000D01*
X775750Y232833D02*
Y246999D01*
X751156Y210594D02*
X763178Y198573D01*
Y194219D02*
Y198573D01*
X766702Y195679D02*
Y205220D01*
X779561Y254000D02*
X789274Y244287D01*
X772750Y265795D02*
X792798Y245747D01*
X780750Y266967D02*
X796322Y251395D01*
X789750Y265000D02*
X800250Y254500D01*
X789750Y265000D02*
Y279000D01*
X775750Y232833D02*
X780798Y227785D01*
X783750Y241999D02*
X784322Y241427D01*
X796322Y236792D02*
Y251395D01*
X795250Y235721D02*
X796322Y236792D01*
X816750Y253000D02*
X821226Y248524D01*
X816750Y245000D02*
X825750Y236000D01*
X824210Y248524D02*
X829274Y243460D01*
X821226Y248524D02*
X824210D01*
X791370Y236824D02*
X792798Y238252D01*
Y245747D01*
X829274Y212476D02*
Y243460D01*
X789274Y239711D02*
Y244287D01*
X787846Y238283D02*
X789274Y239711D01*
X771750Y212171D02*
Y215000D01*
X767750Y228984D02*
X777274Y219460D01*
X762226Y249476D02*
X762750Y250000D01*
X759750Y212172D02*
Y214000D01*
X747632Y214882D02*
X747750Y215000D01*
X738702Y211252D02*
Y218748D01*
Y211252D02*
X740584Y209370D01*
Y206215D02*
Y209370D01*
Y206215D02*
X752606Y194194D01*
X742226Y212712D02*
Y217288D01*
Y212712D02*
X744108Y210830D01*
Y207675D02*
Y210830D01*
Y207675D02*
X756130Y195654D01*
X747632Y209135D02*
Y214882D01*
Y209135D02*
X759654Y197113D01*
X752606Y189841D02*
Y194194D01*
X747750Y222812D02*
X753274Y217288D01*
Y212712D02*
Y217288D01*
X751156Y210594D02*
X753274Y212712D01*
X751156Y210594D02*
Y210594D01*
X765750Y211155D02*
Y226000D01*
Y211155D02*
X770226Y206679D01*
X742226Y217288D02*
X745258Y220320D01*
X750750Y264000D02*
Y278999D01*
Y264000D02*
X753274Y261476D01*
Y241728D02*
Y261476D01*
X747750Y236204D02*
X753274Y241728D01*
X747750Y222812D02*
Y236204D01*
X744226Y221352D02*
X745258Y220320D01*
X745258D01*
X740702Y220748D02*
Y239124D01*
X738702Y218748D02*
X740702Y220748D01*
X742750Y241172D02*
Y244000D01*
X747750Y246812D02*
Y251000D01*
Y246812D02*
X748274Y246288D01*
Y241712D02*
Y246288D01*
X744226Y237664D02*
X748274Y241712D01*
X740702Y239124D02*
X742750Y241172D01*
X744226Y221352D02*
Y237664D01*
X756130Y191300D02*
Y195654D01*
X759654Y192760D02*
Y197113D01*
X762226Y229524D02*
X765750Y226000D01*
X771750Y212171D02*
X773750Y210171D01*
X780250Y78451D02*
X797654Y95855D01*
X790250Y78484D02*
X804702Y92936D01*
X795250Y70500D02*
Y78500D01*
X808226Y91476D01*
X800250Y78500D02*
X811750Y90000D01*
X800250Y70500D02*
Y78500D01*
X609500Y102250D02*
X622000D01*
X767750Y265811D02*
X779561Y254000D01*
X764750Y268811D02*
X767750Y265811D01*
X764750Y268811D02*
Y278999D01*
X772750Y265795D02*
Y279000D01*
X805250Y62500D02*
X807750Y60000D01*
X805250Y62500D02*
Y70500D01*
X807750Y60000D02*
X810250Y62500D01*
Y70500D01*
X615750Y195750D02*
X655750D01*
X700250Y70500D02*
Y77500D01*
X695250Y70500D02*
Y77500D01*
X829274Y201000D02*
X834750Y206476D01*
Y207000D01*
X829274Y212476D02*
X834750Y207000D01*
X822750Y205000D02*
X825750Y202000D01*
X822750Y205000D02*
Y207000D01*
X825750Y213000D02*
Y236000D01*
X822750Y207000D02*
Y210000D01*
X825750Y213000D01*
X780750Y266967D02*
Y278999D01*
X762226Y229524D02*
Y249476D01*
X692226Y278476D02*
X692750Y279000D01*
X115250Y370500D02*
Y381351D01*
X105250Y383568D02*
X148318Y426636D01*
X117500Y385850D02*
X155366Y423716D01*
X117500Y381351D02*
Y385850D01*
X123024Y379063D02*
Y386390D01*
X158890Y422257D01*
X126548Y384931D02*
X162414Y420797D01*
X126548Y377603D02*
Y384931D01*
X125250Y376305D02*
X126548Y377603D01*
X125250Y370500D02*
Y376305D01*
X120250Y376289D02*
X123024Y379063D01*
X120250Y370500D02*
Y376289D01*
X110250Y383584D02*
X151842Y425176D01*
X130250Y382902D02*
X165938Y418590D01*
X130250Y370500D02*
Y382902D01*
X105250Y370500D02*
Y383568D01*
X135250Y382919D02*
X169462Y417130D01*
X135250Y370500D02*
Y382919D01*
X140250Y382935D02*
X172986Y415671D01*
X140250Y370500D02*
Y382935D01*
X145250Y382951D02*
X176510Y414211D01*
X145250Y370500D02*
Y382951D01*
X150250Y382968D02*
X180034Y412751D01*
X150250Y370500D02*
Y382968D01*
X110250Y370500D02*
Y383584D01*
X107500Y347500D02*
X113024Y341976D01*
X206976D01*
X175250Y378435D02*
X194130Y397315D01*
X175250Y370500D02*
Y378435D01*
X185250Y378468D02*
X201178Y394395D01*
X185250Y370500D02*
Y378468D01*
X117500Y347500D02*
X118976Y346024D01*
X206976Y341976D02*
X242000Y377000D01*
X118976Y346024D02*
X206040D01*
X221250Y361234D01*
X242000Y377000D02*
X246250D01*
X221250Y361234D02*
Y378750D01*
X232000Y389500D01*
X246250D01*
X225750Y491250D02*
Y502000D01*
X232000Y485000D02*
X252500D01*
X225750Y491250D02*
X232000Y485000D01*
X229274Y496976D02*
Y501000D01*
X233750Y492500D02*
X250000D01*
X229274Y496976D02*
X233750Y492500D01*
X7750Y487750D02*
X15750Y495750D01*
X7750Y404000D02*
Y487750D01*
Y404000D02*
X9500Y402250D01*
X148318Y426636D02*
Y469210D01*
X121082Y496446D02*
X148318Y469210D01*
X121082Y496446D02*
Y501684D01*
X114266Y508500D02*
X121082Y501684D01*
X96249Y508500D02*
X114266D01*
X89750Y515000D02*
X96249Y508500D01*
X97750Y515000D02*
X112750D01*
X124606Y503144D01*
Y497905D02*
Y503144D01*
Y497905D02*
X151842Y470669D01*
Y425176D02*
Y470669D01*
X92226Y548712D02*
Y578476D01*
X155366Y423716D02*
Y472129D01*
X128130Y499365D02*
X155366Y472129D01*
X128130Y499365D02*
Y513172D01*
X95827Y545476D02*
X128130Y513172D01*
X95462Y545476D02*
X95827D01*
X92226Y548712D02*
X95462Y545476D01*
X97750Y548536D02*
Y551000D01*
Y548536D02*
X131654Y514632D01*
Y500825D02*
Y514632D01*
Y500825D02*
X158890Y473589D01*
Y422257D02*
Y473589D01*
X187082Y409832D02*
Y485266D01*
X159726Y382476D02*
X187082Y409832D01*
X183558Y411292D02*
Y483806D01*
X155250Y382984D02*
X183558Y411292D01*
X180034Y412751D02*
Y482347D01*
X176510Y414211D02*
Y480887D01*
X172986Y415671D02*
Y479427D01*
X169462Y417130D02*
Y477968D01*
X155250Y370500D02*
Y382984D01*
X160250Y370500D02*
Y376687D01*
X159726Y377212D02*
X160250Y376687D01*
X159726Y377212D02*
Y382476D01*
X170774Y379524D02*
X190606Y399356D01*
X170774Y371023D02*
Y379524D01*
X170250Y370500D02*
X170774Y371023D01*
X180250Y370500D02*
Y378451D01*
X190250Y370500D02*
Y378484D01*
X165250Y370501D02*
Y378500D01*
Y370501D02*
X165250Y370500D01*
X162414Y420797D02*
Y475048D01*
X165938Y418590D02*
Y476508D01*
X124750Y561000D02*
X124835Y528499D01*
X135178Y518156D01*
Y502284D02*
Y518156D01*
Y502284D02*
X162414Y475048D01*
X152606Y489841D02*
X165938Y476508D01*
X156130Y491300D02*
X169462Y477968D01*
X159654Y492760D02*
X172986Y479427D01*
X163178Y494220D02*
X176510Y480887D01*
X166702Y495679D02*
X180034Y482347D01*
X170226Y497139D02*
X183558Y483806D01*
X170226Y497139D02*
Y506680D01*
X173750Y498599D02*
X187082Y485266D01*
X173750Y498599D02*
Y510171D01*
X177274Y500058D02*
Y519460D01*
Y500058D02*
X190606Y486726D01*
X180798Y501518D02*
X194130Y488185D01*
X180798Y501518D02*
Y527785D01*
X184322Y502977D02*
X197654Y489645D01*
X184322Y502977D02*
Y541427D01*
X187846Y504437D02*
X201178Y491105D01*
X187846Y504437D02*
Y538283D01*
X191370Y505897D02*
X204702Y492564D01*
X191370Y505897D02*
Y536824D01*
X195250Y507000D02*
X208226Y494024D01*
X195250Y507000D02*
Y535720D01*
X200250Y507000D02*
X211750Y495500D01*
X200250Y507000D02*
Y554500D01*
X190606Y399356D02*
Y486726D01*
X194130Y397315D02*
Y488185D01*
X197654Y395855D02*
Y489645D01*
X201178Y394395D02*
Y491105D01*
X204702Y392936D02*
Y492564D01*
X208226Y391476D02*
Y494024D01*
X211750Y390000D02*
Y495500D01*
X124750Y561000D02*
X142750Y579000D01*
X159750Y512172D02*
X166702Y505220D01*
X167750Y528984D02*
Y543000D01*
X175750Y532833D02*
Y546999D01*
X151156Y510594D02*
X163178Y498573D01*
Y494220D02*
Y498573D01*
X166702Y495679D02*
Y505220D01*
X179561Y554000D02*
X189274Y544288D01*
X172750Y565795D02*
X192798Y545747D01*
X180750Y566967D02*
X196322Y551395D01*
X189750Y565000D02*
X200250Y554500D01*
X189750Y565000D02*
Y579000D01*
X175750Y532833D02*
X180798Y527785D01*
X183750Y541999D02*
X184322Y541427D01*
X196322Y536792D02*
Y551395D01*
X195250Y535720D02*
X196322Y536792D01*
X216750Y553000D02*
X221226Y548524D01*
X216750Y545000D02*
X225750Y536000D01*
X224210Y548524D02*
X229274Y543460D01*
X221226Y548524D02*
X224210D01*
X191370Y536824D02*
X192798Y538252D01*
Y545747D01*
X229274Y512476D02*
Y543460D01*
X189274Y539711D02*
Y544288D01*
X187846Y538283D02*
X189274Y539711D01*
X171750Y512171D02*
Y515000D01*
X167750Y528984D02*
X177274Y519460D01*
X162226Y549476D02*
X162750Y550000D01*
X159750Y512172D02*
Y513999D01*
X147632Y514882D02*
X147750Y515000D01*
X138702Y511252D02*
Y518748D01*
Y511252D02*
X140584Y509370D01*
Y506215D02*
Y509370D01*
Y506215D02*
X152606Y494194D01*
X142226Y512712D02*
Y517288D01*
Y512712D02*
X144108Y510830D01*
Y507675D02*
Y510830D01*
Y507675D02*
X156130Y495654D01*
X147632Y509134D02*
Y514882D01*
Y509134D02*
X159654Y497113D01*
X152606Y489841D02*
Y494194D01*
X147750Y522812D02*
X153274Y517288D01*
Y512712D02*
Y517288D01*
X151156Y510594D02*
X153274Y512712D01*
X151156Y510594D02*
Y510594D01*
X165750Y511155D02*
Y526000D01*
Y511155D02*
X170226Y506680D01*
X142226Y517288D02*
X145258Y520320D01*
X150750Y564000D02*
Y578999D01*
Y564000D02*
X153274Y561476D01*
Y541728D02*
Y561476D01*
X147750Y536204D02*
X153274Y541728D01*
X147750Y522812D02*
Y536204D01*
X144226Y521352D02*
X145258Y520320D01*
X145258D01*
X140702Y520748D02*
Y539124D01*
X138702Y518748D02*
X140702Y520748D01*
X142750Y541172D02*
Y544000D01*
X147750Y546812D02*
Y551000D01*
Y546812D02*
X148274Y546288D01*
Y541712D02*
Y546288D01*
X144226Y537664D02*
X148274Y541712D01*
X140702Y539124D02*
X142750Y541172D01*
X144226Y521352D02*
Y537664D01*
X156130Y491300D02*
Y495654D01*
X159654Y492760D02*
Y497113D01*
X162226Y529524D02*
X165750Y526000D01*
X171750Y512171D02*
X173750Y510171D01*
X180250Y378451D02*
X197654Y395855D01*
X190250Y378484D02*
X204702Y392936D01*
X195250Y370500D02*
Y378500D01*
X208226Y391476D01*
X200250Y378500D02*
X211750Y390000D01*
X200250Y370500D02*
Y378500D01*
X9500Y402250D02*
X22000D01*
X167750Y565811D02*
X179561Y554000D01*
X164750Y568811D02*
X167750Y565811D01*
X164750Y568811D02*
Y578999D01*
X172750Y565795D02*
Y579000D01*
X205250Y362500D02*
X207750Y360000D01*
X205250Y362500D02*
Y370500D01*
X207750Y360000D02*
X210250Y362500D01*
Y370500D01*
X15750Y495750D02*
X55750D01*
X100250Y370500D02*
Y377500D01*
X95250Y370500D02*
Y377500D01*
X229274Y501000D02*
X234750Y506476D01*
Y507000D01*
X229274Y512476D02*
X234750Y507000D01*
X222750Y505000D02*
X225750Y502000D01*
X222750Y505000D02*
Y507000D01*
X225750Y513000D02*
Y536000D01*
X222750Y507000D02*
Y510000D01*
X225750Y513000D01*
X180750Y566967D02*
Y578999D01*
X162226Y529524D02*
Y549476D01*
X92226Y578476D02*
X92750Y579000D01*
X415250Y370500D02*
Y381351D01*
X405250Y383568D02*
X448318Y426636D01*
X417500Y385850D02*
X455366Y423716D01*
X417500Y381351D02*
Y385850D01*
X423024Y379063D02*
Y386390D01*
X458890Y422257D01*
X426548Y384931D02*
X462414Y420797D01*
X426548Y377603D02*
Y384931D01*
X425250Y376305D02*
X426548Y377603D01*
X425250Y370500D02*
Y376305D01*
X420250Y376289D02*
X423024Y379063D01*
X420250Y370500D02*
Y376289D01*
X410250Y383584D02*
X451842Y425176D01*
X430250Y382902D02*
X465938Y418590D01*
X430250Y370500D02*
Y382902D01*
X405250Y370500D02*
Y383568D01*
X435250Y382919D02*
X469462Y417130D01*
X435250Y370500D02*
Y382919D01*
X440250Y382935D02*
X472986Y415671D01*
X440250Y370500D02*
Y382935D01*
X445250Y382951D02*
X476510Y414211D01*
X445250Y370500D02*
Y382951D01*
X450250Y382968D02*
X480034Y412751D01*
X450250Y370500D02*
Y382968D01*
X410250Y370500D02*
Y383584D01*
X407500Y347500D02*
X413024Y341976D01*
X506976D01*
X475250Y378435D02*
X494130Y397315D01*
X475250Y370500D02*
Y378435D01*
X485250Y378468D02*
X501178Y394395D01*
X485250Y370500D02*
Y378468D01*
X417500Y347500D02*
X418976Y346024D01*
X506976Y341976D02*
X542000Y377000D01*
X418976Y346024D02*
X506040D01*
X521250Y361234D01*
X542000Y377000D02*
X546250D01*
X521250Y361234D02*
Y378750D01*
X532000Y389500D01*
X546250D01*
X525750Y491250D02*
Y502000D01*
X532000Y485000D02*
X552500D01*
X525750Y491250D02*
X532000Y485000D01*
X529274Y496976D02*
Y501000D01*
X533750Y492500D02*
X550000D01*
X529274Y496976D02*
X533750Y492500D01*
X307750Y487750D02*
X315750Y495750D01*
X307750Y404000D02*
Y487750D01*
Y404000D02*
X309500Y402250D01*
X448318Y426636D02*
Y469210D01*
X421082Y496446D02*
X448318Y469210D01*
X421082Y496446D02*
Y501684D01*
X414266Y508500D02*
X421082Y501684D01*
X396249Y508500D02*
X414266D01*
X389750Y515000D02*
X396249Y508500D01*
X397750Y515000D02*
X412750D01*
X424606Y503144D01*
Y497905D02*
Y503144D01*
Y497905D02*
X451842Y470669D01*
Y425176D02*
Y470669D01*
X392226Y548712D02*
Y578476D01*
X455366Y423716D02*
Y472129D01*
X428130Y499365D02*
X455366Y472129D01*
X428130Y499365D02*
Y513172D01*
X395826Y545476D02*
X428130Y513172D01*
X395462Y545476D02*
X395826D01*
X392226Y548712D02*
X395462Y545476D01*
X397750Y548536D02*
Y551000D01*
Y548536D02*
X431654Y514632D01*
Y500825D02*
Y514632D01*
Y500825D02*
X458890Y473589D01*
Y422257D02*
Y473589D01*
X487082Y409832D02*
Y485266D01*
X459726Y382476D02*
X487082Y409832D01*
X483558Y411292D02*
Y483806D01*
X455250Y382984D02*
X483558Y411292D01*
X480034Y412751D02*
Y482347D01*
X476510Y414211D02*
Y480887D01*
X472986Y415671D02*
Y479427D01*
X469462Y417130D02*
Y477968D01*
X455250Y370500D02*
Y382984D01*
X460250Y370500D02*
Y376687D01*
X459726Y377212D02*
X460250Y376687D01*
X459726Y377212D02*
Y382476D01*
X470774Y379524D02*
X490606Y399356D01*
X470774Y371023D02*
Y379524D01*
X470250Y370500D02*
X470774Y371023D01*
X480250Y370500D02*
Y378451D01*
X490250Y370500D02*
Y378484D01*
X465250Y370501D02*
Y378500D01*
Y370501D02*
X465250Y370500D01*
X462414Y420797D02*
Y475048D01*
X465938Y418590D02*
Y476508D01*
X424750Y561000D02*
X424835Y528499D01*
X435178Y518156D01*
Y502284D02*
Y518156D01*
Y502284D02*
X462414Y475048D01*
X452606Y489841D02*
X465938Y476508D01*
X456130Y491300D02*
X469462Y477968D01*
X459654Y492760D02*
X472986Y479427D01*
X463178Y494220D02*
X476510Y480887D01*
X466702Y495679D02*
X480034Y482347D01*
X470226Y497139D02*
X483558Y483806D01*
X470226Y497139D02*
Y506680D01*
X473750Y498599D02*
X487082Y485266D01*
X473750Y498599D02*
Y510171D01*
X477274Y500058D02*
Y519460D01*
Y500058D02*
X490606Y486726D01*
X480798Y501518D02*
X494130Y488185D01*
X480798Y501518D02*
Y527785D01*
X484322Y502977D02*
X497654Y489645D01*
X484322Y502977D02*
Y541427D01*
X487846Y504437D02*
X501178Y491105D01*
X487846Y504437D02*
Y538283D01*
X491370Y505897D02*
X504702Y492564D01*
X491370Y505897D02*
Y536824D01*
X495250Y507000D02*
X508226Y494024D01*
X495250Y507000D02*
Y535720D01*
X500250Y507000D02*
X511750Y495500D01*
X500250Y507000D02*
Y554500D01*
X490606Y399356D02*
Y486726D01*
X494130Y397315D02*
Y488185D01*
X497654Y395855D02*
Y489645D01*
X501178Y394395D02*
Y491105D01*
X504702Y392936D02*
Y492564D01*
X508226Y391476D02*
Y494024D01*
X511750Y390000D02*
Y495500D01*
X424750Y561000D02*
X442750Y579000D01*
X459750Y512172D02*
X466702Y505220D01*
X467750Y528984D02*
Y543000D01*
X475750Y532833D02*
Y546999D01*
X451156Y510594D02*
X463178Y498573D01*
Y494220D02*
Y498573D01*
X466702Y495679D02*
Y505220D01*
X479561Y554000D02*
X489274Y544288D01*
X472750Y565795D02*
X492798Y545747D01*
X480750Y566967D02*
X496322Y551395D01*
X489750Y565000D02*
X500250Y554500D01*
X489750Y565000D02*
Y579000D01*
X475750Y532833D02*
X480798Y527785D01*
X483750Y541999D02*
X484322Y541427D01*
X496322Y536792D02*
Y551395D01*
X495250Y535720D02*
X496322Y536792D01*
X516750Y553000D02*
X521226Y548524D01*
X516750Y545000D02*
X525750Y536000D01*
X524210Y548524D02*
X529274Y543460D01*
X521226Y548524D02*
X524210D01*
X491370Y536824D02*
X492798Y538252D01*
Y545747D01*
X529274Y512476D02*
Y543460D01*
X489274Y539711D02*
Y544288D01*
X487846Y538283D02*
X489274Y539711D01*
X471750Y512171D02*
Y515000D01*
X467750Y528984D02*
X477274Y519460D01*
X462226Y549476D02*
X462750Y550000D01*
X459750Y512172D02*
Y513999D01*
X447632Y514882D02*
X447750Y515000D01*
X438702Y511252D02*
Y518748D01*
Y511252D02*
X440584Y509370D01*
Y506215D02*
Y509370D01*
Y506215D02*
X452606Y494194D01*
X442226Y512712D02*
Y517288D01*
Y512712D02*
X444108Y510830D01*
Y507675D02*
Y510830D01*
Y507675D02*
X456130Y495654D01*
X447632Y509134D02*
Y514882D01*
Y509134D02*
X459654Y497113D01*
X452606Y489841D02*
Y494194D01*
X447750Y522812D02*
X453274Y517288D01*
Y512712D02*
Y517288D01*
X451156Y510594D02*
X453274Y512712D01*
X451156Y510594D02*
Y510594D01*
X465750Y511155D02*
Y526000D01*
Y511155D02*
X470226Y506680D01*
X442226Y517288D02*
X445258Y520320D01*
X450750Y564000D02*
Y578999D01*
Y564000D02*
X453274Y561476D01*
Y541728D02*
Y561476D01*
X447750Y536204D02*
X453274Y541728D01*
X447750Y522812D02*
Y536204D01*
X444226Y521352D02*
X445258Y520320D01*
X445258D01*
X440702Y520748D02*
Y539124D01*
X438702Y518748D02*
X440702Y520748D01*
X442750Y541172D02*
Y544000D01*
X447750Y546812D02*
Y551000D01*
Y546812D02*
X448274Y546288D01*
Y541712D02*
Y546288D01*
X444226Y537664D02*
X448274Y541712D01*
X440702Y539124D02*
X442750Y541172D01*
X444226Y521352D02*
Y537664D01*
X456130Y491300D02*
Y495654D01*
X459654Y492760D02*
Y497113D01*
X462226Y529524D02*
X465750Y526000D01*
X471750Y512171D02*
X473750Y510171D01*
X480250Y378451D02*
X497654Y395855D01*
X490250Y378484D02*
X504702Y392936D01*
X495250Y370500D02*
Y378500D01*
X508226Y391476D01*
X500250Y378500D02*
X511750Y390000D01*
X500250Y370500D02*
Y378500D01*
X309500Y402250D02*
X322000D01*
X467750Y565811D02*
X479561Y554000D01*
X464750Y568811D02*
X467750Y565811D01*
X464750Y568811D02*
Y578999D01*
X472750Y565795D02*
Y579000D01*
X505250Y362500D02*
X507750Y360000D01*
X505250Y362500D02*
Y370500D01*
X507750Y360000D02*
X510250Y362500D01*
Y370500D01*
X315750Y495750D02*
X355750D01*
X400250Y370500D02*
Y377500D01*
X395250Y370500D02*
Y377500D01*
X529274Y501000D02*
X534750Y506476D01*
Y507000D01*
X529274Y512476D02*
X534750Y507000D01*
X522750Y505000D02*
X525750Y502000D01*
X522750Y505000D02*
Y507000D01*
X525750Y513000D02*
Y536000D01*
X522750Y507000D02*
Y510000D01*
X525750Y513000D01*
X480750Y566967D02*
Y578999D01*
X462226Y529524D02*
Y549476D01*
X392226Y578476D02*
X392750Y579000D01*
X715250Y370500D02*
Y381351D01*
X705250Y383568D02*
X748318Y426636D01*
X717500Y385850D02*
X755366Y423716D01*
X717500Y381351D02*
Y385850D01*
X723024Y379063D02*
Y386390D01*
X758890Y422257D01*
X726548Y384931D02*
X762414Y420797D01*
X726548Y377603D02*
Y384931D01*
X725250Y376305D02*
X726548Y377603D01*
X725250Y370500D02*
Y376305D01*
X720250Y376289D02*
X723024Y379063D01*
X720250Y370500D02*
Y376289D01*
X710250Y383584D02*
X751842Y425176D01*
X730250Y382902D02*
X765938Y418590D01*
X730250Y370500D02*
Y382902D01*
X705250Y370500D02*
Y383568D01*
X735250Y382919D02*
X769462Y417130D01*
X735250Y370500D02*
Y382919D01*
X740250Y382935D02*
X772986Y415671D01*
X740250Y370500D02*
Y382935D01*
X745250Y382951D02*
X776510Y414211D01*
X745250Y370500D02*
Y382951D01*
X750250Y382968D02*
X780034Y412751D01*
X750250Y370500D02*
Y382968D01*
X710250Y370500D02*
Y383584D01*
X707500Y347500D02*
X713024Y341976D01*
X806976D01*
X775250Y378435D02*
X794130Y397315D01*
X775250Y370500D02*
Y378435D01*
X785250Y378468D02*
X801178Y394395D01*
X785250Y370500D02*
Y378468D01*
X717500Y347500D02*
X718976Y346024D01*
X806976Y341976D02*
X842000Y377000D01*
X718976Y346024D02*
X806040D01*
X821250Y361234D01*
X842000Y377000D02*
X846250D01*
X821250Y361234D02*
Y378750D01*
X832000Y389500D01*
X846250D01*
X825750Y491250D02*
Y502000D01*
X832000Y485000D02*
X852500D01*
X825750Y491250D02*
X832000Y485000D01*
X829274Y496976D02*
Y501000D01*
X833750Y492500D02*
X850000D01*
X829274Y496976D02*
X833750Y492500D01*
X607750Y487750D02*
X615750Y495750D01*
X607750Y404000D02*
Y487750D01*
Y404000D02*
X609500Y402250D01*
X748318Y426636D02*
Y469210D01*
X721082Y496446D02*
X748318Y469210D01*
X721082Y496446D02*
Y501684D01*
X714266Y508500D02*
X721082Y501684D01*
X696249Y508500D02*
X714266D01*
X689750Y515000D02*
X696249Y508500D01*
X697750Y515000D02*
X712750D01*
X724606Y503144D01*
Y497905D02*
Y503144D01*
Y497905D02*
X751842Y470669D01*
Y425176D02*
Y470669D01*
X692226Y548712D02*
Y578476D01*
X755366Y423716D02*
Y472129D01*
X728130Y499365D02*
X755366Y472129D01*
X728130Y499365D02*
Y513172D01*
X695826Y545476D02*
X728130Y513172D01*
X695462Y545476D02*
X695826D01*
X692226Y548712D02*
X695462Y545476D01*
X697750Y548536D02*
Y551000D01*
Y548536D02*
X731654Y514632D01*
Y500825D02*
Y514632D01*
Y500825D02*
X758890Y473589D01*
Y422257D02*
Y473589D01*
X787082Y409832D02*
Y485266D01*
X759726Y382476D02*
X787082Y409832D01*
X783558Y411292D02*
Y483806D01*
X755250Y382984D02*
X783558Y411292D01*
X780034Y412751D02*
Y482347D01*
X776510Y414211D02*
Y480887D01*
X772986Y415671D02*
Y479427D01*
X769462Y417130D02*
Y477968D01*
X755250Y370500D02*
Y382984D01*
X760250Y370500D02*
Y376687D01*
X759726Y377212D02*
X760250Y376687D01*
X759726Y377212D02*
Y382476D01*
X770774Y379524D02*
X790606Y399356D01*
X770774Y371023D02*
Y379524D01*
X770250Y370500D02*
X770774Y371023D01*
X780250Y370500D02*
Y378451D01*
X790250Y370500D02*
Y378484D01*
X765250Y370501D02*
Y378500D01*
Y370501D02*
X765250Y370500D01*
X762414Y420797D02*
Y475048D01*
X765938Y418590D02*
Y476508D01*
X724750Y561000D02*
X724835Y528499D01*
X735178Y518156D01*
Y502284D02*
Y518156D01*
Y502284D02*
X762414Y475048D01*
X752606Y489841D02*
X765938Y476508D01*
X756130Y491300D02*
X769462Y477968D01*
X759654Y492760D02*
X772986Y479427D01*
X763178Y494220D02*
X776510Y480887D01*
X766702Y495679D02*
X780034Y482347D01*
X770226Y497139D02*
X783558Y483806D01*
X770226Y497139D02*
Y506680D01*
X773750Y498599D02*
X787082Y485266D01*
X773750Y498599D02*
Y510171D01*
X777274Y500058D02*
Y519460D01*
Y500058D02*
X790606Y486726D01*
X780798Y501518D02*
X794130Y488185D01*
X780798Y501518D02*
Y527785D01*
X784322Y502977D02*
X797654Y489645D01*
X784322Y502977D02*
Y541427D01*
X787846Y504437D02*
X801178Y491105D01*
X787846Y504437D02*
Y538283D01*
X791370Y505897D02*
X804702Y492564D01*
X791370Y505897D02*
Y536824D01*
X795250Y507000D02*
X808226Y494024D01*
X795250Y507000D02*
Y535720D01*
X800250Y507000D02*
X811750Y495500D01*
X800250Y507000D02*
Y554500D01*
X790606Y399356D02*
Y486726D01*
X794130Y397315D02*
Y488185D01*
X797654Y395855D02*
Y489645D01*
X801178Y394395D02*
Y491105D01*
X804702Y392936D02*
Y492564D01*
X808226Y391476D02*
Y494024D01*
X811750Y390000D02*
Y495500D01*
X724750Y561000D02*
X742750Y579000D01*
X759750Y512172D02*
X766702Y505220D01*
X767750Y528984D02*
Y543000D01*
X775750Y532833D02*
Y546999D01*
X751156Y510594D02*
X763178Y498573D01*
Y494220D02*
Y498573D01*
X766702Y495679D02*
Y505220D01*
X779561Y554000D02*
X789274Y544288D01*
X772750Y565795D02*
X792798Y545747D01*
X780750Y566967D02*
X796322Y551395D01*
X789750Y565000D02*
X800250Y554500D01*
X789750Y565000D02*
Y579000D01*
X775750Y532833D02*
X780798Y527785D01*
X783750Y541999D02*
X784322Y541427D01*
X796322Y536792D02*
Y551395D01*
X795250Y535720D02*
X796322Y536792D01*
X816750Y553000D02*
X821226Y548524D01*
X816750Y545000D02*
X825750Y536000D01*
X824210Y548524D02*
X829274Y543460D01*
X821226Y548524D02*
X824210D01*
X791370Y536824D02*
X792798Y538252D01*
Y545747D01*
X829274Y512476D02*
Y543460D01*
X789274Y539711D02*
Y544288D01*
X787846Y538283D02*
X789274Y539711D01*
X771750Y512171D02*
Y515000D01*
X767750Y528984D02*
X777274Y519460D01*
X762226Y549476D02*
X762750Y550000D01*
X759750Y512172D02*
Y513999D01*
X747632Y514882D02*
X747750Y515000D01*
X738702Y511252D02*
Y518748D01*
Y511252D02*
X740584Y509370D01*
Y506215D02*
Y509370D01*
Y506215D02*
X752606Y494194D01*
X742226Y512712D02*
Y517288D01*
Y512712D02*
X744108Y510830D01*
Y507675D02*
Y510830D01*
Y507675D02*
X756130Y495654D01*
X747632Y509134D02*
Y514882D01*
Y509134D02*
X759654Y497113D01*
X752606Y489841D02*
Y494194D01*
X747750Y522812D02*
X753274Y517288D01*
Y512712D02*
Y517288D01*
X751156Y510594D02*
X753274Y512712D01*
X751156Y510594D02*
Y510594D01*
X765750Y511155D02*
Y526000D01*
Y511155D02*
X770226Y506680D01*
X742226Y517288D02*
X745258Y520320D01*
X750750Y564000D02*
Y578999D01*
Y564000D02*
X753274Y561476D01*
Y541728D02*
Y561476D01*
X747750Y536204D02*
X753274Y541728D01*
X747750Y522812D02*
Y536204D01*
X744226Y521352D02*
X745258Y520320D01*
X745258D01*
X740702Y520748D02*
Y539124D01*
X738702Y518748D02*
X740702Y520748D01*
X742750Y541172D02*
Y544000D01*
X747750Y546812D02*
Y551000D01*
Y546812D02*
X748274Y546288D01*
Y541712D02*
Y546288D01*
X744226Y537664D02*
X748274Y541712D01*
X740702Y539124D02*
X742750Y541172D01*
X744226Y521352D02*
Y537664D01*
X756130Y491300D02*
Y495654D01*
X759654Y492760D02*
Y497113D01*
X762226Y529524D02*
X765750Y526000D01*
X771750Y512171D02*
X773750Y510171D01*
X780250Y378451D02*
X797654Y395855D01*
X790250Y378484D02*
X804702Y392936D01*
X795250Y370500D02*
Y378500D01*
X808226Y391476D01*
X800250Y378500D02*
X811750Y390000D01*
X800250Y370500D02*
Y378500D01*
X609500Y402250D02*
X622000D01*
X767750Y565811D02*
X779561Y554000D01*
X764750Y568811D02*
X767750Y565811D01*
X764750Y568811D02*
Y578999D01*
X772750Y565795D02*
Y579000D01*
X805250Y362500D02*
X807750Y360000D01*
X805250Y362500D02*
Y370500D01*
X807750Y360000D02*
X810250Y362500D01*
Y370500D01*
X615750Y495750D02*
X655750D01*
X700250Y370500D02*
Y377500D01*
X695250Y370500D02*
Y377500D01*
X829274Y501000D02*
X834750Y506476D01*
Y507000D01*
X829274Y512476D02*
X834750Y507000D01*
X822750Y505000D02*
X825750Y502000D01*
X822750Y505000D02*
Y507000D01*
X825750Y513000D02*
Y536000D01*
X822750Y507000D02*
Y510000D01*
X825750Y513000D01*
X780750Y566967D02*
Y578999D01*
X762226Y529524D02*
Y549476D01*
X692226Y578476D02*
X692750Y579000D01*
X115250Y670500D02*
Y681351D01*
X105250Y683568D02*
X148318Y726636D01*
X117500Y685850D02*
X155366Y723716D01*
X117500Y681351D02*
Y685850D01*
X123024Y679063D02*
Y686391D01*
X158890Y722257D01*
X126548Y684931D02*
X162414Y720797D01*
X126548Y677603D02*
Y684931D01*
X125250Y676305D02*
X126548Y677603D01*
X125250Y670500D02*
Y676305D01*
X120250Y676289D02*
X123024Y679063D01*
X120250Y670500D02*
Y676289D01*
X110250Y683584D02*
X151842Y725176D01*
X130250Y682902D02*
X165938Y718590D01*
X130250Y670500D02*
Y682902D01*
X105250Y670500D02*
Y683568D01*
X135250Y682918D02*
X169462Y717130D01*
X135250Y670500D02*
Y682918D01*
X140250Y682935D02*
X172986Y715671D01*
X140250Y670500D02*
Y682935D01*
X145250Y682951D02*
X176510Y714211D01*
X145250Y670500D02*
Y682951D01*
X150250Y682968D02*
X180034Y712751D01*
X150250Y670500D02*
Y682968D01*
X110250Y670500D02*
Y683584D01*
X107500Y647500D02*
X113024Y641976D01*
X206976D01*
X175250Y678435D02*
X194130Y697315D01*
X175250Y670500D02*
Y678435D01*
X185250Y678468D02*
X201178Y694395D01*
X185250Y670500D02*
Y678468D01*
X117500Y647500D02*
X118976Y646024D01*
X206976Y641976D02*
X242000Y677000D01*
X118976Y646024D02*
X206040D01*
X221250Y661234D01*
X242000Y677000D02*
X246250D01*
X221250Y661234D02*
Y678750D01*
X232000Y689500D01*
X246250D01*
X225750Y791250D02*
Y802000D01*
X232000Y785000D02*
X252500D01*
X225750Y791250D02*
X232000Y785000D01*
X229274Y796976D02*
Y801000D01*
X233750Y792500D02*
X250000D01*
X229274Y796976D02*
X233750Y792500D01*
X7750Y787750D02*
X15750Y795750D01*
X7750Y704000D02*
Y787750D01*
Y704000D02*
X9500Y702250D01*
X148318Y726636D02*
Y769210D01*
X121082Y796446D02*
X148318Y769210D01*
X121082Y796446D02*
Y801684D01*
X114266Y808500D02*
X121082Y801684D01*
X96249Y808500D02*
X114266D01*
X89750Y814999D02*
X96249Y808500D01*
X97750Y815000D02*
X112750D01*
X124606Y803144D01*
Y797905D02*
Y803144D01*
Y797905D02*
X151842Y770669D01*
Y725176D02*
Y770669D01*
X92226Y848712D02*
Y878476D01*
X155366Y723716D02*
Y772129D01*
X128130Y799365D02*
X155366Y772129D01*
X128130Y799365D02*
Y813173D01*
X95827Y845476D02*
X128130Y813173D01*
X95462Y845476D02*
X95827D01*
X92226Y848712D02*
X95462Y845476D01*
X97750Y848536D02*
Y851000D01*
Y848536D02*
X131654Y814632D01*
Y800825D02*
Y814632D01*
Y800825D02*
X158890Y773589D01*
Y722257D02*
Y773589D01*
X187082Y709832D02*
Y785266D01*
X159726Y682476D02*
X187082Y709832D01*
X183558Y711292D02*
Y783806D01*
X155250Y682984D02*
X183558Y711292D01*
X180034Y712751D02*
Y782347D01*
X176510Y714211D02*
Y780887D01*
X172986Y715671D02*
Y779427D01*
X169462Y717130D02*
Y777968D01*
X155250Y670500D02*
Y682984D01*
X160250Y670500D02*
Y676687D01*
X159726Y677212D02*
X160250Y676687D01*
X159726Y677212D02*
Y682476D01*
X170774Y679524D02*
X190606Y699356D01*
X170774Y671023D02*
Y679524D01*
X170250Y670500D02*
X170774Y671023D01*
X180250Y670500D02*
Y678451D01*
X190250Y670500D02*
Y678484D01*
X165250Y670501D02*
Y678500D01*
Y670501D02*
X165250Y670500D01*
X162414Y720797D02*
Y775048D01*
X165938Y718590D02*
Y776508D01*
X124750Y861000D02*
X124835Y828499D01*
X135178Y818156D01*
Y802284D02*
Y818156D01*
Y802284D02*
X162414Y775048D01*
X152606Y789840D02*
X165938Y776508D01*
X156130Y791300D02*
X169462Y777968D01*
X159654Y792760D02*
X172986Y779427D01*
X163178Y794220D02*
X176510Y780887D01*
X166702Y795679D02*
X180034Y782347D01*
X170226Y797139D02*
X183558Y783806D01*
X170226Y797139D02*
Y806680D01*
X173750Y798598D02*
X187082Y785266D01*
X173750Y798598D02*
Y810171D01*
X177274Y800058D02*
Y819460D01*
Y800058D02*
X190606Y786726D01*
X180798Y801518D02*
X194130Y788185D01*
X180798Y801518D02*
Y827785D01*
X184322Y802978D02*
X197654Y789645D01*
X184322Y802978D02*
Y841428D01*
X187846Y804437D02*
X201178Y791105D01*
X187846Y804437D02*
Y838283D01*
X191370Y805897D02*
X204702Y792564D01*
X191370Y805897D02*
Y836824D01*
X195250Y807000D02*
X208226Y794024D01*
X195250Y807000D02*
Y835721D01*
X200250Y807000D02*
X211750Y795500D01*
X200250Y807000D02*
Y854500D01*
X190606Y699356D02*
Y786726D01*
X194130Y697315D02*
Y788185D01*
X197654Y695855D02*
Y789645D01*
X201178Y694395D02*
Y791105D01*
X204702Y692936D02*
Y792564D01*
X208226Y691476D02*
Y794024D01*
X211750Y690000D02*
Y795500D01*
X124750Y861000D02*
X142750Y879000D01*
X159750Y812172D02*
X166702Y805220D01*
X167750Y828984D02*
Y843000D01*
X175750Y832833D02*
Y846999D01*
X151156Y810594D02*
X163178Y798573D01*
Y794220D02*
Y798573D01*
X166702Y795679D02*
Y805220D01*
X179561Y854000D02*
X189274Y844288D01*
X172750Y865795D02*
X192798Y845747D01*
X180750Y866967D02*
X196322Y851395D01*
X189750Y865000D02*
X200250Y854500D01*
X189750Y865000D02*
Y879000D01*
X175750Y832833D02*
X180798Y827785D01*
X183750Y842000D02*
X184322Y841428D01*
X196322Y836792D02*
Y851395D01*
X195250Y835721D02*
X196322Y836792D01*
X216750Y853000D02*
X221226Y848524D01*
X216750Y845000D02*
X225750Y836000D01*
X224210Y848524D02*
X229274Y843460D01*
X221226Y848524D02*
X224210D01*
X191370Y836824D02*
X192798Y838252D01*
Y845747D01*
X229274Y812476D02*
Y843460D01*
X189274Y839711D02*
Y844288D01*
X187846Y838283D02*
X189274Y839711D01*
X171750Y812171D02*
Y814999D01*
X167750Y828984D02*
X177274Y819460D01*
X162226Y849476D02*
X162750Y850000D01*
X159750Y812172D02*
Y813999D01*
X147632Y814882D02*
X147750Y815000D01*
X138702Y811252D02*
Y818748D01*
Y811252D02*
X140584Y809370D01*
Y806215D02*
Y809370D01*
Y806215D02*
X152606Y794194D01*
X142226Y812712D02*
Y817288D01*
Y812712D02*
X144108Y810830D01*
Y807675D02*
Y810830D01*
Y807675D02*
X156130Y795654D01*
X147632Y809135D02*
Y814882D01*
Y809135D02*
X159654Y797113D01*
X152606Y789840D02*
Y794194D01*
X147750Y822812D02*
X153274Y817288D01*
Y812712D02*
Y817288D01*
X151156Y810594D02*
X153274Y812712D01*
X151156Y810594D02*
Y810594D01*
X165750Y811155D02*
Y826000D01*
Y811155D02*
X170226Y806680D01*
X142226Y817288D02*
X145258Y820320D01*
X150750Y864000D02*
Y878999D01*
Y864000D02*
X153274Y861476D01*
Y841728D02*
Y861476D01*
X147750Y836204D02*
X153274Y841728D01*
X147750Y822812D02*
Y836204D01*
X144226Y821352D02*
X145258Y820320D01*
X145258D01*
X140702Y820748D02*
Y839124D01*
X138702Y818748D02*
X140702Y820748D01*
X142750Y841172D02*
Y844000D01*
X147750Y846812D02*
Y851000D01*
Y846812D02*
X148274Y846288D01*
Y841712D02*
Y846288D01*
X144226Y837664D02*
X148274Y841712D01*
X140702Y839124D02*
X142750Y841172D01*
X144226Y821352D02*
Y837664D01*
X156130Y791300D02*
Y795654D01*
X159654Y792760D02*
Y797113D01*
X162226Y829524D02*
X165750Y826000D01*
X171750Y812171D02*
X173750Y810171D01*
X180250Y678451D02*
X197654Y695855D01*
X190250Y678484D02*
X204702Y692936D01*
X195250Y670500D02*
Y678500D01*
X208226Y691476D01*
X200250Y678500D02*
X211750Y690000D01*
X200250Y670500D02*
Y678500D01*
X9500Y702250D02*
X22000D01*
X167750Y865811D02*
X179561Y854000D01*
X164750Y868811D02*
X167750Y865811D01*
X164750Y868811D02*
Y878999D01*
X172750Y865795D02*
Y879000D01*
X205250Y662500D02*
X207750Y660000D01*
X205250Y662500D02*
Y670500D01*
X207750Y660000D02*
X210250Y662500D01*
Y670500D01*
X15750Y795750D02*
X55750D01*
X100250Y670500D02*
Y677500D01*
X95250Y670500D02*
Y677500D01*
X229274Y801000D02*
X234750Y806476D01*
Y807000D01*
X229274Y812476D02*
X234750Y807000D01*
X222750Y805000D02*
X225750Y802000D01*
X222750Y805000D02*
Y807000D01*
X225750Y813000D02*
Y836000D01*
X222750Y807000D02*
Y810000D01*
X225750Y813000D01*
X180750Y866967D02*
Y878999D01*
X162226Y829524D02*
Y849476D01*
X92226Y878476D02*
X92750Y879000D01*
X415250Y670500D02*
Y681351D01*
X405250Y683568D02*
X448318Y726636D01*
X417500Y685850D02*
X455366Y723716D01*
X417500Y681351D02*
Y685850D01*
X423024Y679063D02*
Y686391D01*
X458890Y722257D01*
X426548Y684931D02*
X462414Y720797D01*
X426548Y677603D02*
Y684931D01*
X425250Y676305D02*
X426548Y677603D01*
X425250Y670500D02*
Y676305D01*
X420250Y676289D02*
X423024Y679063D01*
X420250Y670500D02*
Y676289D01*
X410250Y683584D02*
X451842Y725176D01*
X430250Y682902D02*
X465938Y718590D01*
X430250Y670500D02*
Y682902D01*
X405250Y670500D02*
Y683568D01*
X435250Y682918D02*
X469462Y717130D01*
X435250Y670500D02*
Y682918D01*
X440250Y682935D02*
X472986Y715671D01*
X440250Y670500D02*
Y682935D01*
X445250Y682951D02*
X476510Y714211D01*
X445250Y670500D02*
Y682951D01*
X450250Y682968D02*
X480034Y712751D01*
X450250Y670500D02*
Y682968D01*
X410250Y670500D02*
Y683584D01*
X407500Y647500D02*
X413024Y641976D01*
X506976D01*
X475250Y678435D02*
X494130Y697315D01*
X475250Y670500D02*
Y678435D01*
X485250Y678468D02*
X501178Y694395D01*
X485250Y670500D02*
Y678468D01*
X417500Y647500D02*
X418976Y646024D01*
X506976Y641976D02*
X542000Y677000D01*
X418976Y646024D02*
X506040D01*
X521250Y661234D01*
X542000Y677000D02*
X546250D01*
X521250Y661234D02*
Y678750D01*
X532000Y689500D01*
X546250D01*
X525750Y791250D02*
Y802000D01*
X532000Y785000D02*
X552500D01*
X525750Y791250D02*
X532000Y785000D01*
X529274Y796976D02*
Y801000D01*
X533750Y792500D02*
X550000D01*
X529274Y796976D02*
X533750Y792500D01*
X307750Y787750D02*
X315750Y795750D01*
X307750Y704000D02*
Y787750D01*
Y704000D02*
X309500Y702250D01*
X448318Y726636D02*
Y769210D01*
X421082Y796446D02*
X448318Y769210D01*
X421082Y796446D02*
Y801684D01*
X414266Y808500D02*
X421082Y801684D01*
X396249Y808500D02*
X414266D01*
X389750Y814999D02*
X396249Y808500D01*
X397750Y815000D02*
X412750D01*
X424606Y803144D01*
Y797905D02*
Y803144D01*
Y797905D02*
X451842Y770669D01*
Y725176D02*
Y770669D01*
X392226Y848712D02*
Y878476D01*
X455366Y723716D02*
Y772129D01*
X428130Y799365D02*
X455366Y772129D01*
X428130Y799365D02*
Y813173D01*
X395826Y845476D02*
X428130Y813173D01*
X395462Y845476D02*
X395826D01*
X392226Y848712D02*
X395462Y845476D01*
X397750Y848536D02*
Y851000D01*
Y848536D02*
X431654Y814632D01*
Y800825D02*
Y814632D01*
Y800825D02*
X458890Y773589D01*
Y722257D02*
Y773589D01*
X487082Y709832D02*
Y785266D01*
X459726Y682476D02*
X487082Y709832D01*
X483558Y711292D02*
Y783806D01*
X455250Y682984D02*
X483558Y711292D01*
X480034Y712751D02*
Y782347D01*
X476510Y714211D02*
Y780887D01*
X472986Y715671D02*
Y779427D01*
X469462Y717130D02*
Y777968D01*
X455250Y670500D02*
Y682984D01*
X460250Y670500D02*
Y676687D01*
X459726Y677212D02*
X460250Y676687D01*
X459726Y677212D02*
Y682476D01*
X470774Y679524D02*
X490606Y699356D01*
X470774Y671023D02*
Y679524D01*
X470250Y670500D02*
X470774Y671023D01*
X480250Y670500D02*
Y678451D01*
X490250Y670500D02*
Y678484D01*
X465250Y670501D02*
Y678500D01*
Y670501D02*
X465250Y670500D01*
X462414Y720797D02*
Y775048D01*
X465938Y718590D02*
Y776508D01*
X424750Y861000D02*
X424835Y828499D01*
X435178Y818156D01*
Y802284D02*
Y818156D01*
Y802284D02*
X462414Y775048D01*
X452606Y789840D02*
X465938Y776508D01*
X456130Y791300D02*
X469462Y777968D01*
X459654Y792760D02*
X472986Y779427D01*
X463178Y794220D02*
X476510Y780887D01*
X466702Y795679D02*
X480034Y782347D01*
X470226Y797139D02*
X483558Y783806D01*
X470226Y797139D02*
Y806680D01*
X473750Y798598D02*
X487082Y785266D01*
X473750Y798598D02*
Y810171D01*
X477274Y800058D02*
Y819460D01*
Y800058D02*
X490606Y786726D01*
X480798Y801518D02*
X494130Y788185D01*
X480798Y801518D02*
Y827785D01*
X484322Y802978D02*
X497654Y789645D01*
X484322Y802978D02*
Y841428D01*
X487846Y804437D02*
X501178Y791105D01*
X487846Y804437D02*
Y838283D01*
X491370Y805897D02*
X504702Y792564D01*
X491370Y805897D02*
Y836824D01*
X495250Y807000D02*
X508226Y794024D01*
X495250Y807000D02*
Y835721D01*
X500250Y807000D02*
X511750Y795500D01*
X500250Y807000D02*
Y854500D01*
X490606Y699356D02*
Y786726D01*
X494130Y697315D02*
Y788185D01*
X497654Y695855D02*
Y789645D01*
X501178Y694395D02*
Y791105D01*
X504702Y692936D02*
Y792564D01*
X508226Y691476D02*
Y794024D01*
X511750Y690000D02*
Y795500D01*
X424750Y861000D02*
X442750Y879000D01*
X459750Y812172D02*
X466702Y805220D01*
X467750Y828984D02*
Y843000D01*
X475750Y832833D02*
Y846999D01*
X451156Y810594D02*
X463178Y798573D01*
Y794220D02*
Y798573D01*
X466702Y795679D02*
Y805220D01*
X479561Y854000D02*
X489274Y844288D01*
X472750Y865795D02*
X492798Y845747D01*
X480750Y866967D02*
X496322Y851395D01*
X489750Y865000D02*
X500250Y854500D01*
X489750Y865000D02*
Y879000D01*
X475750Y832833D02*
X480798Y827785D01*
X483750Y842000D02*
X484322Y841428D01*
X496322Y836792D02*
Y851395D01*
X495250Y835721D02*
X496322Y836792D01*
X516750Y853000D02*
X521226Y848524D01*
X516750Y845000D02*
X525750Y836000D01*
X524210Y848524D02*
X529274Y843460D01*
X521226Y848524D02*
X524210D01*
X491370Y836824D02*
X492798Y838252D01*
Y845747D01*
X529274Y812476D02*
Y843460D01*
X489274Y839711D02*
Y844288D01*
X487846Y838283D02*
X489274Y839711D01*
X471750Y812171D02*
Y814999D01*
X467750Y828984D02*
X477274Y819460D01*
X462226Y849476D02*
X462750Y850000D01*
X459750Y812172D02*
Y813999D01*
X447632Y814882D02*
X447750Y815000D01*
X438702Y811252D02*
Y818748D01*
Y811252D02*
X440584Y809370D01*
Y806215D02*
Y809370D01*
Y806215D02*
X452606Y794194D01*
X442226Y812712D02*
Y817288D01*
Y812712D02*
X444108Y810830D01*
Y807675D02*
Y810830D01*
Y807675D02*
X456130Y795654D01*
X447632Y809135D02*
Y814882D01*
Y809135D02*
X459654Y797113D01*
X452606Y789840D02*
Y794194D01*
X447750Y822812D02*
X453274Y817288D01*
Y812712D02*
Y817288D01*
X451156Y810594D02*
X453274Y812712D01*
X451156Y810594D02*
Y810594D01*
X465750Y811155D02*
Y826000D01*
Y811155D02*
X470226Y806680D01*
X442226Y817288D02*
X445258Y820320D01*
X450750Y864000D02*
Y878999D01*
Y864000D02*
X453274Y861476D01*
Y841728D02*
Y861476D01*
X447750Y836204D02*
X453274Y841728D01*
X447750Y822812D02*
Y836204D01*
X444226Y821352D02*
X445258Y820320D01*
X445258D01*
X440702Y820748D02*
Y839124D01*
X438702Y818748D02*
X440702Y820748D01*
X442750Y841172D02*
Y844000D01*
X447750Y846812D02*
Y851000D01*
Y846812D02*
X448274Y846288D01*
Y841712D02*
Y846288D01*
X444226Y837664D02*
X448274Y841712D01*
X440702Y839124D02*
X442750Y841172D01*
X444226Y821352D02*
Y837664D01*
X456130Y791300D02*
Y795654D01*
X459654Y792760D02*
Y797113D01*
X462226Y829524D02*
X465750Y826000D01*
X471750Y812171D02*
X473750Y810171D01*
X480250Y678451D02*
X497654Y695855D01*
X490250Y678484D02*
X504702Y692936D01*
X495250Y670500D02*
Y678500D01*
X508226Y691476D01*
X500250Y678500D02*
X511750Y690000D01*
X500250Y670500D02*
Y678500D01*
X309500Y702250D02*
X322000D01*
X467750Y865811D02*
X479561Y854000D01*
X464750Y868811D02*
X467750Y865811D01*
X464750Y868811D02*
Y878999D01*
X472750Y865795D02*
Y879000D01*
X505250Y662500D02*
X507750Y660000D01*
X505250Y662500D02*
Y670500D01*
X507750Y660000D02*
X510250Y662500D01*
Y670500D01*
X315750Y795750D02*
X355750D01*
X400250Y670500D02*
Y677500D01*
X395250Y670500D02*
Y677500D01*
X529274Y801000D02*
X534750Y806476D01*
Y807000D01*
X529274Y812476D02*
X534750Y807000D01*
X522750Y805000D02*
X525750Y802000D01*
X522750Y805000D02*
Y807000D01*
X525750Y813000D02*
Y836000D01*
X522750Y807000D02*
Y810000D01*
X525750Y813000D01*
X480750Y866967D02*
Y878999D01*
X462226Y829524D02*
Y849476D01*
X392226Y878476D02*
X392750Y879000D01*
X715250Y670500D02*
Y681351D01*
X705250Y683568D02*
X748318Y726636D01*
X717500Y685850D02*
X755366Y723716D01*
X717500Y681351D02*
Y685850D01*
X723024Y679063D02*
Y686391D01*
X758890Y722257D01*
X726548Y684931D02*
X762414Y720797D01*
X726548Y677603D02*
Y684931D01*
X725250Y676305D02*
X726548Y677603D01*
X725250Y670500D02*
Y676305D01*
X720250Y676289D02*
X723024Y679063D01*
X720250Y670500D02*
Y676289D01*
X710250Y683584D02*
X751842Y725176D01*
X730250Y682902D02*
X765938Y718590D01*
X730250Y670500D02*
Y682902D01*
X705250Y670500D02*
Y683568D01*
X735250Y682918D02*
X769462Y717130D01*
X735250Y670500D02*
Y682918D01*
X740250Y682935D02*
X772986Y715671D01*
X740250Y670500D02*
Y682935D01*
X745250Y682951D02*
X776510Y714211D01*
X745250Y670500D02*
Y682951D01*
X750250Y682968D02*
X780034Y712751D01*
X750250Y670500D02*
Y682968D01*
X710250Y670500D02*
Y683584D01*
X707500Y647500D02*
X713024Y641976D01*
X806976D01*
X775250Y678435D02*
X794130Y697315D01*
X775250Y670500D02*
Y678435D01*
X785250Y678468D02*
X801178Y694395D01*
X785250Y670500D02*
Y678468D01*
X717500Y647500D02*
X718976Y646024D01*
X806976Y641976D02*
X842000Y677000D01*
X718976Y646024D02*
X806040D01*
X821250Y661234D01*
X842000Y677000D02*
X846250D01*
X821250Y661234D02*
Y678750D01*
X832000Y689500D01*
X846250D01*
X825750Y791250D02*
Y802000D01*
X832000Y785000D02*
X852500D01*
X825750Y791250D02*
X832000Y785000D01*
X829274Y796976D02*
Y801000D01*
X833750Y792500D02*
X850000D01*
X829274Y796976D02*
X833750Y792500D01*
X607750Y787750D02*
X615750Y795750D01*
X607750Y704000D02*
Y787750D01*
Y704000D02*
X609500Y702250D01*
X748318Y726636D02*
Y769210D01*
X721082Y796446D02*
X748318Y769210D01*
X721082Y796446D02*
Y801684D01*
X714266Y808500D02*
X721082Y801684D01*
X696249Y808500D02*
X714266D01*
X689750Y814999D02*
X696249Y808500D01*
X697750Y815000D02*
X712750D01*
X724606Y803144D01*
Y797905D02*
Y803144D01*
Y797905D02*
X751842Y770669D01*
Y725176D02*
Y770669D01*
X692226Y848712D02*
Y878476D01*
X755366Y723716D02*
Y772129D01*
X728130Y799365D02*
X755366Y772129D01*
X728130Y799365D02*
Y813173D01*
X695826Y845476D02*
X728130Y813173D01*
X695462Y845476D02*
X695826D01*
X692226Y848712D02*
X695462Y845476D01*
X697750Y848536D02*
Y851000D01*
Y848536D02*
X731654Y814632D01*
Y800825D02*
Y814632D01*
Y800825D02*
X758890Y773589D01*
Y722257D02*
Y773589D01*
X787082Y709832D02*
Y785266D01*
X759726Y682476D02*
X787082Y709832D01*
X783558Y711292D02*
Y783806D01*
X755250Y682984D02*
X783558Y711292D01*
X780034Y712751D02*
Y782347D01*
X776510Y714211D02*
Y780887D01*
X772986Y715671D02*
Y779427D01*
X769462Y717130D02*
Y777968D01*
X755250Y670500D02*
Y682984D01*
X760250Y670500D02*
Y676687D01*
X759726Y677212D02*
X760250Y676687D01*
X759726Y677212D02*
Y682476D01*
X770774Y679524D02*
X790606Y699356D01*
X770774Y671023D02*
Y679524D01*
X770250Y670500D02*
X770774Y671023D01*
X780250Y670500D02*
Y678451D01*
X790250Y670500D02*
Y678484D01*
X765250Y670501D02*
Y678500D01*
Y670501D02*
X765250Y670500D01*
X762414Y720797D02*
Y775048D01*
X765938Y718590D02*
Y776508D01*
X724750Y861000D02*
X724835Y828499D01*
X735178Y818156D01*
Y802284D02*
Y818156D01*
Y802284D02*
X762414Y775048D01*
X752606Y789840D02*
X765938Y776508D01*
X756130Y791300D02*
X769462Y777968D01*
X759654Y792760D02*
X772986Y779427D01*
X763178Y794220D02*
X776510Y780887D01*
X766702Y795679D02*
X780034Y782347D01*
X770226Y797139D02*
X783558Y783806D01*
X770226Y797139D02*
Y806680D01*
X773750Y798598D02*
X787082Y785266D01*
X773750Y798598D02*
Y810171D01*
X777274Y800058D02*
Y819460D01*
Y800058D02*
X790606Y786726D01*
X780798Y801518D02*
X794130Y788185D01*
X780798Y801518D02*
Y827785D01*
X784322Y802978D02*
X797654Y789645D01*
X784322Y802978D02*
Y841428D01*
X787846Y804437D02*
X801178Y791105D01*
X787846Y804437D02*
Y838283D01*
X791370Y805897D02*
X804702Y792564D01*
X791370Y805897D02*
Y836824D01*
X795250Y807000D02*
X808226Y794024D01*
X795250Y807000D02*
Y835721D01*
X800250Y807000D02*
X811750Y795500D01*
X800250Y807000D02*
Y854500D01*
X790606Y699356D02*
Y786726D01*
X794130Y697315D02*
Y788185D01*
X797654Y695855D02*
Y789645D01*
X801178Y694395D02*
Y791105D01*
X804702Y692936D02*
Y792564D01*
X808226Y691476D02*
Y794024D01*
X811750Y690000D02*
Y795500D01*
X724750Y861000D02*
X742750Y879000D01*
X759750Y812172D02*
X766702Y805220D01*
X767750Y828984D02*
Y843000D01*
X775750Y832833D02*
Y846999D01*
X751156Y810594D02*
X763178Y798573D01*
Y794220D02*
Y798573D01*
X766702Y795679D02*
Y805220D01*
X779561Y854000D02*
X789274Y844288D01*
X772750Y865795D02*
X792798Y845747D01*
X780750Y866967D02*
X796322Y851395D01*
X789750Y865000D02*
X800250Y854500D01*
X789750Y865000D02*
Y879000D01*
X775750Y832833D02*
X780798Y827785D01*
X783750Y842000D02*
X784322Y841428D01*
X796322Y836792D02*
Y851395D01*
X795250Y835721D02*
X796322Y836792D01*
X816750Y853000D02*
X821226Y848524D01*
X816750Y845000D02*
X825750Y836000D01*
X824210Y848524D02*
X829274Y843460D01*
X821226Y848524D02*
X824210D01*
X791370Y836824D02*
X792798Y838252D01*
Y845747D01*
X829274Y812476D02*
Y843460D01*
X789274Y839711D02*
Y844288D01*
X787846Y838283D02*
X789274Y839711D01*
X771750Y812171D02*
Y814999D01*
X767750Y828984D02*
X777274Y819460D01*
X762226Y849476D02*
X762750Y850000D01*
X759750Y812172D02*
Y813999D01*
X747632Y814882D02*
X747750Y815000D01*
X738702Y811252D02*
Y818748D01*
Y811252D02*
X740584Y809370D01*
Y806215D02*
Y809370D01*
Y806215D02*
X752606Y794194D01*
X742226Y812712D02*
Y817288D01*
Y812712D02*
X744108Y810830D01*
Y807675D02*
Y810830D01*
Y807675D02*
X756130Y795654D01*
X747632Y809135D02*
Y814882D01*
Y809135D02*
X759654Y797113D01*
X752606Y789840D02*
Y794194D01*
X747750Y822812D02*
X753274Y817288D01*
Y812712D02*
Y817288D01*
X751156Y810594D02*
X753274Y812712D01*
X751156Y810594D02*
Y810594D01*
X765750Y811155D02*
Y826000D01*
Y811155D02*
X770226Y806680D01*
X742226Y817288D02*
X745258Y820320D01*
X750750Y864000D02*
Y878999D01*
Y864000D02*
X753274Y861476D01*
Y841728D02*
Y861476D01*
X747750Y836204D02*
X753274Y841728D01*
X747750Y822812D02*
Y836204D01*
X744226Y821352D02*
X745258Y820320D01*
X745258D01*
X740702Y820748D02*
Y839124D01*
X738702Y818748D02*
X740702Y820748D01*
X742750Y841172D02*
Y844000D01*
X747750Y846812D02*
Y851000D01*
Y846812D02*
X748274Y846288D01*
Y841712D02*
Y846288D01*
X744226Y837664D02*
X748274Y841712D01*
X740702Y839124D02*
X742750Y841172D01*
X744226Y821352D02*
Y837664D01*
X756130Y791300D02*
Y795654D01*
X759654Y792760D02*
Y797113D01*
X762226Y829524D02*
X765750Y826000D01*
X771750Y812171D02*
X773750Y810171D01*
X780250Y678451D02*
X797654Y695855D01*
X790250Y678484D02*
X804702Y692936D01*
X795250Y670500D02*
Y678500D01*
X808226Y691476D01*
X800250Y678500D02*
X811750Y690000D01*
X800250Y670500D02*
Y678500D01*
X609500Y702250D02*
X622000D01*
X767750Y865811D02*
X779561Y854000D01*
X764750Y868811D02*
X767750Y865811D01*
X764750Y868811D02*
Y878999D01*
X772750Y865795D02*
Y879000D01*
X805250Y662500D02*
X807750Y660000D01*
X805250Y662500D02*
Y670500D01*
X807750Y660000D02*
X810250Y662500D01*
Y670500D01*
X615750Y795750D02*
X655750D01*
X700250Y670500D02*
Y677500D01*
X695250Y670500D02*
Y677500D01*
X829274Y801000D02*
X834750Y806476D01*
Y807000D01*
X829274Y812476D02*
X834750Y807000D01*
X822750Y805000D02*
X825750Y802000D01*
X822750Y805000D02*
Y807000D01*
X825750Y813000D02*
Y836000D01*
X822750Y807000D02*
Y810000D01*
X825750Y813000D01*
X780750Y866967D02*
Y878999D01*
X762226Y829524D02*
Y849476D01*
X692226Y878476D02*
X692750Y879000D01*
D23*
X44500Y158500D02*
X51500Y151500D01*
X21750Y158500D02*
X44500D01*
X344500D02*
X351500Y151500D01*
X321750Y158500D02*
X344500D01*
X644500D02*
X651500Y151500D01*
X621750Y158500D02*
X644500D01*
X44500Y458500D02*
X51500Y451500D01*
X21750Y458500D02*
X44500D01*
X344500D02*
X351500Y451500D01*
X321750Y458500D02*
X344500D01*
X644500D02*
X651500Y451500D01*
X621750Y458500D02*
X644500D01*
X44500Y758500D02*
X51500Y751500D01*
X21750Y758500D02*
X44500D01*
X344500D02*
X351500Y751500D01*
X321750Y758500D02*
X344500D01*
X644500D02*
X651500Y751500D01*
X621750Y758500D02*
X644500D01*
D24*
X94750Y56000D02*
X203750D01*
X76000Y74750D02*
X94750Y56000D01*
X203750D02*
X207750Y60000D01*
X53750Y52500D02*
X76000Y74750D01*
X29250Y52500D02*
X53750D01*
X76000Y74750D02*
Y105750D01*
X394750Y56000D02*
X503750D01*
X376000Y74750D02*
X394750Y56000D01*
X503750D02*
X507750Y60000D01*
X353750Y52500D02*
X376000Y74750D01*
X329250Y52500D02*
X353750D01*
X376000Y74750D02*
Y105750D01*
X694750Y56000D02*
X803750D01*
X676000Y74750D02*
X694750Y56000D01*
X803750D02*
X807750Y60000D01*
X653750Y52500D02*
X676000Y74750D01*
X629250Y52500D02*
X653750D01*
X676000Y74750D02*
Y105750D01*
X94750Y356000D02*
X203750D01*
X76000Y374750D02*
X94750Y356000D01*
X203750D02*
X207750Y360000D01*
X53750Y352500D02*
X76000Y374750D01*
X29250Y352500D02*
X53750D01*
X76000Y374750D02*
Y405750D01*
X394750Y356000D02*
X503750D01*
X376000Y374750D02*
X394750Y356000D01*
X503750D02*
X507750Y360000D01*
X353750Y352500D02*
X376000Y374750D01*
X329250Y352500D02*
X353750D01*
X376000Y374750D02*
Y405750D01*
X694750Y356000D02*
X803750D01*
X676000Y374750D02*
X694750Y356000D01*
X803750D02*
X807750Y360000D01*
X653750Y352500D02*
X676000Y374750D01*
X629250Y352500D02*
X653750D01*
X676000Y374750D02*
Y405750D01*
X94750Y656000D02*
X203750D01*
X76000Y674750D02*
X94750Y656000D01*
X203750D02*
X207750Y660000D01*
X53750Y652500D02*
X76000Y674750D01*
X29250Y652500D02*
X53750D01*
X76000Y674750D02*
Y705750D01*
X394750Y656000D02*
X503750D01*
X376000Y674750D02*
X394750Y656000D01*
X503750D02*
X507750Y660000D01*
X353750Y652500D02*
X376000Y674750D01*
X329250Y652500D02*
X353750D01*
X376000Y674750D02*
Y705750D01*
X694750Y656000D02*
X803750D01*
X676000Y674750D02*
X694750Y656000D01*
X803750D02*
X807750Y660000D01*
X653750Y652500D02*
X676000Y674750D01*
X629250Y652500D02*
X653750D01*
X676000Y674750D02*
Y705750D01*
D25*
X97750Y84000D02*
Y91000D01*
X95250Y80500D02*
X97750Y84000D01*
Y83000D02*
X100250Y80500D01*
X95250Y77500D02*
Y80500D01*
X100250Y77500D02*
Y80500D01*
X397750Y84000D02*
Y91000D01*
X395250Y80500D02*
X397750Y84000D01*
Y83000D02*
X400250Y80500D01*
X395250Y77500D02*
Y80500D01*
X400250Y77500D02*
Y80500D01*
X697750Y84000D02*
Y91000D01*
X695250Y80500D02*
X697750Y84000D01*
Y83000D02*
X700250Y80500D01*
X695250Y77500D02*
Y80500D01*
X700250Y77500D02*
Y80500D01*
X97750Y384000D02*
Y391000D01*
X95250Y380500D02*
X97750Y384000D01*
Y383000D02*
X100250Y380500D01*
X95250Y377500D02*
Y380500D01*
X100250Y377500D02*
Y380500D01*
X397750Y384000D02*
Y391000D01*
X395250Y380500D02*
X397750Y384000D01*
Y383000D02*
X400250Y380500D01*
X395250Y377500D02*
Y380500D01*
X400250Y377500D02*
Y380500D01*
X697750Y384000D02*
Y391000D01*
X695250Y380500D02*
X697750Y384000D01*
Y383000D02*
X700250Y380500D01*
X695250Y377500D02*
Y380500D01*
X700250Y377500D02*
Y380500D01*
X97750Y684000D02*
Y691000D01*
X95250Y680500D02*
X97750Y684000D01*
Y683000D02*
X100250Y680500D01*
X95250Y677500D02*
Y680500D01*
X100250Y677500D02*
Y680500D01*
X397750Y684000D02*
Y691000D01*
X395250Y680500D02*
X397750Y684000D01*
Y683000D02*
X400250Y680500D01*
X395250Y677500D02*
Y680500D01*
X400250Y677500D02*
Y680500D01*
X697750Y684000D02*
Y691000D01*
X695250Y680500D02*
X697750Y684000D01*
Y683000D02*
X700250Y680500D01*
X695250Y677500D02*
Y680500D01*
X700250Y677500D02*
Y680500D01*
D26*
X236250Y137000D02*
Y143750D01*
Y137000D02*
X246250Y127000D01*
X22000Y111750D02*
X35000D01*
X51500Y102250D02*
Y111750D01*
X70000D01*
X76000Y105750D01*
X536250Y137000D02*
Y143750D01*
Y137000D02*
X546250Y127000D01*
X322000Y111750D02*
X335000D01*
X351500Y102250D02*
Y111750D01*
X370000D01*
X376000Y105750D01*
X836250Y137000D02*
Y143750D01*
Y137000D02*
X846250Y127000D01*
X622000Y111750D02*
X635000D01*
X651500Y102250D02*
Y111750D01*
X670000D01*
X676000Y105750D01*
X236250Y437000D02*
Y443750D01*
Y437000D02*
X246250Y427000D01*
X22000Y411750D02*
X35000D01*
X51500Y402250D02*
Y411750D01*
X70000D01*
X76000Y405750D01*
X536250Y437000D02*
Y443750D01*
Y437000D02*
X546250Y427000D01*
X322000Y411750D02*
X335000D01*
X351500Y402250D02*
Y411750D01*
X370000D01*
X376000Y405750D01*
X836250Y437000D02*
Y443750D01*
Y437000D02*
X846250Y427000D01*
X622000Y411750D02*
X635000D01*
X651500Y402250D02*
Y411750D01*
X670000D01*
X676000Y405750D01*
X236250Y737000D02*
Y743750D01*
Y737000D02*
X246250Y727000D01*
X22000Y711750D02*
X35000D01*
X51500Y702250D02*
Y711750D01*
X70000D01*
X76000Y705750D01*
X536250Y737000D02*
Y743750D01*
Y737000D02*
X546250Y727000D01*
X322000Y711750D02*
X335000D01*
X351500Y702250D02*
Y711750D01*
X370000D01*
X376000Y705750D01*
X836250Y737000D02*
Y743750D01*
Y737000D02*
X846250Y727000D01*
X622000Y711750D02*
X635000D01*
X651500Y702250D02*
Y711750D01*
X670000D01*
X676000Y705750D01*
D27*
X117750Y131750D02*
X124500D01*
X110250D02*
X117750D01*
X101250D02*
X110250D01*
X105500Y105750D02*
Y120250D01*
X101250Y124500D02*
X105500Y120250D01*
X101250Y124500D02*
Y131750D01*
Y140500D01*
X98750Y143000D02*
X101250Y140500D01*
X98750Y143000D02*
Y158000D01*
X417750Y131750D02*
X424500D01*
X410250D02*
X417750D01*
X401250D02*
X410250D01*
X405500Y105750D02*
Y120250D01*
X401250Y124500D02*
X405500Y120250D01*
X401250Y124500D02*
Y131750D01*
Y140500D01*
X398750Y143000D02*
X401250Y140500D01*
X398750Y143000D02*
Y158000D01*
X717750Y131750D02*
X724500D01*
X710250D02*
X717750D01*
X701250D02*
X710250D01*
X705500Y105750D02*
Y120250D01*
X701250Y124500D02*
X705500Y120250D01*
X701250Y124500D02*
Y131750D01*
Y140500D01*
X698750Y143000D02*
X701250Y140500D01*
X698750Y143000D02*
Y158000D01*
X117750Y431750D02*
X124500D01*
X110250D02*
X117750D01*
X101250D02*
X110250D01*
X105500Y405750D02*
Y420250D01*
X101250Y424500D02*
X105500Y420250D01*
X101250Y424500D02*
Y431750D01*
Y440500D01*
X98750Y443000D02*
X101250Y440500D01*
X98750Y443000D02*
Y458000D01*
X417750Y431750D02*
X424500D01*
X410250D02*
X417750D01*
X401250D02*
X410250D01*
X405500Y405750D02*
Y420250D01*
X401250Y424500D02*
X405500Y420250D01*
X401250Y424500D02*
Y431750D01*
Y440500D01*
X398750Y443000D02*
X401250Y440500D01*
X398750Y443000D02*
Y458000D01*
X717750Y431750D02*
X724500D01*
X710250D02*
X717750D01*
X701250D02*
X710250D01*
X705500Y405750D02*
Y420250D01*
X701250Y424500D02*
X705500Y420250D01*
X701250Y424500D02*
Y431750D01*
Y440500D01*
X698750Y443000D02*
X701250Y440500D01*
X698750Y443000D02*
Y458000D01*
X117750Y731750D02*
X124500D01*
X110250D02*
X117750D01*
X101250D02*
X110250D01*
X105500Y705750D02*
Y720250D01*
X101250Y724500D02*
X105500Y720250D01*
X101250Y724500D02*
Y731750D01*
Y740500D01*
X98750Y743000D02*
X101250Y740500D01*
X98750Y743000D02*
Y758000D01*
X417750Y731750D02*
X424500D01*
X410250D02*
X417750D01*
X401250D02*
X410250D01*
X405500Y705750D02*
Y720250D01*
X401250Y724500D02*
X405500Y720250D01*
X401250Y724500D02*
Y731750D01*
Y740500D01*
X398750Y743000D02*
X401250Y740500D01*
X398750Y743000D02*
Y758000D01*
X717750Y731750D02*
X724500D01*
X710250D02*
X717750D01*
X701250D02*
X710250D01*
X705500Y705750D02*
Y720250D01*
X701250Y724500D02*
X705500Y720250D01*
X701250Y724500D02*
Y731750D01*
Y740500D01*
X698750Y743000D02*
X701250Y740500D01*
X698750Y743000D02*
Y758000D01*
D28*
X21750Y121500D02*
Y145000D01*
Y121500D02*
X22000Y121250D01*
X321750Y121500D02*
Y145000D01*
Y121500D02*
X322000Y121250D01*
X621750Y121500D02*
Y145000D01*
Y121500D02*
X622000Y121250D01*
X21750Y421500D02*
Y445000D01*
Y421500D02*
X22000Y421250D01*
X321750Y421500D02*
Y445000D01*
Y421500D02*
X322000Y421250D01*
X621750Y421500D02*
Y445000D01*
Y421500D02*
X622000Y421250D01*
X21750Y721500D02*
Y745000D01*
Y721500D02*
X22000Y721250D01*
X321750Y721500D02*
Y745000D01*
Y721500D02*
X322000Y721250D01*
X621750Y721500D02*
Y745000D01*
Y721500D02*
X622000Y721250D01*
D29*
X28250Y55000D02*
D03*
X328250D02*
D03*
X628250D02*
D03*
X28250Y355000D02*
D03*
X328250D02*
D03*
X628250D02*
D03*
X28250Y655000D02*
D03*
X328250D02*
D03*
X628250D02*
D03*
D30*
X257750Y170500D02*
D03*
X557750D02*
D03*
X857750D02*
D03*
X257750Y470500D02*
D03*
X557750D02*
D03*
X857750D02*
D03*
X257750Y770500D02*
D03*
X557750D02*
D03*
X857750D02*
D03*
D31*
X257750Y204500D02*
D03*
X557750D02*
D03*
X857750D02*
D03*
X257750Y504500D02*
D03*
X557750D02*
D03*
X857750D02*
D03*
X257750Y804500D02*
D03*
X557750D02*
D03*
X857750D02*
D03*
D32*
X257750Y247000D02*
D03*
X47750D02*
D03*
X557750D02*
D03*
X347750D02*
D03*
X857750D02*
D03*
X647750D02*
D03*
X257750Y547000D02*
D03*
X47750D02*
D03*
X557750D02*
D03*
X347750D02*
D03*
X857750D02*
D03*
X647750D02*
D03*
X257750Y847000D02*
D03*
X47750D02*
D03*
X557750D02*
D03*
X347750D02*
D03*
X857750D02*
D03*
X647750D02*
D03*
D33*
X117500Y81351D02*
D03*
X107500Y47500D02*
D03*
X97750Y84000D02*
D03*
X165250Y79500D02*
D03*
X117500Y47500D02*
D03*
X107500Y88750D02*
D03*
X236250Y143750D02*
D03*
X167750Y243000D02*
D03*
X175750Y246999D02*
D03*
X183750Y241999D02*
D03*
X216750Y253000D02*
D03*
Y245000D02*
D03*
X171750Y215000D02*
D03*
X206250Y215000D02*
D03*
X142750Y279000D02*
D03*
X162750Y250000D02*
D03*
X159750Y214000D02*
D03*
X147750Y215000D02*
D03*
X142750Y244000D02*
D03*
X147750Y251000D02*
D03*
X35000Y111750D02*
D03*
X110250Y131750D02*
D03*
X117750D02*
D03*
X125500D02*
D03*
X164750Y278999D02*
D03*
X150750D02*
D03*
X214750Y215000D02*
D03*
X97750Y91000D02*
D03*
X89750Y215000D02*
D03*
X189750Y279000D02*
D03*
X180750Y278999D02*
D03*
X172750Y279000D02*
D03*
X97750Y251000D02*
D03*
X92750Y279000D02*
D03*
X97750Y215000D02*
D03*
X417500Y81351D02*
D03*
X407500Y47500D02*
D03*
X397750Y84000D02*
D03*
X465250Y79500D02*
D03*
X417500Y47500D02*
D03*
X407500Y88750D02*
D03*
X536250Y143750D02*
D03*
X467750Y243000D02*
D03*
X475750Y246999D02*
D03*
X483750Y241999D02*
D03*
X516750Y253000D02*
D03*
Y245000D02*
D03*
X471750Y215000D02*
D03*
X506250Y215000D02*
D03*
X442750Y279000D02*
D03*
X462750Y250000D02*
D03*
X459750Y214000D02*
D03*
X447750Y215000D02*
D03*
X442750Y244000D02*
D03*
X447750Y251000D02*
D03*
X335000Y111750D02*
D03*
X410250Y131750D02*
D03*
X417750D02*
D03*
X425500D02*
D03*
X464750Y278999D02*
D03*
X450750D02*
D03*
X514750Y215000D02*
D03*
X397750Y91000D02*
D03*
X389750Y215000D02*
D03*
X489750Y279000D02*
D03*
X480750Y278999D02*
D03*
X472750Y279000D02*
D03*
X397750Y251000D02*
D03*
X392750Y279000D02*
D03*
X397750Y215000D02*
D03*
X717500Y81351D02*
D03*
X707500Y47500D02*
D03*
X697750Y84000D02*
D03*
X765250Y79500D02*
D03*
X717500Y47500D02*
D03*
X707500Y88750D02*
D03*
X836250Y143750D02*
D03*
X767750Y243000D02*
D03*
X775750Y246999D02*
D03*
X783750Y241999D02*
D03*
X816750Y253000D02*
D03*
Y245000D02*
D03*
X771750Y215000D02*
D03*
X806250Y215000D02*
D03*
X742750Y279000D02*
D03*
X762750Y250000D02*
D03*
X759750Y214000D02*
D03*
X747750Y215000D02*
D03*
X742750Y244000D02*
D03*
X747750Y251000D02*
D03*
X635000Y111750D02*
D03*
X710250Y131750D02*
D03*
X717750D02*
D03*
X725500D02*
D03*
X764750Y278999D02*
D03*
X750750D02*
D03*
X814750Y215000D02*
D03*
X697750Y91000D02*
D03*
X689750Y215000D02*
D03*
X789750Y279000D02*
D03*
X780750Y278999D02*
D03*
X772750Y279000D02*
D03*
X697750Y251000D02*
D03*
X692750Y279000D02*
D03*
X697750Y215000D02*
D03*
X117500Y381351D02*
D03*
X107500Y347500D02*
D03*
X97750Y384000D02*
D03*
X165250Y379500D02*
D03*
X117500Y347500D02*
D03*
X107500Y388750D02*
D03*
X236250Y443750D02*
D03*
X167750Y543000D02*
D03*
X175750Y546999D02*
D03*
X183750Y541999D02*
D03*
X216750Y553000D02*
D03*
Y545000D02*
D03*
X171750Y515000D02*
D03*
X206250Y515000D02*
D03*
X142750Y579000D02*
D03*
X162750Y550000D02*
D03*
X159750Y513999D02*
D03*
X147750Y515000D02*
D03*
X142750Y544000D02*
D03*
X147750Y551000D02*
D03*
X35000Y411750D02*
D03*
X110250Y431750D02*
D03*
X117750D02*
D03*
X125500D02*
D03*
X164750Y578999D02*
D03*
X150750D02*
D03*
X214750Y515000D02*
D03*
X97750Y391000D02*
D03*
X89750Y515000D02*
D03*
X189750Y579000D02*
D03*
X180750Y578999D02*
D03*
X172750Y579000D02*
D03*
X97750Y551000D02*
D03*
X92750Y579000D02*
D03*
X97750Y515000D02*
D03*
X417500Y381351D02*
D03*
X407500Y347500D02*
D03*
X397750Y384000D02*
D03*
X465250Y379500D02*
D03*
X417500Y347500D02*
D03*
X407500Y388750D02*
D03*
X536250Y443750D02*
D03*
X467750Y543000D02*
D03*
X475750Y546999D02*
D03*
X483750Y541999D02*
D03*
X516750Y553000D02*
D03*
Y545000D02*
D03*
X471750Y515000D02*
D03*
X506250Y515000D02*
D03*
X442750Y579000D02*
D03*
X462750Y550000D02*
D03*
X459750Y513999D02*
D03*
X447750Y515000D02*
D03*
X442750Y544000D02*
D03*
X447750Y551000D02*
D03*
X335000Y411750D02*
D03*
X410250Y431750D02*
D03*
X417750D02*
D03*
X425500D02*
D03*
X464750Y578999D02*
D03*
X450750D02*
D03*
X514750Y515000D02*
D03*
X397750Y391000D02*
D03*
X389750Y515000D02*
D03*
X489750Y579000D02*
D03*
X480750Y578999D02*
D03*
X472750Y579000D02*
D03*
X397750Y551000D02*
D03*
X392750Y579000D02*
D03*
X397750Y515000D02*
D03*
X717500Y381351D02*
D03*
X707500Y347500D02*
D03*
X697750Y384000D02*
D03*
X765250Y379500D02*
D03*
X717500Y347500D02*
D03*
X707500Y388750D02*
D03*
X836250Y443750D02*
D03*
X767750Y543000D02*
D03*
X775750Y546999D02*
D03*
X783750Y541999D02*
D03*
X816750Y553000D02*
D03*
Y545000D02*
D03*
X771750Y515000D02*
D03*
X806250Y515000D02*
D03*
X742750Y579000D02*
D03*
X762750Y550000D02*
D03*
X759750Y513999D02*
D03*
X747750Y515000D02*
D03*
X742750Y544000D02*
D03*
X747750Y551000D02*
D03*
X635000Y411750D02*
D03*
X710250Y431750D02*
D03*
X717750D02*
D03*
X725500D02*
D03*
X764750Y578999D02*
D03*
X750750D02*
D03*
X814750Y515000D02*
D03*
X697750Y391000D02*
D03*
X689750Y515000D02*
D03*
X789750Y579000D02*
D03*
X780750Y578999D02*
D03*
X772750Y579000D02*
D03*
X697750Y551000D02*
D03*
X692750Y579000D02*
D03*
X697750Y515000D02*
D03*
X117500Y681351D02*
D03*
X107500Y647500D02*
D03*
X97750Y684000D02*
D03*
X165250Y679500D02*
D03*
X117500Y647500D02*
D03*
X107500Y688750D02*
D03*
X236250Y743750D02*
D03*
X167750Y843000D02*
D03*
X175750Y846999D02*
D03*
X183750Y842000D02*
D03*
X216750Y853000D02*
D03*
Y845000D02*
D03*
X171750Y814999D02*
D03*
X206250Y815000D02*
D03*
X142750Y879000D02*
D03*
X162750Y850000D02*
D03*
X159750Y813999D02*
D03*
X147750Y815000D02*
D03*
X142750Y844000D02*
D03*
X147750Y851000D02*
D03*
X35000Y711750D02*
D03*
X110250Y731750D02*
D03*
X117750D02*
D03*
X125500D02*
D03*
X164750Y878999D02*
D03*
X150750D02*
D03*
X214750Y815000D02*
D03*
X97750Y691000D02*
D03*
X89750Y814999D02*
D03*
X189750Y879000D02*
D03*
X180750Y878999D02*
D03*
X172750Y879000D02*
D03*
X97750Y851000D02*
D03*
X92750Y879000D02*
D03*
X97750Y815000D02*
D03*
X417500Y681351D02*
D03*
X407500Y647500D02*
D03*
X397750Y684000D02*
D03*
X465250Y679500D02*
D03*
X417500Y647500D02*
D03*
X407500Y688750D02*
D03*
X536250Y743750D02*
D03*
X467750Y843000D02*
D03*
X475750Y846999D02*
D03*
X483750Y842000D02*
D03*
X516750Y853000D02*
D03*
Y845000D02*
D03*
X471750Y814999D02*
D03*
X506250Y815000D02*
D03*
X442750Y879000D02*
D03*
X462750Y850000D02*
D03*
X459750Y813999D02*
D03*
X447750Y815000D02*
D03*
X442750Y844000D02*
D03*
X447750Y851000D02*
D03*
X335000Y711750D02*
D03*
X410250Y731750D02*
D03*
X417750D02*
D03*
X425500D02*
D03*
X464750Y878999D02*
D03*
X450750D02*
D03*
X514750Y815000D02*
D03*
X397750Y691000D02*
D03*
X389750Y814999D02*
D03*
X489750Y879000D02*
D03*
X480750Y878999D02*
D03*
X472750Y879000D02*
D03*
X397750Y851000D02*
D03*
X392750Y879000D02*
D03*
X397750Y815000D02*
D03*
X717500Y681351D02*
D03*
X707500Y647500D02*
D03*
X697750Y684000D02*
D03*
X765250Y679500D02*
D03*
X717500Y647500D02*
D03*
X707500Y688750D02*
D03*
X836250Y743750D02*
D03*
X767750Y843000D02*
D03*
X775750Y846999D02*
D03*
X783750Y842000D02*
D03*
X816750Y853000D02*
D03*
Y845000D02*
D03*
X771750Y814999D02*
D03*
X806250Y815000D02*
D03*
X742750Y879000D02*
D03*
X762750Y850000D02*
D03*
X759750Y813999D02*
D03*
X747750Y815000D02*
D03*
X742750Y844000D02*
D03*
X747750Y851000D02*
D03*
X635000Y711750D02*
D03*
X710250Y731750D02*
D03*
X717750D02*
D03*
X725500D02*
D03*
X764750Y878999D02*
D03*
X750750D02*
D03*
X814750Y815000D02*
D03*
X697750Y691000D02*
D03*
X689750Y814999D02*
D03*
X789750Y879000D02*
D03*
X780750Y878999D02*
D03*
X772750Y879000D02*
D03*
X697750Y851000D02*
D03*
X692750Y879000D02*
D03*
X697750Y815000D02*
D03*
M02*
