M48
;Layer_Color=9474304
;FILE_FORMAT=4:4
METRIC,LZ
;TYPE=PLATED
T1F00S00C0.3000
T2F00S00C2.0000
;TYPE=NON_PLATED
T3F00S00C0.6000
%
T01
X00035Y0011175
X0009775Y00091
Y00084
X001075Y0008875
X001175Y00081351
Y000475
X001075
X0011025Y0013175
X0011775
X001255
X0016525Y000795
X00335Y0011175
X0039775Y00091
Y00084
X004075Y0008875
X004175Y00081351
Y000475
X004075
X0041025Y0013175
X0041775
X004255
X0046525Y000795
X00635Y0011175
X0069775Y00091
Y00084
X007075Y0008875
X007175Y00081351
Y000475
X007075
X0071025Y0013175
X0071775
X007255
X0076525Y000795
X0083625Y0014375
X0081475Y00215
X0080625
X0077175Y00215
X0075975Y00214
X0074775Y00215
X0074275Y00244
X0074775Y00251
X0076275Y0025
X0076775Y00243
X0077575Y00246999
X0078375Y00241999
X0081675Y00245
Y00253
X0078975Y00279
X0078075Y00278999
X0077275Y00279
X0076475Y00278999
X0075075
X0074275Y00279
X0069275
X0069775Y00251
Y00215
X0068975Y00215
X007075Y003475
X007175
Y00381351
X007075Y0038875
X0069775Y00391
Y00384
X0071025Y0043175
X0071775
X007255
X0076525Y003795
X0083625Y0044375
X0081475Y00515
X0080625
X0077175Y00515
X0075975Y00513999
X0074775Y00515
X0069775
X0068975Y00515
X00635Y0041175
X0053625Y0044375
X0051475Y00515
X0050625
X0047175Y00515
X0045975Y00513999
X0044775Y00515
X0039775
X0038975Y00515
X0041025Y0043175
X0041775
X004255
X004175Y00381351
X004075Y0038875
X0039775Y00391
Y00384
X004075Y003475
X004175
X0046525Y003795
X0046475Y00278999
X0047275Y00279
X0048075Y00278999
X0048975Y00279
X0045075Y00278999
X0044275Y00279
X0044775Y00251
X0044275Y00244
X0046775Y00243
X0047575Y00246999
X0048375Y00241999
X0046275Y0025
X0045975Y00214
X0047175Y00215
X0044775Y00215
X0039775
X0038975Y00215
X0039775Y00251
X0039275Y00279
X0051675Y00253
Y00245
X0051475Y00215
X0050625
X0053625Y0014375
X0023625
X0021475Y00215
X0020625
X0017175Y00215
X0015975Y00214
X0014775Y00215
Y00251
X0016275Y0025
X0016775Y00243
X0017575Y00246999
X0018375Y00241999
X0021675Y00245
Y00253
X0018975Y00279
X0018075Y00278999
X0017275Y00279
X0016475Y00278999
X0015075
X0016525Y003795
X0023625Y0044375
X0021475Y00515
X0020625
X0017175Y00515
X0015975Y00513999
X0014775Y00515
X00335Y0041175
X001255Y0043175
X0011775
X0011025
X001075Y0038875
X0009775Y00391
Y00384
X001175Y00381351
Y003475
X001075
X0009275Y00279
X0009775Y00251
Y00215
X0008975Y00215
X0014275Y00244
Y00279
X00035Y0041175
X0008975Y00515
X0009775Y00515
Y00551
X0009275Y00579
X0014275
Y00544
X001175Y006475
X001075
Y0068875
X0009775Y00691
Y00684
X001175Y00681351
X0011775Y0073175
X0011025
X001255
X00035Y0071175
X0008975Y00814999
X0009775Y00815
Y00851
X0009275Y00879
X0014275
Y00844
X0014775Y00851
X0016275Y0085
X0016775Y00843
X0017575Y00846999
X0018375Y00842
X0021675Y00845
Y00853
X0021475Y00815
X0020625
X0017175Y00814999
X0015975Y00813999
X0014775Y00815
X0015075Y00878999
X0016475
X0017275Y00879
X0018075Y00878999
X0018975Y00879
X0023625Y0074375
X00335Y0071175
X0039775Y00691
Y00684
X004075Y0068875
X004175Y00681351
Y006475
X004075
X0039275Y00579
X0039775Y00551
X0044775
X0044275Y00544
X0046775Y00543
X0047575Y00546999
X0048375Y00541999
X0046275Y0055
X0046475Y00578999
X0047275Y00579
X0048075Y00578999
X0048975Y00579
X0045075Y00578999
X0044275Y00579
X0051675Y00553
Y00545
X0046525Y006795
X004255Y0073175
X0041775
X0041025
X0039775Y00815
X0038975Y00814999
X0039775Y00851
X0039275Y00879
X0044275
X0045075Y00878999
X0046475
X0047275Y00879
X0048075Y00878999
X0048975Y00879
X0048375Y00842
X0047575Y00846999
X0046775Y00843
X0046275Y0085
X0044775Y00851
X0044275Y00844
X0044775Y00815
X0045975Y00813999
X0047175Y00814999
X0050625Y00815
X0051475
X0051675Y00845
Y00853
X0053625Y0074375
X0016525Y006795
X0016475Y00578999
X0017275Y00579
X0018075Y00578999
X0018975Y00579
X0015075Y00578999
X0014775Y00551
X0016275Y0055
X0016775Y00543
X0017575Y00546999
X0018375Y00541999
X0021675Y00545
Y00553
X0069775Y00551
X0069275Y00579
X0074275
X0075075Y00578999
X0076475
X0077275Y00579
X0078075Y00578999
X0078975Y00579
X0078375Y00541999
X0077575Y00546999
X0076775Y00543
X0076275Y0055
X0074775Y00551
X0074275Y00544
X0081675Y00545
Y00553
X0076525Y006795
X007175Y00681351
X007075Y0068875
X0069775Y00691
Y00684
X007075Y006475
X007175
X0071775Y0073175
X0071025
X007255
X0074775Y00815
X0075975Y00813999
X0077175Y00814999
X0076775Y00843
X0077575Y00846999
X0078375Y00842
X0076275Y0085
X0074775Y00851
X0074275Y00844
Y00879
X0075075Y00878999
X0076475
X0077275Y00879
X0078075Y00878999
X0078975Y00879
X0081675Y00853
Y00845
X0081475Y00815
X0080625
X0083625Y0074375
X0069775Y00815
X0068975Y00814999
X0069775Y00851
X0069275Y00879
X00635Y0071175
T02
X0055775Y00247
X0064775
X0085775
X0034775
X0025775
X0004775
Y00547
Y00847
X0025775
X0034775
Y00547
X0025775
X0055775
X0064775
X0085775
Y00847
X0064775
X0055775
T03
X0068225Y00262
X0082325
X0052325
X0038225
X0022325
X0008225
Y00562
Y00862
X0022325
X0038225
X0052325
Y00562
X0038225
X0022325
X0068225
X0082325
Y00862
X0068225
M30
