G04 Layer_Physical_Order=2*
G04 Layer_Color=16711680*
%FSLAX44Y44*%
%MOMM*%
G71*
G01*
G75*
%ADD22C,0.2000*%
%ADD32C,3.5000*%
%ADD33C,0.6000*%
%ADD34R,0.3000X1.6000*%
%ADD35R,0.8000X1.8000*%
G36*
X895922Y604078D02*
X604078D01*
Y895922D01*
X895922D01*
Y604078D01*
D02*
G37*
G36*
X595922D02*
X304078D01*
Y895922D01*
X595922D01*
Y604078D01*
D02*
G37*
G36*
X295922D02*
X4078D01*
Y895922D01*
X295922D01*
Y604078D01*
D02*
G37*
G36*
X895922Y304078D02*
X604078D01*
Y595922D01*
X895922D01*
Y304078D01*
D02*
G37*
G36*
X595922D02*
X304078D01*
Y595922D01*
X595922D01*
Y304078D01*
D02*
G37*
G36*
X295922D02*
X4078D01*
Y595922D01*
X295922D01*
Y304078D01*
D02*
G37*
G36*
X895922Y4078D02*
X604078D01*
Y295922D01*
X895922D01*
Y4078D01*
D02*
G37*
G36*
X595922D02*
X304078D01*
Y295922D01*
X595922D01*
Y4078D01*
D02*
G37*
G36*
X295922D02*
X4078D01*
Y295922D01*
X295922D01*
Y4078D01*
D02*
G37*
%LPC*%
G36*
X789750Y883613D02*
X787985Y883261D01*
X786488Y882262D01*
X786013Y881551D01*
X784486D01*
X784011Y882261D01*
X782515Y883261D01*
X780750Y883612D01*
X778984Y883261D01*
X777488Y882261D01*
X777385Y882107D01*
X776296D01*
X775977Y882285D01*
X774515Y883261D01*
X772750Y883613D01*
X770985Y883261D01*
X769523Y882285D01*
X769204Y882106D01*
X768115D01*
X768011Y882261D01*
X766515Y883261D01*
X764750Y883612D01*
X762984Y883261D01*
X761488Y882261D01*
X760488Y880765D01*
X760137Y878999D01*
X760488Y877234D01*
X761132Y876270D01*
X760480Y875000D01*
X759000D01*
Y865000D01*
Y855000D01*
X760177D01*
Y853721D01*
X759488Y853262D01*
X758488Y851765D01*
X758137Y850000D01*
X758488Y848235D01*
X759488Y846738D01*
X760985Y845739D01*
X762429Y845451D01*
X762869Y845166D01*
X763380Y844218D01*
X763137Y843000D01*
X763488Y841235D01*
X764451Y839794D01*
X764386Y839474D01*
X764020Y838524D01*
X761250D01*
Y839000D01*
X759000D01*
Y829000D01*
X756500D01*
Y839000D01*
X754250D01*
Y838524D01*
X745324D01*
Y840279D01*
X746012Y840738D01*
X747011Y842235D01*
X747363Y844000D01*
X747120Y845218D01*
X747631Y846166D01*
X748071Y846451D01*
X749515Y846739D01*
X751012Y847738D01*
X752012Y849235D01*
X752363Y851000D01*
X752012Y852765D01*
X751049Y854206D01*
X751114Y854526D01*
X751480Y855476D01*
X754250D01*
Y855000D01*
X756500D01*
Y865000D01*
Y875000D01*
X755324D01*
Y876999D01*
X755144Y877902D01*
X755362Y878999D01*
X755011Y880765D01*
X754011Y882261D01*
X752515Y883261D01*
X750750Y883612D01*
X748985Y883261D01*
X747488Y882261D01*
X747385Y882107D01*
X746296D01*
X745977Y882285D01*
X744515Y883261D01*
X742750Y883613D01*
X740985Y883261D01*
X739488Y882262D01*
X738488Y880765D01*
X738137Y879000D01*
X738488Y877235D01*
X739451Y875794D01*
X739386Y875474D01*
X739020Y874524D01*
X736250D01*
Y875000D01*
X734000D01*
Y865000D01*
Y855000D01*
X736250D01*
Y855476D01*
X744020D01*
X744386Y854526D01*
X744451Y854206D01*
X743488Y852765D01*
X743137Y851000D01*
X743380Y849782D01*
X742869Y848834D01*
X742429Y848549D01*
X740985Y848261D01*
X739488Y847262D01*
X738488Y845765D01*
X738137Y844000D01*
X738488Y842235D01*
X739488Y840738D01*
X740177Y840278D01*
Y838524D01*
X736250D01*
Y839000D01*
X734000D01*
Y829000D01*
Y819000D01*
X736250D01*
Y819476D01*
X744020D01*
X744386Y818526D01*
X744451Y818206D01*
X743488Y816765D01*
X743137Y815000D01*
X743488Y813235D01*
X744488Y811738D01*
X745985Y810739D01*
X747750Y810387D01*
X749515Y810739D01*
X751012Y811738D01*
X752012Y813235D01*
X752189Y814126D01*
X753567Y814544D01*
X754930Y813181D01*
X755357Y812896D01*
X755488Y812234D01*
X756488Y810738D01*
X757984Y809738D01*
X759750Y809387D01*
X761515Y809738D01*
X763011Y810738D01*
X764011Y812234D01*
X764362Y813999D01*
X765572Y814427D01*
X767251D01*
X767488Y813234D01*
X768488Y811738D01*
X769984Y810738D01*
X771750Y810387D01*
X773515Y810738D01*
X775011Y811738D01*
X776011Y813234D01*
X776362Y814999D01*
X776011Y816765D01*
X775048Y818206D01*
X775112Y818524D01*
X775479Y819476D01*
X779250D01*
Y819000D01*
X781500D01*
Y829000D01*
X784000D01*
Y819000D01*
X786250D01*
Y819476D01*
X789250D01*
Y819000D01*
X791500D01*
Y829000D01*
Y839000D01*
X789250D01*
Y839000D01*
X788747Y839071D01*
X788146Y840021D01*
X788040Y840379D01*
X788362Y842000D01*
X788011Y843765D01*
X787011Y845261D01*
X785515Y846261D01*
X783750Y846612D01*
X781984Y846261D01*
X781438Y845896D01*
X780295Y846659D01*
X780362Y846999D01*
X780011Y848765D01*
X779011Y850261D01*
X777515Y851261D01*
X775750Y851612D01*
X773984Y851261D01*
X772488Y850261D01*
X771488Y848765D01*
X771261Y847623D01*
X769959Y846980D01*
X769937Y846980D01*
X769515Y847262D01*
X768071Y847549D01*
X767631Y847834D01*
X767120Y848782D01*
X767363Y850000D01*
X767011Y851765D01*
X766012Y853262D01*
X765323Y853721D01*
Y855476D01*
X779250D01*
Y855000D01*
X781500D01*
Y865000D01*
X784000D01*
Y855000D01*
X786250D01*
Y855476D01*
X789250D01*
Y855000D01*
X791500D01*
Y865000D01*
X794000D01*
Y855000D01*
X795177D01*
Y853000D01*
X795373Y852015D01*
X795930Y851180D01*
X797231Y849880D01*
X797811Y849000D01*
X797231Y848120D01*
X795930Y846820D01*
X795373Y845985D01*
X795177Y845000D01*
Y839000D01*
X794000D01*
Y829000D01*
Y819000D01*
X796250D01*
Y819476D01*
X802520D01*
X802886Y818526D01*
X802951Y818206D01*
X801989Y816765D01*
X801637Y815000D01*
X801989Y813235D01*
X802988Y811738D01*
X804485Y810739D01*
X806250Y810387D01*
X808015Y810739D01*
X809512Y811738D01*
X809865Y812267D01*
X811135D01*
X811488Y811738D01*
X812985Y810739D01*
X814750Y810387D01*
X816515Y810739D01*
X818012Y811738D01*
X819012Y813235D01*
X819363Y815000D01*
X819012Y816765D01*
X818012Y818262D01*
X816684Y819149D01*
X816570Y819320D01*
X815774Y820115D01*
Y838524D01*
X800324D01*
Y843934D01*
X800816Y844427D01*
X812252D01*
X812488Y843235D01*
X813488Y841738D01*
X814985Y840739D01*
X816750Y840387D01*
X818515Y840739D01*
X820012Y841738D01*
X821012Y843235D01*
X821363Y845000D01*
X821012Y846765D01*
X820012Y848262D01*
X819857Y848365D01*
Y849635D01*
X820012Y849738D01*
X821012Y851235D01*
X821363Y853000D01*
X821012Y854765D01*
X820012Y856262D01*
X818515Y857262D01*
X816750Y857613D01*
X816250Y858023D01*
Y863750D01*
X812750D01*
Y865000D01*
X811500D01*
Y875000D01*
X809000D01*
Y865000D01*
X806500D01*
Y875000D01*
X804000D01*
Y865000D01*
X801500D01*
Y875000D01*
X799250D01*
Y874524D01*
X796250D01*
Y875000D01*
X794018D01*
X793367Y876270D01*
X794012Y877235D01*
X794363Y879000D01*
X794012Y880765D01*
X793012Y882262D01*
X791515Y883261D01*
X789750Y883613D01*
D02*
G37*
G36*
X731500Y875000D02*
X729250D01*
Y874524D01*
X706250D01*
Y875000D01*
X704000D01*
Y865000D01*
Y855000D01*
X706250D01*
Y855476D01*
X729250D01*
Y855000D01*
X731500D01*
Y865000D01*
Y875000D01*
D02*
G37*
G36*
X816250D02*
X814000D01*
Y866250D01*
X816250D01*
Y875000D01*
D02*
G37*
G36*
X682250Y866613D02*
X680485Y866262D01*
X678989Y865262D01*
X677989Y863765D01*
X677638Y862000D01*
X677989Y860235D01*
X678951Y858794D01*
X678887Y858474D01*
X678520Y857524D01*
X669726D01*
Y836476D01*
X680774D01*
Y856386D01*
X682044Y857428D01*
X682250Y857387D01*
X684015Y857738D01*
X685512Y858738D01*
X686512Y860235D01*
X686863Y862000D01*
X686512Y863765D01*
X685512Y865262D01*
X684015Y866262D01*
X682250Y866613D01*
D02*
G37*
G36*
X692750Y883613D02*
X690985Y883261D01*
X689488Y882262D01*
X688488Y880765D01*
X688137Y879000D01*
X688488Y877235D01*
X689488Y875738D01*
X689528Y875712D01*
X689726Y874524D01*
X689726D01*
Y855476D01*
X694020D01*
X694386Y854526D01*
X694451Y854206D01*
X693488Y852765D01*
X693137Y851000D01*
X693488Y849235D01*
X694488Y847738D01*
X695985Y846739D01*
X697750Y846387D01*
X699515Y846739D01*
X701012Y847738D01*
X702011Y849235D01*
X702363Y851000D01*
X702011Y852765D01*
X701367Y853730D01*
X701500Y853990D01*
Y865000D01*
Y875000D01*
X699250D01*
Y874524D01*
X696480D01*
X696114Y875474D01*
X696049Y875794D01*
X697011Y877235D01*
X697363Y879000D01*
X697011Y880765D01*
X696012Y882262D01*
X694515Y883261D01*
X692750Y883613D01*
D02*
G37*
G36*
X731500Y839000D02*
X729250D01*
Y838524D01*
X706250D01*
Y839000D01*
X704000D01*
Y829000D01*
Y819000D01*
X706250D01*
Y819476D01*
X729250D01*
Y819000D01*
X731500D01*
Y829000D01*
Y839000D01*
D02*
G37*
G36*
X823250Y866613D02*
X821485Y866262D01*
X819989Y865262D01*
X818989Y863765D01*
X818638Y862000D01*
X818989Y860235D01*
X819989Y858738D01*
X821485Y857738D01*
X823250Y857387D01*
X823456Y857428D01*
X824726Y856386D01*
Y836476D01*
X835774D01*
Y857524D01*
X826980D01*
X826614Y858474D01*
X826549Y858794D01*
X827512Y860235D01*
X827863Y862000D01*
X827512Y863765D01*
X826512Y865262D01*
X825015Y866262D01*
X823250Y866613D01*
D02*
G37*
G36*
X701500Y839000D02*
X699250D01*
Y838524D01*
X689726D01*
Y819607D01*
X687985Y819261D01*
X686488Y818261D01*
X685488Y816765D01*
X685137Y814999D01*
X685488Y813234D01*
X686488Y811738D01*
X687985Y810738D01*
X689750Y810387D01*
X691515Y810738D01*
X693011Y811738D01*
X693115Y811893D01*
X694204D01*
X694523Y811715D01*
X695985Y810739D01*
X697750Y810387D01*
X699515Y810739D01*
X701012Y811738D01*
X702011Y813235D01*
X702363Y815000D01*
X702011Y816765D01*
X701367Y817730D01*
X701500Y817990D01*
Y829000D01*
Y839000D01*
D02*
G37*
G36*
X707500Y693363D02*
X705735Y693011D01*
X704238Y692012D01*
X703239Y690515D01*
X702887Y688750D01*
X703239Y686985D01*
X704238Y685488D01*
X704927Y685029D01*
Y651221D01*
X704238Y650762D01*
X703239Y649265D01*
X702887Y647500D01*
X703239Y645735D01*
X704238Y644238D01*
X705735Y643239D01*
X707500Y642887D01*
X709265Y643239D01*
X710762Y644238D01*
X711761Y645735D01*
X711853Y646193D01*
X713148D01*
X713239Y645735D01*
X714238Y644238D01*
X715735Y643239D01*
X717500Y642887D01*
X719265Y643239D01*
X720762Y644238D01*
X721761Y645735D01*
X722113Y647500D01*
X721761Y649265D01*
X720762Y650762D01*
X720073Y651221D01*
Y677629D01*
X720762Y678089D01*
X721761Y679585D01*
X722113Y681351D01*
X721761Y683116D01*
X720762Y684612D01*
X719265Y685612D01*
X717500Y685963D01*
X715735Y685612D01*
X714238Y684612D01*
X713239Y683116D01*
X712887Y681351D01*
X713239Y679585D01*
X714238Y678089D01*
X714927Y677629D01*
Y651221D01*
X714238Y650762D01*
X713239Y649265D01*
X713148Y648807D01*
X711853D01*
X711761Y649265D01*
X710762Y650762D01*
X710073Y651221D01*
Y685029D01*
X710762Y685488D01*
X711761Y686985D01*
X712113Y688750D01*
X711761Y690515D01*
X710762Y692012D01*
X709265Y693011D01*
X707500Y693363D01*
D02*
G37*
G36*
X489750Y883613D02*
X487985Y883261D01*
X486488Y882262D01*
X486013Y881551D01*
X484486D01*
X484011Y882261D01*
X482515Y883261D01*
X480750Y883612D01*
X478984Y883261D01*
X477488Y882261D01*
X477385Y882107D01*
X476296D01*
X475977Y882285D01*
X474515Y883261D01*
X472750Y883613D01*
X470985Y883261D01*
X469523Y882285D01*
X469204Y882106D01*
X468115D01*
X468011Y882261D01*
X466515Y883261D01*
X464750Y883612D01*
X462984Y883261D01*
X461488Y882261D01*
X460488Y880765D01*
X460137Y878999D01*
X460488Y877234D01*
X461132Y876270D01*
X460480Y875000D01*
X459000D01*
Y865000D01*
Y855000D01*
X460177D01*
Y853721D01*
X459488Y853262D01*
X458489Y851765D01*
X458137Y850000D01*
X458489Y848235D01*
X459488Y846738D01*
X460985Y845739D01*
X462429Y845451D01*
X462869Y845166D01*
X463380Y844218D01*
X463137Y843000D01*
X463489Y841235D01*
X464451Y839794D01*
X464386Y839474D01*
X464020Y838524D01*
X461250D01*
Y839000D01*
X459000D01*
Y829000D01*
X456500D01*
Y839000D01*
X454250D01*
Y838524D01*
X445324D01*
Y840279D01*
X446012Y840738D01*
X447011Y842235D01*
X447363Y844000D01*
X447120Y845218D01*
X447631Y846166D01*
X448071Y846451D01*
X449515Y846739D01*
X451012Y847738D01*
X452011Y849235D01*
X452363Y851000D01*
X452011Y852765D01*
X451049Y854206D01*
X451114Y854526D01*
X451480Y855476D01*
X454250D01*
Y855000D01*
X456500D01*
Y865000D01*
Y875000D01*
X455324D01*
Y876999D01*
X455144Y877902D01*
X455362Y878999D01*
X455011Y880765D01*
X454011Y882261D01*
X452515Y883261D01*
X450750Y883612D01*
X448984Y883261D01*
X447488Y882261D01*
X447385Y882107D01*
X446296D01*
X445977Y882285D01*
X444515Y883261D01*
X442750Y883613D01*
X440985Y883261D01*
X439488Y882262D01*
X438489Y880765D01*
X438137Y879000D01*
X438489Y877235D01*
X439451Y875794D01*
X439386Y875474D01*
X439020Y874524D01*
X436250D01*
Y875000D01*
X434000D01*
Y865000D01*
Y855000D01*
X436250D01*
Y855476D01*
X444020D01*
X444386Y854526D01*
X444451Y854206D01*
X443489Y852765D01*
X443137Y851000D01*
X443380Y849782D01*
X442869Y848834D01*
X442429Y848549D01*
X440985Y848261D01*
X439488Y847262D01*
X438489Y845765D01*
X438137Y844000D01*
X438489Y842235D01*
X439488Y840738D01*
X440177Y840278D01*
Y838524D01*
X436250D01*
Y839000D01*
X434000D01*
Y829000D01*
Y819000D01*
X436250D01*
Y819476D01*
X444020D01*
X444386Y818526D01*
X444451Y818206D01*
X443489Y816765D01*
X443137Y815000D01*
X443489Y813235D01*
X444488Y811738D01*
X445985Y810739D01*
X447750Y810387D01*
X449515Y810739D01*
X451012Y811738D01*
X452011Y813235D01*
X452189Y814126D01*
X453567Y814544D01*
X454930Y813181D01*
X455357Y812896D01*
X455488Y812234D01*
X456488Y810738D01*
X457985Y809738D01*
X459750Y809387D01*
X461515Y809738D01*
X463011Y810738D01*
X464011Y812234D01*
X464362Y813999D01*
X465572Y814427D01*
X467251D01*
X467488Y813234D01*
X468488Y811738D01*
X469984Y810738D01*
X471750Y810387D01*
X473515Y810738D01*
X475011Y811738D01*
X476011Y813234D01*
X476362Y814999D01*
X476011Y816765D01*
X475048Y818206D01*
X475112Y818524D01*
X475479Y819476D01*
X479250D01*
Y819000D01*
X481500D01*
Y829000D01*
X484000D01*
Y819000D01*
X486250D01*
Y819476D01*
X489250D01*
Y819000D01*
X491500D01*
Y829000D01*
Y839000D01*
X489250D01*
Y839000D01*
X488747Y839071D01*
X488146Y840021D01*
X488040Y840379D01*
X488362Y842000D01*
X488011Y843765D01*
X487011Y845261D01*
X485515Y846261D01*
X483750Y846612D01*
X481984Y846261D01*
X481437Y845896D01*
X480294Y846659D01*
X480362Y846999D01*
X480011Y848765D01*
X479011Y850261D01*
X477515Y851261D01*
X475750Y851612D01*
X473984Y851261D01*
X472488Y850261D01*
X471488Y848765D01*
X471261Y847623D01*
X469959Y846980D01*
X469937Y846980D01*
X469515Y847262D01*
X468071Y847549D01*
X467631Y847834D01*
X467120Y848782D01*
X467363Y850000D01*
X467011Y851765D01*
X466012Y853262D01*
X465323Y853721D01*
Y855476D01*
X479250D01*
Y855000D01*
X481500D01*
Y865000D01*
X484000D01*
Y855000D01*
X486250D01*
Y855476D01*
X489250D01*
Y855000D01*
X491500D01*
Y865000D01*
X494000D01*
Y855000D01*
X495177D01*
Y853000D01*
X495373Y852015D01*
X495930Y851180D01*
X497231Y849880D01*
X497811Y849000D01*
X497231Y848120D01*
X495930Y846820D01*
X495373Y845985D01*
X495177Y845000D01*
Y839000D01*
X494000D01*
Y829000D01*
Y819000D01*
X496250D01*
Y819476D01*
X502520D01*
X502886Y818526D01*
X502951Y818206D01*
X501988Y816765D01*
X501637Y815000D01*
X501988Y813235D01*
X502988Y811738D01*
X504485Y810739D01*
X506250Y810387D01*
X508015Y810739D01*
X509512Y811738D01*
X509865Y812267D01*
X511135D01*
X511488Y811738D01*
X512985Y810739D01*
X514750Y810387D01*
X516515Y810739D01*
X518012Y811738D01*
X519011Y813235D01*
X519363Y815000D01*
X519011Y816765D01*
X518012Y818262D01*
X516684Y819149D01*
X516570Y819320D01*
X515774Y820115D01*
Y838524D01*
X500324D01*
Y843934D01*
X500816Y844427D01*
X512252D01*
X512489Y843235D01*
X513488Y841738D01*
X514985Y840739D01*
X516750Y840387D01*
X518515Y840739D01*
X520012Y841738D01*
X521012Y843235D01*
X521363Y845000D01*
X521012Y846765D01*
X520012Y848262D01*
X519857Y848365D01*
Y849635D01*
X520012Y849738D01*
X521012Y851235D01*
X521363Y853000D01*
X521012Y854765D01*
X520012Y856262D01*
X518515Y857262D01*
X516750Y857613D01*
X516250Y858023D01*
Y863750D01*
X512750D01*
Y865000D01*
X511500D01*
Y875000D01*
X509000D01*
Y865000D01*
X506500D01*
Y875000D01*
X504000D01*
Y865000D01*
X501500D01*
Y875000D01*
X499250D01*
Y874524D01*
X496250D01*
Y875000D01*
X494019D01*
X493367Y876270D01*
X494011Y877235D01*
X494363Y879000D01*
X494011Y880765D01*
X493012Y882262D01*
X491515Y883261D01*
X489750Y883613D01*
D02*
G37*
G36*
X431500Y875000D02*
X429250D01*
Y874524D01*
X406250D01*
Y875000D01*
X404000D01*
Y865000D01*
Y855000D01*
X406250D01*
Y855476D01*
X429250D01*
Y855000D01*
X431500D01*
Y865000D01*
Y875000D01*
D02*
G37*
G36*
X516250D02*
X514000D01*
Y866250D01*
X516250D01*
Y875000D01*
D02*
G37*
G36*
X382250Y866613D02*
X380485Y866262D01*
X378989Y865262D01*
X377989Y863765D01*
X377638Y862000D01*
X377989Y860235D01*
X378951Y858794D01*
X378887Y858474D01*
X378520Y857524D01*
X369726D01*
Y836476D01*
X380774D01*
Y856386D01*
X382044Y857428D01*
X382250Y857387D01*
X384015Y857738D01*
X385512Y858738D01*
X386512Y860235D01*
X386863Y862000D01*
X386512Y863765D01*
X385512Y865262D01*
X384015Y866262D01*
X382250Y866613D01*
D02*
G37*
G36*
X392750Y883613D02*
X390985Y883261D01*
X389488Y882262D01*
X388489Y880765D01*
X388137Y879000D01*
X388489Y877235D01*
X389488Y875738D01*
X389528Y875712D01*
X389726Y874524D01*
X389726D01*
Y855476D01*
X394020D01*
X394386Y854526D01*
X394451Y854206D01*
X393489Y852765D01*
X393137Y851000D01*
X393489Y849235D01*
X394488Y847738D01*
X395985Y846739D01*
X397750Y846387D01*
X399515Y846739D01*
X401012Y847738D01*
X402011Y849235D01*
X402363Y851000D01*
X402011Y852765D01*
X401367Y853730D01*
X401500Y853990D01*
Y865000D01*
Y875000D01*
X399250D01*
Y874524D01*
X396480D01*
X396114Y875474D01*
X396049Y875794D01*
X397011Y877235D01*
X397363Y879000D01*
X397011Y880765D01*
X396012Y882262D01*
X394515Y883261D01*
X392750Y883613D01*
D02*
G37*
G36*
X431500Y839000D02*
X429250D01*
Y838524D01*
X406250D01*
Y839000D01*
X404000D01*
Y829000D01*
Y819000D01*
X406250D01*
Y819476D01*
X429250D01*
Y819000D01*
X431500D01*
Y829000D01*
Y839000D01*
D02*
G37*
G36*
X523250Y866613D02*
X521485Y866262D01*
X519989Y865262D01*
X518989Y863765D01*
X518638Y862000D01*
X518989Y860235D01*
X519989Y858738D01*
X521485Y857738D01*
X523250Y857387D01*
X523456Y857428D01*
X524726Y856386D01*
Y836476D01*
X535774D01*
Y857524D01*
X526980D01*
X526614Y858474D01*
X526549Y858794D01*
X527512Y860235D01*
X527863Y862000D01*
X527512Y863765D01*
X526512Y865262D01*
X525015Y866262D01*
X523250Y866613D01*
D02*
G37*
G36*
X401500Y839000D02*
X399250D01*
Y838524D01*
X389726D01*
Y819607D01*
X387985Y819261D01*
X386488Y818261D01*
X385488Y816765D01*
X385137Y814999D01*
X385488Y813234D01*
X386488Y811738D01*
X387985Y810738D01*
X389750Y810387D01*
X391515Y810738D01*
X393011Y811738D01*
X393115Y811893D01*
X394204D01*
X394524Y811715D01*
X395985Y810739D01*
X397750Y810387D01*
X399515Y810739D01*
X401012Y811738D01*
X402011Y813235D01*
X402363Y815000D01*
X402011Y816765D01*
X401367Y817730D01*
X401500Y817990D01*
Y829000D01*
Y839000D01*
D02*
G37*
G36*
X407500Y693363D02*
X405735Y693011D01*
X404238Y692012D01*
X403238Y690515D01*
X402887Y688750D01*
X403238Y686985D01*
X404238Y685488D01*
X404926Y685029D01*
Y651221D01*
X404238Y650762D01*
X403238Y649265D01*
X402887Y647500D01*
X403238Y645735D01*
X404238Y644238D01*
X405735Y643239D01*
X407500Y642887D01*
X409265Y643239D01*
X410762Y644238D01*
X411762Y645735D01*
X411853Y646193D01*
X413148D01*
X413238Y645735D01*
X414238Y644238D01*
X415735Y643239D01*
X417500Y642887D01*
X419265Y643239D01*
X420762Y644238D01*
X421762Y645735D01*
X422113Y647500D01*
X421762Y649265D01*
X420762Y650762D01*
X420074Y651221D01*
Y677629D01*
X420762Y678089D01*
X421762Y679585D01*
X422113Y681351D01*
X421762Y683116D01*
X420762Y684612D01*
X419265Y685612D01*
X417500Y685963D01*
X415735Y685612D01*
X414238Y684612D01*
X413238Y683116D01*
X412887Y681351D01*
X413238Y679585D01*
X414238Y678089D01*
X414927Y677629D01*
Y651221D01*
X414238Y650762D01*
X413238Y649265D01*
X413148Y648807D01*
X411853D01*
X411762Y649265D01*
X410762Y650762D01*
X410073Y651221D01*
Y685029D01*
X410762Y685488D01*
X411762Y686985D01*
X412113Y688750D01*
X411762Y690515D01*
X410762Y692012D01*
X409265Y693011D01*
X407500Y693363D01*
D02*
G37*
G36*
X189750Y883613D02*
X187985Y883261D01*
X186488Y882262D01*
X186013Y881551D01*
X184486D01*
X184011Y882261D01*
X182515Y883261D01*
X180750Y883612D01*
X178984Y883261D01*
X177488Y882261D01*
X177385Y882107D01*
X176296D01*
X175977Y882285D01*
X174515Y883261D01*
X172750Y883613D01*
X170985Y883261D01*
X169523Y882285D01*
X169204Y882106D01*
X168115D01*
X168011Y882261D01*
X166515Y883261D01*
X164750Y883612D01*
X162984Y883261D01*
X161488Y882261D01*
X160488Y880765D01*
X160137Y878999D01*
X160488Y877234D01*
X161132Y876270D01*
X160480Y875000D01*
X159000D01*
Y865000D01*
Y855000D01*
X160177D01*
Y853721D01*
X159488Y853262D01*
X158489Y851765D01*
X158137Y850000D01*
X158489Y848235D01*
X159488Y846738D01*
X160985Y845739D01*
X162429Y845451D01*
X162869Y845166D01*
X163380Y844218D01*
X163137Y843000D01*
X163489Y841235D01*
X164451Y839794D01*
X164386Y839474D01*
X164020Y838524D01*
X161250D01*
Y839000D01*
X159000D01*
Y829000D01*
X156500D01*
Y839000D01*
X154250D01*
Y838524D01*
X145324D01*
Y840279D01*
X146012Y840738D01*
X147011Y842235D01*
X147363Y844000D01*
X147120Y845218D01*
X147631Y846166D01*
X148071Y846451D01*
X149515Y846739D01*
X151012Y847738D01*
X152011Y849235D01*
X152363Y851000D01*
X152011Y852765D01*
X151049Y854206D01*
X151114Y854526D01*
X151480Y855476D01*
X154250D01*
Y855000D01*
X156500D01*
Y865000D01*
Y875000D01*
X155324D01*
Y876999D01*
X155144Y877902D01*
X155362Y878999D01*
X155011Y880765D01*
X154011Y882261D01*
X152515Y883261D01*
X150750Y883612D01*
X148984Y883261D01*
X147488Y882261D01*
X147385Y882107D01*
X146296D01*
X145977Y882285D01*
X144515Y883261D01*
X142750Y883613D01*
X140985Y883261D01*
X139488Y882262D01*
X138489Y880765D01*
X138137Y879000D01*
X138489Y877235D01*
X139451Y875794D01*
X139386Y875474D01*
X139020Y874524D01*
X136250D01*
Y875000D01*
X134000D01*
Y865000D01*
Y855000D01*
X136250D01*
Y855476D01*
X144020D01*
X144386Y854526D01*
X144451Y854206D01*
X143489Y852765D01*
X143137Y851000D01*
X143380Y849782D01*
X142869Y848834D01*
X142429Y848549D01*
X140985Y848261D01*
X139488Y847262D01*
X138489Y845765D01*
X138137Y844000D01*
X138489Y842235D01*
X139488Y840738D01*
X140177Y840278D01*
Y838524D01*
X136250D01*
Y839000D01*
X134000D01*
Y829000D01*
Y819000D01*
X136250D01*
Y819476D01*
X144020D01*
X144386Y818526D01*
X144451Y818206D01*
X143489Y816765D01*
X143137Y815000D01*
X143489Y813235D01*
X144488Y811738D01*
X145985Y810739D01*
X147750Y810387D01*
X149515Y810739D01*
X151012Y811738D01*
X152011Y813235D01*
X152189Y814126D01*
X153567Y814544D01*
X154930Y813181D01*
X155357Y812896D01*
X155488Y812234D01*
X156488Y810738D01*
X157984Y809738D01*
X159750Y809387D01*
X161515Y809738D01*
X163011Y810738D01*
X164011Y812234D01*
X164362Y813999D01*
X165572Y814427D01*
X167251D01*
X167488Y813234D01*
X168488Y811738D01*
X169984Y810738D01*
X171750Y810387D01*
X173515Y810738D01*
X175011Y811738D01*
X176011Y813234D01*
X176362Y814999D01*
X176011Y816765D01*
X175048Y818206D01*
X175112Y818524D01*
X175479Y819476D01*
X179250D01*
Y819000D01*
X181500D01*
Y829000D01*
X184000D01*
Y819000D01*
X186250D01*
Y819476D01*
X189250D01*
Y819000D01*
X191500D01*
Y829000D01*
Y839000D01*
X189250D01*
Y839000D01*
X188747Y839071D01*
X188146Y840021D01*
X188040Y840379D01*
X188362Y842000D01*
X188011Y843765D01*
X187011Y845261D01*
X185515Y846261D01*
X183750Y846612D01*
X181984Y846261D01*
X181437Y845896D01*
X180294Y846659D01*
X180362Y846999D01*
X180011Y848765D01*
X179011Y850261D01*
X177515Y851261D01*
X175750Y851612D01*
X173984Y851261D01*
X172488Y850261D01*
X171488Y848765D01*
X171261Y847623D01*
X169959Y846980D01*
X169937Y846980D01*
X169515Y847262D01*
X168071Y847549D01*
X167631Y847834D01*
X167120Y848782D01*
X167363Y850000D01*
X167012Y851765D01*
X166012Y853262D01*
X165324Y853721D01*
Y855476D01*
X179250D01*
Y855000D01*
X181500D01*
Y865000D01*
X184000D01*
Y855000D01*
X186250D01*
Y855476D01*
X189250D01*
Y855000D01*
X191500D01*
Y865000D01*
X194000D01*
Y855000D01*
X195177D01*
Y853000D01*
X195373Y852015D01*
X195931Y851180D01*
X197231Y849880D01*
X197811Y849000D01*
X197231Y848120D01*
X195931Y846820D01*
X195373Y845985D01*
X195177Y845000D01*
Y839000D01*
X194000D01*
Y829000D01*
Y819000D01*
X196250D01*
Y819476D01*
X202520D01*
X202886Y818526D01*
X202951Y818206D01*
X201989Y816765D01*
X201637Y815000D01*
X201989Y813235D01*
X202988Y811738D01*
X204485Y810739D01*
X206250Y810387D01*
X208015Y810739D01*
X209512Y811738D01*
X209865Y812267D01*
X211135D01*
X211488Y811738D01*
X212985Y810739D01*
X214750Y810387D01*
X216515Y810739D01*
X218012Y811738D01*
X219011Y813235D01*
X219363Y815000D01*
X219011Y816765D01*
X218012Y818262D01*
X216684Y819149D01*
X216570Y819320D01*
X215774Y820115D01*
Y838524D01*
X200324D01*
Y843934D01*
X200816Y844427D01*
X212251D01*
X212488Y843235D01*
X213488Y841738D01*
X214985Y840739D01*
X216750Y840387D01*
X218515Y840739D01*
X220012Y841738D01*
X221012Y843235D01*
X221363Y845000D01*
X221012Y846765D01*
X220012Y848262D01*
X219857Y848365D01*
Y849635D01*
X220012Y849738D01*
X221012Y851235D01*
X221363Y853000D01*
X221012Y854765D01*
X220012Y856262D01*
X218515Y857262D01*
X216750Y857613D01*
X216250Y858023D01*
Y863750D01*
X212750D01*
Y865000D01*
X211500D01*
Y875000D01*
X209000D01*
Y865000D01*
X206500D01*
Y875000D01*
X204000D01*
Y865000D01*
X201500D01*
Y875000D01*
X199250D01*
Y874524D01*
X196250D01*
Y875000D01*
X194018D01*
X193367Y876270D01*
X194011Y877235D01*
X194363Y879000D01*
X194011Y880765D01*
X193012Y882262D01*
X191515Y883261D01*
X189750Y883613D01*
D02*
G37*
G36*
X131500Y875000D02*
X129250D01*
Y874524D01*
X106250D01*
Y875000D01*
X104000D01*
Y865000D01*
Y855000D01*
X106250D01*
Y855476D01*
X129250D01*
Y855000D01*
X131500D01*
Y865000D01*
Y875000D01*
D02*
G37*
G36*
X216250D02*
X214000D01*
Y866250D01*
X216250D01*
Y875000D01*
D02*
G37*
G36*
X82250Y866613D02*
X80485Y866262D01*
X78989Y865262D01*
X77989Y863765D01*
X77638Y862000D01*
X77989Y860235D01*
X78951Y858794D01*
X78887Y858474D01*
X78520Y857524D01*
X69726D01*
Y836476D01*
X80774D01*
Y856386D01*
X82044Y857428D01*
X82250Y857387D01*
X84015Y857738D01*
X85512Y858738D01*
X86512Y860235D01*
X86863Y862000D01*
X86512Y863765D01*
X85512Y865262D01*
X84015Y866262D01*
X82250Y866613D01*
D02*
G37*
G36*
X92750Y883613D02*
X90985Y883261D01*
X89488Y882262D01*
X88489Y880765D01*
X88137Y879000D01*
X88489Y877235D01*
X89488Y875738D01*
X89528Y875712D01*
X89726Y874524D01*
X89726D01*
Y855476D01*
X94020D01*
X94386Y854526D01*
X94451Y854206D01*
X93489Y852765D01*
X93137Y851000D01*
X93489Y849235D01*
X94488Y847738D01*
X95985Y846739D01*
X97750Y846387D01*
X99515Y846739D01*
X101012Y847738D01*
X102011Y849235D01*
X102363Y851000D01*
X102011Y852765D01*
X101367Y853730D01*
X101500Y853990D01*
Y865000D01*
Y875000D01*
X99250D01*
Y874524D01*
X96480D01*
X96114Y875474D01*
X96049Y875794D01*
X97011Y877235D01*
X97363Y879000D01*
X97011Y880765D01*
X96012Y882262D01*
X94515Y883261D01*
X92750Y883613D01*
D02*
G37*
G36*
X131500Y839000D02*
X129250D01*
Y838524D01*
X106250D01*
Y839000D01*
X104000D01*
Y829000D01*
Y819000D01*
X106250D01*
Y819476D01*
X129250D01*
Y819000D01*
X131500D01*
Y829000D01*
Y839000D01*
D02*
G37*
G36*
X223250Y866613D02*
X221485Y866262D01*
X219989Y865262D01*
X218989Y863765D01*
X218638Y862000D01*
X218989Y860235D01*
X219989Y858738D01*
X221485Y857738D01*
X223250Y857387D01*
X223456Y857428D01*
X224726Y856386D01*
Y836476D01*
X235774D01*
Y857524D01*
X226980D01*
X226614Y858474D01*
X226549Y858794D01*
X227512Y860235D01*
X227863Y862000D01*
X227512Y863765D01*
X226512Y865262D01*
X225015Y866262D01*
X223250Y866613D01*
D02*
G37*
G36*
X101500Y839000D02*
X99250D01*
Y838524D01*
X89726D01*
Y819607D01*
X87985Y819261D01*
X86488Y818261D01*
X85488Y816765D01*
X85137Y814999D01*
X85488Y813234D01*
X86488Y811738D01*
X87985Y810738D01*
X89750Y810387D01*
X91515Y810738D01*
X93011Y811738D01*
X93115Y811893D01*
X94204D01*
X94523Y811715D01*
X95985Y810739D01*
X97750Y810387D01*
X99515Y810739D01*
X101012Y811738D01*
X102011Y813235D01*
X102363Y815000D01*
X102011Y816765D01*
X101367Y817730D01*
X101500Y817990D01*
Y829000D01*
Y839000D01*
D02*
G37*
G36*
X107500Y693363D02*
X105735Y693011D01*
X104238Y692012D01*
X103238Y690515D01*
X102887Y688750D01*
X103238Y686985D01*
X104238Y685488D01*
X104927Y685029D01*
Y651221D01*
X104238Y650762D01*
X103238Y649265D01*
X102887Y647500D01*
X103238Y645735D01*
X104238Y644238D01*
X105735Y643239D01*
X107500Y642887D01*
X109265Y643239D01*
X110762Y644238D01*
X111762Y645735D01*
X111853Y646193D01*
X113147D01*
X113238Y645735D01*
X114238Y644238D01*
X115735Y643239D01*
X117500Y642887D01*
X119265Y643239D01*
X120762Y644238D01*
X121762Y645735D01*
X122113Y647500D01*
X121762Y649265D01*
X120762Y650762D01*
X120073Y651221D01*
Y677629D01*
X120762Y678089D01*
X121762Y679585D01*
X122113Y681351D01*
X121762Y683116D01*
X120762Y684612D01*
X119265Y685612D01*
X117500Y685963D01*
X115735Y685612D01*
X114238Y684612D01*
X113238Y683116D01*
X112887Y681351D01*
X113238Y679585D01*
X114238Y678089D01*
X114927Y677629D01*
Y651221D01*
X114238Y650762D01*
X113238Y649265D01*
X113147Y648807D01*
X111853D01*
X111762Y649265D01*
X110762Y650762D01*
X110073Y651221D01*
Y685029D01*
X110762Y685488D01*
X111762Y686985D01*
X112113Y688750D01*
X111762Y690515D01*
X110762Y692012D01*
X109265Y693011D01*
X107500Y693363D01*
D02*
G37*
G36*
X789750Y583613D02*
X787985Y583261D01*
X786488Y582262D01*
X786013Y581551D01*
X784486D01*
X784011Y582261D01*
X782515Y583261D01*
X780750Y583612D01*
X778984Y583261D01*
X777488Y582261D01*
X777385Y582107D01*
X776296D01*
X775977Y582285D01*
X774515Y583261D01*
X772750Y583613D01*
X770985Y583261D01*
X769523Y582285D01*
X769204Y582106D01*
X768115D01*
X768011Y582261D01*
X766515Y583261D01*
X764750Y583612D01*
X762984Y583261D01*
X761488Y582261D01*
X760488Y580765D01*
X760137Y578999D01*
X760488Y577234D01*
X761132Y576270D01*
X760480Y575000D01*
X759000D01*
Y565000D01*
Y555000D01*
X760177D01*
Y553721D01*
X759488Y553262D01*
X758488Y551765D01*
X758137Y550000D01*
X758488Y548235D01*
X759488Y546738D01*
X760985Y545738D01*
X762429Y545451D01*
X762869Y545166D01*
X763380Y544218D01*
X763137Y543000D01*
X763488Y541235D01*
X764451Y539794D01*
X764386Y539474D01*
X764020Y538524D01*
X761250D01*
Y539000D01*
X759000D01*
Y529000D01*
X756500D01*
Y539000D01*
X754250D01*
Y538524D01*
X745324D01*
Y540279D01*
X746012Y540738D01*
X747011Y542235D01*
X747363Y544000D01*
X747120Y545218D01*
X747631Y546166D01*
X748071Y546451D01*
X749515Y546739D01*
X751012Y547738D01*
X752012Y549235D01*
X752363Y551000D01*
X752012Y552765D01*
X751049Y554206D01*
X751114Y554526D01*
X751480Y555476D01*
X754250D01*
Y555000D01*
X756500D01*
Y565000D01*
Y575000D01*
X755324D01*
Y576999D01*
X755144Y577902D01*
X755362Y578999D01*
X755011Y580765D01*
X754011Y582261D01*
X752515Y583261D01*
X750750Y583612D01*
X748985Y583261D01*
X747488Y582261D01*
X747385Y582107D01*
X746296D01*
X745977Y582285D01*
X744515Y583261D01*
X742750Y583613D01*
X740985Y583261D01*
X739488Y582262D01*
X738488Y580765D01*
X738137Y579000D01*
X738488Y577235D01*
X739451Y575794D01*
X739386Y575474D01*
X739020Y574524D01*
X736250D01*
Y575000D01*
X734000D01*
Y565000D01*
Y555000D01*
X736250D01*
Y555476D01*
X744020D01*
X744386Y554526D01*
X744451Y554206D01*
X743488Y552765D01*
X743137Y551000D01*
X743380Y549782D01*
X742869Y548834D01*
X742429Y548549D01*
X740985Y548261D01*
X739488Y547262D01*
X738488Y545765D01*
X738137Y544000D01*
X738488Y542235D01*
X739488Y540738D01*
X740177Y540278D01*
Y538524D01*
X736250D01*
Y539000D01*
X734000D01*
Y529000D01*
Y519000D01*
X736250D01*
Y519476D01*
X744020D01*
X744386Y518526D01*
X744451Y518206D01*
X743488Y516765D01*
X743137Y515000D01*
X743488Y513235D01*
X744488Y511738D01*
X745985Y510738D01*
X747750Y510387D01*
X749515Y510738D01*
X751012Y511738D01*
X752012Y513235D01*
X752189Y514126D01*
X753567Y514544D01*
X754930Y513181D01*
X755357Y512896D01*
X755488Y512234D01*
X756488Y510738D01*
X757984Y509738D01*
X759750Y509387D01*
X761515Y509738D01*
X763011Y510738D01*
X764011Y512234D01*
X764362Y513999D01*
X765572Y514427D01*
X767251D01*
X767488Y513234D01*
X768488Y511738D01*
X769984Y510738D01*
X771750Y510387D01*
X773515Y510738D01*
X775011Y511738D01*
X776011Y513234D01*
X776362Y515000D01*
X776011Y516765D01*
X775048Y518206D01*
X775112Y518524D01*
X775479Y519476D01*
X779250D01*
Y519000D01*
X781500D01*
Y529000D01*
X784000D01*
Y519000D01*
X786250D01*
Y519476D01*
X789250D01*
Y519000D01*
X791500D01*
Y529000D01*
Y539000D01*
X789250D01*
Y539000D01*
X788747Y539071D01*
X788146Y540021D01*
X788040Y540379D01*
X788362Y541999D01*
X788011Y543765D01*
X787011Y545261D01*
X785515Y546261D01*
X783750Y546612D01*
X781984Y546261D01*
X781438Y545896D01*
X780295Y546659D01*
X780362Y546999D01*
X780011Y548765D01*
X779011Y550261D01*
X777515Y551261D01*
X775750Y551612D01*
X773984Y551261D01*
X772488Y550261D01*
X771488Y548765D01*
X771261Y547622D01*
X769959Y546980D01*
X769937Y546980D01*
X769515Y547262D01*
X768071Y547549D01*
X767631Y547834D01*
X767120Y548782D01*
X767363Y550000D01*
X767011Y551765D01*
X766012Y553262D01*
X765323Y553721D01*
Y555476D01*
X779250D01*
Y555000D01*
X781500D01*
Y565000D01*
X784000D01*
Y555000D01*
X786250D01*
Y555476D01*
X789250D01*
Y555000D01*
X791500D01*
Y565000D01*
X794000D01*
Y555000D01*
X795177D01*
Y553000D01*
X795373Y552015D01*
X795930Y551180D01*
X797231Y549880D01*
X797811Y549000D01*
X797231Y548120D01*
X795930Y546820D01*
X795373Y545985D01*
X795177Y545000D01*
Y539000D01*
X794000D01*
Y529000D01*
Y519000D01*
X796250D01*
Y519476D01*
X802520D01*
X802886Y518526D01*
X802951Y518206D01*
X801989Y516765D01*
X801637Y515000D01*
X801989Y513235D01*
X802988Y511738D01*
X804485Y510738D01*
X806250Y510387D01*
X808015Y510738D01*
X809512Y511738D01*
X809865Y512267D01*
X811135D01*
X811488Y511738D01*
X812985Y510738D01*
X814750Y510387D01*
X816515Y510738D01*
X818012Y511738D01*
X819012Y513235D01*
X819363Y515000D01*
X819012Y516765D01*
X818012Y518262D01*
X816684Y519149D01*
X816570Y519320D01*
X815774Y520115D01*
Y538524D01*
X800324D01*
Y543934D01*
X800816Y544427D01*
X812252D01*
X812488Y543235D01*
X813488Y541738D01*
X814985Y540738D01*
X816750Y540387D01*
X818515Y540738D01*
X820012Y541738D01*
X821012Y543235D01*
X821363Y545000D01*
X821012Y546765D01*
X820012Y548262D01*
X819857Y548365D01*
Y549635D01*
X820012Y549738D01*
X821012Y551235D01*
X821363Y553000D01*
X821012Y554765D01*
X820012Y556262D01*
X818515Y557262D01*
X816750Y557613D01*
X816250Y558023D01*
Y563750D01*
X812750D01*
Y565000D01*
X811500D01*
Y575000D01*
X809000D01*
Y565000D01*
X806500D01*
Y575000D01*
X804000D01*
Y565000D01*
X801500D01*
Y575000D01*
X799250D01*
Y574524D01*
X796250D01*
Y575000D01*
X794018D01*
X793367Y576270D01*
X794012Y577235D01*
X794363Y579000D01*
X794012Y580765D01*
X793012Y582262D01*
X791515Y583261D01*
X789750Y583613D01*
D02*
G37*
G36*
X731500Y575000D02*
X729250D01*
Y574524D01*
X706250D01*
Y575000D01*
X704000D01*
Y565000D01*
Y555000D01*
X706250D01*
Y555476D01*
X729250D01*
Y555000D01*
X731500D01*
Y565000D01*
Y575000D01*
D02*
G37*
G36*
X816250D02*
X814000D01*
Y566250D01*
X816250D01*
Y575000D01*
D02*
G37*
G36*
X682250Y566613D02*
X680485Y566261D01*
X678989Y565262D01*
X677989Y563765D01*
X677638Y562000D01*
X677989Y560235D01*
X678951Y558794D01*
X678887Y558474D01*
X678520Y557524D01*
X669726D01*
Y536476D01*
X680774D01*
Y556386D01*
X682044Y557428D01*
X682250Y557387D01*
X684015Y557738D01*
X685512Y558738D01*
X686512Y560235D01*
X686863Y562000D01*
X686512Y563765D01*
X685512Y565262D01*
X684015Y566261D01*
X682250Y566613D01*
D02*
G37*
G36*
X692750Y583613D02*
X690985Y583261D01*
X689488Y582262D01*
X688488Y580765D01*
X688137Y579000D01*
X688488Y577235D01*
X689488Y575738D01*
X689528Y575712D01*
X689726Y574524D01*
X689726D01*
Y555476D01*
X694020D01*
X694386Y554526D01*
X694451Y554206D01*
X693488Y552765D01*
X693137Y551000D01*
X693488Y549235D01*
X694488Y547738D01*
X695985Y546739D01*
X697750Y546387D01*
X699515Y546739D01*
X701012Y547738D01*
X702011Y549235D01*
X702363Y551000D01*
X702011Y552765D01*
X701367Y553730D01*
X701500Y553990D01*
Y565000D01*
Y575000D01*
X699250D01*
Y574524D01*
X696480D01*
X696114Y575474D01*
X696049Y575794D01*
X697011Y577235D01*
X697363Y579000D01*
X697011Y580765D01*
X696012Y582262D01*
X694515Y583261D01*
X692750Y583613D01*
D02*
G37*
G36*
X731500Y539000D02*
X729250D01*
Y538524D01*
X706250D01*
Y539000D01*
X704000D01*
Y529000D01*
Y519000D01*
X706250D01*
Y519476D01*
X729250D01*
Y519000D01*
X731500D01*
Y529000D01*
Y539000D01*
D02*
G37*
G36*
X823250Y566613D02*
X821485Y566261D01*
X819989Y565262D01*
X818989Y563765D01*
X818638Y562000D01*
X818989Y560235D01*
X819989Y558738D01*
X821485Y557738D01*
X823250Y557387D01*
X823456Y557428D01*
X824726Y556386D01*
Y536476D01*
X835774D01*
Y557524D01*
X826980D01*
X826614Y558474D01*
X826549Y558794D01*
X827512Y560235D01*
X827863Y562000D01*
X827512Y563765D01*
X826512Y565262D01*
X825015Y566261D01*
X823250Y566613D01*
D02*
G37*
G36*
X701500Y539000D02*
X699250D01*
Y538524D01*
X689726D01*
Y519607D01*
X687985Y519261D01*
X686488Y518261D01*
X685488Y516765D01*
X685137Y515000D01*
X685488Y513234D01*
X686488Y511738D01*
X687985Y510738D01*
X689750Y510387D01*
X691515Y510738D01*
X693011Y511738D01*
X693115Y511893D01*
X694204D01*
X694523Y511715D01*
X695985Y510738D01*
X697750Y510387D01*
X699515Y510738D01*
X701012Y511738D01*
X702011Y513235D01*
X702363Y515000D01*
X702011Y516765D01*
X701367Y517730D01*
X701500Y517990D01*
Y529000D01*
Y539000D01*
D02*
G37*
G36*
X707500Y393363D02*
X705735Y393012D01*
X704238Y392012D01*
X703239Y390515D01*
X702887Y388750D01*
X703239Y386985D01*
X704238Y385488D01*
X704927Y385029D01*
Y351221D01*
X704238Y350762D01*
X703239Y349265D01*
X702887Y347500D01*
X703239Y345735D01*
X704238Y344238D01*
X705735Y343238D01*
X707500Y342887D01*
X709265Y343238D01*
X710762Y344238D01*
X711761Y345735D01*
X711853Y346193D01*
X713148D01*
X713239Y345735D01*
X714238Y344238D01*
X715735Y343238D01*
X717500Y342887D01*
X719265Y343238D01*
X720762Y344238D01*
X721761Y345735D01*
X722113Y347500D01*
X721761Y349265D01*
X720762Y350762D01*
X720073Y351221D01*
Y377629D01*
X720762Y378089D01*
X721761Y379585D01*
X722113Y381351D01*
X721761Y383116D01*
X720762Y384612D01*
X719265Y385612D01*
X717500Y385963D01*
X715735Y385612D01*
X714238Y384612D01*
X713239Y383116D01*
X712887Y381351D01*
X713239Y379585D01*
X714238Y378089D01*
X714927Y377629D01*
Y351221D01*
X714238Y350762D01*
X713239Y349265D01*
X713148Y348807D01*
X711853D01*
X711761Y349265D01*
X710762Y350762D01*
X710073Y351221D01*
Y385029D01*
X710762Y385488D01*
X711761Y386985D01*
X712113Y388750D01*
X711761Y390515D01*
X710762Y392012D01*
X709265Y393012D01*
X707500Y393363D01*
D02*
G37*
G36*
X489750Y583613D02*
X487985Y583261D01*
X486488Y582262D01*
X486013Y581551D01*
X484486D01*
X484011Y582261D01*
X482515Y583261D01*
X480750Y583612D01*
X478984Y583261D01*
X477488Y582261D01*
X477385Y582107D01*
X476296D01*
X475977Y582285D01*
X474515Y583261D01*
X472750Y583613D01*
X470985Y583261D01*
X469523Y582285D01*
X469204Y582106D01*
X468115D01*
X468011Y582261D01*
X466515Y583261D01*
X464750Y583612D01*
X462984Y583261D01*
X461488Y582261D01*
X460488Y580765D01*
X460137Y578999D01*
X460488Y577234D01*
X461132Y576270D01*
X460480Y575000D01*
X459000D01*
Y565000D01*
Y555000D01*
X460177D01*
Y553721D01*
X459488Y553262D01*
X458489Y551765D01*
X458137Y550000D01*
X458489Y548235D01*
X459488Y546738D01*
X460985Y545738D01*
X462429Y545451D01*
X462869Y545166D01*
X463380Y544218D01*
X463137Y543000D01*
X463489Y541235D01*
X464451Y539794D01*
X464386Y539474D01*
X464020Y538524D01*
X461250D01*
Y539000D01*
X459000D01*
Y529000D01*
X456500D01*
Y539000D01*
X454250D01*
Y538524D01*
X445324D01*
Y540279D01*
X446012Y540738D01*
X447011Y542235D01*
X447363Y544000D01*
X447120Y545218D01*
X447631Y546166D01*
X448071Y546451D01*
X449515Y546739D01*
X451012Y547738D01*
X452011Y549235D01*
X452363Y551000D01*
X452011Y552765D01*
X451049Y554206D01*
X451114Y554526D01*
X451480Y555476D01*
X454250D01*
Y555000D01*
X456500D01*
Y565000D01*
Y575000D01*
X455324D01*
Y576999D01*
X455144Y577902D01*
X455362Y578999D01*
X455011Y580765D01*
X454011Y582261D01*
X452515Y583261D01*
X450750Y583612D01*
X448984Y583261D01*
X447488Y582261D01*
X447385Y582107D01*
X446296D01*
X445977Y582285D01*
X444515Y583261D01*
X442750Y583613D01*
X440985Y583261D01*
X439488Y582262D01*
X438489Y580765D01*
X438137Y579000D01*
X438489Y577235D01*
X439451Y575794D01*
X439386Y575474D01*
X439020Y574524D01*
X436250D01*
Y575000D01*
X434000D01*
Y565000D01*
Y555000D01*
X436250D01*
Y555476D01*
X444020D01*
X444386Y554526D01*
X444451Y554206D01*
X443489Y552765D01*
X443137Y551000D01*
X443380Y549782D01*
X442869Y548834D01*
X442429Y548549D01*
X440985Y548261D01*
X439488Y547262D01*
X438489Y545765D01*
X438137Y544000D01*
X438489Y542235D01*
X439488Y540738D01*
X440177Y540278D01*
Y538524D01*
X436250D01*
Y539000D01*
X434000D01*
Y529000D01*
Y519000D01*
X436250D01*
Y519476D01*
X444020D01*
X444386Y518526D01*
X444451Y518206D01*
X443489Y516765D01*
X443137Y515000D01*
X443489Y513235D01*
X444488Y511738D01*
X445985Y510738D01*
X447750Y510387D01*
X449515Y510738D01*
X451012Y511738D01*
X452011Y513235D01*
X452189Y514126D01*
X453567Y514544D01*
X454930Y513181D01*
X455357Y512896D01*
X455488Y512234D01*
X456488Y510738D01*
X457985Y509738D01*
X459750Y509387D01*
X461515Y509738D01*
X463011Y510738D01*
X464011Y512234D01*
X464362Y513999D01*
X465572Y514427D01*
X467251D01*
X467488Y513234D01*
X468488Y511738D01*
X469984Y510738D01*
X471750Y510387D01*
X473515Y510738D01*
X475011Y511738D01*
X476011Y513234D01*
X476362Y515000D01*
X476011Y516765D01*
X475048Y518206D01*
X475112Y518524D01*
X475479Y519476D01*
X479250D01*
Y519000D01*
X481500D01*
Y529000D01*
X484000D01*
Y519000D01*
X486250D01*
Y519476D01*
X489250D01*
Y519000D01*
X491500D01*
Y529000D01*
Y539000D01*
X489250D01*
Y539000D01*
X488747Y539071D01*
X488146Y540021D01*
X488040Y540379D01*
X488362Y541999D01*
X488011Y543765D01*
X487011Y545261D01*
X485515Y546261D01*
X483750Y546612D01*
X481984Y546261D01*
X481437Y545896D01*
X480294Y546659D01*
X480362Y546999D01*
X480011Y548765D01*
X479011Y550261D01*
X477515Y551261D01*
X475750Y551612D01*
X473984Y551261D01*
X472488Y550261D01*
X471488Y548765D01*
X471261Y547622D01*
X469959Y546980D01*
X469937Y546980D01*
X469515Y547262D01*
X468071Y547549D01*
X467631Y547834D01*
X467120Y548782D01*
X467363Y550000D01*
X467011Y551765D01*
X466012Y553262D01*
X465323Y553721D01*
Y555476D01*
X479250D01*
Y555000D01*
X481500D01*
Y565000D01*
X484000D01*
Y555000D01*
X486250D01*
Y555476D01*
X489250D01*
Y555000D01*
X491500D01*
Y565000D01*
X494000D01*
Y555000D01*
X495177D01*
Y553000D01*
X495373Y552015D01*
X495930Y551180D01*
X497231Y549880D01*
X497811Y549000D01*
X497231Y548120D01*
X495930Y546820D01*
X495373Y545985D01*
X495177Y545000D01*
Y539000D01*
X494000D01*
Y529000D01*
Y519000D01*
X496250D01*
Y519476D01*
X502520D01*
X502886Y518526D01*
X502951Y518206D01*
X501988Y516765D01*
X501637Y515000D01*
X501988Y513235D01*
X502988Y511738D01*
X504485Y510738D01*
X506250Y510387D01*
X508015Y510738D01*
X509512Y511738D01*
X509865Y512267D01*
X511135D01*
X511488Y511738D01*
X512985Y510738D01*
X514750Y510387D01*
X516515Y510738D01*
X518012Y511738D01*
X519011Y513235D01*
X519363Y515000D01*
X519011Y516765D01*
X518012Y518262D01*
X516684Y519149D01*
X516570Y519320D01*
X515774Y520115D01*
Y538524D01*
X500324D01*
Y543934D01*
X500816Y544427D01*
X512252D01*
X512489Y543235D01*
X513488Y541738D01*
X514985Y540738D01*
X516750Y540387D01*
X518515Y540738D01*
X520012Y541738D01*
X521012Y543235D01*
X521363Y545000D01*
X521012Y546765D01*
X520012Y548262D01*
X519857Y548365D01*
Y549635D01*
X520012Y549738D01*
X521012Y551235D01*
X521363Y553000D01*
X521012Y554765D01*
X520012Y556262D01*
X518515Y557262D01*
X516750Y557613D01*
X516250Y558023D01*
Y563750D01*
X512750D01*
Y565000D01*
X511500D01*
Y575000D01*
X509000D01*
Y565000D01*
X506500D01*
Y575000D01*
X504000D01*
Y565000D01*
X501500D01*
Y575000D01*
X499250D01*
Y574524D01*
X496250D01*
Y575000D01*
X494019D01*
X493367Y576270D01*
X494011Y577235D01*
X494363Y579000D01*
X494011Y580765D01*
X493012Y582262D01*
X491515Y583261D01*
X489750Y583613D01*
D02*
G37*
G36*
X431500Y575000D02*
X429250D01*
Y574524D01*
X406250D01*
Y575000D01*
X404000D01*
Y565000D01*
Y555000D01*
X406250D01*
Y555476D01*
X429250D01*
Y555000D01*
X431500D01*
Y565000D01*
Y575000D01*
D02*
G37*
G36*
X516250D02*
X514000D01*
Y566250D01*
X516250D01*
Y575000D01*
D02*
G37*
G36*
X382250Y566613D02*
X380485Y566261D01*
X378989Y565262D01*
X377989Y563765D01*
X377638Y562000D01*
X377989Y560235D01*
X378951Y558794D01*
X378887Y558474D01*
X378520Y557524D01*
X369726D01*
Y536476D01*
X380774D01*
Y556386D01*
X382044Y557428D01*
X382250Y557387D01*
X384015Y557738D01*
X385512Y558738D01*
X386512Y560235D01*
X386863Y562000D01*
X386512Y563765D01*
X385512Y565262D01*
X384015Y566261D01*
X382250Y566613D01*
D02*
G37*
G36*
X392750Y583613D02*
X390985Y583261D01*
X389488Y582262D01*
X388489Y580765D01*
X388137Y579000D01*
X388489Y577235D01*
X389488Y575738D01*
X389528Y575712D01*
X389726Y574524D01*
X389726D01*
Y555476D01*
X394020D01*
X394386Y554526D01*
X394451Y554206D01*
X393489Y552765D01*
X393137Y551000D01*
X393489Y549235D01*
X394488Y547738D01*
X395985Y546739D01*
X397750Y546387D01*
X399515Y546739D01*
X401012Y547738D01*
X402011Y549235D01*
X402363Y551000D01*
X402011Y552765D01*
X401367Y553730D01*
X401500Y553990D01*
Y565000D01*
Y575000D01*
X399250D01*
Y574524D01*
X396480D01*
X396114Y575474D01*
X396049Y575794D01*
X397011Y577235D01*
X397363Y579000D01*
X397011Y580765D01*
X396012Y582262D01*
X394515Y583261D01*
X392750Y583613D01*
D02*
G37*
G36*
X431500Y539000D02*
X429250D01*
Y538524D01*
X406250D01*
Y539000D01*
X404000D01*
Y529000D01*
Y519000D01*
X406250D01*
Y519476D01*
X429250D01*
Y519000D01*
X431500D01*
Y529000D01*
Y539000D01*
D02*
G37*
G36*
X523250Y566613D02*
X521485Y566261D01*
X519989Y565262D01*
X518989Y563765D01*
X518638Y562000D01*
X518989Y560235D01*
X519989Y558738D01*
X521485Y557738D01*
X523250Y557387D01*
X523456Y557428D01*
X524726Y556386D01*
Y536476D01*
X535774D01*
Y557524D01*
X526980D01*
X526614Y558474D01*
X526549Y558794D01*
X527512Y560235D01*
X527863Y562000D01*
X527512Y563765D01*
X526512Y565262D01*
X525015Y566261D01*
X523250Y566613D01*
D02*
G37*
G36*
X401500Y539000D02*
X399250D01*
Y538524D01*
X389726D01*
Y519607D01*
X387985Y519261D01*
X386488Y518261D01*
X385488Y516765D01*
X385137Y515000D01*
X385488Y513234D01*
X386488Y511738D01*
X387985Y510738D01*
X389750Y510387D01*
X391515Y510738D01*
X393011Y511738D01*
X393115Y511893D01*
X394204D01*
X394524Y511715D01*
X395985Y510738D01*
X397750Y510387D01*
X399515Y510738D01*
X401012Y511738D01*
X402011Y513235D01*
X402363Y515000D01*
X402011Y516765D01*
X401367Y517730D01*
X401500Y517990D01*
Y529000D01*
Y539000D01*
D02*
G37*
G36*
X407500Y393363D02*
X405735Y393012D01*
X404238Y392012D01*
X403238Y390515D01*
X402887Y388750D01*
X403238Y386985D01*
X404238Y385488D01*
X404926Y385029D01*
Y351221D01*
X404238Y350762D01*
X403238Y349265D01*
X402887Y347500D01*
X403238Y345735D01*
X404238Y344238D01*
X405735Y343238D01*
X407500Y342887D01*
X409265Y343238D01*
X410762Y344238D01*
X411762Y345735D01*
X411853Y346193D01*
X413148D01*
X413238Y345735D01*
X414238Y344238D01*
X415735Y343238D01*
X417500Y342887D01*
X419265Y343238D01*
X420762Y344238D01*
X421762Y345735D01*
X422113Y347500D01*
X421762Y349265D01*
X420762Y350762D01*
X420074Y351221D01*
Y377629D01*
X420762Y378089D01*
X421762Y379585D01*
X422113Y381351D01*
X421762Y383116D01*
X420762Y384612D01*
X419265Y385612D01*
X417500Y385963D01*
X415735Y385612D01*
X414238Y384612D01*
X413238Y383116D01*
X412887Y381351D01*
X413238Y379585D01*
X414238Y378089D01*
X414927Y377629D01*
Y351221D01*
X414238Y350762D01*
X413238Y349265D01*
X413148Y348807D01*
X411853D01*
X411762Y349265D01*
X410762Y350762D01*
X410073Y351221D01*
Y385029D01*
X410762Y385488D01*
X411762Y386985D01*
X412113Y388750D01*
X411762Y390515D01*
X410762Y392012D01*
X409265Y393012D01*
X407500Y393363D01*
D02*
G37*
G36*
X189750Y583613D02*
X187985Y583261D01*
X186488Y582262D01*
X186013Y581551D01*
X184486D01*
X184011Y582261D01*
X182515Y583261D01*
X180750Y583612D01*
X178984Y583261D01*
X177488Y582261D01*
X177385Y582107D01*
X176296D01*
X175977Y582285D01*
X174515Y583261D01*
X172750Y583613D01*
X170985Y583261D01*
X169523Y582285D01*
X169204Y582106D01*
X168115D01*
X168011Y582261D01*
X166515Y583261D01*
X164750Y583612D01*
X162984Y583261D01*
X161488Y582261D01*
X160488Y580765D01*
X160137Y578999D01*
X160488Y577234D01*
X161132Y576270D01*
X160480Y575000D01*
X159000D01*
Y565000D01*
Y555000D01*
X160177D01*
Y553721D01*
X159488Y553262D01*
X158489Y551765D01*
X158137Y550000D01*
X158489Y548235D01*
X159488Y546738D01*
X160985Y545738D01*
X162429Y545451D01*
X162869Y545166D01*
X163380Y544218D01*
X163137Y543000D01*
X163489Y541235D01*
X164451Y539794D01*
X164386Y539474D01*
X164020Y538524D01*
X161250D01*
Y539000D01*
X159000D01*
Y529000D01*
X156500D01*
Y539000D01*
X154250D01*
Y538524D01*
X145324D01*
Y540279D01*
X146012Y540738D01*
X147011Y542235D01*
X147363Y544000D01*
X147120Y545218D01*
X147631Y546166D01*
X148071Y546451D01*
X149515Y546739D01*
X151012Y547738D01*
X152011Y549235D01*
X152363Y551000D01*
X152011Y552765D01*
X151049Y554206D01*
X151114Y554526D01*
X151480Y555476D01*
X154250D01*
Y555000D01*
X156500D01*
Y565000D01*
Y575000D01*
X155324D01*
Y576999D01*
X155144Y577902D01*
X155362Y578999D01*
X155011Y580765D01*
X154011Y582261D01*
X152515Y583261D01*
X150750Y583612D01*
X148984Y583261D01*
X147488Y582261D01*
X147385Y582107D01*
X146296D01*
X145977Y582285D01*
X144515Y583261D01*
X142750Y583613D01*
X140985Y583261D01*
X139488Y582262D01*
X138489Y580765D01*
X138137Y579000D01*
X138489Y577235D01*
X139451Y575794D01*
X139386Y575474D01*
X139020Y574524D01*
X136250D01*
Y575000D01*
X134000D01*
Y565000D01*
Y555000D01*
X136250D01*
Y555476D01*
X144020D01*
X144386Y554526D01*
X144451Y554206D01*
X143489Y552765D01*
X143137Y551000D01*
X143380Y549782D01*
X142869Y548834D01*
X142429Y548549D01*
X140985Y548261D01*
X139488Y547262D01*
X138489Y545765D01*
X138137Y544000D01*
X138489Y542235D01*
X139488Y540738D01*
X140177Y540278D01*
Y538524D01*
X136250D01*
Y539000D01*
X134000D01*
Y529000D01*
Y519000D01*
X136250D01*
Y519476D01*
X144020D01*
X144386Y518526D01*
X144451Y518206D01*
X143489Y516765D01*
X143137Y515000D01*
X143489Y513235D01*
X144488Y511738D01*
X145985Y510738D01*
X147750Y510387D01*
X149515Y510738D01*
X151012Y511738D01*
X152011Y513235D01*
X152189Y514126D01*
X153567Y514544D01*
X154930Y513181D01*
X155357Y512896D01*
X155488Y512234D01*
X156488Y510738D01*
X157984Y509738D01*
X159750Y509387D01*
X161515Y509738D01*
X163011Y510738D01*
X164011Y512234D01*
X164362Y513999D01*
X165572Y514427D01*
X167251D01*
X167488Y513234D01*
X168488Y511738D01*
X169984Y510738D01*
X171750Y510387D01*
X173515Y510738D01*
X175011Y511738D01*
X176011Y513234D01*
X176362Y515000D01*
X176011Y516765D01*
X175048Y518206D01*
X175112Y518524D01*
X175479Y519476D01*
X179250D01*
Y519000D01*
X181500D01*
Y529000D01*
X184000D01*
Y519000D01*
X186250D01*
Y519476D01*
X189250D01*
Y519000D01*
X191500D01*
Y529000D01*
Y539000D01*
X189250D01*
Y539000D01*
X188747Y539071D01*
X188146Y540021D01*
X188040Y540379D01*
X188362Y541999D01*
X188011Y543765D01*
X187011Y545261D01*
X185515Y546261D01*
X183750Y546612D01*
X181984Y546261D01*
X181437Y545896D01*
X180294Y546659D01*
X180362Y546999D01*
X180011Y548765D01*
X179011Y550261D01*
X177515Y551261D01*
X175750Y551612D01*
X173984Y551261D01*
X172488Y550261D01*
X171488Y548765D01*
X171261Y547622D01*
X169959Y546980D01*
X169937Y546980D01*
X169515Y547262D01*
X168071Y547549D01*
X167631Y547834D01*
X167120Y548782D01*
X167363Y550000D01*
X167012Y551765D01*
X166012Y553262D01*
X165324Y553721D01*
Y555476D01*
X179250D01*
Y555000D01*
X181500D01*
Y565000D01*
X184000D01*
Y555000D01*
X186250D01*
Y555476D01*
X189250D01*
Y555000D01*
X191500D01*
Y565000D01*
X194000D01*
Y555000D01*
X195177D01*
Y553000D01*
X195373Y552015D01*
X195931Y551180D01*
X197231Y549880D01*
X197811Y549000D01*
X197231Y548120D01*
X195931Y546820D01*
X195373Y545985D01*
X195177Y545000D01*
Y539000D01*
X194000D01*
Y529000D01*
Y519000D01*
X196250D01*
Y519476D01*
X202520D01*
X202886Y518526D01*
X202951Y518206D01*
X201989Y516765D01*
X201637Y515000D01*
X201989Y513235D01*
X202988Y511738D01*
X204485Y510738D01*
X206250Y510387D01*
X208015Y510738D01*
X209512Y511738D01*
X209865Y512267D01*
X211135D01*
X211488Y511738D01*
X212985Y510738D01*
X214750Y510387D01*
X216515Y510738D01*
X218012Y511738D01*
X219011Y513235D01*
X219363Y515000D01*
X219011Y516765D01*
X218012Y518262D01*
X216684Y519149D01*
X216570Y519320D01*
X215774Y520115D01*
Y538524D01*
X200324D01*
Y543934D01*
X200816Y544427D01*
X212251D01*
X212488Y543235D01*
X213488Y541738D01*
X214985Y540738D01*
X216750Y540387D01*
X218515Y540738D01*
X220012Y541738D01*
X221012Y543235D01*
X221363Y545000D01*
X221012Y546765D01*
X220012Y548262D01*
X219857Y548365D01*
Y549635D01*
X220012Y549738D01*
X221012Y551235D01*
X221363Y553000D01*
X221012Y554765D01*
X220012Y556262D01*
X218515Y557262D01*
X216750Y557613D01*
X216250Y558023D01*
Y563750D01*
X212750D01*
Y565000D01*
X211500D01*
Y575000D01*
X209000D01*
Y565000D01*
X206500D01*
Y575000D01*
X204000D01*
Y565000D01*
X201500D01*
Y575000D01*
X199250D01*
Y574524D01*
X196250D01*
Y575000D01*
X194018D01*
X193367Y576270D01*
X194011Y577235D01*
X194363Y579000D01*
X194011Y580765D01*
X193012Y582262D01*
X191515Y583261D01*
X189750Y583613D01*
D02*
G37*
G36*
X131500Y575000D02*
X129250D01*
Y574524D01*
X106250D01*
Y575000D01*
X104000D01*
Y565000D01*
Y555000D01*
X106250D01*
Y555476D01*
X129250D01*
Y555000D01*
X131500D01*
Y565000D01*
Y575000D01*
D02*
G37*
G36*
X216250D02*
X214000D01*
Y566250D01*
X216250D01*
Y575000D01*
D02*
G37*
G36*
X82250Y566613D02*
X80485Y566261D01*
X78989Y565262D01*
X77989Y563765D01*
X77638Y562000D01*
X77989Y560235D01*
X78951Y558794D01*
X78887Y558474D01*
X78520Y557524D01*
X69726D01*
Y536476D01*
X80774D01*
Y556386D01*
X82044Y557428D01*
X82250Y557387D01*
X84015Y557738D01*
X85512Y558738D01*
X86512Y560235D01*
X86863Y562000D01*
X86512Y563765D01*
X85512Y565262D01*
X84015Y566261D01*
X82250Y566613D01*
D02*
G37*
G36*
X92750Y583613D02*
X90985Y583261D01*
X89488Y582262D01*
X88489Y580765D01*
X88137Y579000D01*
X88489Y577235D01*
X89488Y575738D01*
X89528Y575712D01*
X89726Y574524D01*
X89726D01*
Y555476D01*
X94020D01*
X94386Y554526D01*
X94451Y554206D01*
X93489Y552765D01*
X93137Y551000D01*
X93489Y549235D01*
X94488Y547738D01*
X95985Y546739D01*
X97750Y546387D01*
X99515Y546739D01*
X101012Y547738D01*
X102011Y549235D01*
X102363Y551000D01*
X102011Y552765D01*
X101367Y553730D01*
X101500Y553990D01*
Y565000D01*
Y575000D01*
X99250D01*
Y574524D01*
X96480D01*
X96114Y575474D01*
X96049Y575794D01*
X97011Y577235D01*
X97363Y579000D01*
X97011Y580765D01*
X96012Y582262D01*
X94515Y583261D01*
X92750Y583613D01*
D02*
G37*
G36*
X131500Y539000D02*
X129250D01*
Y538524D01*
X106250D01*
Y539000D01*
X104000D01*
Y529000D01*
Y519000D01*
X106250D01*
Y519476D01*
X129250D01*
Y519000D01*
X131500D01*
Y529000D01*
Y539000D01*
D02*
G37*
G36*
X223250Y566613D02*
X221485Y566261D01*
X219989Y565262D01*
X218989Y563765D01*
X218638Y562000D01*
X218989Y560235D01*
X219989Y558738D01*
X221485Y557738D01*
X223250Y557387D01*
X223456Y557428D01*
X224726Y556386D01*
Y536476D01*
X235774D01*
Y557524D01*
X226980D01*
X226614Y558474D01*
X226549Y558794D01*
X227512Y560235D01*
X227863Y562000D01*
X227512Y563765D01*
X226512Y565262D01*
X225015Y566261D01*
X223250Y566613D01*
D02*
G37*
G36*
X101500Y539000D02*
X99250D01*
Y538524D01*
X89726D01*
Y519607D01*
X87985Y519261D01*
X86488Y518261D01*
X85488Y516765D01*
X85137Y515000D01*
X85488Y513234D01*
X86488Y511738D01*
X87985Y510738D01*
X89750Y510387D01*
X91515Y510738D01*
X93011Y511738D01*
X93115Y511893D01*
X94204D01*
X94523Y511715D01*
X95985Y510738D01*
X97750Y510387D01*
X99515Y510738D01*
X101012Y511738D01*
X102011Y513235D01*
X102363Y515000D01*
X102011Y516765D01*
X101367Y517730D01*
X101500Y517990D01*
Y529000D01*
Y539000D01*
D02*
G37*
G36*
X107500Y393363D02*
X105735Y393012D01*
X104238Y392012D01*
X103238Y390515D01*
X102887Y388750D01*
X103238Y386985D01*
X104238Y385488D01*
X104927Y385029D01*
Y351221D01*
X104238Y350762D01*
X103238Y349265D01*
X102887Y347500D01*
X103238Y345735D01*
X104238Y344238D01*
X105735Y343238D01*
X107500Y342887D01*
X109265Y343238D01*
X110762Y344238D01*
X111762Y345735D01*
X111853Y346193D01*
X113147D01*
X113238Y345735D01*
X114238Y344238D01*
X115735Y343238D01*
X117500Y342887D01*
X119265Y343238D01*
X120762Y344238D01*
X121762Y345735D01*
X122113Y347500D01*
X121762Y349265D01*
X120762Y350762D01*
X120073Y351221D01*
Y377629D01*
X120762Y378089D01*
X121762Y379585D01*
X122113Y381351D01*
X121762Y383116D01*
X120762Y384612D01*
X119265Y385612D01*
X117500Y385963D01*
X115735Y385612D01*
X114238Y384612D01*
X113238Y383116D01*
X112887Y381351D01*
X113238Y379585D01*
X114238Y378089D01*
X114927Y377629D01*
Y351221D01*
X114238Y350762D01*
X113238Y349265D01*
X113147Y348807D01*
X111853D01*
X111762Y349265D01*
X110762Y350762D01*
X110073Y351221D01*
Y385029D01*
X110762Y385488D01*
X111762Y386985D01*
X112113Y388750D01*
X111762Y390515D01*
X110762Y392012D01*
X109265Y393012D01*
X107500Y393363D01*
D02*
G37*
G36*
X789750Y283613D02*
X787985Y283262D01*
X786488Y282262D01*
X786013Y281551D01*
X784486D01*
X784011Y282261D01*
X782515Y283261D01*
X780750Y283612D01*
X778984Y283261D01*
X777488Y282261D01*
X777385Y282107D01*
X776296D01*
X775977Y282285D01*
X774515Y283262D01*
X772750Y283613D01*
X770985Y283262D01*
X769523Y282285D01*
X769204Y282106D01*
X768115D01*
X768011Y282261D01*
X766515Y283261D01*
X764750Y283612D01*
X762984Y283261D01*
X761488Y282261D01*
X760488Y280765D01*
X760137Y278999D01*
X760488Y277234D01*
X761132Y276270D01*
X760480Y275000D01*
X759000D01*
Y265000D01*
Y255000D01*
X760177D01*
Y253721D01*
X759488Y253262D01*
X758488Y251765D01*
X758137Y250000D01*
X758488Y248235D01*
X759488Y246738D01*
X760985Y245739D01*
X762429Y245451D01*
X762869Y245166D01*
X763380Y244218D01*
X763137Y243000D01*
X763488Y241235D01*
X764451Y239794D01*
X764386Y239474D01*
X764020Y238524D01*
X761250D01*
Y239000D01*
X759000D01*
Y229000D01*
X756500D01*
Y239000D01*
X754250D01*
Y238524D01*
X745324D01*
Y240279D01*
X746012Y240738D01*
X747011Y242235D01*
X747363Y244000D01*
X747120Y245218D01*
X747631Y246166D01*
X748071Y246451D01*
X749515Y246738D01*
X751012Y247738D01*
X752012Y249235D01*
X752363Y251000D01*
X752012Y252765D01*
X751049Y254206D01*
X751114Y254526D01*
X751480Y255476D01*
X754250D01*
Y255000D01*
X756500D01*
Y265000D01*
Y275000D01*
X755324D01*
Y276999D01*
X755144Y277902D01*
X755362Y278999D01*
X755011Y280765D01*
X754011Y282261D01*
X752515Y283261D01*
X750750Y283612D01*
X748985Y283261D01*
X747488Y282261D01*
X747385Y282107D01*
X746296D01*
X745977Y282285D01*
X744515Y283262D01*
X742750Y283613D01*
X740985Y283262D01*
X739488Y282262D01*
X738488Y280765D01*
X738137Y279000D01*
X738488Y277235D01*
X739451Y275794D01*
X739386Y275474D01*
X739020Y274524D01*
X736250D01*
Y275000D01*
X734000D01*
Y265000D01*
Y255000D01*
X736250D01*
Y255476D01*
X744020D01*
X744386Y254526D01*
X744451Y254206D01*
X743488Y252765D01*
X743137Y251000D01*
X743380Y249782D01*
X742869Y248834D01*
X742429Y248549D01*
X740985Y248262D01*
X739488Y247262D01*
X738488Y245765D01*
X738137Y244000D01*
X738488Y242235D01*
X739488Y240738D01*
X740177Y240278D01*
Y238524D01*
X736250D01*
Y239000D01*
X734000D01*
Y229000D01*
Y219000D01*
X736250D01*
Y219476D01*
X744020D01*
X744386Y218526D01*
X744451Y218206D01*
X743488Y216765D01*
X743137Y215000D01*
X743488Y213235D01*
X744488Y211738D01*
X745985Y210739D01*
X747750Y210387D01*
X749515Y210739D01*
X751012Y211738D01*
X752012Y213235D01*
X752189Y214126D01*
X753567Y214544D01*
X754930Y213181D01*
X755357Y212896D01*
X755488Y212234D01*
X756488Y210738D01*
X757984Y209738D01*
X759750Y209387D01*
X761515Y209738D01*
X763011Y210738D01*
X764011Y212234D01*
X764362Y214000D01*
X765572Y214426D01*
X767251D01*
X767488Y213234D01*
X768488Y211738D01*
X769984Y210738D01*
X771750Y210387D01*
X773515Y210738D01*
X775011Y211738D01*
X776011Y213234D01*
X776362Y215000D01*
X776011Y216765D01*
X775048Y218206D01*
X775112Y218524D01*
X775479Y219476D01*
X779250D01*
Y219000D01*
X781500D01*
Y229000D01*
X784000D01*
Y219000D01*
X786250D01*
Y219476D01*
X789250D01*
Y219000D01*
X791500D01*
Y229000D01*
Y239000D01*
X789250D01*
Y239000D01*
X788747Y239071D01*
X788146Y240021D01*
X788040Y240379D01*
X788362Y241999D01*
X788011Y243765D01*
X787011Y245261D01*
X785515Y246261D01*
X783750Y246612D01*
X781984Y246261D01*
X781438Y245896D01*
X780295Y246659D01*
X780362Y246999D01*
X780011Y248765D01*
X779011Y250261D01*
X777515Y251261D01*
X775750Y251612D01*
X773984Y251261D01*
X772488Y250261D01*
X771488Y248765D01*
X771261Y247623D01*
X769959Y246980D01*
X769937Y246980D01*
X769515Y247262D01*
X768071Y247549D01*
X767631Y247834D01*
X767120Y248782D01*
X767363Y250000D01*
X767011Y251765D01*
X766012Y253262D01*
X765323Y253721D01*
Y255476D01*
X779250D01*
Y255000D01*
X781500D01*
Y265000D01*
X784000D01*
Y255000D01*
X786250D01*
Y255476D01*
X789250D01*
Y255000D01*
X791500D01*
Y265000D01*
X794000D01*
Y255000D01*
X795177D01*
Y253000D01*
X795373Y252015D01*
X795930Y251180D01*
X797231Y249880D01*
X797811Y249000D01*
X797231Y248120D01*
X795930Y246820D01*
X795373Y245985D01*
X795177Y245000D01*
Y239000D01*
X794000D01*
Y229000D01*
Y219000D01*
X796250D01*
Y219476D01*
X802520D01*
X802886Y218526D01*
X802951Y218206D01*
X801989Y216765D01*
X801637Y215000D01*
X801989Y213235D01*
X802988Y211738D01*
X804485Y210739D01*
X806250Y210387D01*
X808015Y210739D01*
X809512Y211738D01*
X809865Y212267D01*
X811135D01*
X811488Y211738D01*
X812985Y210739D01*
X814750Y210387D01*
X816515Y210739D01*
X818012Y211738D01*
X819012Y213235D01*
X819363Y215000D01*
X819012Y216765D01*
X818012Y218262D01*
X816684Y219149D01*
X816570Y219320D01*
X815774Y220115D01*
Y238524D01*
X800324D01*
Y243934D01*
X800816Y244427D01*
X812252D01*
X812488Y243235D01*
X813488Y241738D01*
X814985Y240739D01*
X816750Y240387D01*
X818515Y240739D01*
X820012Y241738D01*
X821012Y243235D01*
X821363Y245000D01*
X821012Y246765D01*
X820012Y248262D01*
X819857Y248365D01*
Y249635D01*
X820012Y249738D01*
X821012Y251235D01*
X821363Y253000D01*
X821012Y254765D01*
X820012Y256262D01*
X818515Y257262D01*
X816750Y257613D01*
X816250Y258023D01*
Y263750D01*
X812750D01*
Y265000D01*
X811500D01*
Y275000D01*
X809000D01*
Y265000D01*
X806500D01*
Y275000D01*
X804000D01*
Y265000D01*
X801500D01*
Y275000D01*
X799250D01*
Y274524D01*
X796250D01*
Y275000D01*
X794018D01*
X793367Y276270D01*
X794012Y277235D01*
X794363Y279000D01*
X794012Y280765D01*
X793012Y282262D01*
X791515Y283262D01*
X789750Y283613D01*
D02*
G37*
G36*
X731500Y275000D02*
X729250D01*
Y274524D01*
X706250D01*
Y275000D01*
X704000D01*
Y265000D01*
Y255000D01*
X706250D01*
Y255476D01*
X729250D01*
Y255000D01*
X731500D01*
Y265000D01*
Y275000D01*
D02*
G37*
G36*
X816250D02*
X814000D01*
Y266250D01*
X816250D01*
Y275000D01*
D02*
G37*
G36*
X682250Y266613D02*
X680485Y266262D01*
X678989Y265262D01*
X677989Y263765D01*
X677638Y262000D01*
X677989Y260235D01*
X678951Y258794D01*
X678887Y258474D01*
X678520Y257524D01*
X669726D01*
Y236476D01*
X680774D01*
Y256386D01*
X682044Y257428D01*
X682250Y257387D01*
X684015Y257738D01*
X685512Y258738D01*
X686512Y260235D01*
X686863Y262000D01*
X686512Y263765D01*
X685512Y265262D01*
X684015Y266262D01*
X682250Y266613D01*
D02*
G37*
G36*
X692750Y283613D02*
X690985Y283262D01*
X689488Y282262D01*
X688488Y280765D01*
X688137Y279000D01*
X688488Y277235D01*
X689488Y275738D01*
X689528Y275712D01*
X689726Y274524D01*
X689726D01*
Y255476D01*
X694020D01*
X694386Y254526D01*
X694451Y254206D01*
X693488Y252765D01*
X693137Y251000D01*
X693488Y249235D01*
X694488Y247738D01*
X695985Y246738D01*
X697750Y246387D01*
X699515Y246738D01*
X701012Y247738D01*
X702011Y249235D01*
X702363Y251000D01*
X702011Y252765D01*
X701367Y253730D01*
X701500Y253990D01*
Y265000D01*
Y275000D01*
X699250D01*
Y274524D01*
X696480D01*
X696114Y275474D01*
X696049Y275794D01*
X697011Y277235D01*
X697363Y279000D01*
X697011Y280765D01*
X696012Y282262D01*
X694515Y283262D01*
X692750Y283613D01*
D02*
G37*
G36*
X731500Y239000D02*
X729250D01*
Y238524D01*
X706250D01*
Y239000D01*
X704000D01*
Y229000D01*
Y219000D01*
X706250D01*
Y219476D01*
X729250D01*
Y219000D01*
X731500D01*
Y229000D01*
Y239000D01*
D02*
G37*
G36*
X823250Y266613D02*
X821485Y266262D01*
X819989Y265262D01*
X818989Y263765D01*
X818638Y262000D01*
X818989Y260235D01*
X819989Y258738D01*
X821485Y257738D01*
X823250Y257387D01*
X823456Y257428D01*
X824726Y256386D01*
Y236476D01*
X835774D01*
Y257524D01*
X826980D01*
X826614Y258474D01*
X826549Y258794D01*
X827512Y260235D01*
X827863Y262000D01*
X827512Y263765D01*
X826512Y265262D01*
X825015Y266262D01*
X823250Y266613D01*
D02*
G37*
G36*
X701500Y239000D02*
X699250D01*
Y238524D01*
X689726D01*
Y219607D01*
X687985Y219261D01*
X686488Y218261D01*
X685488Y216765D01*
X685137Y215000D01*
X685488Y213234D01*
X686488Y211738D01*
X687985Y210738D01*
X689750Y210387D01*
X691515Y210738D01*
X693011Y211738D01*
X693115Y211893D01*
X694204D01*
X694523Y211715D01*
X695985Y210739D01*
X697750Y210387D01*
X699515Y210739D01*
X701012Y211738D01*
X702011Y213235D01*
X702363Y215000D01*
X702011Y216765D01*
X701367Y217730D01*
X701500Y217990D01*
Y229000D01*
Y239000D01*
D02*
G37*
G36*
X707500Y93363D02*
X705735Y93012D01*
X704238Y92012D01*
X703239Y90515D01*
X702887Y88750D01*
X703239Y86985D01*
X704238Y85488D01*
X704927Y85029D01*
Y51221D01*
X704238Y50762D01*
X703239Y49265D01*
X702887Y47500D01*
X703239Y45735D01*
X704238Y44238D01*
X705735Y43239D01*
X707500Y42887D01*
X709265Y43239D01*
X710762Y44238D01*
X711761Y45735D01*
X711853Y46193D01*
X713148D01*
X713239Y45735D01*
X714238Y44238D01*
X715735Y43239D01*
X717500Y42887D01*
X719265Y43239D01*
X720762Y44238D01*
X721761Y45735D01*
X722113Y47500D01*
X721761Y49265D01*
X720762Y50762D01*
X720073Y51221D01*
Y77629D01*
X720762Y78089D01*
X721761Y79585D01*
X722113Y81351D01*
X721761Y83116D01*
X720762Y84612D01*
X719265Y85612D01*
X717500Y85963D01*
X715735Y85612D01*
X714238Y84612D01*
X713239Y83116D01*
X712887Y81351D01*
X713239Y79585D01*
X714238Y78089D01*
X714927Y77629D01*
Y51221D01*
X714238Y50762D01*
X713239Y49265D01*
X713148Y48807D01*
X711853D01*
X711761Y49265D01*
X710762Y50762D01*
X710073Y51221D01*
Y85029D01*
X710762Y85488D01*
X711761Y86985D01*
X712113Y88750D01*
X711761Y90515D01*
X710762Y92012D01*
X709265Y93012D01*
X707500Y93363D01*
D02*
G37*
G36*
X489750Y283613D02*
X487985Y283262D01*
X486488Y282262D01*
X486013Y281551D01*
X484486D01*
X484011Y282261D01*
X482515Y283261D01*
X480750Y283612D01*
X478984Y283261D01*
X477488Y282261D01*
X477385Y282107D01*
X476296D01*
X475977Y282285D01*
X474515Y283262D01*
X472750Y283613D01*
X470985Y283262D01*
X469523Y282285D01*
X469204Y282106D01*
X468115D01*
X468011Y282261D01*
X466515Y283261D01*
X464750Y283612D01*
X462984Y283261D01*
X461488Y282261D01*
X460488Y280765D01*
X460137Y278999D01*
X460488Y277234D01*
X461132Y276270D01*
X460480Y275000D01*
X459000D01*
Y265000D01*
Y255000D01*
X460177D01*
Y253721D01*
X459488Y253262D01*
X458489Y251765D01*
X458137Y250000D01*
X458489Y248235D01*
X459488Y246738D01*
X460985Y245739D01*
X462429Y245451D01*
X462869Y245166D01*
X463380Y244218D01*
X463137Y243000D01*
X463489Y241235D01*
X464451Y239794D01*
X464386Y239474D01*
X464020Y238524D01*
X461250D01*
Y239000D01*
X459000D01*
Y229000D01*
X456500D01*
Y239000D01*
X454250D01*
Y238524D01*
X445324D01*
Y240279D01*
X446012Y240738D01*
X447011Y242235D01*
X447363Y244000D01*
X447120Y245218D01*
X447631Y246166D01*
X448071Y246451D01*
X449515Y246738D01*
X451012Y247738D01*
X452011Y249235D01*
X452363Y251000D01*
X452011Y252765D01*
X451049Y254206D01*
X451114Y254526D01*
X451480Y255476D01*
X454250D01*
Y255000D01*
X456500D01*
Y265000D01*
Y275000D01*
X455324D01*
Y276999D01*
X455144Y277902D01*
X455362Y278999D01*
X455011Y280765D01*
X454011Y282261D01*
X452515Y283261D01*
X450750Y283612D01*
X448984Y283261D01*
X447488Y282261D01*
X447385Y282107D01*
X446296D01*
X445977Y282285D01*
X444515Y283262D01*
X442750Y283613D01*
X440985Y283262D01*
X439488Y282262D01*
X438489Y280765D01*
X438137Y279000D01*
X438489Y277235D01*
X439451Y275794D01*
X439386Y275474D01*
X439020Y274524D01*
X436250D01*
Y275000D01*
X434000D01*
Y265000D01*
Y255000D01*
X436250D01*
Y255476D01*
X444020D01*
X444386Y254526D01*
X444451Y254206D01*
X443489Y252765D01*
X443137Y251000D01*
X443380Y249782D01*
X442869Y248834D01*
X442429Y248549D01*
X440985Y248262D01*
X439488Y247262D01*
X438489Y245765D01*
X438137Y244000D01*
X438489Y242235D01*
X439488Y240738D01*
X440177Y240278D01*
Y238524D01*
X436250D01*
Y239000D01*
X434000D01*
Y229000D01*
Y219000D01*
X436250D01*
Y219476D01*
X444020D01*
X444386Y218526D01*
X444451Y218206D01*
X443489Y216765D01*
X443137Y215000D01*
X443489Y213235D01*
X444488Y211738D01*
X445985Y210739D01*
X447750Y210387D01*
X449515Y210739D01*
X451012Y211738D01*
X452011Y213235D01*
X452189Y214126D01*
X453567Y214544D01*
X454930Y213181D01*
X455357Y212896D01*
X455488Y212234D01*
X456488Y210738D01*
X457985Y209738D01*
X459750Y209387D01*
X461515Y209738D01*
X463011Y210738D01*
X464011Y212234D01*
X464362Y214000D01*
X465572Y214426D01*
X467251D01*
X467488Y213234D01*
X468488Y211738D01*
X469984Y210738D01*
X471750Y210387D01*
X473515Y210738D01*
X475011Y211738D01*
X476011Y213234D01*
X476362Y215000D01*
X476011Y216765D01*
X475048Y218206D01*
X475112Y218524D01*
X475479Y219476D01*
X479250D01*
Y219000D01*
X481500D01*
Y229000D01*
X484000D01*
Y219000D01*
X486250D01*
Y219476D01*
X489250D01*
Y219000D01*
X491500D01*
Y229000D01*
Y239000D01*
X489250D01*
Y239000D01*
X488747Y239071D01*
X488146Y240021D01*
X488040Y240379D01*
X488362Y241999D01*
X488011Y243765D01*
X487011Y245261D01*
X485515Y246261D01*
X483750Y246612D01*
X481984Y246261D01*
X481437Y245896D01*
X480294Y246659D01*
X480362Y246999D01*
X480011Y248765D01*
X479011Y250261D01*
X477515Y251261D01*
X475750Y251612D01*
X473984Y251261D01*
X472488Y250261D01*
X471488Y248765D01*
X471261Y247623D01*
X469959Y246980D01*
X469937Y246980D01*
X469515Y247262D01*
X468071Y247549D01*
X467631Y247834D01*
X467120Y248782D01*
X467363Y250000D01*
X467011Y251765D01*
X466012Y253262D01*
X465323Y253721D01*
Y255476D01*
X479250D01*
Y255000D01*
X481500D01*
Y265000D01*
X484000D01*
Y255000D01*
X486250D01*
Y255476D01*
X489250D01*
Y255000D01*
X491500D01*
Y265000D01*
X494000D01*
Y255000D01*
X495177D01*
Y253000D01*
X495373Y252015D01*
X495930Y251180D01*
X497231Y249880D01*
X497811Y249000D01*
X497231Y248120D01*
X495930Y246820D01*
X495373Y245985D01*
X495177Y245000D01*
Y239000D01*
X494000D01*
Y229000D01*
Y219000D01*
X496250D01*
Y219476D01*
X502520D01*
X502886Y218526D01*
X502951Y218206D01*
X501988Y216765D01*
X501637Y215000D01*
X501988Y213235D01*
X502988Y211738D01*
X504485Y210739D01*
X506250Y210387D01*
X508015Y210739D01*
X509512Y211738D01*
X509865Y212267D01*
X511135D01*
X511488Y211738D01*
X512985Y210739D01*
X514750Y210387D01*
X516515Y210739D01*
X518012Y211738D01*
X519011Y213235D01*
X519363Y215000D01*
X519011Y216765D01*
X518012Y218262D01*
X516684Y219149D01*
X516570Y219320D01*
X515774Y220115D01*
Y238524D01*
X500324D01*
Y243934D01*
X500816Y244427D01*
X512252D01*
X512489Y243235D01*
X513488Y241738D01*
X514985Y240739D01*
X516750Y240387D01*
X518515Y240739D01*
X520012Y241738D01*
X521012Y243235D01*
X521363Y245000D01*
X521012Y246765D01*
X520012Y248262D01*
X519857Y248365D01*
Y249635D01*
X520012Y249738D01*
X521012Y251235D01*
X521363Y253000D01*
X521012Y254765D01*
X520012Y256262D01*
X518515Y257262D01*
X516750Y257613D01*
X516250Y258023D01*
Y263750D01*
X512750D01*
Y265000D01*
X511500D01*
Y275000D01*
X509000D01*
Y265000D01*
X506500D01*
Y275000D01*
X504000D01*
Y265000D01*
X501500D01*
Y275000D01*
X499250D01*
Y274524D01*
X496250D01*
Y275000D01*
X494019D01*
X493367Y276270D01*
X494011Y277235D01*
X494363Y279000D01*
X494011Y280765D01*
X493012Y282262D01*
X491515Y283262D01*
X489750Y283613D01*
D02*
G37*
G36*
X431500Y275000D02*
X429250D01*
Y274524D01*
X406250D01*
Y275000D01*
X404000D01*
Y265000D01*
Y255000D01*
X406250D01*
Y255476D01*
X429250D01*
Y255000D01*
X431500D01*
Y265000D01*
Y275000D01*
D02*
G37*
G36*
X516250D02*
X514000D01*
Y266250D01*
X516250D01*
Y275000D01*
D02*
G37*
G36*
X382250Y266613D02*
X380485Y266262D01*
X378989Y265262D01*
X377989Y263765D01*
X377638Y262000D01*
X377989Y260235D01*
X378951Y258794D01*
X378887Y258474D01*
X378520Y257524D01*
X369726D01*
Y236476D01*
X380774D01*
Y256386D01*
X382044Y257428D01*
X382250Y257387D01*
X384015Y257738D01*
X385512Y258738D01*
X386512Y260235D01*
X386863Y262000D01*
X386512Y263765D01*
X385512Y265262D01*
X384015Y266262D01*
X382250Y266613D01*
D02*
G37*
G36*
X392750Y283613D02*
X390985Y283262D01*
X389488Y282262D01*
X388489Y280765D01*
X388137Y279000D01*
X388489Y277235D01*
X389488Y275738D01*
X389528Y275712D01*
X389726Y274524D01*
X389726D01*
Y255476D01*
X394020D01*
X394386Y254526D01*
X394451Y254206D01*
X393489Y252765D01*
X393137Y251000D01*
X393489Y249235D01*
X394488Y247738D01*
X395985Y246738D01*
X397750Y246387D01*
X399515Y246738D01*
X401012Y247738D01*
X402011Y249235D01*
X402363Y251000D01*
X402011Y252765D01*
X401367Y253730D01*
X401500Y253990D01*
Y265000D01*
Y275000D01*
X399250D01*
Y274524D01*
X396480D01*
X396114Y275474D01*
X396049Y275794D01*
X397011Y277235D01*
X397363Y279000D01*
X397011Y280765D01*
X396012Y282262D01*
X394515Y283262D01*
X392750Y283613D01*
D02*
G37*
G36*
X431500Y239000D02*
X429250D01*
Y238524D01*
X406250D01*
Y239000D01*
X404000D01*
Y229000D01*
Y219000D01*
X406250D01*
Y219476D01*
X429250D01*
Y219000D01*
X431500D01*
Y229000D01*
Y239000D01*
D02*
G37*
G36*
X523250Y266613D02*
X521485Y266262D01*
X519989Y265262D01*
X518989Y263765D01*
X518638Y262000D01*
X518989Y260235D01*
X519989Y258738D01*
X521485Y257738D01*
X523250Y257387D01*
X523456Y257428D01*
X524726Y256386D01*
Y236476D01*
X535774D01*
Y257524D01*
X526980D01*
X526614Y258474D01*
X526549Y258794D01*
X527512Y260235D01*
X527863Y262000D01*
X527512Y263765D01*
X526512Y265262D01*
X525015Y266262D01*
X523250Y266613D01*
D02*
G37*
G36*
X401500Y239000D02*
X399250D01*
Y238524D01*
X389726D01*
Y219607D01*
X387985Y219261D01*
X386488Y218261D01*
X385488Y216765D01*
X385137Y215000D01*
X385488Y213234D01*
X386488Y211738D01*
X387985Y210738D01*
X389750Y210387D01*
X391515Y210738D01*
X393011Y211738D01*
X393115Y211893D01*
X394204D01*
X394524Y211715D01*
X395985Y210739D01*
X397750Y210387D01*
X399515Y210739D01*
X401012Y211738D01*
X402011Y213235D01*
X402363Y215000D01*
X402011Y216765D01*
X401367Y217730D01*
X401500Y217990D01*
Y229000D01*
Y239000D01*
D02*
G37*
G36*
X407500Y93363D02*
X405735Y93012D01*
X404238Y92012D01*
X403238Y90515D01*
X402887Y88750D01*
X403238Y86985D01*
X404238Y85488D01*
X404926Y85029D01*
Y51221D01*
X404238Y50762D01*
X403238Y49265D01*
X402887Y47500D01*
X403238Y45735D01*
X404238Y44238D01*
X405735Y43239D01*
X407500Y42887D01*
X409265Y43239D01*
X410762Y44238D01*
X411762Y45735D01*
X411853Y46193D01*
X413148D01*
X413238Y45735D01*
X414238Y44238D01*
X415735Y43239D01*
X417500Y42887D01*
X419265Y43239D01*
X420762Y44238D01*
X421762Y45735D01*
X422113Y47500D01*
X421762Y49265D01*
X420762Y50762D01*
X420074Y51221D01*
Y77629D01*
X420762Y78089D01*
X421762Y79585D01*
X422113Y81351D01*
X421762Y83116D01*
X420762Y84612D01*
X419265Y85612D01*
X417500Y85963D01*
X415735Y85612D01*
X414238Y84612D01*
X413238Y83116D01*
X412887Y81351D01*
X413238Y79585D01*
X414238Y78089D01*
X414927Y77629D01*
Y51221D01*
X414238Y50762D01*
X413238Y49265D01*
X413148Y48807D01*
X411853D01*
X411762Y49265D01*
X410762Y50762D01*
X410073Y51221D01*
Y85029D01*
X410762Y85488D01*
X411762Y86985D01*
X412113Y88750D01*
X411762Y90515D01*
X410762Y92012D01*
X409265Y93012D01*
X407500Y93363D01*
D02*
G37*
G36*
X189750Y283613D02*
X187985Y283262D01*
X186488Y282262D01*
X186013Y281551D01*
X184486D01*
X184011Y282261D01*
X182515Y283261D01*
X180750Y283612D01*
X178984Y283261D01*
X177488Y282261D01*
X177385Y282107D01*
X176296D01*
X175977Y282285D01*
X174515Y283262D01*
X172750Y283613D01*
X170985Y283262D01*
X169523Y282285D01*
X169204Y282106D01*
X168115D01*
X168011Y282261D01*
X166515Y283261D01*
X164750Y283612D01*
X162984Y283261D01*
X161488Y282261D01*
X160488Y280765D01*
X160137Y278999D01*
X160488Y277234D01*
X161132Y276270D01*
X160480Y275000D01*
X159000D01*
Y265000D01*
Y255000D01*
X160177D01*
Y253721D01*
X159488Y253262D01*
X158489Y251765D01*
X158137Y250000D01*
X158489Y248235D01*
X159488Y246738D01*
X160985Y245739D01*
X162429Y245451D01*
X162869Y245166D01*
X163380Y244218D01*
X163137Y243000D01*
X163489Y241235D01*
X164451Y239794D01*
X164386Y239474D01*
X164020Y238524D01*
X161250D01*
Y239000D01*
X159000D01*
Y229000D01*
X156500D01*
Y239000D01*
X154250D01*
Y238524D01*
X145324D01*
Y240279D01*
X146012Y240738D01*
X147011Y242235D01*
X147363Y244000D01*
X147120Y245218D01*
X147631Y246166D01*
X148071Y246451D01*
X149515Y246738D01*
X151012Y247738D01*
X152011Y249235D01*
X152363Y251000D01*
X152011Y252765D01*
X151049Y254206D01*
X151114Y254526D01*
X151480Y255476D01*
X154250D01*
Y255000D01*
X156500D01*
Y265000D01*
Y275000D01*
X155324D01*
Y276999D01*
X155144Y277902D01*
X155362Y278999D01*
X155011Y280765D01*
X154011Y282261D01*
X152515Y283261D01*
X150750Y283612D01*
X148984Y283261D01*
X147488Y282261D01*
X147385Y282107D01*
X146296D01*
X145977Y282285D01*
X144515Y283262D01*
X142750Y283613D01*
X140985Y283262D01*
X139488Y282262D01*
X138489Y280765D01*
X138137Y279000D01*
X138489Y277235D01*
X139451Y275794D01*
X139386Y275474D01*
X139020Y274524D01*
X136250D01*
Y275000D01*
X134000D01*
Y265000D01*
Y255000D01*
X136250D01*
Y255476D01*
X144020D01*
X144386Y254526D01*
X144451Y254206D01*
X143489Y252765D01*
X143137Y251000D01*
X143380Y249782D01*
X142869Y248834D01*
X142429Y248549D01*
X140985Y248262D01*
X139488Y247262D01*
X138489Y245765D01*
X138137Y244000D01*
X138489Y242235D01*
X139488Y240738D01*
X140177Y240278D01*
Y238524D01*
X136250D01*
Y239000D01*
X134000D01*
Y229000D01*
Y219000D01*
X136250D01*
Y219476D01*
X144020D01*
X144386Y218526D01*
X144451Y218206D01*
X143489Y216765D01*
X143137Y215000D01*
X143489Y213235D01*
X144488Y211738D01*
X145985Y210739D01*
X147750Y210387D01*
X149515Y210739D01*
X151012Y211738D01*
X152011Y213235D01*
X152189Y214126D01*
X153567Y214544D01*
X154930Y213181D01*
X155357Y212896D01*
X155488Y212234D01*
X156488Y210738D01*
X157984Y209738D01*
X159750Y209387D01*
X161515Y209738D01*
X163011Y210738D01*
X164011Y212234D01*
X164362Y214000D01*
X165572Y214426D01*
X167251D01*
X167488Y213234D01*
X168488Y211738D01*
X169984Y210738D01*
X171750Y210387D01*
X173515Y210738D01*
X175011Y211738D01*
X176011Y213234D01*
X176362Y215000D01*
X176011Y216765D01*
X175048Y218206D01*
X175112Y218524D01*
X175479Y219476D01*
X179250D01*
Y219000D01*
X181500D01*
Y229000D01*
X184000D01*
Y219000D01*
X186250D01*
Y219476D01*
X189250D01*
Y219000D01*
X191500D01*
Y229000D01*
Y239000D01*
X189250D01*
Y239000D01*
X188747Y239071D01*
X188146Y240021D01*
X188040Y240379D01*
X188362Y241999D01*
X188011Y243765D01*
X187011Y245261D01*
X185515Y246261D01*
X183750Y246612D01*
X181984Y246261D01*
X181437Y245896D01*
X180294Y246659D01*
X180362Y246999D01*
X180011Y248765D01*
X179011Y250261D01*
X177515Y251261D01*
X175750Y251612D01*
X173984Y251261D01*
X172488Y250261D01*
X171488Y248765D01*
X171261Y247623D01*
X169959Y246980D01*
X169937Y246980D01*
X169515Y247262D01*
X168071Y247549D01*
X167631Y247834D01*
X167120Y248782D01*
X167363Y250000D01*
X167012Y251765D01*
X166012Y253262D01*
X165324Y253721D01*
Y255476D01*
X179250D01*
Y255000D01*
X181500D01*
Y265000D01*
X184000D01*
Y255000D01*
X186250D01*
Y255476D01*
X189250D01*
Y255000D01*
X191500D01*
Y265000D01*
X194000D01*
Y255000D01*
X195177D01*
Y253000D01*
X195373Y252015D01*
X195931Y251180D01*
X197231Y249880D01*
X197811Y249000D01*
X197231Y248120D01*
X195931Y246820D01*
X195373Y245985D01*
X195177Y245000D01*
Y239000D01*
X194000D01*
Y229000D01*
Y219000D01*
X196250D01*
Y219476D01*
X202520D01*
X202886Y218526D01*
X202951Y218206D01*
X201989Y216765D01*
X201637Y215000D01*
X201989Y213235D01*
X202988Y211738D01*
X204485Y210739D01*
X206250Y210387D01*
X208015Y210739D01*
X209512Y211738D01*
X209865Y212267D01*
X211135D01*
X211488Y211738D01*
X212985Y210739D01*
X214750Y210387D01*
X216515Y210739D01*
X218012Y211738D01*
X219011Y213235D01*
X219363Y215000D01*
X219011Y216765D01*
X218012Y218262D01*
X216684Y219149D01*
X216570Y219320D01*
X215774Y220115D01*
Y238524D01*
X200324D01*
Y243934D01*
X200816Y244427D01*
X212251D01*
X212488Y243235D01*
X213488Y241738D01*
X214985Y240739D01*
X216750Y240387D01*
X218515Y240739D01*
X220012Y241738D01*
X221012Y243235D01*
X221363Y245000D01*
X221012Y246765D01*
X220012Y248262D01*
X219857Y248365D01*
Y249635D01*
X220012Y249738D01*
X221012Y251235D01*
X221363Y253000D01*
X221012Y254765D01*
X220012Y256262D01*
X218515Y257262D01*
X216750Y257613D01*
X216250Y258023D01*
Y263750D01*
X212750D01*
Y265000D01*
X211500D01*
Y275000D01*
X209000D01*
Y265000D01*
X206500D01*
Y275000D01*
X204000D01*
Y265000D01*
X201500D01*
Y275000D01*
X199250D01*
Y274524D01*
X196250D01*
Y275000D01*
X194018D01*
X193367Y276270D01*
X194011Y277235D01*
X194363Y279000D01*
X194011Y280765D01*
X193012Y282262D01*
X191515Y283262D01*
X189750Y283613D01*
D02*
G37*
G36*
X131500Y275000D02*
X129250D01*
Y274524D01*
X106250D01*
Y275000D01*
X104000D01*
Y265000D01*
Y255000D01*
X106250D01*
Y255476D01*
X129250D01*
Y255000D01*
X131500D01*
Y265000D01*
Y275000D01*
D02*
G37*
G36*
X216250D02*
X214000D01*
Y266250D01*
X216250D01*
Y275000D01*
D02*
G37*
G36*
X82250Y266613D02*
X80485Y266262D01*
X78989Y265262D01*
X77989Y263765D01*
X77638Y262000D01*
X77989Y260235D01*
X78951Y258794D01*
X78887Y258474D01*
X78520Y257524D01*
X69726D01*
Y236476D01*
X80774D01*
Y256386D01*
X82044Y257428D01*
X82250Y257387D01*
X84015Y257738D01*
X85512Y258738D01*
X86512Y260235D01*
X86863Y262000D01*
X86512Y263765D01*
X85512Y265262D01*
X84015Y266262D01*
X82250Y266613D01*
D02*
G37*
G36*
X92750Y283613D02*
X90985Y283262D01*
X89488Y282262D01*
X88489Y280765D01*
X88137Y279000D01*
X88489Y277235D01*
X89488Y275738D01*
X89528Y275712D01*
X89726Y274524D01*
X89726D01*
Y255476D01*
X94020D01*
X94386Y254526D01*
X94451Y254206D01*
X93489Y252765D01*
X93137Y251000D01*
X93489Y249235D01*
X94488Y247738D01*
X95985Y246738D01*
X97750Y246387D01*
X99515Y246738D01*
X101012Y247738D01*
X102011Y249235D01*
X102363Y251000D01*
X102011Y252765D01*
X101367Y253730D01*
X101500Y253990D01*
Y265000D01*
Y275000D01*
X99250D01*
Y274524D01*
X96480D01*
X96114Y275474D01*
X96049Y275794D01*
X97011Y277235D01*
X97363Y279000D01*
X97011Y280765D01*
X96012Y282262D01*
X94515Y283262D01*
X92750Y283613D01*
D02*
G37*
G36*
X131500Y239000D02*
X129250D01*
Y238524D01*
X106250D01*
Y239000D01*
X104000D01*
Y229000D01*
Y219000D01*
X106250D01*
Y219476D01*
X129250D01*
Y219000D01*
X131500D01*
Y229000D01*
Y239000D01*
D02*
G37*
G36*
X223250Y266613D02*
X221485Y266262D01*
X219989Y265262D01*
X218989Y263765D01*
X218638Y262000D01*
X218989Y260235D01*
X219989Y258738D01*
X221485Y257738D01*
X223250Y257387D01*
X223456Y257428D01*
X224726Y256386D01*
Y236476D01*
X235774D01*
Y257524D01*
X226980D01*
X226614Y258474D01*
X226549Y258794D01*
X227512Y260235D01*
X227863Y262000D01*
X227512Y263765D01*
X226512Y265262D01*
X225015Y266262D01*
X223250Y266613D01*
D02*
G37*
G36*
X101500Y239000D02*
X99250D01*
Y238524D01*
X89726D01*
Y219607D01*
X87985Y219261D01*
X86488Y218261D01*
X85488Y216765D01*
X85137Y215000D01*
X85488Y213234D01*
X86488Y211738D01*
X87985Y210738D01*
X89750Y210387D01*
X91515Y210738D01*
X93011Y211738D01*
X93115Y211893D01*
X94204D01*
X94523Y211715D01*
X95985Y210739D01*
X97750Y210387D01*
X99515Y210739D01*
X101012Y211738D01*
X102011Y213235D01*
X102363Y215000D01*
X102011Y216765D01*
X101367Y217730D01*
X101500Y217990D01*
Y229000D01*
Y239000D01*
D02*
G37*
G36*
X107500Y93363D02*
X105735Y93012D01*
X104238Y92012D01*
X103238Y90515D01*
X102887Y88750D01*
X103238Y86985D01*
X104238Y85488D01*
X104927Y85029D01*
Y51221D01*
X104238Y50762D01*
X103238Y49265D01*
X102887Y47500D01*
X103238Y45735D01*
X104238Y44238D01*
X105735Y43239D01*
X107500Y42887D01*
X109265Y43239D01*
X110762Y44238D01*
X111762Y45735D01*
X111853Y46193D01*
X113147D01*
X113238Y45735D01*
X114238Y44238D01*
X115735Y43239D01*
X117500Y42887D01*
X119265Y43239D01*
X120762Y44238D01*
X121762Y45735D01*
X122113Y47500D01*
X121762Y49265D01*
X120762Y50762D01*
X120073Y51221D01*
Y77629D01*
X120762Y78089D01*
X121762Y79585D01*
X122113Y81351D01*
X121762Y83116D01*
X120762Y84612D01*
X119265Y85612D01*
X117500Y85963D01*
X115735Y85612D01*
X114238Y84612D01*
X113238Y83116D01*
X112887Y81351D01*
X113238Y79585D01*
X114238Y78089D01*
X114927Y77629D01*
Y51221D01*
X114238Y50762D01*
X113238Y49265D01*
X113147Y48807D01*
X111853D01*
X111762Y49265D01*
X110762Y50762D01*
X110073Y51221D01*
Y85029D01*
X110762Y85488D01*
X111762Y86985D01*
X112113Y88750D01*
X111762Y90515D01*
X110762Y92012D01*
X109265Y93012D01*
X107500Y93363D01*
D02*
G37*
%LPD*%
D22*
X156750Y215000D02*
X159750D01*
X117500Y47500D02*
Y81351D01*
X107500Y47500D02*
Y88750D01*
X167750Y229000D02*
Y243000D01*
X175750Y242000D02*
Y246999D01*
X180749Y241999D02*
X183750D01*
X172750Y229000D02*
Y239000D01*
X169749Y217000D02*
X171750Y215000D01*
X206250Y215000D02*
Y217500D01*
X142750Y265000D02*
Y279000D01*
X162750Y250000D02*
Y265000D01*
X177750Y239000D02*
X180749Y241999D01*
X177750Y229000D02*
Y239000D01*
X159750Y214000D02*
Y215000D01*
X147750Y215000D02*
Y229000D01*
X142750Y244000D02*
X142750Y244000D01*
X164561Y217000D02*
X169749D01*
X162750Y218811D02*
X164561Y217000D01*
X162750Y218811D02*
Y229000D01*
X147750Y251000D02*
Y265000D01*
X164750Y278000D02*
Y278999D01*
Y278000D02*
X167750Y275000D01*
X150750Y278999D02*
X152750Y276999D01*
Y265000D02*
Y276999D01*
X212750Y219500D02*
Y229000D01*
Y219500D02*
X214750Y217500D01*
Y215000D02*
Y217500D01*
X207750Y219000D02*
Y229000D01*
X206250Y217500D02*
X207750Y219000D01*
X199750Y247000D02*
X214750D01*
X197750Y245000D02*
X199750Y247000D01*
X197750Y229000D02*
Y245000D01*
X199750Y251000D02*
X214750D01*
X197750Y253000D02*
X199750Y251000D01*
X197750Y253000D02*
Y265000D01*
X92750Y218000D02*
Y229000D01*
X89750Y215000D02*
X92750Y218000D01*
X187750Y265000D02*
Y277000D01*
X189750Y279000D01*
X177750Y276188D02*
X180562Y279000D01*
X180563Y278999D02*
X180750D01*
X180562Y279000D02*
X180563Y278999D01*
X177750Y265000D02*
X177750Y265000D01*
X177750Y265000D02*
Y276188D01*
X172750Y265000D02*
X172750Y265000D01*
X172750Y265000D02*
Y279000D01*
X167750Y265000D02*
Y275000D01*
X172750Y239000D02*
X175750Y242000D01*
X172750Y229000D02*
X173274Y229524D01*
X167750Y229000D02*
X167750Y229000D01*
X162750Y265000D02*
X162750Y265000D01*
X152750Y219000D02*
Y229000D01*
Y219000D02*
X156750Y215000D01*
X147750Y229000D02*
X147750Y229000D01*
X147750Y265000D02*
X147750Y265000D01*
X142750Y229000D02*
Y244000D01*
X142750Y265000D02*
X142750Y265000D01*
X97750Y265000D02*
X97750Y265000D01*
X97750Y251000D02*
Y265000D01*
X92750Y265000D02*
Y279000D01*
X92750Y279000D02*
X92750Y279000D01*
X97750Y215000D02*
Y229000D01*
X97750Y215000D02*
X97750Y215000D01*
X456750Y215000D02*
X459750D01*
X417500Y47500D02*
Y81351D01*
X407500Y47500D02*
Y88750D01*
X467750Y229000D02*
Y243000D01*
X475750Y242000D02*
Y246999D01*
X480750Y241999D02*
X483750D01*
X472750Y229000D02*
Y239000D01*
X469749Y217000D02*
X471750Y215000D01*
X506250Y215000D02*
Y217500D01*
X442750Y265000D02*
Y279000D01*
X462750Y250000D02*
Y265000D01*
X477750Y239000D02*
X480750Y241999D01*
X477750Y229000D02*
Y239000D01*
X459750Y214000D02*
Y215000D01*
X447750Y215000D02*
Y229000D01*
X442750Y244000D02*
X442750Y244000D01*
X464561Y217000D02*
X469749D01*
X462750Y218811D02*
X464561Y217000D01*
X462750Y218811D02*
Y229000D01*
X447750Y251000D02*
Y265000D01*
X464750Y278000D02*
Y278999D01*
Y278000D02*
X467750Y275000D01*
X450750Y278999D02*
X452750Y276999D01*
Y265000D02*
Y276999D01*
X512750Y219500D02*
Y229000D01*
Y219500D02*
X514750Y217500D01*
Y215000D02*
Y217500D01*
X507750Y219000D02*
Y229000D01*
X506250Y217500D02*
X507750Y219000D01*
X499750Y247000D02*
X514750D01*
X497750Y245000D02*
X499750Y247000D01*
X497750Y229000D02*
Y245000D01*
X499750Y251000D02*
X514750D01*
X497750Y253000D02*
X499750Y251000D01*
X497750Y253000D02*
Y265000D01*
X392750Y218000D02*
Y229000D01*
X389750Y215000D02*
X392750Y218000D01*
X487750Y265000D02*
Y277000D01*
X489750Y279000D01*
X477750Y276188D02*
X480562Y279000D01*
X480563Y278999D02*
X480750D01*
X480562Y279000D02*
X480563Y278999D01*
X477750Y265000D02*
X477750Y265000D01*
X477750Y265000D02*
Y276188D01*
X472750Y265000D02*
X472750Y265000D01*
X472750Y265000D02*
Y279000D01*
X467750Y265000D02*
Y275000D01*
X472750Y239000D02*
X475750Y242000D01*
X472750Y229000D02*
X473274Y229524D01*
X467750Y229000D02*
X467750Y229000D01*
X462750Y265000D02*
X462750Y265000D01*
X452750Y219000D02*
Y229000D01*
Y219000D02*
X456750Y215000D01*
X447750Y229000D02*
X447750Y229000D01*
X447750Y265000D02*
X447750Y265000D01*
X442750Y229000D02*
Y244000D01*
X442750Y265000D02*
X442750Y265000D01*
X397750Y265000D02*
X397750Y265000D01*
X397750Y251000D02*
Y265000D01*
X392750Y265000D02*
Y279000D01*
X392750Y279000D02*
X392750Y279000D01*
X397750Y215000D02*
Y229000D01*
X397750Y215000D02*
X397750Y215000D01*
X756750Y215000D02*
X759750D01*
X717500Y47500D02*
Y81351D01*
X707500Y47500D02*
Y88750D01*
X767750Y229000D02*
Y243000D01*
X775750Y242000D02*
Y246999D01*
X780750Y241999D02*
X783750D01*
X772750Y229000D02*
Y239000D01*
X769749Y217000D02*
X771750Y215000D01*
X806250Y215000D02*
Y217500D01*
X742750Y265000D02*
Y279000D01*
X762750Y250000D02*
Y265000D01*
X777750Y239000D02*
X780750Y241999D01*
X777750Y229000D02*
Y239000D01*
X759750Y214000D02*
Y215000D01*
X747750Y215000D02*
Y229000D01*
X742750Y244000D02*
X742750Y244000D01*
X764561Y217000D02*
X769749D01*
X762750Y218811D02*
X764561Y217000D01*
X762750Y218811D02*
Y229000D01*
X747750Y251000D02*
Y265000D01*
X764750Y278000D02*
Y278999D01*
Y278000D02*
X767750Y275000D01*
X750750Y278999D02*
X752750Y276999D01*
Y265000D02*
Y276999D01*
X812750Y219500D02*
Y229000D01*
Y219500D02*
X814750Y217500D01*
Y215000D02*
Y217500D01*
X807750Y219000D02*
Y229000D01*
X806250Y217500D02*
X807750Y219000D01*
X799750Y247000D02*
X814750D01*
X797750Y245000D02*
X799750Y247000D01*
X797750Y229000D02*
Y245000D01*
X799750Y251000D02*
X814750D01*
X797750Y253000D02*
X799750Y251000D01*
X797750Y253000D02*
Y265000D01*
X692750Y218000D02*
Y229000D01*
X689750Y215000D02*
X692750Y218000D01*
X787750Y265000D02*
Y277000D01*
X789750Y279000D01*
X777750Y276188D02*
X780562Y279000D01*
X780563Y278999D02*
X780750D01*
X780562Y279000D02*
X780563Y278999D01*
X777750Y265000D02*
X777750Y265000D01*
X777750Y265000D02*
Y276188D01*
X772750Y265000D02*
X772750Y265000D01*
X772750Y265000D02*
Y279000D01*
X767750Y265000D02*
Y275000D01*
X772750Y239000D02*
X775750Y242000D01*
X772750Y229000D02*
X773274Y229524D01*
X767750Y229000D02*
X767750Y229000D01*
X762750Y265000D02*
X762750Y265000D01*
X752750Y219000D02*
Y229000D01*
Y219000D02*
X756750Y215000D01*
X747750Y229000D02*
X747750Y229000D01*
X747750Y265000D02*
X747750Y265000D01*
X742750Y229000D02*
Y244000D01*
X742750Y265000D02*
X742750Y265000D01*
X697750Y265000D02*
X697750Y265000D01*
X697750Y251000D02*
Y265000D01*
X692750Y265000D02*
Y279000D01*
X692750Y279000D02*
X692750Y279000D01*
X697750Y215000D02*
Y229000D01*
X697750Y215000D02*
X697750Y215000D01*
X156750Y515000D02*
X159750D01*
X117500Y347500D02*
Y381351D01*
X107500Y347500D02*
Y388750D01*
X167750Y529000D02*
Y543000D01*
X175750Y542000D02*
Y546999D01*
X180749Y541999D02*
X183750D01*
X172750Y529000D02*
Y539000D01*
X169749Y517000D02*
X171750Y515000D01*
X206250Y515000D02*
Y517500D01*
X142750Y565000D02*
Y579000D01*
X162750Y550000D02*
Y565000D01*
X177750Y539000D02*
X180749Y541999D01*
X177750Y529000D02*
Y539000D01*
X159750Y513999D02*
Y515000D01*
X147750Y515000D02*
Y529000D01*
X142750Y544000D02*
X142750Y544000D01*
X164561Y517000D02*
X169749D01*
X162750Y518811D02*
X164561Y517000D01*
X162750Y518811D02*
Y529000D01*
X147750Y551000D02*
Y565000D01*
X164750Y578000D02*
Y578999D01*
Y578000D02*
X167750Y575000D01*
X150750Y578999D02*
X152750Y576999D01*
Y565000D02*
Y576999D01*
X212750Y519500D02*
Y529000D01*
Y519500D02*
X214750Y517500D01*
Y515000D02*
Y517500D01*
X207750Y519000D02*
Y529000D01*
X206250Y517500D02*
X207750Y519000D01*
X199750Y547000D02*
X214750D01*
X197750Y545000D02*
X199750Y547000D01*
X197750Y529000D02*
Y545000D01*
X199750Y551000D02*
X214750D01*
X197750Y553000D02*
X199750Y551000D01*
X197750Y553000D02*
Y565000D01*
X92750Y518000D02*
Y529000D01*
X89750Y515000D02*
X92750Y518000D01*
X187750Y565000D02*
Y577000D01*
X189750Y579000D01*
X177750Y576188D02*
X180562Y579000D01*
X180563Y578999D02*
X180750D01*
X180562Y579000D02*
X180563Y578999D01*
X177750Y565000D02*
X177750Y565000D01*
X177750Y565000D02*
Y576188D01*
X172750Y565000D02*
X172750Y565000D01*
X172750Y565000D02*
Y579000D01*
X167750Y565000D02*
Y575000D01*
X172750Y539000D02*
X175750Y542000D01*
X172750Y529000D02*
X173274Y529524D01*
X167750Y529000D02*
X167750Y529000D01*
X162750Y565000D02*
X162750Y565000D01*
X152750Y519000D02*
Y529000D01*
Y519000D02*
X156750Y515000D01*
X147750Y529000D02*
X147750Y529000D01*
X147750Y565000D02*
X147750Y565000D01*
X142750Y529000D02*
Y544000D01*
X142750Y565000D02*
X142750Y565000D01*
X97750Y565000D02*
X97750Y565000D01*
X97750Y551000D02*
Y565000D01*
X92750Y565000D02*
Y579000D01*
X92750Y579000D02*
X92750Y579000D01*
X97750Y515000D02*
Y529000D01*
X97750Y515000D02*
X97750Y515000D01*
X456750Y515000D02*
X459750D01*
X417500Y347500D02*
Y381351D01*
X407500Y347500D02*
Y388750D01*
X467750Y529000D02*
Y543000D01*
X475750Y542000D02*
Y546999D01*
X480750Y541999D02*
X483750D01*
X472750Y529000D02*
Y539000D01*
X469749Y517000D02*
X471750Y515000D01*
X506250Y515000D02*
Y517500D01*
X442750Y565000D02*
Y579000D01*
X462750Y550000D02*
Y565000D01*
X477750Y539000D02*
X480750Y541999D01*
X477750Y529000D02*
Y539000D01*
X459750Y513999D02*
Y515000D01*
X447750Y515000D02*
Y529000D01*
X442750Y544000D02*
X442750Y544000D01*
X464561Y517000D02*
X469749D01*
X462750Y518811D02*
X464561Y517000D01*
X462750Y518811D02*
Y529000D01*
X447750Y551000D02*
Y565000D01*
X464750Y578000D02*
Y578999D01*
Y578000D02*
X467750Y575000D01*
X450750Y578999D02*
X452750Y576999D01*
Y565000D02*
Y576999D01*
X512750Y519500D02*
Y529000D01*
Y519500D02*
X514750Y517500D01*
Y515000D02*
Y517500D01*
X507750Y519000D02*
Y529000D01*
X506250Y517500D02*
X507750Y519000D01*
X499750Y547000D02*
X514750D01*
X497750Y545000D02*
X499750Y547000D01*
X497750Y529000D02*
Y545000D01*
X499750Y551000D02*
X514750D01*
X497750Y553000D02*
X499750Y551000D01*
X497750Y553000D02*
Y565000D01*
X392750Y518000D02*
Y529000D01*
X389750Y515000D02*
X392750Y518000D01*
X487750Y565000D02*
Y577000D01*
X489750Y579000D01*
X477750Y576188D02*
X480562Y579000D01*
X480563Y578999D02*
X480750D01*
X480562Y579000D02*
X480563Y578999D01*
X477750Y565000D02*
X477750Y565000D01*
X477750Y565000D02*
Y576188D01*
X472750Y565000D02*
X472750Y565000D01*
X472750Y565000D02*
Y579000D01*
X467750Y565000D02*
Y575000D01*
X472750Y539000D02*
X475750Y542000D01*
X472750Y529000D02*
X473274Y529524D01*
X467750Y529000D02*
X467750Y529000D01*
X462750Y565000D02*
X462750Y565000D01*
X452750Y519000D02*
Y529000D01*
Y519000D02*
X456750Y515000D01*
X447750Y529000D02*
X447750Y529000D01*
X447750Y565000D02*
X447750Y565000D01*
X442750Y529000D02*
Y544000D01*
X442750Y565000D02*
X442750Y565000D01*
X397750Y565000D02*
X397750Y565000D01*
X397750Y551000D02*
Y565000D01*
X392750Y565000D02*
Y579000D01*
X392750Y579000D02*
X392750Y579000D01*
X397750Y515000D02*
Y529000D01*
X397750Y515000D02*
X397750Y515000D01*
X756750Y515000D02*
X759750D01*
X717500Y347500D02*
Y381351D01*
X707500Y347500D02*
Y388750D01*
X767750Y529000D02*
Y543000D01*
X775750Y542000D02*
Y546999D01*
X780750Y541999D02*
X783750D01*
X772750Y529000D02*
Y539000D01*
X769749Y517000D02*
X771750Y515000D01*
X806250Y515000D02*
Y517500D01*
X742750Y565000D02*
Y579000D01*
X762750Y550000D02*
Y565000D01*
X777750Y539000D02*
X780750Y541999D01*
X777750Y529000D02*
Y539000D01*
X759750Y513999D02*
Y515000D01*
X747750Y515000D02*
Y529000D01*
X742750Y544000D02*
X742750Y544000D01*
X764561Y517000D02*
X769749D01*
X762750Y518811D02*
X764561Y517000D01*
X762750Y518811D02*
Y529000D01*
X747750Y551000D02*
Y565000D01*
X764750Y578000D02*
Y578999D01*
Y578000D02*
X767750Y575000D01*
X750750Y578999D02*
X752750Y576999D01*
Y565000D02*
Y576999D01*
X812750Y519500D02*
Y529000D01*
Y519500D02*
X814750Y517500D01*
Y515000D02*
Y517500D01*
X807750Y519000D02*
Y529000D01*
X806250Y517500D02*
X807750Y519000D01*
X799750Y547000D02*
X814750D01*
X797750Y545000D02*
X799750Y547000D01*
X797750Y529000D02*
Y545000D01*
X799750Y551000D02*
X814750D01*
X797750Y553000D02*
X799750Y551000D01*
X797750Y553000D02*
Y565000D01*
X692750Y518000D02*
Y529000D01*
X689750Y515000D02*
X692750Y518000D01*
X787750Y565000D02*
Y577000D01*
X789750Y579000D01*
X777750Y576188D02*
X780562Y579000D01*
X780563Y578999D02*
X780750D01*
X780562Y579000D02*
X780563Y578999D01*
X777750Y565000D02*
X777750Y565000D01*
X777750Y565000D02*
Y576188D01*
X772750Y565000D02*
X772750Y565000D01*
X772750Y565000D02*
Y579000D01*
X767750Y565000D02*
Y575000D01*
X772750Y539000D02*
X775750Y542000D01*
X772750Y529000D02*
X773274Y529524D01*
X767750Y529000D02*
X767750Y529000D01*
X762750Y565000D02*
X762750Y565000D01*
X752750Y519000D02*
Y529000D01*
Y519000D02*
X756750Y515000D01*
X747750Y529000D02*
X747750Y529000D01*
X747750Y565000D02*
X747750Y565000D01*
X742750Y529000D02*
Y544000D01*
X742750Y565000D02*
X742750Y565000D01*
X697750Y565000D02*
X697750Y565000D01*
X697750Y551000D02*
Y565000D01*
X692750Y565000D02*
Y579000D01*
X692750Y579000D02*
X692750Y579000D01*
X697750Y515000D02*
Y529000D01*
X697750Y515000D02*
X697750Y515000D01*
X156750Y815000D02*
X159750D01*
X117500Y647500D02*
Y681351D01*
X107500Y647500D02*
Y688750D01*
X167750Y829000D02*
Y843000D01*
X175750Y842000D02*
Y846999D01*
X180749Y842000D02*
X183750D01*
X172750Y829000D02*
Y839000D01*
X169749Y817000D02*
X171750Y814999D01*
X206250Y815000D02*
Y817500D01*
X142750Y865000D02*
Y879000D01*
X162750Y850000D02*
Y865000D01*
X177750Y839000D02*
X180749Y842000D01*
X177750Y829000D02*
Y839000D01*
X159750Y813999D02*
Y815000D01*
X147750Y815000D02*
Y829000D01*
X142750Y844000D02*
X142750Y844000D01*
X164561Y817000D02*
X169749D01*
X162750Y818811D02*
X164561Y817000D01*
X162750Y818811D02*
Y829000D01*
X147750Y851000D02*
Y865000D01*
X164750Y878000D02*
Y878999D01*
Y878000D02*
X167750Y875000D01*
X150750Y878999D02*
X152750Y876999D01*
Y865000D02*
Y876999D01*
X212750Y819500D02*
Y829000D01*
Y819500D02*
X214750Y817500D01*
Y815000D02*
Y817500D01*
X207750Y819000D02*
Y829000D01*
X206250Y817500D02*
X207750Y819000D01*
X199750Y847000D02*
X214750D01*
X197750Y845000D02*
X199750Y847000D01*
X197750Y829000D02*
Y845000D01*
X199750Y851000D02*
X214750D01*
X197750Y853000D02*
X199750Y851000D01*
X197750Y853000D02*
Y865000D01*
X92750Y818000D02*
Y829000D01*
X89750Y814999D02*
X92750Y818000D01*
X187750Y865000D02*
Y877000D01*
X189750Y879000D01*
X177750Y876188D02*
X180562Y879000D01*
X180563Y878999D02*
X180750D01*
X180562Y879000D02*
X180563Y878999D01*
X177750Y865000D02*
X177750Y865000D01*
X177750Y865000D02*
Y876188D01*
X172750Y865000D02*
X172750Y865000D01*
X172750Y865000D02*
Y879000D01*
X167750Y865000D02*
Y875000D01*
X172750Y839000D02*
X175750Y842000D01*
X172750Y829000D02*
X173274Y829524D01*
X167750Y829000D02*
X167750Y829000D01*
X162750Y865000D02*
X162750Y865000D01*
X152750Y819000D02*
Y829000D01*
Y819000D02*
X156750Y815000D01*
X147750Y829000D02*
X147750Y829000D01*
X147750Y865000D02*
X147750Y865000D01*
X142750Y829000D02*
Y844000D01*
X142750Y865000D02*
X142750Y865000D01*
X97750Y865000D02*
X97750Y865000D01*
X97750Y851000D02*
Y865000D01*
X92750Y865000D02*
Y879000D01*
X92750Y879000D02*
X92750Y879000D01*
X97750Y815000D02*
Y829000D01*
X97750Y815000D02*
X97750Y815000D01*
X456750Y815000D02*
X459750D01*
X417500Y647500D02*
Y681351D01*
X407500Y647500D02*
Y688750D01*
X467750Y829000D02*
Y843000D01*
X475750Y842000D02*
Y846999D01*
X480750Y842000D02*
X483750D01*
X472750Y829000D02*
Y839000D01*
X469749Y817000D02*
X471750Y814999D01*
X506250Y815000D02*
Y817500D01*
X442750Y865000D02*
Y879000D01*
X462750Y850000D02*
Y865000D01*
X477750Y839000D02*
X480750Y842000D01*
X477750Y829000D02*
Y839000D01*
X459750Y813999D02*
Y815000D01*
X447750Y815000D02*
Y829000D01*
X442750Y844000D02*
X442750Y844000D01*
X464561Y817000D02*
X469749D01*
X462750Y818811D02*
X464561Y817000D01*
X462750Y818811D02*
Y829000D01*
X447750Y851000D02*
Y865000D01*
X464750Y878000D02*
Y878999D01*
Y878000D02*
X467750Y875000D01*
X450750Y878999D02*
X452750Y876999D01*
Y865000D02*
Y876999D01*
X512750Y819500D02*
Y829000D01*
Y819500D02*
X514750Y817500D01*
Y815000D02*
Y817500D01*
X507750Y819000D02*
Y829000D01*
X506250Y817500D02*
X507750Y819000D01*
X499750Y847000D02*
X514750D01*
X497750Y845000D02*
X499750Y847000D01*
X497750Y829000D02*
Y845000D01*
X499750Y851000D02*
X514750D01*
X497750Y853000D02*
X499750Y851000D01*
X497750Y853000D02*
Y865000D01*
X392750Y818000D02*
Y829000D01*
X389750Y814999D02*
X392750Y818000D01*
X487750Y865000D02*
Y877000D01*
X489750Y879000D01*
X477750Y876188D02*
X480562Y879000D01*
X480563Y878999D02*
X480750D01*
X480562Y879000D02*
X480563Y878999D01*
X477750Y865000D02*
X477750Y865000D01*
X477750Y865000D02*
Y876188D01*
X472750Y865000D02*
X472750Y865000D01*
X472750Y865000D02*
Y879000D01*
X467750Y865000D02*
Y875000D01*
X472750Y839000D02*
X475750Y842000D01*
X472750Y829000D02*
X473274Y829524D01*
X467750Y829000D02*
X467750Y829000D01*
X462750Y865000D02*
X462750Y865000D01*
X452750Y819000D02*
Y829000D01*
Y819000D02*
X456750Y815000D01*
X447750Y829000D02*
X447750Y829000D01*
X447750Y865000D02*
X447750Y865000D01*
X442750Y829000D02*
Y844000D01*
X442750Y865000D02*
X442750Y865000D01*
X397750Y865000D02*
X397750Y865000D01*
X397750Y851000D02*
Y865000D01*
X392750Y865000D02*
Y879000D01*
X392750Y879000D02*
X392750Y879000D01*
X397750Y815000D02*
Y829000D01*
X397750Y815000D02*
X397750Y815000D01*
X756750Y815000D02*
X759750D01*
X717500Y647500D02*
Y681351D01*
X707500Y647500D02*
Y688750D01*
X767750Y829000D02*
Y843000D01*
X775750Y842000D02*
Y846999D01*
X780750Y842000D02*
X783750D01*
X772750Y829000D02*
Y839000D01*
X769749Y817000D02*
X771750Y814999D01*
X806250Y815000D02*
Y817500D01*
X742750Y865000D02*
Y879000D01*
X762750Y850000D02*
Y865000D01*
X777750Y839000D02*
X780750Y842000D01*
X777750Y829000D02*
Y839000D01*
X759750Y813999D02*
Y815000D01*
X747750Y815000D02*
Y829000D01*
X742750Y844000D02*
X742750Y844000D01*
X764561Y817000D02*
X769749D01*
X762750Y818811D02*
X764561Y817000D01*
X762750Y818811D02*
Y829000D01*
X747750Y851000D02*
Y865000D01*
X764750Y878000D02*
Y878999D01*
Y878000D02*
X767750Y875000D01*
X750750Y878999D02*
X752750Y876999D01*
Y865000D02*
Y876999D01*
X812750Y819500D02*
Y829000D01*
Y819500D02*
X814750Y817500D01*
Y815000D02*
Y817500D01*
X807750Y819000D02*
Y829000D01*
X806250Y817500D02*
X807750Y819000D01*
X799750Y847000D02*
X814750D01*
X797750Y845000D02*
X799750Y847000D01*
X797750Y829000D02*
Y845000D01*
X799750Y851000D02*
X814750D01*
X797750Y853000D02*
X799750Y851000D01*
X797750Y853000D02*
Y865000D01*
X692750Y818000D02*
Y829000D01*
X689750Y814999D02*
X692750Y818000D01*
X787750Y865000D02*
Y877000D01*
X789750Y879000D01*
X777750Y876188D02*
X780562Y879000D01*
X780563Y878999D02*
X780750D01*
X780562Y879000D02*
X780563Y878999D01*
X777750Y865000D02*
X777750Y865000D01*
X777750Y865000D02*
Y876188D01*
X772750Y865000D02*
X772750Y865000D01*
X772750Y865000D02*
Y879000D01*
X767750Y865000D02*
Y875000D01*
X772750Y839000D02*
X775750Y842000D01*
X772750Y829000D02*
X773274Y829524D01*
X767750Y829000D02*
X767750Y829000D01*
X762750Y865000D02*
X762750Y865000D01*
X752750Y819000D02*
Y829000D01*
Y819000D02*
X756750Y815000D01*
X747750Y829000D02*
X747750Y829000D01*
X747750Y865000D02*
X747750Y865000D01*
X742750Y829000D02*
Y844000D01*
X742750Y865000D02*
X742750Y865000D01*
X697750Y865000D02*
X697750Y865000D01*
X697750Y851000D02*
Y865000D01*
X692750Y865000D02*
Y879000D01*
X692750Y879000D02*
X692750Y879000D01*
X697750Y815000D02*
Y829000D01*
X697750Y815000D02*
X697750Y815000D01*
D32*
X257750Y247000D02*
D03*
X47750D02*
D03*
X557750D02*
D03*
X347750D02*
D03*
X857750D02*
D03*
X647750D02*
D03*
X257750Y547000D02*
D03*
X47750D02*
D03*
X557750D02*
D03*
X347750D02*
D03*
X857750D02*
D03*
X647750D02*
D03*
X257750Y847000D02*
D03*
X47750D02*
D03*
X557750D02*
D03*
X347750D02*
D03*
X857750D02*
D03*
X647750D02*
D03*
D33*
X117500Y81351D02*
D03*
X107500Y47500D02*
D03*
X97750Y84000D02*
D03*
X165250Y79500D02*
D03*
X117500Y47500D02*
D03*
X107500Y88750D02*
D03*
X236250Y143750D02*
D03*
X167750Y243000D02*
D03*
X175750Y246999D02*
D03*
X183750Y241999D02*
D03*
X216750Y253000D02*
D03*
Y245000D02*
D03*
X171750Y215000D02*
D03*
X206250Y215000D02*
D03*
X142750Y279000D02*
D03*
X162750Y250000D02*
D03*
X159750Y214000D02*
D03*
X147750Y215000D02*
D03*
X142750Y244000D02*
D03*
X147750Y251000D02*
D03*
X35000Y111750D02*
D03*
X110250Y131750D02*
D03*
X117750D02*
D03*
X125500D02*
D03*
X164750Y278999D02*
D03*
X150750D02*
D03*
X214750Y215000D02*
D03*
X97750Y91000D02*
D03*
X89750Y215000D02*
D03*
X189750Y279000D02*
D03*
X180750Y278999D02*
D03*
X172750Y279000D02*
D03*
X97750Y251000D02*
D03*
X92750Y279000D02*
D03*
X97750Y215000D02*
D03*
X417500Y81351D02*
D03*
X407500Y47500D02*
D03*
X397750Y84000D02*
D03*
X465250Y79500D02*
D03*
X417500Y47500D02*
D03*
X407500Y88750D02*
D03*
X536250Y143750D02*
D03*
X467750Y243000D02*
D03*
X475750Y246999D02*
D03*
X483750Y241999D02*
D03*
X516750Y253000D02*
D03*
Y245000D02*
D03*
X471750Y215000D02*
D03*
X506250Y215000D02*
D03*
X442750Y279000D02*
D03*
X462750Y250000D02*
D03*
X459750Y214000D02*
D03*
X447750Y215000D02*
D03*
X442750Y244000D02*
D03*
X447750Y251000D02*
D03*
X335000Y111750D02*
D03*
X410250Y131750D02*
D03*
X417750D02*
D03*
X425500D02*
D03*
X464750Y278999D02*
D03*
X450750D02*
D03*
X514750Y215000D02*
D03*
X397750Y91000D02*
D03*
X389750Y215000D02*
D03*
X489750Y279000D02*
D03*
X480750Y278999D02*
D03*
X472750Y279000D02*
D03*
X397750Y251000D02*
D03*
X392750Y279000D02*
D03*
X397750Y215000D02*
D03*
X717500Y81351D02*
D03*
X707500Y47500D02*
D03*
X697750Y84000D02*
D03*
X765250Y79500D02*
D03*
X717500Y47500D02*
D03*
X707500Y88750D02*
D03*
X836250Y143750D02*
D03*
X767750Y243000D02*
D03*
X775750Y246999D02*
D03*
X783750Y241999D02*
D03*
X816750Y253000D02*
D03*
Y245000D02*
D03*
X771750Y215000D02*
D03*
X806250Y215000D02*
D03*
X742750Y279000D02*
D03*
X762750Y250000D02*
D03*
X759750Y214000D02*
D03*
X747750Y215000D02*
D03*
X742750Y244000D02*
D03*
X747750Y251000D02*
D03*
X635000Y111750D02*
D03*
X710250Y131750D02*
D03*
X717750D02*
D03*
X725500D02*
D03*
X764750Y278999D02*
D03*
X750750D02*
D03*
X814750Y215000D02*
D03*
X697750Y91000D02*
D03*
X689750Y215000D02*
D03*
X789750Y279000D02*
D03*
X780750Y278999D02*
D03*
X772750Y279000D02*
D03*
X697750Y251000D02*
D03*
X692750Y279000D02*
D03*
X697750Y215000D02*
D03*
X117500Y381351D02*
D03*
X107500Y347500D02*
D03*
X97750Y384000D02*
D03*
X165250Y379500D02*
D03*
X117500Y347500D02*
D03*
X107500Y388750D02*
D03*
X236250Y443750D02*
D03*
X167750Y543000D02*
D03*
X175750Y546999D02*
D03*
X183750Y541999D02*
D03*
X216750Y553000D02*
D03*
Y545000D02*
D03*
X171750Y515000D02*
D03*
X206250Y515000D02*
D03*
X142750Y579000D02*
D03*
X162750Y550000D02*
D03*
X159750Y513999D02*
D03*
X147750Y515000D02*
D03*
X142750Y544000D02*
D03*
X147750Y551000D02*
D03*
X35000Y411750D02*
D03*
X110250Y431750D02*
D03*
X117750D02*
D03*
X125500D02*
D03*
X164750Y578999D02*
D03*
X150750D02*
D03*
X214750Y515000D02*
D03*
X97750Y391000D02*
D03*
X89750Y515000D02*
D03*
X189750Y579000D02*
D03*
X180750Y578999D02*
D03*
X172750Y579000D02*
D03*
X97750Y551000D02*
D03*
X92750Y579000D02*
D03*
X97750Y515000D02*
D03*
X417500Y381351D02*
D03*
X407500Y347500D02*
D03*
X397750Y384000D02*
D03*
X465250Y379500D02*
D03*
X417500Y347500D02*
D03*
X407500Y388750D02*
D03*
X536250Y443750D02*
D03*
X467750Y543000D02*
D03*
X475750Y546999D02*
D03*
X483750Y541999D02*
D03*
X516750Y553000D02*
D03*
Y545000D02*
D03*
X471750Y515000D02*
D03*
X506250Y515000D02*
D03*
X442750Y579000D02*
D03*
X462750Y550000D02*
D03*
X459750Y513999D02*
D03*
X447750Y515000D02*
D03*
X442750Y544000D02*
D03*
X447750Y551000D02*
D03*
X335000Y411750D02*
D03*
X410250Y431750D02*
D03*
X417750D02*
D03*
X425500D02*
D03*
X464750Y578999D02*
D03*
X450750D02*
D03*
X514750Y515000D02*
D03*
X397750Y391000D02*
D03*
X389750Y515000D02*
D03*
X489750Y579000D02*
D03*
X480750Y578999D02*
D03*
X472750Y579000D02*
D03*
X397750Y551000D02*
D03*
X392750Y579000D02*
D03*
X397750Y515000D02*
D03*
X717500Y381351D02*
D03*
X707500Y347500D02*
D03*
X697750Y384000D02*
D03*
X765250Y379500D02*
D03*
X717500Y347500D02*
D03*
X707500Y388750D02*
D03*
X836250Y443750D02*
D03*
X767750Y543000D02*
D03*
X775750Y546999D02*
D03*
X783750Y541999D02*
D03*
X816750Y553000D02*
D03*
Y545000D02*
D03*
X771750Y515000D02*
D03*
X806250Y515000D02*
D03*
X742750Y579000D02*
D03*
X762750Y550000D02*
D03*
X759750Y513999D02*
D03*
X747750Y515000D02*
D03*
X742750Y544000D02*
D03*
X747750Y551000D02*
D03*
X635000Y411750D02*
D03*
X710250Y431750D02*
D03*
X717750D02*
D03*
X725500D02*
D03*
X764750Y578999D02*
D03*
X750750D02*
D03*
X814750Y515000D02*
D03*
X697750Y391000D02*
D03*
X689750Y515000D02*
D03*
X789750Y579000D02*
D03*
X780750Y578999D02*
D03*
X772750Y579000D02*
D03*
X697750Y551000D02*
D03*
X692750Y579000D02*
D03*
X697750Y515000D02*
D03*
X117500Y681351D02*
D03*
X107500Y647500D02*
D03*
X97750Y684000D02*
D03*
X165250Y679500D02*
D03*
X117500Y647500D02*
D03*
X107500Y688750D02*
D03*
X236250Y743750D02*
D03*
X167750Y843000D02*
D03*
X175750Y846999D02*
D03*
X183750Y842000D02*
D03*
X216750Y853000D02*
D03*
Y845000D02*
D03*
X171750Y814999D02*
D03*
X206250Y815000D02*
D03*
X142750Y879000D02*
D03*
X162750Y850000D02*
D03*
X159750Y813999D02*
D03*
X147750Y815000D02*
D03*
X142750Y844000D02*
D03*
X147750Y851000D02*
D03*
X35000Y711750D02*
D03*
X110250Y731750D02*
D03*
X117750D02*
D03*
X125500D02*
D03*
X164750Y878999D02*
D03*
X150750D02*
D03*
X214750Y815000D02*
D03*
X97750Y691000D02*
D03*
X89750Y814999D02*
D03*
X189750Y879000D02*
D03*
X180750Y878999D02*
D03*
X172750Y879000D02*
D03*
X97750Y851000D02*
D03*
X92750Y879000D02*
D03*
X97750Y815000D02*
D03*
X417500Y681351D02*
D03*
X407500Y647500D02*
D03*
X397750Y684000D02*
D03*
X465250Y679500D02*
D03*
X417500Y647500D02*
D03*
X407500Y688750D02*
D03*
X536250Y743750D02*
D03*
X467750Y843000D02*
D03*
X475750Y846999D02*
D03*
X483750Y842000D02*
D03*
X516750Y853000D02*
D03*
Y845000D02*
D03*
X471750Y814999D02*
D03*
X506250Y815000D02*
D03*
X442750Y879000D02*
D03*
X462750Y850000D02*
D03*
X459750Y813999D02*
D03*
X447750Y815000D02*
D03*
X442750Y844000D02*
D03*
X447750Y851000D02*
D03*
X335000Y711750D02*
D03*
X410250Y731750D02*
D03*
X417750D02*
D03*
X425500D02*
D03*
X464750Y878999D02*
D03*
X450750D02*
D03*
X514750Y815000D02*
D03*
X397750Y691000D02*
D03*
X389750Y814999D02*
D03*
X489750Y879000D02*
D03*
X480750Y878999D02*
D03*
X472750Y879000D02*
D03*
X397750Y851000D02*
D03*
X392750Y879000D02*
D03*
X397750Y815000D02*
D03*
X717500Y681351D02*
D03*
X707500Y647500D02*
D03*
X697750Y684000D02*
D03*
X765250Y679500D02*
D03*
X717500Y647500D02*
D03*
X707500Y688750D02*
D03*
X836250Y743750D02*
D03*
X767750Y843000D02*
D03*
X775750Y846999D02*
D03*
X783750Y842000D02*
D03*
X816750Y853000D02*
D03*
Y845000D02*
D03*
X771750Y814999D02*
D03*
X806250Y815000D02*
D03*
X742750Y879000D02*
D03*
X762750Y850000D02*
D03*
X759750Y813999D02*
D03*
X747750Y815000D02*
D03*
X742750Y844000D02*
D03*
X747750Y851000D02*
D03*
X635000Y711750D02*
D03*
X710250Y731750D02*
D03*
X717750D02*
D03*
X725500D02*
D03*
X764750Y878999D02*
D03*
X750750D02*
D03*
X814750Y815000D02*
D03*
X697750Y691000D02*
D03*
X689750Y814999D02*
D03*
X789750Y879000D02*
D03*
X780750Y878999D02*
D03*
X772750Y879000D02*
D03*
X697750Y851000D02*
D03*
X692750Y879000D02*
D03*
X697750Y815000D02*
D03*
D34*
X92750Y265000D02*
D03*
Y229000D02*
D03*
X97750Y265000D02*
D03*
Y229000D02*
D03*
X102750Y265000D02*
D03*
Y229000D02*
D03*
X107750Y265000D02*
D03*
Y229000D02*
D03*
X112750Y265000D02*
D03*
Y229000D02*
D03*
X117750Y265000D02*
D03*
Y229000D02*
D03*
X122750Y265000D02*
D03*
Y229000D02*
D03*
X127750Y265000D02*
D03*
Y229000D02*
D03*
X132750Y265000D02*
D03*
Y229000D02*
D03*
X137750Y265000D02*
D03*
Y229000D02*
D03*
X142750Y265000D02*
D03*
Y229000D02*
D03*
X147750Y265000D02*
D03*
Y229000D02*
D03*
X152750Y265000D02*
D03*
Y229000D02*
D03*
X157750Y265000D02*
D03*
Y229000D02*
D03*
X162750Y265000D02*
D03*
Y229000D02*
D03*
X167750Y265000D02*
D03*
Y229000D02*
D03*
X172750Y265000D02*
D03*
Y229000D02*
D03*
X177750Y265000D02*
D03*
Y229000D02*
D03*
X182750Y265000D02*
D03*
Y229000D02*
D03*
X187750Y265000D02*
D03*
Y229000D02*
D03*
X192750Y265000D02*
D03*
Y229000D02*
D03*
X197750Y265000D02*
D03*
Y229000D02*
D03*
X202750Y265000D02*
D03*
Y229000D02*
D03*
X207750Y265000D02*
D03*
Y229000D02*
D03*
X212750Y265000D02*
D03*
Y229000D02*
D03*
X392750Y265000D02*
D03*
Y229000D02*
D03*
X397750Y265000D02*
D03*
Y229000D02*
D03*
X402750Y265000D02*
D03*
Y229000D02*
D03*
X407750Y265000D02*
D03*
Y229000D02*
D03*
X412750Y265000D02*
D03*
Y229000D02*
D03*
X417750Y265000D02*
D03*
Y229000D02*
D03*
X422750Y265000D02*
D03*
Y229000D02*
D03*
X427750Y265000D02*
D03*
Y229000D02*
D03*
X432750Y265000D02*
D03*
Y229000D02*
D03*
X437750Y265000D02*
D03*
Y229000D02*
D03*
X442750Y265000D02*
D03*
Y229000D02*
D03*
X447750Y265000D02*
D03*
Y229000D02*
D03*
X452750Y265000D02*
D03*
Y229000D02*
D03*
X457750Y265000D02*
D03*
Y229000D02*
D03*
X462750Y265000D02*
D03*
Y229000D02*
D03*
X467750Y265000D02*
D03*
Y229000D02*
D03*
X472750Y265000D02*
D03*
Y229000D02*
D03*
X477750Y265000D02*
D03*
Y229000D02*
D03*
X482750Y265000D02*
D03*
Y229000D02*
D03*
X487750Y265000D02*
D03*
Y229000D02*
D03*
X492750Y265000D02*
D03*
Y229000D02*
D03*
X497750Y265000D02*
D03*
Y229000D02*
D03*
X502750Y265000D02*
D03*
Y229000D02*
D03*
X507750Y265000D02*
D03*
Y229000D02*
D03*
X512750Y265000D02*
D03*
Y229000D02*
D03*
X692750Y265000D02*
D03*
Y229000D02*
D03*
X697750Y265000D02*
D03*
Y229000D02*
D03*
X702750Y265000D02*
D03*
Y229000D02*
D03*
X707750Y265000D02*
D03*
Y229000D02*
D03*
X712750Y265000D02*
D03*
Y229000D02*
D03*
X717750Y265000D02*
D03*
Y229000D02*
D03*
X722750Y265000D02*
D03*
Y229000D02*
D03*
X727750Y265000D02*
D03*
Y229000D02*
D03*
X732750Y265000D02*
D03*
Y229000D02*
D03*
X737750Y265000D02*
D03*
Y229000D02*
D03*
X742750Y265000D02*
D03*
Y229000D02*
D03*
X747750Y265000D02*
D03*
Y229000D02*
D03*
X752750Y265000D02*
D03*
Y229000D02*
D03*
X757750Y265000D02*
D03*
Y229000D02*
D03*
X762750Y265000D02*
D03*
Y229000D02*
D03*
X767750Y265000D02*
D03*
Y229000D02*
D03*
X772750Y265000D02*
D03*
Y229000D02*
D03*
X777750Y265000D02*
D03*
Y229000D02*
D03*
X782750Y265000D02*
D03*
Y229000D02*
D03*
X787750Y265000D02*
D03*
Y229000D02*
D03*
X792750Y265000D02*
D03*
Y229000D02*
D03*
X797750Y265000D02*
D03*
Y229000D02*
D03*
X802750Y265000D02*
D03*
Y229000D02*
D03*
X807750Y265000D02*
D03*
Y229000D02*
D03*
X812750Y265000D02*
D03*
Y229000D02*
D03*
X92750Y565000D02*
D03*
Y529000D02*
D03*
X97750Y565000D02*
D03*
Y529000D02*
D03*
X102750Y565000D02*
D03*
Y529000D02*
D03*
X107750Y565000D02*
D03*
Y529000D02*
D03*
X112750Y565000D02*
D03*
Y529000D02*
D03*
X117750Y565000D02*
D03*
Y529000D02*
D03*
X122750Y565000D02*
D03*
Y529000D02*
D03*
X127750Y565000D02*
D03*
Y529000D02*
D03*
X132750Y565000D02*
D03*
Y529000D02*
D03*
X137750Y565000D02*
D03*
Y529000D02*
D03*
X142750Y565000D02*
D03*
Y529000D02*
D03*
X147750Y565000D02*
D03*
Y529000D02*
D03*
X152750Y565000D02*
D03*
Y529000D02*
D03*
X157750Y565000D02*
D03*
Y529000D02*
D03*
X162750Y565000D02*
D03*
Y529000D02*
D03*
X167750Y565000D02*
D03*
Y529000D02*
D03*
X172750Y565000D02*
D03*
Y529000D02*
D03*
X177750Y565000D02*
D03*
Y529000D02*
D03*
X182750Y565000D02*
D03*
Y529000D02*
D03*
X187750Y565000D02*
D03*
Y529000D02*
D03*
X192750Y565000D02*
D03*
Y529000D02*
D03*
X197750Y565000D02*
D03*
Y529000D02*
D03*
X202750Y565000D02*
D03*
Y529000D02*
D03*
X207750Y565000D02*
D03*
Y529000D02*
D03*
X212750Y565000D02*
D03*
Y529000D02*
D03*
X392750Y565000D02*
D03*
Y529000D02*
D03*
X397750Y565000D02*
D03*
Y529000D02*
D03*
X402750Y565000D02*
D03*
Y529000D02*
D03*
X407750Y565000D02*
D03*
Y529000D02*
D03*
X412750Y565000D02*
D03*
Y529000D02*
D03*
X417750Y565000D02*
D03*
Y529000D02*
D03*
X422750Y565000D02*
D03*
Y529000D02*
D03*
X427750Y565000D02*
D03*
Y529000D02*
D03*
X432750Y565000D02*
D03*
Y529000D02*
D03*
X437750Y565000D02*
D03*
Y529000D02*
D03*
X442750Y565000D02*
D03*
Y529000D02*
D03*
X447750Y565000D02*
D03*
Y529000D02*
D03*
X452750Y565000D02*
D03*
Y529000D02*
D03*
X457750Y565000D02*
D03*
Y529000D02*
D03*
X462750Y565000D02*
D03*
Y529000D02*
D03*
X467750Y565000D02*
D03*
Y529000D02*
D03*
X472750Y565000D02*
D03*
Y529000D02*
D03*
X477750Y565000D02*
D03*
Y529000D02*
D03*
X482750Y565000D02*
D03*
Y529000D02*
D03*
X487750Y565000D02*
D03*
Y529000D02*
D03*
X492750Y565000D02*
D03*
Y529000D02*
D03*
X497750Y565000D02*
D03*
Y529000D02*
D03*
X502750Y565000D02*
D03*
Y529000D02*
D03*
X507750Y565000D02*
D03*
Y529000D02*
D03*
X512750Y565000D02*
D03*
Y529000D02*
D03*
X692750Y565000D02*
D03*
Y529000D02*
D03*
X697750Y565000D02*
D03*
Y529000D02*
D03*
X702750Y565000D02*
D03*
Y529000D02*
D03*
X707750Y565000D02*
D03*
Y529000D02*
D03*
X712750Y565000D02*
D03*
Y529000D02*
D03*
X717750Y565000D02*
D03*
Y529000D02*
D03*
X722750Y565000D02*
D03*
Y529000D02*
D03*
X727750Y565000D02*
D03*
Y529000D02*
D03*
X732750Y565000D02*
D03*
Y529000D02*
D03*
X737750Y565000D02*
D03*
Y529000D02*
D03*
X742750Y565000D02*
D03*
Y529000D02*
D03*
X747750Y565000D02*
D03*
Y529000D02*
D03*
X752750Y565000D02*
D03*
Y529000D02*
D03*
X757750Y565000D02*
D03*
Y529000D02*
D03*
X762750Y565000D02*
D03*
Y529000D02*
D03*
X767750Y565000D02*
D03*
Y529000D02*
D03*
X772750Y565000D02*
D03*
Y529000D02*
D03*
X777750Y565000D02*
D03*
Y529000D02*
D03*
X782750Y565000D02*
D03*
Y529000D02*
D03*
X787750Y565000D02*
D03*
Y529000D02*
D03*
X792750Y565000D02*
D03*
Y529000D02*
D03*
X797750Y565000D02*
D03*
Y529000D02*
D03*
X802750Y565000D02*
D03*
Y529000D02*
D03*
X807750Y565000D02*
D03*
Y529000D02*
D03*
X812750Y565000D02*
D03*
Y529000D02*
D03*
X92750Y865000D02*
D03*
Y829000D02*
D03*
X97750Y865000D02*
D03*
Y829000D02*
D03*
X102750Y865000D02*
D03*
Y829000D02*
D03*
X107750Y865000D02*
D03*
Y829000D02*
D03*
X112750Y865000D02*
D03*
Y829000D02*
D03*
X117750Y865000D02*
D03*
Y829000D02*
D03*
X122750Y865000D02*
D03*
Y829000D02*
D03*
X127750Y865000D02*
D03*
Y829000D02*
D03*
X132750Y865000D02*
D03*
Y829000D02*
D03*
X137750Y865000D02*
D03*
Y829000D02*
D03*
X142750Y865000D02*
D03*
Y829000D02*
D03*
X147750Y865000D02*
D03*
Y829000D02*
D03*
X152750Y865000D02*
D03*
Y829000D02*
D03*
X157750Y865000D02*
D03*
Y829000D02*
D03*
X162750Y865000D02*
D03*
Y829000D02*
D03*
X167750Y865000D02*
D03*
Y829000D02*
D03*
X172750Y865000D02*
D03*
Y829000D02*
D03*
X177750Y865000D02*
D03*
Y829000D02*
D03*
X182750Y865000D02*
D03*
Y829000D02*
D03*
X187750Y865000D02*
D03*
Y829000D02*
D03*
X192750Y865000D02*
D03*
Y829000D02*
D03*
X197750Y865000D02*
D03*
Y829000D02*
D03*
X202750Y865000D02*
D03*
Y829000D02*
D03*
X207750Y865000D02*
D03*
Y829000D02*
D03*
X212750Y865000D02*
D03*
Y829000D02*
D03*
X392750Y865000D02*
D03*
Y829000D02*
D03*
X397750Y865000D02*
D03*
Y829000D02*
D03*
X402750Y865000D02*
D03*
Y829000D02*
D03*
X407750Y865000D02*
D03*
Y829000D02*
D03*
X412750Y865000D02*
D03*
Y829000D02*
D03*
X417750Y865000D02*
D03*
Y829000D02*
D03*
X422750Y865000D02*
D03*
Y829000D02*
D03*
X427750Y865000D02*
D03*
Y829000D02*
D03*
X432750Y865000D02*
D03*
Y829000D02*
D03*
X437750Y865000D02*
D03*
Y829000D02*
D03*
X442750Y865000D02*
D03*
Y829000D02*
D03*
X447750Y865000D02*
D03*
Y829000D02*
D03*
X452750Y865000D02*
D03*
Y829000D02*
D03*
X457750Y865000D02*
D03*
Y829000D02*
D03*
X462750Y865000D02*
D03*
Y829000D02*
D03*
X467750Y865000D02*
D03*
Y829000D02*
D03*
X472750Y865000D02*
D03*
Y829000D02*
D03*
X477750Y865000D02*
D03*
Y829000D02*
D03*
X482750Y865000D02*
D03*
Y829000D02*
D03*
X487750Y865000D02*
D03*
Y829000D02*
D03*
X492750Y865000D02*
D03*
Y829000D02*
D03*
X497750Y865000D02*
D03*
Y829000D02*
D03*
X502750Y865000D02*
D03*
Y829000D02*
D03*
X507750Y865000D02*
D03*
Y829000D02*
D03*
X512750Y865000D02*
D03*
Y829000D02*
D03*
X692750Y865000D02*
D03*
Y829000D02*
D03*
X697750Y865000D02*
D03*
Y829000D02*
D03*
X702750Y865000D02*
D03*
Y829000D02*
D03*
X707750Y865000D02*
D03*
Y829000D02*
D03*
X712750Y865000D02*
D03*
Y829000D02*
D03*
X717750Y865000D02*
D03*
Y829000D02*
D03*
X722750Y865000D02*
D03*
Y829000D02*
D03*
X727750Y865000D02*
D03*
Y829000D02*
D03*
X732750Y865000D02*
D03*
Y829000D02*
D03*
X737750Y865000D02*
D03*
Y829000D02*
D03*
X742750Y865000D02*
D03*
Y829000D02*
D03*
X747750Y865000D02*
D03*
Y829000D02*
D03*
X752750Y865000D02*
D03*
Y829000D02*
D03*
X757750Y865000D02*
D03*
Y829000D02*
D03*
X762750Y865000D02*
D03*
Y829000D02*
D03*
X767750Y865000D02*
D03*
Y829000D02*
D03*
X772750Y865000D02*
D03*
Y829000D02*
D03*
X777750Y865000D02*
D03*
Y829000D02*
D03*
X782750Y865000D02*
D03*
Y829000D02*
D03*
X787750Y865000D02*
D03*
Y829000D02*
D03*
X792750Y865000D02*
D03*
Y829000D02*
D03*
X797750Y865000D02*
D03*
Y829000D02*
D03*
X802750Y865000D02*
D03*
Y829000D02*
D03*
X807750Y865000D02*
D03*
Y829000D02*
D03*
X812750Y865000D02*
D03*
Y829000D02*
D03*
D35*
X230250Y247000D02*
D03*
X75250D02*
D03*
X530250D02*
D03*
X375250D02*
D03*
X830250D02*
D03*
X675250D02*
D03*
X230250Y547000D02*
D03*
X75250D02*
D03*
X530250D02*
D03*
X375250D02*
D03*
X830250D02*
D03*
X675250D02*
D03*
X230250Y847000D02*
D03*
X75250D02*
D03*
X530250D02*
D03*
X375250D02*
D03*
X830250D02*
D03*
X675250D02*
D03*
M02*
