G04 Layer_Color=65535*
%FSLAX44Y44*%
%MOMM*%
G71*
G01*
G75*
%ADD22C,0.2000*%
%ADD36C,0.2500*%
%ADD37C,0.1000*%
%ADD38C,0.1800*%
D22*
X250750Y42000D02*
X261750D01*
X250750D02*
Y57500D01*
Y134000D02*
Y149500D01*
X261750D01*
X292750Y55000D02*
Y136500D01*
X107250Y169750D02*
Y175750D01*
X90250Y169750D02*
Y175750D01*
X70750Y199250D02*
X77250D01*
X70750Y152250D02*
X77250D01*
X34250Y199250D02*
X40750D01*
X34250Y152250D02*
X40750D01*
X77250D02*
Y199250D01*
X34250Y152250D02*
Y199250D01*
X87750Y114250D02*
X93750D01*
X87750Y97250D02*
X93750D01*
X31750Y127250D02*
X41750D01*
X31750Y96250D02*
X41750D01*
X31750D02*
Y127250D01*
X41750Y96250D02*
Y127250D01*
X80750Y138750D02*
X98750D01*
X80750Y124750D02*
X98750D01*
X80750Y137500D02*
Y138750D01*
X98750Y137500D02*
Y138750D01*
X80750Y124750D02*
Y126000D01*
X98750Y124750D02*
Y126000D01*
X220750Y215000D02*
Y224997D01*
X225748D01*
X227414Y223331D01*
Y219998D01*
X225748Y218332D01*
X220750D01*
X224082D02*
X227414Y215000D01*
X230747D02*
X234079D01*
X232413D01*
Y224997D01*
X230747Y223331D01*
X101415Y54997D02*
X98083D01*
X99749D01*
Y46666D01*
X98083Y45000D01*
X96416D01*
X94750Y46666D01*
X111412Y45000D02*
X104747D01*
X111412Y51665D01*
Y53331D01*
X109745Y54997D01*
X106413D01*
X104747Y53331D01*
X31250Y92497D02*
Y84166D01*
X32916Y82500D01*
X36248D01*
X37915Y84166D01*
Y92497D01*
X41247Y82500D02*
X44579D01*
X42913D01*
Y92497D01*
X41247Y90831D01*
X26250Y213747D02*
Y203750D01*
X32915D01*
X36247D02*
X39579D01*
X37913D01*
Y213747D01*
X36247Y212081D01*
X111253Y125000D02*
X121250D01*
Y129998D01*
X119584Y131664D01*
X112919D01*
X111253Y129998D01*
Y125000D01*
X121250Y134997D02*
Y138329D01*
Y136663D01*
X111253D01*
X112919Y134997D01*
X114169Y171665D02*
X112503Y169998D01*
Y166666D01*
X114169Y165000D01*
X120834D01*
X122500Y166666D01*
Y169998D01*
X120834Y171665D01*
X114169Y174997D02*
X112503Y176663D01*
Y179995D01*
X114169Y181661D01*
X115836D01*
X117502Y179995D01*
Y178329D01*
Y179995D01*
X119168Y181661D01*
X120834D01*
X122500Y179995D01*
Y176663D01*
X120834Y174997D01*
X125414Y108331D02*
X123748Y109997D01*
X120416D01*
X118750Y108331D01*
Y101666D01*
X120416Y100000D01*
X123748D01*
X125414Y101666D01*
X135411Y100000D02*
X128747D01*
X135411Y106664D01*
Y108331D01*
X133745Y109997D01*
X130413D01*
X128747Y108331D01*
X22915Y180831D02*
X21248Y182497D01*
X17916D01*
X16250Y180831D01*
Y174166D01*
X17916Y172500D01*
X21248D01*
X22915Y174166D01*
X26247Y172500D02*
X29579D01*
X27913D01*
Y182497D01*
X26247Y180831D01*
X550750Y42000D02*
X561750D01*
X550750D02*
Y57500D01*
Y134000D02*
Y149500D01*
X561750D01*
X592750Y55000D02*
Y136500D01*
X407250Y169750D02*
Y175750D01*
X390250Y169750D02*
Y175750D01*
X370750Y199250D02*
X377250D01*
X370750Y152250D02*
X377250D01*
X334250Y199250D02*
X340750D01*
X334250Y152250D02*
X340750D01*
X377250D02*
Y199250D01*
X334250Y152250D02*
Y199250D01*
X387750Y114250D02*
X393750D01*
X387750Y97250D02*
X393750D01*
X331750Y127250D02*
X341750D01*
X331750Y96250D02*
X341750D01*
X331750D02*
Y127250D01*
X341750Y96250D02*
Y127250D01*
X380750Y138750D02*
X398750D01*
X380750Y124750D02*
X398750D01*
X380750Y137500D02*
Y138750D01*
X398750Y137500D02*
Y138750D01*
X380750Y124750D02*
Y126000D01*
X398750Y124750D02*
Y126000D01*
X520750Y215000D02*
Y224997D01*
X525748D01*
X527415Y223331D01*
Y219998D01*
X525748Y218332D01*
X520750D01*
X524082D02*
X527415Y215000D01*
X530747D02*
X534079D01*
X532413D01*
Y224997D01*
X530747Y223331D01*
X401415Y54997D02*
X398083D01*
X399749D01*
Y46666D01*
X398083Y45000D01*
X396416D01*
X394750Y46666D01*
X411412Y45000D02*
X404747D01*
X411412Y51665D01*
Y53331D01*
X409745Y54997D01*
X406413D01*
X404747Y53331D01*
X331250Y92497D02*
Y84166D01*
X332916Y82500D01*
X336248D01*
X337915Y84166D01*
Y92497D01*
X341247Y82500D02*
X344579D01*
X342913D01*
Y92497D01*
X341247Y90831D01*
X326250Y213747D02*
Y203750D01*
X332915D01*
X336247D02*
X339579D01*
X337913D01*
Y213747D01*
X336247Y212081D01*
X411253Y125000D02*
X421250D01*
Y129998D01*
X419584Y131664D01*
X412919D01*
X411253Y129998D01*
Y125000D01*
X421250Y134997D02*
Y138329D01*
Y136663D01*
X411253D01*
X412919Y134997D01*
X414169Y171665D02*
X412503Y169998D01*
Y166666D01*
X414169Y165000D01*
X420834D01*
X422500Y166666D01*
Y169998D01*
X420834Y171665D01*
X414169Y174997D02*
X412503Y176663D01*
Y179995D01*
X414169Y181661D01*
X415835D01*
X417502Y179995D01*
Y178329D01*
Y179995D01*
X419168Y181661D01*
X420834D01*
X422500Y179995D01*
Y176663D01*
X420834Y174997D01*
X425415Y108331D02*
X423748Y109997D01*
X420416D01*
X418750Y108331D01*
Y101666D01*
X420416Y100000D01*
X423748D01*
X425415Y101666D01*
X435411Y100000D02*
X428747D01*
X435411Y106664D01*
Y108331D01*
X433745Y109997D01*
X430413D01*
X428747Y108331D01*
X322915Y180831D02*
X321248Y182497D01*
X317916D01*
X316250Y180831D01*
Y174166D01*
X317916Y172500D01*
X321248D01*
X322915Y174166D01*
X326247Y172500D02*
X329579D01*
X327913D01*
Y182497D01*
X326247Y180831D01*
X850750Y42000D02*
X861750D01*
X850750D02*
Y57500D01*
Y134000D02*
Y149500D01*
X861750D01*
X892750Y55000D02*
Y136500D01*
X707250Y169750D02*
Y175750D01*
X690250Y169750D02*
Y175750D01*
X670750Y199250D02*
X677250D01*
X670750Y152250D02*
X677250D01*
X634250Y199250D02*
X640750D01*
X634250Y152250D02*
X640750D01*
X677250D02*
Y199250D01*
X634250Y152250D02*
Y199250D01*
X687750Y114250D02*
X693750D01*
X687750Y97250D02*
X693750D01*
X631750Y127250D02*
X641750D01*
X631750Y96250D02*
X641750D01*
X631750D02*
Y127250D01*
X641750Y96250D02*
Y127250D01*
X680750Y138750D02*
X698750D01*
X680750Y124750D02*
X698750D01*
X680750Y137500D02*
Y138750D01*
X698750Y137500D02*
Y138750D01*
X680750Y124750D02*
Y126000D01*
X698750Y124750D02*
Y126000D01*
X820750Y215000D02*
Y224997D01*
X825748D01*
X827414Y223331D01*
Y219998D01*
X825748Y218332D01*
X820750D01*
X824082D02*
X827414Y215000D01*
X830747D02*
X834079D01*
X832413D01*
Y224997D01*
X830747Y223331D01*
X701415Y54997D02*
X698083D01*
X699749D01*
Y46666D01*
X698083Y45000D01*
X696416D01*
X694750Y46666D01*
X711412Y45000D02*
X704747D01*
X711412Y51665D01*
Y53331D01*
X709745Y54997D01*
X706413D01*
X704747Y53331D01*
X631250Y92497D02*
Y84166D01*
X632916Y82500D01*
X636248D01*
X637915Y84166D01*
Y92497D01*
X641247Y82500D02*
X644579D01*
X642913D01*
Y92497D01*
X641247Y90831D01*
X626250Y213747D02*
Y203750D01*
X632915D01*
X636247D02*
X639579D01*
X637913D01*
Y213747D01*
X636247Y212081D01*
X711253Y125000D02*
X721250D01*
Y129998D01*
X719584Y131664D01*
X712919D01*
X711253Y129998D01*
Y125000D01*
X721250Y134997D02*
Y138329D01*
Y136663D01*
X711253D01*
X712919Y134997D01*
X714169Y171665D02*
X712503Y169998D01*
Y166666D01*
X714169Y165000D01*
X720834D01*
X722500Y166666D01*
Y169998D01*
X720834Y171665D01*
X714169Y174997D02*
X712503Y176663D01*
Y179995D01*
X714169Y181661D01*
X715835D01*
X717502Y179995D01*
Y178329D01*
Y179995D01*
X719168Y181661D01*
X720834D01*
X722500Y179995D01*
Y176663D01*
X720834Y174997D01*
X725415Y108331D02*
X723748Y109997D01*
X720416D01*
X718750Y108331D01*
Y101666D01*
X720416Y100000D01*
X723748D01*
X725415Y101666D01*
X735411Y100000D02*
X728747D01*
X735411Y106664D01*
Y108331D01*
X733745Y109997D01*
X730413D01*
X728747Y108331D01*
X622915Y180831D02*
X621248Y182497D01*
X617916D01*
X616250Y180831D01*
Y174166D01*
X617916Y172500D01*
X621248D01*
X622915Y174166D01*
X626247Y172500D02*
X629579D01*
X627913D01*
Y182497D01*
X626247Y180831D01*
X250750Y342000D02*
X261750D01*
X250750D02*
Y357500D01*
Y434000D02*
Y449500D01*
X261750D01*
X292750Y355000D02*
Y436500D01*
X107250Y469750D02*
Y475750D01*
X90250Y469750D02*
Y475750D01*
X70750Y499250D02*
X77250D01*
X70750Y452250D02*
X77250D01*
X34250Y499250D02*
X40750D01*
X34250Y452250D02*
X40750D01*
X77250D02*
Y499250D01*
X34250Y452250D02*
Y499250D01*
X87750Y414250D02*
X93750D01*
X87750Y397250D02*
X93750D01*
X31750Y427250D02*
X41750D01*
X31750Y396250D02*
X41750D01*
X31750D02*
Y427250D01*
X41750Y396250D02*
Y427250D01*
X80750Y438750D02*
X98750D01*
X80750Y424750D02*
X98750D01*
X80750Y437500D02*
Y438750D01*
X98750Y437500D02*
Y438750D01*
X80750Y424750D02*
Y426000D01*
X98750Y424750D02*
Y426000D01*
X220750Y515000D02*
Y524997D01*
X225748D01*
X227414Y523331D01*
Y519998D01*
X225748Y518332D01*
X220750D01*
X224082D02*
X227414Y515000D01*
X230747D02*
X234079D01*
X232413D01*
Y524997D01*
X230747Y523331D01*
X101415Y354997D02*
X98083D01*
X99749D01*
Y346666D01*
X98083Y345000D01*
X96416D01*
X94750Y346666D01*
X111412Y345000D02*
X104747D01*
X111412Y351665D01*
Y353331D01*
X109745Y354997D01*
X106413D01*
X104747Y353331D01*
X31250Y392497D02*
Y384166D01*
X32916Y382500D01*
X36248D01*
X37915Y384166D01*
Y392497D01*
X41247Y382500D02*
X44579D01*
X42913D01*
Y392497D01*
X41247Y390831D01*
X26250Y513747D02*
Y503750D01*
X32915D01*
X36247D02*
X39579D01*
X37913D01*
Y513747D01*
X36247Y512081D01*
X111253Y425000D02*
X121250D01*
Y429998D01*
X119584Y431665D01*
X112919D01*
X111253Y429998D01*
Y425000D01*
X121250Y434997D02*
Y438329D01*
Y436663D01*
X111253D01*
X112919Y434997D01*
X114169Y471665D02*
X112503Y469998D01*
Y466666D01*
X114169Y465000D01*
X120834D01*
X122500Y466666D01*
Y469998D01*
X120834Y471665D01*
X114169Y474997D02*
X112503Y476663D01*
Y479995D01*
X114169Y481661D01*
X115836D01*
X117502Y479995D01*
Y478329D01*
Y479995D01*
X119168Y481661D01*
X120834D01*
X122500Y479995D01*
Y476663D01*
X120834Y474997D01*
X125414Y408331D02*
X123748Y409997D01*
X120416D01*
X118750Y408331D01*
Y401666D01*
X120416Y400000D01*
X123748D01*
X125414Y401666D01*
X135411Y400000D02*
X128747D01*
X135411Y406665D01*
Y408331D01*
X133745Y409997D01*
X130413D01*
X128747Y408331D01*
X22915Y480831D02*
X21248Y482497D01*
X17916D01*
X16250Y480831D01*
Y474166D01*
X17916Y472500D01*
X21248D01*
X22915Y474166D01*
X26247Y472500D02*
X29579D01*
X27913D01*
Y482497D01*
X26247Y480831D01*
X550750Y342000D02*
X561750D01*
X550750D02*
Y357500D01*
Y434000D02*
Y449500D01*
X561750D01*
X592750Y355000D02*
Y436500D01*
X407250Y469750D02*
Y475750D01*
X390250Y469750D02*
Y475750D01*
X370750Y499250D02*
X377250D01*
X370750Y452250D02*
X377250D01*
X334250Y499250D02*
X340750D01*
X334250Y452250D02*
X340750D01*
X377250D02*
Y499250D01*
X334250Y452250D02*
Y499250D01*
X387750Y414250D02*
X393750D01*
X387750Y397250D02*
X393750D01*
X331750Y427250D02*
X341750D01*
X331750Y396250D02*
X341750D01*
X331750D02*
Y427250D01*
X341750Y396250D02*
Y427250D01*
X380750Y438750D02*
X398750D01*
X380750Y424750D02*
X398750D01*
X380750Y437500D02*
Y438750D01*
X398750Y437500D02*
Y438750D01*
X380750Y424750D02*
Y426000D01*
X398750Y424750D02*
Y426000D01*
X520750Y515000D02*
Y524997D01*
X525748D01*
X527415Y523331D01*
Y519998D01*
X525748Y518332D01*
X520750D01*
X524082D02*
X527415Y515000D01*
X530747D02*
X534079D01*
X532413D01*
Y524997D01*
X530747Y523331D01*
X401415Y354997D02*
X398083D01*
X399749D01*
Y346666D01*
X398083Y345000D01*
X396416D01*
X394750Y346666D01*
X411412Y345000D02*
X404747D01*
X411412Y351665D01*
Y353331D01*
X409745Y354997D01*
X406413D01*
X404747Y353331D01*
X331250Y392497D02*
Y384166D01*
X332916Y382500D01*
X336248D01*
X337915Y384166D01*
Y392497D01*
X341247Y382500D02*
X344579D01*
X342913D01*
Y392497D01*
X341247Y390831D01*
X326250Y513747D02*
Y503750D01*
X332915D01*
X336247D02*
X339579D01*
X337913D01*
Y513747D01*
X336247Y512081D01*
X411253Y425000D02*
X421250D01*
Y429998D01*
X419584Y431665D01*
X412919D01*
X411253Y429998D01*
Y425000D01*
X421250Y434997D02*
Y438329D01*
Y436663D01*
X411253D01*
X412919Y434997D01*
X414169Y471665D02*
X412503Y469998D01*
Y466666D01*
X414169Y465000D01*
X420834D01*
X422500Y466666D01*
Y469998D01*
X420834Y471665D01*
X414169Y474997D02*
X412503Y476663D01*
Y479995D01*
X414169Y481661D01*
X415835D01*
X417502Y479995D01*
Y478329D01*
Y479995D01*
X419168Y481661D01*
X420834D01*
X422500Y479995D01*
Y476663D01*
X420834Y474997D01*
X425415Y408331D02*
X423748Y409997D01*
X420416D01*
X418750Y408331D01*
Y401666D01*
X420416Y400000D01*
X423748D01*
X425415Y401666D01*
X435411Y400000D02*
X428747D01*
X435411Y406665D01*
Y408331D01*
X433745Y409997D01*
X430413D01*
X428747Y408331D01*
X322915Y480831D02*
X321248Y482497D01*
X317916D01*
X316250Y480831D01*
Y474166D01*
X317916Y472500D01*
X321248D01*
X322915Y474166D01*
X326247Y472500D02*
X329579D01*
X327913D01*
Y482497D01*
X326247Y480831D01*
X850750Y342000D02*
X861750D01*
X850750D02*
Y357500D01*
Y434000D02*
Y449500D01*
X861750D01*
X892750Y355000D02*
Y436500D01*
X707250Y469750D02*
Y475750D01*
X690250Y469750D02*
Y475750D01*
X670750Y499250D02*
X677250D01*
X670750Y452250D02*
X677250D01*
X634250Y499250D02*
X640750D01*
X634250Y452250D02*
X640750D01*
X677250D02*
Y499250D01*
X634250Y452250D02*
Y499250D01*
X687750Y414250D02*
X693750D01*
X687750Y397250D02*
X693750D01*
X631750Y427250D02*
X641750D01*
X631750Y396250D02*
X641750D01*
X631750D02*
Y427250D01*
X641750Y396250D02*
Y427250D01*
X680750Y438750D02*
X698750D01*
X680750Y424750D02*
X698750D01*
X680750Y437500D02*
Y438750D01*
X698750Y437500D02*
Y438750D01*
X680750Y424750D02*
Y426000D01*
X698750Y424750D02*
Y426000D01*
X820750Y515000D02*
Y524997D01*
X825748D01*
X827414Y523331D01*
Y519998D01*
X825748Y518332D01*
X820750D01*
X824082D02*
X827414Y515000D01*
X830747D02*
X834079D01*
X832413D01*
Y524997D01*
X830747Y523331D01*
X701415Y354997D02*
X698083D01*
X699749D01*
Y346666D01*
X698083Y345000D01*
X696416D01*
X694750Y346666D01*
X711412Y345000D02*
X704747D01*
X711412Y351665D01*
Y353331D01*
X709745Y354997D01*
X706413D01*
X704747Y353331D01*
X631250Y392497D02*
Y384166D01*
X632916Y382500D01*
X636248D01*
X637915Y384166D01*
Y392497D01*
X641247Y382500D02*
X644579D01*
X642913D01*
Y392497D01*
X641247Y390831D01*
X626250Y513747D02*
Y503750D01*
X632915D01*
X636247D02*
X639579D01*
X637913D01*
Y513747D01*
X636247Y512081D01*
X711253Y425000D02*
X721250D01*
Y429998D01*
X719584Y431665D01*
X712919D01*
X711253Y429998D01*
Y425000D01*
X721250Y434997D02*
Y438329D01*
Y436663D01*
X711253D01*
X712919Y434997D01*
X714169Y471665D02*
X712503Y469998D01*
Y466666D01*
X714169Y465000D01*
X720834D01*
X722500Y466666D01*
Y469998D01*
X720834Y471665D01*
X714169Y474997D02*
X712503Y476663D01*
Y479995D01*
X714169Y481661D01*
X715835D01*
X717502Y479995D01*
Y478329D01*
Y479995D01*
X719168Y481661D01*
X720834D01*
X722500Y479995D01*
Y476663D01*
X720834Y474997D01*
X725415Y408331D02*
X723748Y409997D01*
X720416D01*
X718750Y408331D01*
Y401666D01*
X720416Y400000D01*
X723748D01*
X725415Y401666D01*
X735411Y400000D02*
X728747D01*
X735411Y406665D01*
Y408331D01*
X733745Y409997D01*
X730413D01*
X728747Y408331D01*
X622915Y480831D02*
X621248Y482497D01*
X617916D01*
X616250Y480831D01*
Y474166D01*
X617916Y472500D01*
X621248D01*
X622915Y474166D01*
X626247Y472500D02*
X629579D01*
X627913D01*
Y482497D01*
X626247Y480831D01*
X250750Y642000D02*
X261750D01*
X250750D02*
Y657500D01*
Y734000D02*
Y749500D01*
X261750D01*
X292750Y655000D02*
Y736500D01*
X107250Y769750D02*
Y775750D01*
X90250Y769750D02*
Y775750D01*
X70750Y799250D02*
X77250D01*
X70750Y752250D02*
X77250D01*
X34250Y799250D02*
X40750D01*
X34250Y752250D02*
X40750D01*
X77250D02*
Y799250D01*
X34250Y752250D02*
Y799250D01*
X87750Y714250D02*
X93750D01*
X87750Y697250D02*
X93750D01*
X31750Y727250D02*
X41750D01*
X31750Y696250D02*
X41750D01*
X31750D02*
Y727250D01*
X41750Y696250D02*
Y727250D01*
X80750Y738750D02*
X98750D01*
X80750Y724750D02*
X98750D01*
X80750Y737500D02*
Y738750D01*
X98750Y737500D02*
Y738750D01*
X80750Y724750D02*
Y726000D01*
X98750Y724750D02*
Y726000D01*
X220750Y815000D02*
Y824997D01*
X225748D01*
X227414Y823331D01*
Y819998D01*
X225748Y818332D01*
X220750D01*
X224082D02*
X227414Y815000D01*
X230747D02*
X234079D01*
X232413D01*
Y824997D01*
X230747Y823331D01*
X101415Y654997D02*
X98083D01*
X99749D01*
Y646666D01*
X98083Y645000D01*
X96416D01*
X94750Y646666D01*
X111412Y645000D02*
X104747D01*
X111412Y651665D01*
Y653331D01*
X109745Y654997D01*
X106413D01*
X104747Y653331D01*
X31250Y692497D02*
Y684166D01*
X32916Y682500D01*
X36248D01*
X37915Y684166D01*
Y692497D01*
X41247Y682500D02*
X44579D01*
X42913D01*
Y692497D01*
X41247Y690831D01*
X26250Y813747D02*
Y803750D01*
X32915D01*
X36247D02*
X39579D01*
X37913D01*
Y813747D01*
X36247Y812081D01*
X111253Y725000D02*
X121250D01*
Y729998D01*
X119584Y731665D01*
X112919D01*
X111253Y729998D01*
Y725000D01*
X121250Y734997D02*
Y738329D01*
Y736663D01*
X111253D01*
X112919Y734997D01*
X114169Y771665D02*
X112503Y769998D01*
Y766666D01*
X114169Y765000D01*
X120834D01*
X122500Y766666D01*
Y769998D01*
X120834Y771665D01*
X114169Y774997D02*
X112503Y776663D01*
Y779995D01*
X114169Y781661D01*
X115836D01*
X117502Y779995D01*
Y778329D01*
Y779995D01*
X119168Y781661D01*
X120834D01*
X122500Y779995D01*
Y776663D01*
X120834Y774997D01*
X125414Y708331D02*
X123748Y709997D01*
X120416D01*
X118750Y708331D01*
Y701666D01*
X120416Y700000D01*
X123748D01*
X125414Y701666D01*
X135411Y700000D02*
X128747D01*
X135411Y706665D01*
Y708331D01*
X133745Y709997D01*
X130413D01*
X128747Y708331D01*
X22915Y780831D02*
X21248Y782497D01*
X17916D01*
X16250Y780831D01*
Y774166D01*
X17916Y772500D01*
X21248D01*
X22915Y774166D01*
X26247Y772500D02*
X29579D01*
X27913D01*
Y782497D01*
X26247Y780831D01*
X550750Y642000D02*
X561750D01*
X550750D02*
Y657500D01*
Y734000D02*
Y749500D01*
X561750D01*
X592750Y655000D02*
Y736500D01*
X407250Y769750D02*
Y775750D01*
X390250Y769750D02*
Y775750D01*
X370750Y799250D02*
X377250D01*
X370750Y752250D02*
X377250D01*
X334250Y799250D02*
X340750D01*
X334250Y752250D02*
X340750D01*
X377250D02*
Y799250D01*
X334250Y752250D02*
Y799250D01*
X387750Y714250D02*
X393750D01*
X387750Y697250D02*
X393750D01*
X331750Y727250D02*
X341750D01*
X331750Y696250D02*
X341750D01*
X331750D02*
Y727250D01*
X341750Y696250D02*
Y727250D01*
X380750Y738750D02*
X398750D01*
X380750Y724750D02*
X398750D01*
X380750Y737500D02*
Y738750D01*
X398750Y737500D02*
Y738750D01*
X380750Y724750D02*
Y726000D01*
X398750Y724750D02*
Y726000D01*
X520750Y815000D02*
Y824997D01*
X525748D01*
X527415Y823331D01*
Y819998D01*
X525748Y818332D01*
X520750D01*
X524082D02*
X527415Y815000D01*
X530747D02*
X534079D01*
X532413D01*
Y824997D01*
X530747Y823331D01*
X401415Y654997D02*
X398083D01*
X399749D01*
Y646666D01*
X398083Y645000D01*
X396416D01*
X394750Y646666D01*
X411412Y645000D02*
X404747D01*
X411412Y651665D01*
Y653331D01*
X409745Y654997D01*
X406413D01*
X404747Y653331D01*
X331250Y692497D02*
Y684166D01*
X332916Y682500D01*
X336248D01*
X337915Y684166D01*
Y692497D01*
X341247Y682500D02*
X344579D01*
X342913D01*
Y692497D01*
X341247Y690831D01*
X326250Y813747D02*
Y803750D01*
X332915D01*
X336247D02*
X339579D01*
X337913D01*
Y813747D01*
X336247Y812081D01*
X411253Y725000D02*
X421250D01*
Y729998D01*
X419584Y731665D01*
X412919D01*
X411253Y729998D01*
Y725000D01*
X421250Y734997D02*
Y738329D01*
Y736663D01*
X411253D01*
X412919Y734997D01*
X414169Y771665D02*
X412503Y769998D01*
Y766666D01*
X414169Y765000D01*
X420834D01*
X422500Y766666D01*
Y769998D01*
X420834Y771665D01*
X414169Y774997D02*
X412503Y776663D01*
Y779995D01*
X414169Y781661D01*
X415835D01*
X417502Y779995D01*
Y778329D01*
Y779995D01*
X419168Y781661D01*
X420834D01*
X422500Y779995D01*
Y776663D01*
X420834Y774997D01*
X425415Y708331D02*
X423748Y709997D01*
X420416D01*
X418750Y708331D01*
Y701666D01*
X420416Y700000D01*
X423748D01*
X425415Y701666D01*
X435411Y700000D02*
X428747D01*
X435411Y706665D01*
Y708331D01*
X433745Y709997D01*
X430413D01*
X428747Y708331D01*
X322915Y780831D02*
X321248Y782497D01*
X317916D01*
X316250Y780831D01*
Y774166D01*
X317916Y772500D01*
X321248D01*
X322915Y774166D01*
X326247Y772500D02*
X329579D01*
X327913D01*
Y782497D01*
X326247Y780831D01*
X850750Y642000D02*
X861750D01*
X850750D02*
Y657500D01*
Y734000D02*
Y749500D01*
X861750D01*
X892750Y655000D02*
Y736500D01*
X707250Y769750D02*
Y775750D01*
X690250Y769750D02*
Y775750D01*
X670750Y799250D02*
X677250D01*
X670750Y752250D02*
X677250D01*
X634250Y799250D02*
X640750D01*
X634250Y752250D02*
X640750D01*
X677250D02*
Y799250D01*
X634250Y752250D02*
Y799250D01*
X687750Y714250D02*
X693750D01*
X687750Y697250D02*
X693750D01*
X631750Y727250D02*
X641750D01*
X631750Y696250D02*
X641750D01*
X631750D02*
Y727250D01*
X641750Y696250D02*
Y727250D01*
X680750Y738750D02*
X698750D01*
X680750Y724750D02*
X698750D01*
X680750Y737500D02*
Y738750D01*
X698750Y737500D02*
Y738750D01*
X680750Y724750D02*
Y726000D01*
X698750Y724750D02*
Y726000D01*
X820750Y815000D02*
Y824997D01*
X825748D01*
X827414Y823331D01*
Y819998D01*
X825748Y818332D01*
X820750D01*
X824082D02*
X827414Y815000D01*
X830747D02*
X834079D01*
X832413D01*
Y824997D01*
X830747Y823331D01*
X701415Y654997D02*
X698083D01*
X699749D01*
Y646666D01*
X698083Y645000D01*
X696416D01*
X694750Y646666D01*
X711412Y645000D02*
X704747D01*
X711412Y651665D01*
Y653331D01*
X709745Y654997D01*
X706413D01*
X704747Y653331D01*
X631250Y692497D02*
Y684166D01*
X632916Y682500D01*
X636248D01*
X637915Y684166D01*
Y692497D01*
X641247Y682500D02*
X644579D01*
X642913D01*
Y692497D01*
X641247Y690831D01*
X626250Y813747D02*
Y803750D01*
X632915D01*
X636247D02*
X639579D01*
X637913D01*
Y813747D01*
X636247Y812081D01*
X711253Y725000D02*
X721250D01*
Y729998D01*
X719584Y731665D01*
X712919D01*
X711253Y729998D01*
Y725000D01*
X721250Y734997D02*
Y738329D01*
Y736663D01*
X711253D01*
X712919Y734997D01*
X714169Y771665D02*
X712503Y769998D01*
Y766666D01*
X714169Y765000D01*
X720834D01*
X722500Y766666D01*
Y769998D01*
X720834Y771665D01*
X714169Y774997D02*
X712503Y776663D01*
Y779995D01*
X714169Y781661D01*
X715835D01*
X717502Y779995D01*
Y778329D01*
Y779995D01*
X719168Y781661D01*
X720834D01*
X722500Y779995D01*
Y776663D01*
X720834Y774997D01*
X725415Y708331D02*
X723748Y709997D01*
X720416D01*
X718750Y708331D01*
Y701666D01*
X720416Y700000D01*
X723748D01*
X725415Y701666D01*
X735411Y700000D02*
X728747D01*
X735411Y706665D01*
Y708331D01*
X733745Y709997D01*
X730413D01*
X728747Y708331D01*
X622915Y780831D02*
X621248Y782497D01*
X617916D01*
X616250Y780831D01*
Y774166D01*
X617916Y772500D01*
X621248D01*
X622915Y774166D01*
X626247Y772500D02*
X629579D01*
X627913D01*
Y782497D01*
X626247Y780831D01*
D36*
X23250Y130000D02*
G03*
X23250Y130000I-1250J0D01*
G01*
X323250D02*
G03*
X323250Y130000I-1250J0D01*
G01*
X623250D02*
G03*
X623250Y130000I-1250J0D01*
G01*
X23250Y430000D02*
G03*
X23250Y430000I-1250J0D01*
G01*
X323250D02*
G03*
X323250Y430000I-1250J0D01*
G01*
X623250D02*
G03*
X623250Y430000I-1250J0D01*
G01*
X23250Y730000D02*
G03*
X23250Y730000I-1250J0D01*
G01*
X323250D02*
G03*
X323250Y730000I-1250J0D01*
G01*
X623250D02*
G03*
X623250Y730000I-1250J0D01*
G01*
D37*
X74750Y137500D02*
G03*
X74750Y137500I-500J0D01*
G01*
X374750D02*
G03*
X374750Y137500I-500J0D01*
G01*
X674750D02*
G03*
X674750Y137500I-500J0D01*
G01*
X74750Y437500D02*
G03*
X74750Y437500I-500J0D01*
G01*
X374750D02*
G03*
X374750Y437500I-500J0D01*
G01*
X674750D02*
G03*
X674750Y437500I-500J0D01*
G01*
X74750Y737500D02*
G03*
X74750Y737500I-500J0D01*
G01*
X374750D02*
G03*
X374750Y737500I-500J0D01*
G01*
X674750D02*
G03*
X674750Y737500I-500J0D01*
G01*
D38*
X90000Y81250D02*
X93332D01*
X91666D01*
Y91247D01*
X90000Y89581D01*
X216665Y78750D02*
X210000D01*
X216665Y85414D01*
Y87081D01*
X214998Y88747D01*
X211666D01*
X210000Y87081D01*
X224995Y78750D02*
Y88747D01*
X219997Y83748D01*
X226661D01*
X26248Y10250D02*
Y20247D01*
X21250Y15248D01*
X27915D01*
X31247Y18581D02*
X32913Y20247D01*
X36245D01*
X37911Y18581D01*
Y11916D01*
X36245Y10250D01*
X32913D01*
X31247Y11916D01*
Y18581D01*
X41244Y20247D02*
Y13582D01*
X44576Y10250D01*
X47908Y13582D01*
Y20247D01*
X61237Y10250D02*
Y20247D01*
X64569Y16914D01*
X67902Y20247D01*
Y10250D01*
X71234D02*
Y16914D01*
X74566Y20247D01*
X77898Y16914D01*
Y10250D01*
Y15248D01*
X71234D01*
X81231Y20247D02*
X87895Y10250D01*
Y20247D02*
X81231Y10250D01*
X21250Y26250D02*
Y36247D01*
X26248D01*
X27915Y34581D01*
Y31248D01*
X26248Y29582D01*
X21250D01*
X31247Y36247D02*
Y26250D01*
X34579Y29582D01*
X37911Y26250D01*
Y36247D01*
X41244Y26250D02*
Y36247D01*
X46242D01*
X47908Y34581D01*
Y31248D01*
X46242Y29582D01*
X41244D01*
X44576D02*
X47908Y26250D01*
X194750Y192997D02*
Y186332D01*
X198082Y183000D01*
X201415Y186332D01*
Y192997D01*
X204747Y181334D02*
X211411D01*
X221408Y191331D02*
X219742Y192997D01*
X216410D01*
X214744Y191331D01*
Y189664D01*
X216410Y187998D01*
X219742D01*
X221408Y186332D01*
Y184666D01*
X219742Y183000D01*
X216410D01*
X214744Y184666D01*
X224740Y192997D02*
X228073D01*
X226406D01*
Y183000D01*
X224740D01*
X228073D01*
X239736Y191331D02*
X238069Y192997D01*
X234737D01*
X233071Y191331D01*
Y184666D01*
X234737Y183000D01*
X238069D01*
X239736Y184666D01*
Y187998D01*
X236403D01*
X194750Y161997D02*
Y155332D01*
X198082Y152000D01*
X201415Y155332D01*
Y161997D01*
X204747Y150334D02*
X211411D01*
X221408Y160331D02*
X219742Y161997D01*
X216410D01*
X214744Y160331D01*
Y153666D01*
X216410Y152000D01*
X219742D01*
X221408Y153666D01*
Y156998D01*
X218076D01*
X224740Y152000D02*
Y161997D01*
X231405Y152000D01*
Y161997D01*
X234737D02*
Y152000D01*
X239736D01*
X241402Y153666D01*
Y160331D01*
X239736Y161997D01*
X234737D01*
X390000Y81250D02*
X393332D01*
X391666D01*
Y91247D01*
X390000Y89581D01*
X516665Y78750D02*
X510000D01*
X516665Y85414D01*
Y87081D01*
X514998Y88747D01*
X511666D01*
X510000Y87081D01*
X524995Y78750D02*
Y88747D01*
X519997Y83748D01*
X526661D01*
X326248Y10250D02*
Y20247D01*
X321250Y15248D01*
X327915D01*
X331247Y18581D02*
X332913Y20247D01*
X336245D01*
X337911Y18581D01*
Y11916D01*
X336245Y10250D01*
X332913D01*
X331247Y11916D01*
Y18581D01*
X341244Y20247D02*
Y13582D01*
X344576Y10250D01*
X347908Y13582D01*
Y20247D01*
X361237Y10250D02*
Y20247D01*
X364569Y16914D01*
X367902Y20247D01*
Y10250D01*
X371234D02*
Y16914D01*
X374566Y20247D01*
X377898Y16914D01*
Y10250D01*
Y15248D01*
X371234D01*
X381231Y20247D02*
X387895Y10250D01*
Y20247D02*
X381231Y10250D01*
X321250Y26250D02*
Y36247D01*
X326248D01*
X327915Y34581D01*
Y31248D01*
X326248Y29582D01*
X321250D01*
X331247Y36247D02*
Y26250D01*
X334579Y29582D01*
X337911Y26250D01*
Y36247D01*
X341244Y26250D02*
Y36247D01*
X346242D01*
X347908Y34581D01*
Y31248D01*
X346242Y29582D01*
X341244D01*
X344576D02*
X347908Y26250D01*
X494750Y192997D02*
Y186332D01*
X498082Y183000D01*
X501414Y186332D01*
Y192997D01*
X504747Y181334D02*
X511411D01*
X521408Y191331D02*
X519742Y192997D01*
X516410D01*
X514744Y191331D01*
Y189664D01*
X516410Y187998D01*
X519742D01*
X521408Y186332D01*
Y184666D01*
X519742Y183000D01*
X516410D01*
X514744Y184666D01*
X524740Y192997D02*
X528073D01*
X526407D01*
Y183000D01*
X524740D01*
X528073D01*
X539735Y191331D02*
X538069Y192997D01*
X534737D01*
X533071Y191331D01*
Y184666D01*
X534737Y183000D01*
X538069D01*
X539735Y184666D01*
Y187998D01*
X536403D01*
X494750Y161997D02*
Y155332D01*
X498082Y152000D01*
X501414Y155332D01*
Y161997D01*
X504747Y150334D02*
X511411D01*
X521408Y160331D02*
X519742Y161997D01*
X516410D01*
X514744Y160331D01*
Y153666D01*
X516410Y152000D01*
X519742D01*
X521408Y153666D01*
Y156998D01*
X518076D01*
X524740Y152000D02*
Y161997D01*
X531405Y152000D01*
Y161997D01*
X534737D02*
Y152000D01*
X539735D01*
X541402Y153666D01*
Y160331D01*
X539735Y161997D01*
X534737D01*
X690000Y81250D02*
X693332D01*
X691666D01*
Y91247D01*
X690000Y89581D01*
X816665Y78750D02*
X810000D01*
X816665Y85414D01*
Y87081D01*
X814998Y88747D01*
X811666D01*
X810000Y87081D01*
X824995Y78750D02*
Y88747D01*
X819997Y83748D01*
X826661D01*
X626248Y10250D02*
Y20247D01*
X621250Y15248D01*
X627915D01*
X631247Y18581D02*
X632913Y20247D01*
X636245D01*
X637911Y18581D01*
Y11916D01*
X636245Y10250D01*
X632913D01*
X631247Y11916D01*
Y18581D01*
X641244Y20247D02*
Y13582D01*
X644576Y10250D01*
X647908Y13582D01*
Y20247D01*
X661237Y10250D02*
Y20247D01*
X664569Y16914D01*
X667902Y20247D01*
Y10250D01*
X671234D02*
Y16914D01*
X674566Y20247D01*
X677898Y16914D01*
Y10250D01*
Y15248D01*
X671234D01*
X681231Y20247D02*
X687895Y10250D01*
Y20247D02*
X681231Y10250D01*
X621250Y26250D02*
Y36247D01*
X626248D01*
X627915Y34581D01*
Y31248D01*
X626248Y29582D01*
X621250D01*
X631247Y36247D02*
Y26250D01*
X634579Y29582D01*
X637911Y26250D01*
Y36247D01*
X641244Y26250D02*
Y36247D01*
X646242D01*
X647908Y34581D01*
Y31248D01*
X646242Y29582D01*
X641244D01*
X644576D02*
X647908Y26250D01*
X794750Y192997D02*
Y186332D01*
X798082Y183000D01*
X801414Y186332D01*
Y192997D01*
X804747Y181334D02*
X811411D01*
X821408Y191331D02*
X819742Y192997D01*
X816410D01*
X814744Y191331D01*
Y189664D01*
X816410Y187998D01*
X819742D01*
X821408Y186332D01*
Y184666D01*
X819742Y183000D01*
X816410D01*
X814744Y184666D01*
X824740Y192997D02*
X828073D01*
X826406D01*
Y183000D01*
X824740D01*
X828073D01*
X839735Y191331D02*
X838069Y192997D01*
X834737D01*
X833071Y191331D01*
Y184666D01*
X834737Y183000D01*
X838069D01*
X839735Y184666D01*
Y187998D01*
X836403D01*
X794750Y161997D02*
Y155332D01*
X798082Y152000D01*
X801414Y155332D01*
Y161997D01*
X804747Y150334D02*
X811411D01*
X821408Y160331D02*
X819742Y161997D01*
X816410D01*
X814744Y160331D01*
Y153666D01*
X816410Y152000D01*
X819742D01*
X821408Y153666D01*
Y156998D01*
X818076D01*
X824740Y152000D02*
Y161997D01*
X831405Y152000D01*
Y161997D01*
X834737D02*
Y152000D01*
X839735D01*
X841402Y153666D01*
Y160331D01*
X839735Y161997D01*
X834737D01*
X90000Y381250D02*
X93332D01*
X91666D01*
Y391247D01*
X90000Y389581D01*
X216665Y378750D02*
X210000D01*
X216665Y385415D01*
Y387081D01*
X214998Y388747D01*
X211666D01*
X210000Y387081D01*
X224995Y378750D02*
Y388747D01*
X219997Y383748D01*
X226661D01*
X26248Y310250D02*
Y320247D01*
X21250Y315248D01*
X27915D01*
X31247Y318581D02*
X32913Y320247D01*
X36245D01*
X37911Y318581D01*
Y311916D01*
X36245Y310250D01*
X32913D01*
X31247Y311916D01*
Y318581D01*
X41244Y320247D02*
Y313582D01*
X44576Y310250D01*
X47908Y313582D01*
Y320247D01*
X61237Y310250D02*
Y320247D01*
X64569Y316915D01*
X67902Y320247D01*
Y310250D01*
X71234D02*
Y316915D01*
X74566Y320247D01*
X77898Y316915D01*
Y310250D01*
Y315248D01*
X71234D01*
X81231Y320247D02*
X87895Y310250D01*
Y320247D02*
X81231Y310250D01*
X21250Y326250D02*
Y336247D01*
X26248D01*
X27915Y334581D01*
Y331248D01*
X26248Y329582D01*
X21250D01*
X31247Y336247D02*
Y326250D01*
X34579Y329582D01*
X37911Y326250D01*
Y336247D01*
X41244Y326250D02*
Y336247D01*
X46242D01*
X47908Y334581D01*
Y331248D01*
X46242Y329582D01*
X41244D01*
X44576D02*
X47908Y326250D01*
X194750Y492997D02*
Y486332D01*
X198082Y483000D01*
X201415Y486332D01*
Y492997D01*
X204747Y481334D02*
X211411D01*
X221408Y491331D02*
X219742Y492997D01*
X216410D01*
X214744Y491331D01*
Y489664D01*
X216410Y487998D01*
X219742D01*
X221408Y486332D01*
Y484666D01*
X219742Y483000D01*
X216410D01*
X214744Y484666D01*
X224740Y492997D02*
X228073D01*
X226406D01*
Y483000D01*
X224740D01*
X228073D01*
X239736Y491331D02*
X238069Y492997D01*
X234737D01*
X233071Y491331D01*
Y484666D01*
X234737Y483000D01*
X238069D01*
X239736Y484666D01*
Y487998D01*
X236403D01*
X194750Y461997D02*
Y455332D01*
X198082Y452000D01*
X201415Y455332D01*
Y461997D01*
X204747Y450334D02*
X211411D01*
X221408Y460331D02*
X219742Y461997D01*
X216410D01*
X214744Y460331D01*
Y453666D01*
X216410Y452000D01*
X219742D01*
X221408Y453666D01*
Y456998D01*
X218076D01*
X224740Y452000D02*
Y461997D01*
X231405Y452000D01*
Y461997D01*
X234737D02*
Y452000D01*
X239736D01*
X241402Y453666D01*
Y460331D01*
X239736Y461997D01*
X234737D01*
X390000Y381250D02*
X393332D01*
X391666D01*
Y391247D01*
X390000Y389581D01*
X516665Y378750D02*
X510000D01*
X516665Y385415D01*
Y387081D01*
X514998Y388747D01*
X511666D01*
X510000Y387081D01*
X524995Y378750D02*
Y388747D01*
X519997Y383748D01*
X526661D01*
X326248Y310250D02*
Y320247D01*
X321250Y315248D01*
X327915D01*
X331247Y318581D02*
X332913Y320247D01*
X336245D01*
X337911Y318581D01*
Y311916D01*
X336245Y310250D01*
X332913D01*
X331247Y311916D01*
Y318581D01*
X341244Y320247D02*
Y313582D01*
X344576Y310250D01*
X347908Y313582D01*
Y320247D01*
X361237Y310250D02*
Y320247D01*
X364569Y316915D01*
X367902Y320247D01*
Y310250D01*
X371234D02*
Y316915D01*
X374566Y320247D01*
X377898Y316915D01*
Y310250D01*
Y315248D01*
X371234D01*
X381231Y320247D02*
X387895Y310250D01*
Y320247D02*
X381231Y310250D01*
X321250Y326250D02*
Y336247D01*
X326248D01*
X327915Y334581D01*
Y331248D01*
X326248Y329582D01*
X321250D01*
X331247Y336247D02*
Y326250D01*
X334579Y329582D01*
X337911Y326250D01*
Y336247D01*
X341244Y326250D02*
Y336247D01*
X346242D01*
X347908Y334581D01*
Y331248D01*
X346242Y329582D01*
X341244D01*
X344576D02*
X347908Y326250D01*
X494750Y492997D02*
Y486332D01*
X498082Y483000D01*
X501414Y486332D01*
Y492997D01*
X504747Y481334D02*
X511411D01*
X521408Y491331D02*
X519742Y492997D01*
X516410D01*
X514744Y491331D01*
Y489664D01*
X516410Y487998D01*
X519742D01*
X521408Y486332D01*
Y484666D01*
X519742Y483000D01*
X516410D01*
X514744Y484666D01*
X524740Y492997D02*
X528073D01*
X526407D01*
Y483000D01*
X524740D01*
X528073D01*
X539735Y491331D02*
X538069Y492997D01*
X534737D01*
X533071Y491331D01*
Y484666D01*
X534737Y483000D01*
X538069D01*
X539735Y484666D01*
Y487998D01*
X536403D01*
X494750Y461997D02*
Y455332D01*
X498082Y452000D01*
X501414Y455332D01*
Y461997D01*
X504747Y450334D02*
X511411D01*
X521408Y460331D02*
X519742Y461997D01*
X516410D01*
X514744Y460331D01*
Y453666D01*
X516410Y452000D01*
X519742D01*
X521408Y453666D01*
Y456998D01*
X518076D01*
X524740Y452000D02*
Y461997D01*
X531405Y452000D01*
Y461997D01*
X534737D02*
Y452000D01*
X539735D01*
X541402Y453666D01*
Y460331D01*
X539735Y461997D01*
X534737D01*
X690000Y381250D02*
X693332D01*
X691666D01*
Y391247D01*
X690000Y389581D01*
X816665Y378750D02*
X810000D01*
X816665Y385415D01*
Y387081D01*
X814998Y388747D01*
X811666D01*
X810000Y387081D01*
X824995Y378750D02*
Y388747D01*
X819997Y383748D01*
X826661D01*
X626248Y310250D02*
Y320247D01*
X621250Y315248D01*
X627915D01*
X631247Y318581D02*
X632913Y320247D01*
X636245D01*
X637911Y318581D01*
Y311916D01*
X636245Y310250D01*
X632913D01*
X631247Y311916D01*
Y318581D01*
X641244Y320247D02*
Y313582D01*
X644576Y310250D01*
X647908Y313582D01*
Y320247D01*
X661237Y310250D02*
Y320247D01*
X664569Y316915D01*
X667902Y320247D01*
Y310250D01*
X671234D02*
Y316915D01*
X674566Y320247D01*
X677898Y316915D01*
Y310250D01*
Y315248D01*
X671234D01*
X681231Y320247D02*
X687895Y310250D01*
Y320247D02*
X681231Y310250D01*
X621250Y326250D02*
Y336247D01*
X626248D01*
X627915Y334581D01*
Y331248D01*
X626248Y329582D01*
X621250D01*
X631247Y336247D02*
Y326250D01*
X634579Y329582D01*
X637911Y326250D01*
Y336247D01*
X641244Y326250D02*
Y336247D01*
X646242D01*
X647908Y334581D01*
Y331248D01*
X646242Y329582D01*
X641244D01*
X644576D02*
X647908Y326250D01*
X794750Y492997D02*
Y486332D01*
X798082Y483000D01*
X801414Y486332D01*
Y492997D01*
X804747Y481334D02*
X811411D01*
X821408Y491331D02*
X819742Y492997D01*
X816410D01*
X814744Y491331D01*
Y489664D01*
X816410Y487998D01*
X819742D01*
X821408Y486332D01*
Y484666D01*
X819742Y483000D01*
X816410D01*
X814744Y484666D01*
X824740Y492997D02*
X828073D01*
X826406D01*
Y483000D01*
X824740D01*
X828073D01*
X839735Y491331D02*
X838069Y492997D01*
X834737D01*
X833071Y491331D01*
Y484666D01*
X834737Y483000D01*
X838069D01*
X839735Y484666D01*
Y487998D01*
X836403D01*
X794750Y461997D02*
Y455332D01*
X798082Y452000D01*
X801414Y455332D01*
Y461997D01*
X804747Y450334D02*
X811411D01*
X821408Y460331D02*
X819742Y461997D01*
X816410D01*
X814744Y460331D01*
Y453666D01*
X816410Y452000D01*
X819742D01*
X821408Y453666D01*
Y456998D01*
X818076D01*
X824740Y452000D02*
Y461997D01*
X831405Y452000D01*
Y461997D01*
X834737D02*
Y452000D01*
X839735D01*
X841402Y453666D01*
Y460331D01*
X839735Y461997D01*
X834737D01*
X90000Y681250D02*
X93332D01*
X91666D01*
Y691247D01*
X90000Y689581D01*
X216665Y678750D02*
X210000D01*
X216665Y685415D01*
Y687081D01*
X214998Y688747D01*
X211666D01*
X210000Y687081D01*
X224995Y678750D02*
Y688747D01*
X219997Y683748D01*
X226661D01*
X26248Y610250D02*
Y620247D01*
X21250Y615248D01*
X27915D01*
X31247Y618581D02*
X32913Y620247D01*
X36245D01*
X37911Y618581D01*
Y611916D01*
X36245Y610250D01*
X32913D01*
X31247Y611916D01*
Y618581D01*
X41244Y620247D02*
Y613582D01*
X44576Y610250D01*
X47908Y613582D01*
Y620247D01*
X61237Y610250D02*
Y620247D01*
X64569Y616914D01*
X67902Y620247D01*
Y610250D01*
X71234D02*
Y616914D01*
X74566Y620247D01*
X77898Y616914D01*
Y610250D01*
Y615248D01*
X71234D01*
X81231Y620247D02*
X87895Y610250D01*
Y620247D02*
X81231Y610250D01*
X21250Y626250D02*
Y636247D01*
X26248D01*
X27915Y634581D01*
Y631248D01*
X26248Y629582D01*
X21250D01*
X31247Y636247D02*
Y626250D01*
X34579Y629582D01*
X37911Y626250D01*
Y636247D01*
X41244Y626250D02*
Y636247D01*
X46242D01*
X47908Y634581D01*
Y631248D01*
X46242Y629582D01*
X41244D01*
X44576D02*
X47908Y626250D01*
X194750Y792997D02*
Y786332D01*
X198082Y783000D01*
X201415Y786332D01*
Y792997D01*
X204747Y781334D02*
X211411D01*
X221408Y791331D02*
X219742Y792997D01*
X216410D01*
X214744Y791331D01*
Y789665D01*
X216410Y787998D01*
X219742D01*
X221408Y786332D01*
Y784666D01*
X219742Y783000D01*
X216410D01*
X214744Y784666D01*
X224740Y792997D02*
X228073D01*
X226406D01*
Y783000D01*
X224740D01*
X228073D01*
X239736Y791331D02*
X238069Y792997D01*
X234737D01*
X233071Y791331D01*
Y784666D01*
X234737Y783000D01*
X238069D01*
X239736Y784666D01*
Y787998D01*
X236403D01*
X194750Y761997D02*
Y755332D01*
X198082Y752000D01*
X201415Y755332D01*
Y761997D01*
X204747Y750334D02*
X211411D01*
X221408Y760331D02*
X219742Y761997D01*
X216410D01*
X214744Y760331D01*
Y753666D01*
X216410Y752000D01*
X219742D01*
X221408Y753666D01*
Y756998D01*
X218076D01*
X224740Y752000D02*
Y761997D01*
X231405Y752000D01*
Y761997D01*
X234737D02*
Y752000D01*
X239736D01*
X241402Y753666D01*
Y760331D01*
X239736Y761997D01*
X234737D01*
X390000Y681250D02*
X393332D01*
X391666D01*
Y691247D01*
X390000Y689581D01*
X516665Y678750D02*
X510000D01*
X516665Y685415D01*
Y687081D01*
X514998Y688747D01*
X511666D01*
X510000Y687081D01*
X524995Y678750D02*
Y688747D01*
X519997Y683748D01*
X526661D01*
X326248Y610250D02*
Y620247D01*
X321250Y615248D01*
X327915D01*
X331247Y618581D02*
X332913Y620247D01*
X336245D01*
X337911Y618581D01*
Y611916D01*
X336245Y610250D01*
X332913D01*
X331247Y611916D01*
Y618581D01*
X341244Y620247D02*
Y613582D01*
X344576Y610250D01*
X347908Y613582D01*
Y620247D01*
X361237Y610250D02*
Y620247D01*
X364569Y616914D01*
X367902Y620247D01*
Y610250D01*
X371234D02*
Y616914D01*
X374566Y620247D01*
X377898Y616914D01*
Y610250D01*
Y615248D01*
X371234D01*
X381231Y620247D02*
X387895Y610250D01*
Y620247D02*
X381231Y610250D01*
X321250Y626250D02*
Y636247D01*
X326248D01*
X327915Y634581D01*
Y631248D01*
X326248Y629582D01*
X321250D01*
X331247Y636247D02*
Y626250D01*
X334579Y629582D01*
X337911Y626250D01*
Y636247D01*
X341244Y626250D02*
Y636247D01*
X346242D01*
X347908Y634581D01*
Y631248D01*
X346242Y629582D01*
X341244D01*
X344576D02*
X347908Y626250D01*
X494750Y792997D02*
Y786332D01*
X498082Y783000D01*
X501414Y786332D01*
Y792997D01*
X504747Y781334D02*
X511411D01*
X521408Y791331D02*
X519742Y792997D01*
X516410D01*
X514744Y791331D01*
Y789665D01*
X516410Y787998D01*
X519742D01*
X521408Y786332D01*
Y784666D01*
X519742Y783000D01*
X516410D01*
X514744Y784666D01*
X524740Y792997D02*
X528073D01*
X526407D01*
Y783000D01*
X524740D01*
X528073D01*
X539735Y791331D02*
X538069Y792997D01*
X534737D01*
X533071Y791331D01*
Y784666D01*
X534737Y783000D01*
X538069D01*
X539735Y784666D01*
Y787998D01*
X536403D01*
X494750Y761997D02*
Y755332D01*
X498082Y752000D01*
X501414Y755332D01*
Y761997D01*
X504747Y750334D02*
X511411D01*
X521408Y760331D02*
X519742Y761997D01*
X516410D01*
X514744Y760331D01*
Y753666D01*
X516410Y752000D01*
X519742D01*
X521408Y753666D01*
Y756998D01*
X518076D01*
X524740Y752000D02*
Y761997D01*
X531405Y752000D01*
Y761997D01*
X534737D02*
Y752000D01*
X539735D01*
X541402Y753666D01*
Y760331D01*
X539735Y761997D01*
X534737D01*
X690000Y681250D02*
X693332D01*
X691666D01*
Y691247D01*
X690000Y689581D01*
X816665Y678750D02*
X810000D01*
X816665Y685415D01*
Y687081D01*
X814998Y688747D01*
X811666D01*
X810000Y687081D01*
X824995Y678750D02*
Y688747D01*
X819997Y683748D01*
X826661D01*
X626248Y610250D02*
Y620247D01*
X621250Y615248D01*
X627915D01*
X631247Y618581D02*
X632913Y620247D01*
X636245D01*
X637911Y618581D01*
Y611916D01*
X636245Y610250D01*
X632913D01*
X631247Y611916D01*
Y618581D01*
X641244Y620247D02*
Y613582D01*
X644576Y610250D01*
X647908Y613582D01*
Y620247D01*
X661237Y610250D02*
Y620247D01*
X664569Y616914D01*
X667902Y620247D01*
Y610250D01*
X671234D02*
Y616914D01*
X674566Y620247D01*
X677898Y616914D01*
Y610250D01*
Y615248D01*
X671234D01*
X681231Y620247D02*
X687895Y610250D01*
Y620247D02*
X681231Y610250D01*
X621250Y626250D02*
Y636247D01*
X626248D01*
X627915Y634581D01*
Y631248D01*
X626248Y629582D01*
X621250D01*
X631247Y636247D02*
Y626250D01*
X634579Y629582D01*
X637911Y626250D01*
Y636247D01*
X641244Y626250D02*
Y636247D01*
X646242D01*
X647908Y634581D01*
Y631248D01*
X646242Y629582D01*
X641244D01*
X644576D02*
X647908Y626250D01*
X794750Y792997D02*
Y786332D01*
X798082Y783000D01*
X801414Y786332D01*
Y792997D01*
X804747Y781334D02*
X811411D01*
X821408Y791331D02*
X819742Y792997D01*
X816410D01*
X814744Y791331D01*
Y789665D01*
X816410Y787998D01*
X819742D01*
X821408Y786332D01*
Y784666D01*
X819742Y783000D01*
X816410D01*
X814744Y784666D01*
X824740Y792997D02*
X828073D01*
X826406D01*
Y783000D01*
X824740D01*
X828073D01*
X839735Y791331D02*
X838069Y792997D01*
X834737D01*
X833071Y791331D01*
Y784666D01*
X834737Y783000D01*
X838069D01*
X839735Y784666D01*
Y787998D01*
X836403D01*
X794750Y761997D02*
Y755332D01*
X798082Y752000D01*
X801414Y755332D01*
Y761997D01*
X804747Y750334D02*
X811411D01*
X821408Y760331D02*
X819742Y761997D01*
X816410D01*
X814744Y760331D01*
Y753666D01*
X816410Y752000D01*
X819742D01*
X821408Y753666D01*
Y756998D01*
X818076D01*
X824740Y752000D02*
Y761997D01*
X831405Y752000D01*
Y761997D01*
X834737D02*
Y752000D01*
X839735D01*
X841402Y753666D01*
Y760331D01*
X839735Y761997D01*
X834737D01*
M02*
