G04 Layer_Color=16711935*
%FSLAX44Y44*%
%MOMM*%
G71*
G01*
G75*
%ADD27C,1.0000*%
%ADD29R,3.4000X3.2000*%
%ADD53C,0.1600*%
%ADD54C,3.6600*%
%ADD55C,3.7000*%
%ADD56R,0.4000X1.7000*%
%ADD57R,0.9600X1.9600*%
D27*
X63225Y223000D02*
G03*
X55475Y230000I-7375J-375D01*
G01*
Y264000D02*
G03*
X63225Y271000I375J7375D01*
G01*
X249974Y230000D02*
G03*
X242225Y223000I-375J-7375D01*
G01*
Y271000D02*
G03*
X249974Y264000I7375J375D01*
G01*
X47725D02*
G03*
X47725Y230000I26J-17000D01*
G01*
X257725Y230000D02*
G03*
X257725Y264000I-26J17000D01*
G01*
X63225Y216500D02*
G03*
X76225Y203500I13000J0D01*
G01*
Y290500D02*
G03*
X63225Y277500I0J-13000D01*
G01*
X229225Y203500D02*
G03*
X242225Y216500I0J13000D01*
G01*
Y277500D02*
G03*
X229225Y290500I-13000J0D01*
G01*
X242225Y222025D02*
Y271000D01*
X63225Y221000D02*
Y271000D01*
X76225Y290500D02*
X229225D01*
X76225Y203500D02*
X229225D01*
X47725Y230000D02*
X55475D01*
X47725Y264000D02*
X55475D01*
X249974Y230000D02*
X257725D01*
X249974Y264000D02*
X257725D01*
X63225Y216500D02*
Y223000D01*
X242225Y271000D02*
Y277500D01*
Y216500D02*
Y223000D01*
X63225Y271000D02*
Y277500D01*
X363225Y223000D02*
G03*
X355475Y230000I-7375J-375D01*
G01*
Y264000D02*
G03*
X363225Y271000I375J7375D01*
G01*
X549974Y230000D02*
G03*
X542225Y223000I-375J-7375D01*
G01*
Y271000D02*
G03*
X549974Y264000I7375J375D01*
G01*
X347725D02*
G03*
X347725Y230000I26J-17000D01*
G01*
X557725Y230000D02*
G03*
X557725Y264000I-26J17000D01*
G01*
X363225Y216500D02*
G03*
X376225Y203500I13000J0D01*
G01*
Y290500D02*
G03*
X363225Y277500I0J-13000D01*
G01*
X529225Y203500D02*
G03*
X542225Y216500I0J13000D01*
G01*
Y277500D02*
G03*
X529225Y290500I-13000J0D01*
G01*
X542225Y222025D02*
Y271000D01*
X363225Y221000D02*
Y271000D01*
X376225Y290500D02*
X529225D01*
X376225Y203500D02*
X529225D01*
X347725Y230000D02*
X355475D01*
X347725Y264000D02*
X355475D01*
X549974Y230000D02*
X557725D01*
X549974Y264000D02*
X557725D01*
X363225Y216500D02*
Y223000D01*
X542225Y271000D02*
Y277500D01*
Y216500D02*
Y223000D01*
X363225Y271000D02*
Y277500D01*
X663225Y223000D02*
G03*
X655475Y230000I-7375J-375D01*
G01*
Y264000D02*
G03*
X663225Y271000I375J7375D01*
G01*
X849974Y230000D02*
G03*
X842225Y223000I-375J-7375D01*
G01*
Y271000D02*
G03*
X849974Y264000I7375J375D01*
G01*
X647725D02*
G03*
X647725Y230000I26J-17000D01*
G01*
X857725Y230000D02*
G03*
X857725Y264000I-26J17000D01*
G01*
X663225Y216500D02*
G03*
X676225Y203500I13000J0D01*
G01*
Y290500D02*
G03*
X663225Y277500I0J-13000D01*
G01*
X829225Y203500D02*
G03*
X842225Y216500I0J13000D01*
G01*
Y277500D02*
G03*
X829225Y290500I-13000J0D01*
G01*
X842225Y222025D02*
Y271000D01*
X663225Y221000D02*
Y271000D01*
X676225Y290500D02*
X829225D01*
X676225Y203500D02*
X829225D01*
X647725Y230000D02*
X655475D01*
X647725Y264000D02*
X655475D01*
X849974Y230000D02*
X857725D01*
X849974Y264000D02*
X857725D01*
X663225Y216500D02*
Y223000D01*
X842225Y271000D02*
Y277500D01*
Y216500D02*
Y223000D01*
X663225Y271000D02*
Y277500D01*
X63225Y523000D02*
G03*
X55475Y530000I-7375J-375D01*
G01*
Y564000D02*
G03*
X63225Y571000I375J7375D01*
G01*
X249974Y530000D02*
G03*
X242225Y523000I-375J-7375D01*
G01*
Y571000D02*
G03*
X249974Y564000I7375J375D01*
G01*
X47725D02*
G03*
X47725Y530000I26J-17000D01*
G01*
X257725Y530000D02*
G03*
X257725Y564000I-26J17000D01*
G01*
X63225Y516500D02*
G03*
X76225Y503500I13000J0D01*
G01*
Y590500D02*
G03*
X63225Y577500I0J-13000D01*
G01*
X229225Y503500D02*
G03*
X242225Y516500I0J13000D01*
G01*
Y577500D02*
G03*
X229225Y590500I-13000J0D01*
G01*
X242225Y522025D02*
Y571000D01*
X63225Y521000D02*
Y571000D01*
X76225Y590500D02*
X229225D01*
X76225Y503500D02*
X229225D01*
X47725Y530000D02*
X55475D01*
X47725Y564000D02*
X55475D01*
X249974Y530000D02*
X257725D01*
X249974Y564000D02*
X257725D01*
X63225Y516500D02*
Y523000D01*
X242225Y571000D02*
Y577500D01*
Y516500D02*
Y523000D01*
X63225Y571000D02*
Y577500D01*
X363225Y523000D02*
G03*
X355475Y530000I-7375J-375D01*
G01*
Y564000D02*
G03*
X363225Y571000I375J7375D01*
G01*
X549974Y530000D02*
G03*
X542225Y523000I-375J-7375D01*
G01*
Y571000D02*
G03*
X549974Y564000I7375J375D01*
G01*
X347725D02*
G03*
X347725Y530000I26J-17000D01*
G01*
X557725Y530000D02*
G03*
X557725Y564000I-26J17000D01*
G01*
X363225Y516500D02*
G03*
X376225Y503500I13000J0D01*
G01*
Y590500D02*
G03*
X363225Y577500I0J-13000D01*
G01*
X529225Y503500D02*
G03*
X542225Y516500I0J13000D01*
G01*
Y577500D02*
G03*
X529225Y590500I-13000J0D01*
G01*
X542225Y522025D02*
Y571000D01*
X363225Y521000D02*
Y571000D01*
X376225Y590500D02*
X529225D01*
X376225Y503500D02*
X529225D01*
X347725Y530000D02*
X355475D01*
X347725Y564000D02*
X355475D01*
X549974Y530000D02*
X557725D01*
X549974Y564000D02*
X557725D01*
X363225Y516500D02*
Y523000D01*
X542225Y571000D02*
Y577500D01*
Y516500D02*
Y523000D01*
X363225Y571000D02*
Y577500D01*
X663225Y523000D02*
G03*
X655475Y530000I-7375J-375D01*
G01*
Y564000D02*
G03*
X663225Y571000I375J7375D01*
G01*
X849974Y530000D02*
G03*
X842225Y523000I-375J-7375D01*
G01*
Y571000D02*
G03*
X849974Y564000I7375J375D01*
G01*
X647725D02*
G03*
X647725Y530000I26J-17000D01*
G01*
X857725Y530000D02*
G03*
X857725Y564000I-26J17000D01*
G01*
X663225Y516500D02*
G03*
X676225Y503500I13000J0D01*
G01*
Y590500D02*
G03*
X663225Y577500I0J-13000D01*
G01*
X829225Y503500D02*
G03*
X842225Y516500I0J13000D01*
G01*
Y577500D02*
G03*
X829225Y590500I-13000J0D01*
G01*
X842225Y522025D02*
Y571000D01*
X663225Y521000D02*
Y571000D01*
X676225Y590500D02*
X829225D01*
X676225Y503500D02*
X829225D01*
X647725Y530000D02*
X655475D01*
X647725Y564000D02*
X655475D01*
X849974Y530000D02*
X857725D01*
X849974Y564000D02*
X857725D01*
X663225Y516500D02*
Y523000D01*
X842225Y571000D02*
Y577500D01*
Y516500D02*
Y523000D01*
X663225Y571000D02*
Y577500D01*
X63225Y823000D02*
G03*
X55475Y830000I-7375J-375D01*
G01*
Y864000D02*
G03*
X63225Y871000I375J7375D01*
G01*
X249974Y830000D02*
G03*
X242225Y823000I-375J-7375D01*
G01*
Y871000D02*
G03*
X249974Y864000I7375J375D01*
G01*
X47725D02*
G03*
X47725Y830000I26J-17000D01*
G01*
X257725Y830000D02*
G03*
X257725Y864000I-26J17000D01*
G01*
X63225Y816500D02*
G03*
X76225Y803500I13000J0D01*
G01*
Y890500D02*
G03*
X63225Y877500I0J-13000D01*
G01*
X229225Y803500D02*
G03*
X242225Y816500I0J13000D01*
G01*
Y877500D02*
G03*
X229225Y890500I-13000J0D01*
G01*
X242225Y822025D02*
Y871000D01*
X63225Y821000D02*
Y871000D01*
X76225Y890500D02*
X229225D01*
X76225Y803500D02*
X229225D01*
X47725Y830000D02*
X55475D01*
X47725Y864000D02*
X55475D01*
X249974Y830000D02*
X257725D01*
X249974Y864000D02*
X257725D01*
X63225Y816500D02*
Y823000D01*
X242225Y871000D02*
Y877500D01*
Y816500D02*
Y823000D01*
X63225Y871000D02*
Y877500D01*
X363225Y823000D02*
G03*
X355475Y830000I-7375J-375D01*
G01*
Y864000D02*
G03*
X363225Y871000I375J7375D01*
G01*
X549974Y830000D02*
G03*
X542225Y823000I-375J-7375D01*
G01*
Y871000D02*
G03*
X549974Y864000I7375J375D01*
G01*
X347725D02*
G03*
X347725Y830000I26J-17000D01*
G01*
X557725Y830000D02*
G03*
X557725Y864000I-26J17000D01*
G01*
X363225Y816500D02*
G03*
X376225Y803500I13000J0D01*
G01*
Y890500D02*
G03*
X363225Y877500I0J-13000D01*
G01*
X529225Y803500D02*
G03*
X542225Y816500I0J13000D01*
G01*
Y877500D02*
G03*
X529225Y890500I-13000J0D01*
G01*
X542225Y822025D02*
Y871000D01*
X363225Y821000D02*
Y871000D01*
X376225Y890500D02*
X529225D01*
X376225Y803500D02*
X529225D01*
X347725Y830000D02*
X355475D01*
X347725Y864000D02*
X355475D01*
X549974Y830000D02*
X557725D01*
X549974Y864000D02*
X557725D01*
X363225Y816500D02*
Y823000D01*
X542225Y871000D02*
Y877500D01*
Y816500D02*
Y823000D01*
X363225Y871000D02*
Y877500D01*
X663225Y823000D02*
G03*
X655475Y830000I-7375J-375D01*
G01*
Y864000D02*
G03*
X663225Y871000I375J7375D01*
G01*
X849974Y830000D02*
G03*
X842225Y823000I-375J-7375D01*
G01*
Y871000D02*
G03*
X849974Y864000I7375J375D01*
G01*
X647725D02*
G03*
X647725Y830000I26J-17000D01*
G01*
X857725Y830000D02*
G03*
X857725Y864000I-26J17000D01*
G01*
X663225Y816500D02*
G03*
X676225Y803500I13000J0D01*
G01*
Y890500D02*
G03*
X663225Y877500I0J-13000D01*
G01*
X829225Y803500D02*
G03*
X842225Y816500I0J13000D01*
G01*
Y877500D02*
G03*
X829225Y890500I-13000J0D01*
G01*
X842225Y822025D02*
Y871000D01*
X663225Y821000D02*
Y871000D01*
X676225Y890500D02*
X829225D01*
X676225Y803500D02*
X829225D01*
X647725Y830000D02*
X655475D01*
X647725Y864000D02*
X655475D01*
X849974Y830000D02*
X857725D01*
X849974Y864000D02*
X857725D01*
X663225Y816500D02*
Y823000D01*
X842225Y871000D02*
Y877500D01*
Y816500D02*
Y823000D01*
X663225Y871000D02*
Y877500D01*
D29*
X28250Y55000D02*
D03*
X328250D02*
D03*
X628250D02*
D03*
X28250Y355000D02*
D03*
X328250D02*
D03*
X628250D02*
D03*
X28250Y655000D02*
D03*
X328250D02*
D03*
X628250D02*
D03*
D53*
X223250Y262000D02*
D03*
X82250D02*
D03*
X523250D02*
D03*
X382250D02*
D03*
X823250D02*
D03*
X682250D02*
D03*
X223250Y562000D02*
D03*
X82250D02*
D03*
X523250D02*
D03*
X382250D02*
D03*
X823250D02*
D03*
X682250D02*
D03*
X223250Y862000D02*
D03*
X82250D02*
D03*
X523250D02*
D03*
X382250D02*
D03*
X823250D02*
D03*
X682250D02*
D03*
D54*
X257750Y247000D02*
D03*
X557750D02*
D03*
X857750D02*
D03*
X257750Y547000D02*
D03*
X557750D02*
D03*
X857750D02*
D03*
X257750Y847000D02*
D03*
X557750D02*
D03*
X857750D02*
D03*
D55*
X47750Y247000D02*
D03*
X347750D02*
D03*
X647750D02*
D03*
X47750Y547000D02*
D03*
X347750D02*
D03*
X647750D02*
D03*
X47750Y847000D02*
D03*
X347750D02*
D03*
X647750D02*
D03*
D56*
X92750Y265000D02*
D03*
Y229000D02*
D03*
X97750Y265000D02*
D03*
Y229000D02*
D03*
X102750Y265000D02*
D03*
Y229000D02*
D03*
X107750Y265000D02*
D03*
Y229000D02*
D03*
X112750Y265000D02*
D03*
Y229000D02*
D03*
X117750Y265000D02*
D03*
Y229000D02*
D03*
X122750Y265000D02*
D03*
Y229000D02*
D03*
X127750Y265000D02*
D03*
Y229000D02*
D03*
X132750Y265000D02*
D03*
Y229000D02*
D03*
X137750Y265000D02*
D03*
Y229000D02*
D03*
X142750Y265000D02*
D03*
Y229000D02*
D03*
X147750Y265000D02*
D03*
Y229000D02*
D03*
X152750Y265000D02*
D03*
Y229000D02*
D03*
X157750Y265000D02*
D03*
Y229000D02*
D03*
X162750Y265000D02*
D03*
Y229000D02*
D03*
X167750Y265000D02*
D03*
Y229000D02*
D03*
X172750Y265000D02*
D03*
Y229000D02*
D03*
X177750Y265000D02*
D03*
Y229000D02*
D03*
X182750Y265000D02*
D03*
Y229000D02*
D03*
X187750Y265000D02*
D03*
Y229000D02*
D03*
X192750Y265000D02*
D03*
Y229000D02*
D03*
X197750Y265000D02*
D03*
Y229000D02*
D03*
X202750Y265000D02*
D03*
Y229000D02*
D03*
X207750Y265000D02*
D03*
Y229000D02*
D03*
X212750Y265000D02*
D03*
Y229000D02*
D03*
X392750Y265000D02*
D03*
Y229000D02*
D03*
X397750Y265000D02*
D03*
Y229000D02*
D03*
X402750Y265000D02*
D03*
Y229000D02*
D03*
X407750Y265000D02*
D03*
Y229000D02*
D03*
X412750Y265000D02*
D03*
Y229000D02*
D03*
X417750Y265000D02*
D03*
Y229000D02*
D03*
X422750Y265000D02*
D03*
Y229000D02*
D03*
X427750Y265000D02*
D03*
Y229000D02*
D03*
X432750Y265000D02*
D03*
Y229000D02*
D03*
X437750Y265000D02*
D03*
Y229000D02*
D03*
X442750Y265000D02*
D03*
Y229000D02*
D03*
X447750Y265000D02*
D03*
Y229000D02*
D03*
X452750Y265000D02*
D03*
Y229000D02*
D03*
X457750Y265000D02*
D03*
Y229000D02*
D03*
X462750Y265000D02*
D03*
Y229000D02*
D03*
X467750Y265000D02*
D03*
Y229000D02*
D03*
X472750Y265000D02*
D03*
Y229000D02*
D03*
X477750Y265000D02*
D03*
Y229000D02*
D03*
X482750Y265000D02*
D03*
Y229000D02*
D03*
X487750Y265000D02*
D03*
Y229000D02*
D03*
X492750Y265000D02*
D03*
Y229000D02*
D03*
X497750Y265000D02*
D03*
Y229000D02*
D03*
X502750Y265000D02*
D03*
Y229000D02*
D03*
X507750Y265000D02*
D03*
Y229000D02*
D03*
X512750Y265000D02*
D03*
Y229000D02*
D03*
X692750Y265000D02*
D03*
Y229000D02*
D03*
X697750Y265000D02*
D03*
Y229000D02*
D03*
X702750Y265000D02*
D03*
Y229000D02*
D03*
X707750Y265000D02*
D03*
Y229000D02*
D03*
X712750Y265000D02*
D03*
Y229000D02*
D03*
X717750Y265000D02*
D03*
Y229000D02*
D03*
X722750Y265000D02*
D03*
Y229000D02*
D03*
X727750Y265000D02*
D03*
Y229000D02*
D03*
X732750Y265000D02*
D03*
Y229000D02*
D03*
X737750Y265000D02*
D03*
Y229000D02*
D03*
X742750Y265000D02*
D03*
Y229000D02*
D03*
X747750Y265000D02*
D03*
Y229000D02*
D03*
X752750Y265000D02*
D03*
Y229000D02*
D03*
X757750Y265000D02*
D03*
Y229000D02*
D03*
X762750Y265000D02*
D03*
Y229000D02*
D03*
X767750Y265000D02*
D03*
Y229000D02*
D03*
X772750Y265000D02*
D03*
Y229000D02*
D03*
X777750Y265000D02*
D03*
Y229000D02*
D03*
X782750Y265000D02*
D03*
Y229000D02*
D03*
X787750Y265000D02*
D03*
Y229000D02*
D03*
X792750Y265000D02*
D03*
Y229000D02*
D03*
X797750Y265000D02*
D03*
Y229000D02*
D03*
X802750Y265000D02*
D03*
Y229000D02*
D03*
X807750Y265000D02*
D03*
Y229000D02*
D03*
X812750Y265000D02*
D03*
Y229000D02*
D03*
X92750Y565000D02*
D03*
Y529000D02*
D03*
X97750Y565000D02*
D03*
Y529000D02*
D03*
X102750Y565000D02*
D03*
Y529000D02*
D03*
X107750Y565000D02*
D03*
Y529000D02*
D03*
X112750Y565000D02*
D03*
Y529000D02*
D03*
X117750Y565000D02*
D03*
Y529000D02*
D03*
X122750Y565000D02*
D03*
Y529000D02*
D03*
X127750Y565000D02*
D03*
Y529000D02*
D03*
X132750Y565000D02*
D03*
Y529000D02*
D03*
X137750Y565000D02*
D03*
Y529000D02*
D03*
X142750Y565000D02*
D03*
Y529000D02*
D03*
X147750Y565000D02*
D03*
Y529000D02*
D03*
X152750Y565000D02*
D03*
Y529000D02*
D03*
X157750Y565000D02*
D03*
Y529000D02*
D03*
X162750Y565000D02*
D03*
Y529000D02*
D03*
X167750Y565000D02*
D03*
Y529000D02*
D03*
X172750Y565000D02*
D03*
Y529000D02*
D03*
X177750Y565000D02*
D03*
Y529000D02*
D03*
X182750Y565000D02*
D03*
Y529000D02*
D03*
X187750Y565000D02*
D03*
Y529000D02*
D03*
X192750Y565000D02*
D03*
Y529000D02*
D03*
X197750Y565000D02*
D03*
Y529000D02*
D03*
X202750Y565000D02*
D03*
Y529000D02*
D03*
X207750Y565000D02*
D03*
Y529000D02*
D03*
X212750Y565000D02*
D03*
Y529000D02*
D03*
X392750Y565000D02*
D03*
Y529000D02*
D03*
X397750Y565000D02*
D03*
Y529000D02*
D03*
X402750Y565000D02*
D03*
Y529000D02*
D03*
X407750Y565000D02*
D03*
Y529000D02*
D03*
X412750Y565000D02*
D03*
Y529000D02*
D03*
X417750Y565000D02*
D03*
Y529000D02*
D03*
X422750Y565000D02*
D03*
Y529000D02*
D03*
X427750Y565000D02*
D03*
Y529000D02*
D03*
X432750Y565000D02*
D03*
Y529000D02*
D03*
X437750Y565000D02*
D03*
Y529000D02*
D03*
X442750Y565000D02*
D03*
Y529000D02*
D03*
X447750Y565000D02*
D03*
Y529000D02*
D03*
X452750Y565000D02*
D03*
Y529000D02*
D03*
X457750Y565000D02*
D03*
Y529000D02*
D03*
X462750Y565000D02*
D03*
Y529000D02*
D03*
X467750Y565000D02*
D03*
Y529000D02*
D03*
X472750Y565000D02*
D03*
Y529000D02*
D03*
X477750Y565000D02*
D03*
Y529000D02*
D03*
X482750Y565000D02*
D03*
Y529000D02*
D03*
X487750Y565000D02*
D03*
Y529000D02*
D03*
X492750Y565000D02*
D03*
Y529000D02*
D03*
X497750Y565000D02*
D03*
Y529000D02*
D03*
X502750Y565000D02*
D03*
Y529000D02*
D03*
X507750Y565000D02*
D03*
Y529000D02*
D03*
X512750Y565000D02*
D03*
Y529000D02*
D03*
X692750Y565000D02*
D03*
Y529000D02*
D03*
X697750Y565000D02*
D03*
Y529000D02*
D03*
X702750Y565000D02*
D03*
Y529000D02*
D03*
X707750Y565000D02*
D03*
Y529000D02*
D03*
X712750Y565000D02*
D03*
Y529000D02*
D03*
X717750Y565000D02*
D03*
Y529000D02*
D03*
X722750Y565000D02*
D03*
Y529000D02*
D03*
X727750Y565000D02*
D03*
Y529000D02*
D03*
X732750Y565000D02*
D03*
Y529000D02*
D03*
X737750Y565000D02*
D03*
Y529000D02*
D03*
X742750Y565000D02*
D03*
Y529000D02*
D03*
X747750Y565000D02*
D03*
Y529000D02*
D03*
X752750Y565000D02*
D03*
Y529000D02*
D03*
X757750Y565000D02*
D03*
Y529000D02*
D03*
X762750Y565000D02*
D03*
Y529000D02*
D03*
X767750Y565000D02*
D03*
Y529000D02*
D03*
X772750Y565000D02*
D03*
Y529000D02*
D03*
X777750Y565000D02*
D03*
Y529000D02*
D03*
X782750Y565000D02*
D03*
Y529000D02*
D03*
X787750Y565000D02*
D03*
Y529000D02*
D03*
X792750Y565000D02*
D03*
Y529000D02*
D03*
X797750Y565000D02*
D03*
Y529000D02*
D03*
X802750Y565000D02*
D03*
Y529000D02*
D03*
X807750Y565000D02*
D03*
Y529000D02*
D03*
X812750Y565000D02*
D03*
Y529000D02*
D03*
X92750Y865000D02*
D03*
Y829000D02*
D03*
X97750Y865000D02*
D03*
Y829000D02*
D03*
X102750Y865000D02*
D03*
Y829000D02*
D03*
X107750Y865000D02*
D03*
Y829000D02*
D03*
X112750Y865000D02*
D03*
Y829000D02*
D03*
X117750Y865000D02*
D03*
Y829000D02*
D03*
X122750Y865000D02*
D03*
Y829000D02*
D03*
X127750Y865000D02*
D03*
Y829000D02*
D03*
X132750Y865000D02*
D03*
Y829000D02*
D03*
X137750Y865000D02*
D03*
Y829000D02*
D03*
X142750Y865000D02*
D03*
Y829000D02*
D03*
X147750Y865000D02*
D03*
Y829000D02*
D03*
X152750Y865000D02*
D03*
Y829000D02*
D03*
X157750Y865000D02*
D03*
Y829000D02*
D03*
X162750Y865000D02*
D03*
Y829000D02*
D03*
X167750Y865000D02*
D03*
Y829000D02*
D03*
X172750Y865000D02*
D03*
Y829000D02*
D03*
X177750Y865000D02*
D03*
Y829000D02*
D03*
X182750Y865000D02*
D03*
Y829000D02*
D03*
X187750Y865000D02*
D03*
Y829000D02*
D03*
X192750Y865000D02*
D03*
Y829000D02*
D03*
X197750Y865000D02*
D03*
Y829000D02*
D03*
X202750Y865000D02*
D03*
Y829000D02*
D03*
X207750Y865000D02*
D03*
Y829000D02*
D03*
X212750Y865000D02*
D03*
Y829000D02*
D03*
X392750Y865000D02*
D03*
Y829000D02*
D03*
X397750Y865000D02*
D03*
Y829000D02*
D03*
X402750Y865000D02*
D03*
Y829000D02*
D03*
X407750Y865000D02*
D03*
Y829000D02*
D03*
X412750Y865000D02*
D03*
Y829000D02*
D03*
X417750Y865000D02*
D03*
Y829000D02*
D03*
X422750Y865000D02*
D03*
Y829000D02*
D03*
X427750Y865000D02*
D03*
Y829000D02*
D03*
X432750Y865000D02*
D03*
Y829000D02*
D03*
X437750Y865000D02*
D03*
Y829000D02*
D03*
X442750Y865000D02*
D03*
Y829000D02*
D03*
X447750Y865000D02*
D03*
Y829000D02*
D03*
X452750Y865000D02*
D03*
Y829000D02*
D03*
X457750Y865000D02*
D03*
Y829000D02*
D03*
X462750Y865000D02*
D03*
Y829000D02*
D03*
X467750Y865000D02*
D03*
Y829000D02*
D03*
X472750Y865000D02*
D03*
Y829000D02*
D03*
X477750Y865000D02*
D03*
Y829000D02*
D03*
X482750Y865000D02*
D03*
Y829000D02*
D03*
X487750Y865000D02*
D03*
Y829000D02*
D03*
X492750Y865000D02*
D03*
Y829000D02*
D03*
X497750Y865000D02*
D03*
Y829000D02*
D03*
X502750Y865000D02*
D03*
Y829000D02*
D03*
X507750Y865000D02*
D03*
Y829000D02*
D03*
X512750Y865000D02*
D03*
Y829000D02*
D03*
X692750Y865000D02*
D03*
Y829000D02*
D03*
X697750Y865000D02*
D03*
Y829000D02*
D03*
X702750Y865000D02*
D03*
Y829000D02*
D03*
X707750Y865000D02*
D03*
Y829000D02*
D03*
X712750Y865000D02*
D03*
Y829000D02*
D03*
X717750Y865000D02*
D03*
Y829000D02*
D03*
X722750Y865000D02*
D03*
Y829000D02*
D03*
X727750Y865000D02*
D03*
Y829000D02*
D03*
X732750Y865000D02*
D03*
Y829000D02*
D03*
X737750Y865000D02*
D03*
Y829000D02*
D03*
X742750Y865000D02*
D03*
Y829000D02*
D03*
X747750Y865000D02*
D03*
Y829000D02*
D03*
X752750Y865000D02*
D03*
Y829000D02*
D03*
X757750Y865000D02*
D03*
Y829000D02*
D03*
X762750Y865000D02*
D03*
Y829000D02*
D03*
X767750Y865000D02*
D03*
Y829000D02*
D03*
X772750Y865000D02*
D03*
Y829000D02*
D03*
X777750Y865000D02*
D03*
Y829000D02*
D03*
X782750Y865000D02*
D03*
Y829000D02*
D03*
X787750Y865000D02*
D03*
Y829000D02*
D03*
X792750Y865000D02*
D03*
Y829000D02*
D03*
X797750Y865000D02*
D03*
Y829000D02*
D03*
X802750Y865000D02*
D03*
Y829000D02*
D03*
X807750Y865000D02*
D03*
Y829000D02*
D03*
X812750Y865000D02*
D03*
Y829000D02*
D03*
D57*
X230250Y247000D02*
D03*
X75250D02*
D03*
X530250D02*
D03*
X375250D02*
D03*
X830250D02*
D03*
X675250D02*
D03*
X230250Y547000D02*
D03*
X75250D02*
D03*
X530250D02*
D03*
X375250D02*
D03*
X830250D02*
D03*
X675250D02*
D03*
X230250Y847000D02*
D03*
X75250D02*
D03*
X530250D02*
D03*
X375250D02*
D03*
X830250D02*
D03*
X675250D02*
D03*
M02*
