G04 Layer_Physical_Order=2*
G04 Layer_Color=32768*
%FSLAX44Y44*%
%MOMM*%
G71*
G01*
G75*
%ADD45C,1.0160*%
G04:AMPARAMS|DCode=46|XSize=1.81mm|YSize=1.81mm|CornerRadius=0mm|HoleSize=0mm|Usage=FLASHONLY|Rotation=0.000|XOffset=0mm|YOffset=0mm|HoleType=Round|Shape=Relief|Width=0.4mm|Gap=0.2mm|Entries=4|*
%AMTHD46*
7,0,0,1.8100,1.4100,0.4000,45*
%
%ADD46THD46*%
%ADD47C,1.7100*%
%ADD48C,2.0000*%
G04:AMPARAMS|DCode=49|XSize=2.1mm|YSize=2.1mm|CornerRadius=0mm|HoleSize=0mm|Usage=FLASHONLY|Rotation=0.000|XOffset=0mm|YOffset=0mm|HoleType=Round|Shape=Relief|Width=0.4mm|Gap=0.2mm|Entries=4|*
%AMTHD49*
7,0,0,2.1000,1.7000,0.4000,45*
%
%ADD49THD49*%
%ADD50C,4.0000*%
%ADD51C,1.8000*%
G04:AMPARAMS|DCode=52|XSize=1.9mm|YSize=1.9mm|CornerRadius=0mm|HoleSize=0mm|Usage=FLASHONLY|Rotation=0.000|XOffset=0mm|YOffset=0mm|HoleType=Round|Shape=Relief|Width=0.4mm|Gap=0.2mm|Entries=4|*
%AMTHD52*
7,0,0,1.9000,1.5000,0.4000,45*
%
%ADD52THD52*%
%ADD53C,1.8000*%
G04:AMPARAMS|DCode=54|XSize=1.3mm|YSize=1.3mm|CornerRadius=0mm|HoleSize=0mm|Usage=FLASHONLY|Rotation=0.000|XOffset=0mm|YOffset=0mm|HoleType=Round|Shape=Relief|Width=0.4mm|Gap=0.2mm|Entries=4|*
%AMTHD54*
7,0,0,1.3000,0.9000,0.4000,45*
%
%ADD54THD54*%
%ADD55C,1.2000*%
%ADD56C,1.5000*%
G04:AMPARAMS|DCode=57|XSize=1.6mm|YSize=1.6mm|CornerRadius=0mm|HoleSize=0mm|Usage=FLASHONLY|Rotation=0.000|XOffset=0mm|YOffset=0mm|HoleType=Round|Shape=Relief|Width=0.4mm|Gap=0.2mm|Entries=4|*
%AMTHD57*
7,0,0,1.6000,1.2000,0.4000,45*
%
%ADD57THD57*%
D45*
X0Y20000D02*
G03*
X20000Y0I20000J0D01*
G01*
X480000D02*
G03*
X500000Y20000I0J20000D01*
G01*
Y370000D02*
G03*
X480000Y390000I-20000J0D01*
G01*
X20000D02*
G03*
X0Y370000I0J-20000D01*
G01*
Y260425D02*
G03*
X7986Y244436I20000J0D01*
G01*
Y52564D02*
G03*
X7986Y244436I-72086J95936D01*
G01*
Y52564D02*
G03*
X0Y36575I12014J-15989D01*
G01*
X20000Y0D02*
X480000D01*
X500000Y20000D02*
Y370000D01*
X20000Y390000D02*
X480000D01*
X0Y260425D02*
Y370000D01*
Y20000D02*
Y36575D01*
D46*
X149000Y268000D02*
D03*
Y248000D02*
D03*
D47*
X129000Y268000D02*
D03*
X109000D02*
D03*
X89000D02*
D03*
X69000D02*
D03*
X129000Y248000D02*
D03*
X109000D02*
D03*
X89000D02*
D03*
X69000D02*
D03*
D48*
X99450Y341200D02*
D03*
X127150D02*
D03*
X182550D02*
D03*
X113300Y312800D02*
D03*
X141000D02*
D03*
X168700D02*
D03*
X196400D02*
D03*
D49*
X154850Y341200D02*
D03*
X210250D02*
D03*
D50*
X29900Y327000D02*
D03*
X279800D02*
D03*
D51*
X481000Y25600D02*
D03*
X455600D02*
D03*
X481000Y51000D02*
D03*
X455600D02*
D03*
X481000Y76400D02*
D03*
X455600D02*
D03*
X481000Y101800D02*
D03*
X455600D02*
D03*
X481000Y127200D02*
D03*
X455600D02*
D03*
X481000Y152600D02*
D03*
X455600D02*
D03*
X481000Y178000D02*
D03*
X455600D02*
D03*
D52*
X481000Y203400D02*
D03*
X455600D02*
D03*
D53*
X396250Y330500D02*
D03*
X352250D02*
D03*
D54*
X462950Y14950D02*
D03*
X130000Y164000D02*
D03*
X325000Y87000D02*
D03*
X403000Y302000D02*
D03*
X273000Y20000D02*
D03*
Y28000D02*
D03*
X282000Y13000D02*
D03*
X273000D02*
D03*
X138000Y197000D02*
D03*
X117000Y190000D02*
D03*
X263000Y112000D02*
D03*
X145000Y232000D02*
D03*
X296250Y165750D02*
D03*
X465500Y335500D02*
D03*
X204000Y99000D02*
D03*
X270750Y255000D02*
D03*
X211250Y158750D02*
D03*
X411000Y142000D02*
D03*
X401500Y197500D02*
D03*
X351250Y302250D02*
D03*
X325000Y375000D02*
D03*
X423500Y373500D02*
D03*
X356000Y197000D02*
D03*
X344250Y302250D02*
D03*
X187000Y78000D02*
D03*
X191763Y73238D02*
D03*
X100000Y67000D02*
D03*
Y72000D02*
D03*
D55*
X400000Y285000D02*
D03*
X308000Y46000D02*
D03*
X348269Y51530D02*
D03*
X341159D02*
D03*
X394000Y137000D02*
D03*
X365000Y122000D02*
D03*
X340000Y103000D02*
D03*
X348269Y72860D02*
D03*
Y65750D02*
D03*
Y58640D02*
D03*
X341159Y72860D02*
D03*
Y65750D02*
D03*
Y58640D02*
D03*
X175000Y234000D02*
D03*
X82000Y233000D02*
D03*
X112000Y230000D02*
D03*
X247000Y94000D02*
D03*
X224000Y117000D02*
D03*
X203000Y144000D02*
D03*
X212250Y145250D02*
D03*
X204000Y169000D02*
D03*
X234000Y173000D02*
D03*
X228000Y180000D02*
D03*
X240000Y140000D02*
D03*
X233000Y129000D02*
D03*
X218500Y203500D02*
D03*
X191000Y179000D02*
D03*
X183000Y184000D02*
D03*
X329000Y217000D02*
D03*
X247524Y214524D02*
D03*
X204000Y111000D02*
D03*
X257250Y254750D02*
D03*
X351000Y124000D02*
D03*
X345250Y193750D02*
D03*
X352999Y185000D02*
D03*
X329000Y256000D02*
D03*
X428000Y244000D02*
D03*
X398000Y268000D02*
D03*
X160000Y21000D02*
D03*
X160000Y27000D02*
D03*
X318250Y154750D02*
D03*
X329000Y135000D02*
D03*
X275999Y177000D02*
D03*
X268000Y161000D02*
D03*
X271000Y170000D02*
D03*
X279000Y189000D02*
D03*
X388000Y255000D02*
D03*
X378000Y254000D02*
D03*
X359000Y254000D02*
D03*
D56*
X221000Y67000D02*
D03*
X266000Y84000D02*
D03*
X255000Y84000D02*
D03*
X215000Y80000D02*
D03*
D57*
X81000Y16000D02*
D03*
X96250Y17000D02*
D03*
X245194Y66194D02*
D03*
X257000D02*
D03*
X269000Y66000D02*
D03*
M02*
