G04 Layer_Physical_Order=4*
G04 Layer_Color=16711680*
%FSLAX44Y44*%
%MOMM*%
G71*
G01*
G75*
%ADD17R,1.1000X1.0500*%
%ADD20R,1.0500X0.9000*%
%ADD22R,0.9000X1.0500*%
%ADD30C,0.3000*%
%ADD31C,0.2000*%
%ADD32C,0.4000*%
%ADD33C,0.6000*%
%ADD34C,0.8000*%
%ADD35C,0.2500*%
%ADD36C,1.3500*%
%ADD37R,1.3500X1.3500*%
%ADD38C,2.0000*%
%ADD39C,5.0000*%
%ADD40R,1.5000X1.5000*%
%ADD41C,1.5000*%
%ADD42C,0.9000*%
%ADD43C,0.6000*%
%ADD44C,1.2000*%
%ADD59R,1.2000X1.1000*%
%ADD60R,1.6000X1.9000*%
%ADD61R,3.8000X1.0000*%
%ADD62R,9.3000X10.4000*%
%ADD63C,0.1524*%
%ADD64R,2.5000X4.2000*%
D17*
X309000Y152250D02*
D03*
Y165750D02*
D03*
D20*
X415000Y296000D02*
D03*
Y282000D02*
D03*
D22*
X154250Y221000D02*
D03*
X168250D02*
D03*
X128786Y207000D02*
D03*
X114786D02*
D03*
X129000Y221000D02*
D03*
X115000D02*
D03*
X82000Y206000D02*
D03*
X96000D02*
D03*
X96000Y221000D02*
D03*
X82000D02*
D03*
X174000Y37000D02*
D03*
X160000D02*
D03*
X216000Y97000D02*
D03*
X230000D02*
D03*
X107000Y283000D02*
D03*
X121000D02*
D03*
D30*
X114786Y208000D02*
X117000Y205786D01*
Y190000D02*
Y205786D01*
Y190000D02*
X118000Y189000D01*
X134000Y283000D02*
X149000Y268000D01*
X121000Y283000D02*
X134000D01*
X318250Y152250D02*
Y154750D01*
X310000Y135000D02*
X329000D01*
X285000Y160000D02*
X310000Y135000D01*
X285000Y160000D02*
Y183000D01*
X279000Y189000D02*
X285000Y183000D01*
X309000Y152250D02*
X318250D01*
D31*
X128000Y179000D02*
X178000Y129000D01*
X120188Y179000D02*
X128000D01*
X105000Y194188D02*
X120188Y179000D01*
X178000Y129000D02*
X233000D01*
X105000Y194188D02*
Y221000D01*
X287460Y149524D02*
X319436Y117548D01*
X286000Y146000D02*
X317976Y114024D01*
X409000Y241000D02*
X420000D01*
X429000Y232000D01*
X168250Y229250D02*
X173000Y234000D01*
X168250Y221000D02*
Y229250D01*
X161000Y179000D02*
Y207000D01*
X154250Y213750D02*
X161000Y207000D01*
X154250Y213750D02*
Y221000D01*
Y229250D01*
X161000Y236000D01*
Y275000D01*
X138274Y228726D02*
X140000Y227000D01*
X150000Y184000D02*
Y202000D01*
X150000D02*
X150000D01*
X143024Y208976D02*
X150000Y202000D01*
X143024Y208976D02*
Y223960D01*
X140000Y226984D02*
X143024Y223960D01*
X140000Y226984D02*
Y227000D01*
X146000Y181000D02*
Y200000D01*
X129000Y233000D02*
X139500Y222500D01*
Y206500D02*
X146000Y200000D01*
X139500Y206500D02*
Y222500D01*
X82000Y221000D02*
Y233000D01*
X105000Y221000D02*
Y232000D01*
X96000Y221000D02*
X105000D01*
X82000D02*
X96000Y207000D01*
X169000Y117000D02*
X224000D01*
X58000Y228000D02*
Y257000D01*
X89000Y248000D02*
X105000Y232000D01*
X112000Y224000D02*
Y230000D01*
Y224000D02*
X115000Y221000D01*
X131500Y184500D02*
X179000Y137000D01*
X146000Y181000D02*
X183000Y144000D01*
X129000Y221000D02*
Y233000D01*
Y248000D01*
X150000Y184000D02*
X182000Y152000D01*
X183000Y144000D02*
X203000D01*
X138274Y228726D02*
Y258726D01*
X107000Y270000D02*
X109000Y268000D01*
X107000Y270000D02*
Y283000D01*
X145226Y290774D02*
X161000Y275000D01*
X98774Y290774D02*
X145226D01*
X89000Y268000D02*
Y281000D01*
X98774Y290774D01*
X109000Y248000D02*
X117000Y240000D01*
X265000Y94000D02*
X271000Y100000D01*
X247000Y94000D02*
X265000D01*
X58000Y257000D02*
X69000Y268000D01*
X271000Y100000D02*
Y131000D01*
X261000Y141000D02*
X271000Y131000D01*
X247000Y141000D02*
X261000D01*
X236000Y152000D02*
X247000Y141000D01*
X182000Y152000D02*
X236000D01*
X179000Y137000D02*
X237000D01*
X240000Y140000D01*
X161000Y179000D02*
X171000Y169000D01*
X204000D01*
X234000Y164985D02*
Y173000D01*
Y164985D02*
X234000Y164985D01*
X228000Y166000D02*
X248000Y146000D01*
X228000Y166000D02*
Y180000D01*
X234000Y164984D02*
X234000Y164985D01*
X234000Y164984D02*
X249460Y149524D01*
X129000Y268000D02*
X138274Y258726D01*
X196400Y225600D02*
Y312800D01*
Y225600D02*
X218500Y203500D01*
X226000Y193343D02*
Y252657D01*
X230000Y195000D02*
Y251000D01*
X326524Y214524D02*
X329000Y217000D01*
X247524Y214524D02*
X326524D01*
X351000Y124000D02*
Y179000D01*
X352999Y180999D02*
Y185000D01*
X351000Y179000D02*
X352999Y180999D01*
X356000Y196688D02*
Y197000D01*
X226000Y193343D02*
X232343Y187000D01*
X230000Y251000D02*
X242000Y263000D01*
X226000Y252657D02*
X240343Y267000D01*
X232343Y187000D02*
X245000D01*
X260000Y169000D02*
Y172000D01*
X245000Y187000D02*
X260000Y172000D01*
X245000Y199000D02*
X253999D01*
X237000Y207000D02*
X245000Y199000D01*
X237000Y207000D02*
Y233000D01*
X248000Y244000D01*
X317000D01*
X329000Y256000D01*
X248000Y146000D02*
X286000D01*
X249460Y149524D02*
X287460D01*
X429000Y133000D02*
Y232000D01*
X428000Y244000D02*
X432524Y239476D01*
Y131540D02*
Y239476D01*
X398000Y252000D02*
X409000Y241000D01*
X398000Y252000D02*
Y268000D01*
X230000Y195000D02*
X234000Y191000D01*
X249000D01*
X270000Y170000D01*
X253999Y199000D02*
X275999Y177000D01*
X260000Y169000D02*
X268000Y161000D01*
X270000Y170000D02*
X271000D01*
X242000Y263000D02*
X358000D01*
X240343Y267000D02*
X365000D01*
X378000Y254000D01*
X372524Y248476D02*
X381476D01*
X388000Y255000D01*
X358000Y263000D02*
X372524Y248476D01*
X413548Y117548D02*
X429000Y133000D01*
X319436Y117548D02*
X361640D01*
X362712Y116476D01*
X367288D01*
X368360Y117548D01*
X413548D01*
X317976Y114024D02*
X360180D01*
X361252Y112952D01*
X368748D01*
X369820Y114024D01*
X415008D01*
X432524Y131540D01*
X58000Y228000D02*
X169000Y117000D01*
X96000Y207000D02*
X96000D01*
D32*
X294750Y127000D02*
X319750Y102000D01*
X282750Y127000D02*
X294750D01*
X410000Y296000D02*
X415000D01*
X400000Y286000D02*
X410000Y296000D01*
X400000Y285000D02*
Y286000D01*
X295000Y58000D02*
X296000D01*
X308000Y46000D01*
X337000Y80000D02*
Y84750D01*
X319750Y102000D02*
X337000Y84750D01*
X296250Y165750D02*
X309000D01*
X160000Y27000D02*
Y37000D01*
X174000D02*
X181000D01*
X192000Y26000D01*
X205000D01*
D33*
X253250Y121750D02*
X263000Y112000D01*
X253250Y121750D02*
Y127000D01*
X255000Y84000D02*
X266000D01*
X255000Y84000D02*
X255000Y84000D01*
X273000Y28000D02*
Y30000D01*
Y20000D02*
Y28000D01*
Y13000D02*
Y20000D01*
Y13000D02*
X282000D01*
X273000Y30000D02*
X300600D01*
X301000Y29600D01*
X95250Y16000D02*
X96250Y17000D01*
X81000Y16000D02*
X95250D01*
X96250Y17000D02*
X140250Y61000D01*
X226000Y58000D02*
X228000D01*
X230000Y97000D02*
X243000Y84000D01*
X255000D01*
X215000Y74000D02*
Y80000D01*
X228000Y58000D02*
Y61000D01*
X269000Y66000D02*
X277476Y74476D01*
Y89274D01*
X290202Y102000D02*
X290250D01*
X277476Y89274D02*
X290202Y102000D01*
X215000Y74000D02*
X228000Y61000D01*
X216000Y74000D02*
Y97000D01*
D34*
X295000Y58000D02*
X301000Y64000D01*
X288000Y51000D02*
X295000Y58000D01*
X394000Y137000D02*
Y145000D01*
X416000Y167000D01*
Y221000D01*
X301000Y64000D02*
Y80400D01*
X268000Y51000D02*
X288000D01*
X243000Y26000D02*
X268000Y51000D01*
X228000Y26000D02*
X243000D01*
X202000Y61000D02*
X205000Y58000D01*
X169750Y61000D02*
X202000D01*
X415000Y222000D02*
X416000Y221000D01*
Y253000D02*
Y281000D01*
X415000Y282000D02*
X416000Y281000D01*
X205000Y58000D02*
X228000Y35000D01*
Y26000D02*
Y35000D01*
D35*
X180608Y236557D02*
Y271534D01*
Y236557D02*
X180774Y236392D01*
Y231608D02*
Y236392D01*
X180608Y231443D02*
X180774Y231608D01*
X180608Y189774D02*
Y231443D01*
X177226Y186392D02*
X180608Y189774D01*
X177226Y181608D02*
Y186392D01*
Y181608D02*
X180608Y178226D01*
X168700Y283443D02*
X180608Y271534D01*
X182550Y299450D02*
X187000Y295000D01*
Y188000D02*
Y295000D01*
X183000Y184000D02*
X187000Y188000D01*
X180608Y178226D02*
X190226D01*
X191000Y179000D01*
X168700Y283443D02*
Y312800D01*
X182550Y299450D02*
Y341200D01*
D36*
X149000Y268000D02*
D03*
X129000D02*
D03*
X109000D02*
D03*
X89000D02*
D03*
X69000D02*
D03*
X149000Y248000D02*
D03*
X129000D02*
D03*
X109000D02*
D03*
X89000D02*
D03*
D37*
X69000D02*
D03*
D38*
X99450Y341200D02*
D03*
X127150D02*
D03*
X154850D02*
D03*
X182550D02*
D03*
X210250D02*
D03*
X113300Y312800D02*
D03*
X141000D02*
D03*
X168700D02*
D03*
X196400D02*
D03*
D39*
X29900Y327000D02*
D03*
X279800D02*
D03*
D40*
X481000Y25600D02*
D03*
D41*
X455600D02*
D03*
X481000Y51000D02*
D03*
X455600D02*
D03*
X481000Y76400D02*
D03*
X455600D02*
D03*
X481000Y101800D02*
D03*
X455600D02*
D03*
X481000Y127200D02*
D03*
X455600D02*
D03*
X481000Y152600D02*
D03*
X455600D02*
D03*
X481000Y178000D02*
D03*
X455600D02*
D03*
X481000Y203400D02*
D03*
X455600D02*
D03*
D42*
X396250Y330500D02*
D03*
X352250D02*
D03*
D43*
X462950Y14950D02*
D03*
X130000Y164000D02*
D03*
X325000Y87000D02*
D03*
X400000Y285000D02*
D03*
X403000Y302000D02*
D03*
X308000Y46000D02*
D03*
X348269Y51530D02*
D03*
X341159D02*
D03*
X394000Y137000D02*
D03*
X365000Y122000D02*
D03*
X340000Y103000D02*
D03*
X348269Y72860D02*
D03*
Y65750D02*
D03*
Y58640D02*
D03*
X341159Y72860D02*
D03*
Y65750D02*
D03*
Y58640D02*
D03*
X273000Y20000D02*
D03*
Y28000D02*
D03*
X282000Y13000D02*
D03*
X273000D02*
D03*
X175000Y234000D02*
D03*
X82000Y233000D02*
D03*
X112000Y230000D02*
D03*
X138000Y197000D02*
D03*
X117000Y190000D02*
D03*
X247000Y94000D02*
D03*
X224000Y117000D02*
D03*
X203000Y144000D02*
D03*
X212250Y145250D02*
D03*
X204000Y169000D02*
D03*
X234000Y173000D02*
D03*
X228000Y180000D02*
D03*
X240000Y140000D02*
D03*
X233000Y129000D02*
D03*
X263000Y112000D02*
D03*
X218500Y203500D02*
D03*
X145000Y232000D02*
D03*
X191000Y179000D02*
D03*
X183000Y184000D02*
D03*
X296250Y165750D02*
D03*
X465500Y335500D02*
D03*
X329000Y217000D02*
D03*
X247524Y214524D02*
D03*
X204000Y99000D02*
D03*
Y111000D02*
D03*
X270750Y255000D02*
D03*
X257250Y254750D02*
D03*
X211250Y158750D02*
D03*
X351000Y124000D02*
D03*
X411000Y142000D02*
D03*
X401500Y197500D02*
D03*
X351250Y302250D02*
D03*
X325000Y375000D02*
D03*
X423500Y373500D02*
D03*
X345250Y193750D02*
D03*
X352999Y185000D02*
D03*
X356000Y197000D02*
D03*
X344250Y302250D02*
D03*
X329000Y256000D02*
D03*
X428000Y244000D02*
D03*
X398000Y268000D02*
D03*
X160000Y21000D02*
D03*
X160000Y27000D02*
D03*
X187000Y78000D02*
D03*
X191763Y73238D02*
D03*
X318250Y154750D02*
D03*
X329000Y135000D02*
D03*
X275999Y177000D02*
D03*
X268000Y161000D02*
D03*
X271000Y170000D02*
D03*
X279000Y189000D02*
D03*
X388000Y255000D02*
D03*
X378000Y254000D02*
D03*
X359000Y254000D02*
D03*
X100000Y67000D02*
D03*
Y72000D02*
D03*
D44*
X221000Y67000D02*
D03*
X266000Y84000D02*
D03*
X81000Y16000D02*
D03*
X96250Y17000D02*
D03*
X245194Y66194D02*
D03*
X255000Y84000D02*
D03*
X257000Y66194D02*
D03*
X269000Y66000D02*
D03*
X215000Y80000D02*
D03*
D59*
X416000Y221000D02*
D03*
Y253000D02*
D03*
X205000Y58000D02*
D03*
Y26000D02*
D03*
X228000Y26000D02*
D03*
Y58000D02*
D03*
D60*
X169750Y61000D02*
D03*
X140250D02*
D03*
X282750Y127000D02*
D03*
X253250D02*
D03*
X319750Y102000D02*
D03*
X290250D02*
D03*
D61*
X301000Y31600D02*
D03*
Y82400D02*
D03*
D62*
X399500Y57000D02*
D03*
D63*
X121786Y215000D02*
Y235214D01*
X117000Y240000D02*
X121786Y235214D01*
X128786Y187214D02*
X131500Y184500D01*
X121786Y215000D02*
X128786Y208000D01*
Y187214D02*
Y207000D01*
Y208000D01*
D64*
X345500Y60000D02*
D03*
M02*
