M48
;Layer_Color=9474304
;FILE_FORMAT=4:3
METRIC,LZ
;TYPE=PLATED
T1F00S00C0.300
T2F00S00C0.600
T3F00S00C0.810
T4F00S00C1.600
;TYPE=NON_PLATED
T5F00S00C0.900
%
T01
X0013Y00041
X00132Y00069
X00112Y00134
X00197Y00123
X0021
X00222Y0012
X00248Y00125
X002535Y001065
X00273Y00103
X00333Y00111
X00321Y00124
X00365Y00095
X00366Y00055
X00415Y00075
X00439Y00068
X00451Y00118
X00493Y00104
X00516Y00061
X00415Y0014
X00554Y000935
X00552Y00039
X00587Y00059
X0055Y00194
X00643Y00195
X00613Y00273
X00602Y00283
X00588Y0027681
X00549Y00304
Y0032
X00587Y00356
X00594Y00371
X00521Y00321
X00515Y00314
X00472Y00334
X00434Y00328
X00404Y00319
X0044Y00292
X00447Y00278
X0044127Y0026891
X00447Y00262
X00446Y00244
X00432Y00257
X00403Y0024
X00355
X00312Y00241
X00308Y00233
X00312Y00225
X00341Y00204
X00332Y00157
X0029941Y0016041
X0029376Y0015476
X00269Y00164
X0026295Y0018095
X00252Y00209
X002535Y00217
X0025167Y0022531
X00218Y00216
X00214Y00249
Y00257
X00228Y00264
X00232Y00249
X0019659Y002405
X00189Y00241
X00175Y00225
X0015925Y00234
X001555Y002465
X001455Y002715
X00142Y00202
X00191Y0017
X00232Y00293
X00247Y00307
X0025952Y0029627
X00284Y00303
X00282Y00314
X00242Y00377
X0030411Y0040289
X00351Y00358
X00408Y00407
X00422Y00206
X00457Y00196
X00474Y00143
X001795Y003225
X00176Y00348
X00134Y00355
X00113Y00267
X0011192Y0021278
X0010525Y0021675
X0013707Y0022129
X00141Y00228
X00075Y00204
X0008Y00165
X00089Y00156
X0003Y00152
T02
X00285Y0004
X00364Y00037
X00451Y00041
X00237Y00119
X001495Y001515
X00145Y00366
X00423Y00332
X00474Y00363
X00093Y00354
X00045Y00352
X00047Y00276
X00111Y00318
T03
X00041Y00038
X00061
Y00058
Y00078
Y00098
Y00118
X00041
Y00098
Y00078
Y00058
T04
X006195Y00107
X007545
X00687Y001745
X007545Y00321
X00687Y003885
X006195Y00321
T05
X0005925Y00261
Y00305
M30
